M48
;DRILL file {KiCad 5.0.2-bee76a0~70~ubuntu18.04.1} date ven 13 dic 2019 20:17:04 CET
;FORMAT={-:-/ absolute / inch / decimal}
FMAT,2
INCH,TZ
T1C0.0300
T2C0.0315
T3C0.0394
T4C0.0433
%
G90
G05
T1
X5.68Y-2.33
X5.68Y-2.43
X5.68Y-2.53
X5.68Y-2.63
X5.68Y-2.73
X5.68Y-2.83
X5.68Y-2.93
X5.68Y-3.03
X5.68Y-3.13
X5.68Y-3.23
X5.68Y-3.33
X5.68Y-3.43
X5.68Y-3.53
X5.68Y-3.63
X5.68Y-3.73
X6.78Y-2.33
X6.78Y-2.43
X6.78Y-2.53
X6.78Y-2.63
X6.78Y-2.73
X6.78Y-2.83
X6.78Y-2.93
X6.78Y-3.03
X6.78Y-3.13
X6.78Y-3.23
X6.78Y-3.33
X6.78Y-3.43
X6.78Y-3.53
X6.78Y-3.63
X6.78Y-3.73
T2
X6.59Y-2.88
X6.59Y-3.18
X6.31Y-2.
X6.31Y-2.1969
X6.9119Y-2.02
X7.03Y-2.02
X6.09Y-2.31
X6.39Y-2.31
X6.59Y-3.31
X6.59Y-3.61
X6.56Y-2.44
X6.56Y-2.74
X5.92Y-2.44
X5.92Y-2.74
T3
X6.52Y-2.13
X6.7169Y-2.13
X6.25Y-3.31
X6.25Y-3.6092
X5.82Y-2.05
X5.92Y-2.05
X6.02Y-2.05
X6.12Y-2.05
X6.92Y-3.9
X7.02Y-3.9
X7.12Y-3.9
X7.22Y-3.9
X5.56Y-2.33
X5.56Y-2.43
X5.56Y-2.53
X5.56Y-2.63
X5.56Y-2.73
X5.56Y-2.83
X5.56Y-2.93
X5.56Y-3.03
X5.56Y-3.13
X5.56Y-3.23
X5.56Y-3.33
X5.56Y-3.43
X5.56Y-3.53
X5.56Y-3.63
X5.56Y-3.73
X6.9Y-2.33
X6.9Y-2.43
X6.9Y-2.53
X6.9Y-2.63
X6.9Y-2.73
X6.9Y-2.83
X6.9Y-2.93
X6.9Y-3.03
X6.9Y-3.13
X6.9Y-3.23
X6.9Y-3.33
X6.9Y-3.43
X6.9Y-3.53
X6.9Y-3.63
X6.9Y-3.73
X7.06Y-2.67
X7.16Y-2.67
X7.26Y-2.67
X7.06Y-3.69
X7.16Y-3.69
X7.26Y-3.69
X7.06Y-3.43
X7.16Y-3.43
X7.26Y-3.43
X7.18Y-2.91
X7.28Y-2.91
X7.18Y-3.2
X7.28Y-3.2
T4
X7.21Y-2.27
X7.21Y-2.37
X7.21Y-2.47
X7.04Y-2.89
X7.04Y-3.29
T2
X5.751Y-3.9114G85X5.751Y-3.8248
G05
X5.9912Y-3.75G85X5.8888Y-3.75
G05
X5.9833Y-3.9783G85X5.8967Y-3.9783
G05
T0
M30
