G04 #@! TF.GenerationSoftware,KiCad,Pcbnew,5.0.2-bee76a0~70~ubuntu18.04.1*
G04 #@! TF.CreationDate,2020-02-03T20:23:13+01:00*
G04 #@! TF.ProjectId,ESP8266-LolinV3-Lamp,45535038-3236-4362-9d4c-6f6c696e5633,2.0*
G04 #@! TF.SameCoordinates,Original*
G04 #@! TF.FileFunction,Soldermask,Top*
G04 #@! TF.FilePolarity,Negative*
%FSLAX46Y46*%
G04 Gerber Fmt 4.6, Leading zero omitted, Abs format (unit mm)*
G04 Created by KiCad (PCBNEW 5.0.2-bee76a0~70~ubuntu18.04.1) date lun 03 feb 2020 20:23:13 CET*
%MOMM*%
%LPD*%
G01*
G04 APERTURE LIST*
%ADD10C,0.100000*%
G04 APERTURE END LIST*
D10*
G36*
X184468433Y-102266893D02*
X184558657Y-102284839D01*
X184664267Y-102328585D01*
X184813621Y-102390449D01*
X185043089Y-102543774D01*
X185238226Y-102738911D01*
X185391551Y-102968379D01*
X185497161Y-103223344D01*
X185551000Y-103494012D01*
X185551000Y-103769988D01*
X185497161Y-104040656D01*
X185391551Y-104295621D01*
X185238226Y-104525089D01*
X185043089Y-104720226D01*
X184813621Y-104873551D01*
X184664267Y-104935415D01*
X184558657Y-104979161D01*
X184468433Y-104997107D01*
X184287988Y-105033000D01*
X184012012Y-105033000D01*
X183831567Y-104997107D01*
X183741343Y-104979161D01*
X183635733Y-104935415D01*
X183486379Y-104873551D01*
X183256911Y-104720226D01*
X183061774Y-104525089D01*
X182908449Y-104295621D01*
X182802839Y-104040656D01*
X182749000Y-103769988D01*
X182749000Y-103494012D01*
X182802839Y-103223344D01*
X182908449Y-102968379D01*
X183061774Y-102738911D01*
X183256911Y-102543774D01*
X183486379Y-102390449D01*
X183635733Y-102328585D01*
X183741343Y-102284839D01*
X183831567Y-102266893D01*
X184012012Y-102231000D01*
X184287988Y-102231000D01*
X184468433Y-102266893D01*
X184468433Y-102266893D01*
G37*
G36*
X142812433Y-102266893D02*
X142902657Y-102284839D01*
X143008267Y-102328585D01*
X143157621Y-102390449D01*
X143387089Y-102543774D01*
X143582226Y-102738911D01*
X143735551Y-102968379D01*
X143841161Y-103223344D01*
X143895000Y-103494012D01*
X143895000Y-103769988D01*
X143841161Y-104040656D01*
X143735551Y-104295621D01*
X143582226Y-104525089D01*
X143387089Y-104720226D01*
X143157621Y-104873551D01*
X143008267Y-104935415D01*
X142902657Y-104979161D01*
X142812433Y-104997107D01*
X142631988Y-105033000D01*
X142356012Y-105033000D01*
X142175567Y-104997107D01*
X142085343Y-104979161D01*
X141979733Y-104935415D01*
X141830379Y-104873551D01*
X141600911Y-104720226D01*
X141405774Y-104525089D01*
X141252449Y-104295621D01*
X141146839Y-104040656D01*
X141093000Y-103769988D01*
X141093000Y-103494012D01*
X141146839Y-103223344D01*
X141252449Y-102968379D01*
X141405774Y-102738911D01*
X141600911Y-102543774D01*
X141830379Y-102390449D01*
X141979733Y-102328585D01*
X142085343Y-102284839D01*
X142175567Y-102266893D01*
X142356012Y-102231000D01*
X142631988Y-102231000D01*
X142812433Y-102266893D01*
X142812433Y-102266893D01*
G37*
G36*
X152162425Y-100112760D02*
X152162428Y-100112761D01*
X152162429Y-100112761D01*
X152341693Y-100167140D01*
X152341695Y-100167141D01*
X152506905Y-100255448D01*
X152651712Y-100374288D01*
X152770552Y-100519095D01*
X152858859Y-100684305D01*
X152913240Y-100863575D01*
X152931601Y-101050000D01*
X152913240Y-101236425D01*
X152858859Y-101415695D01*
X152770552Y-101580905D01*
X152651712Y-101725712D01*
X152506905Y-101844552D01*
X152506903Y-101844553D01*
X152341693Y-101932860D01*
X152162429Y-101987239D01*
X152162428Y-101987239D01*
X152162425Y-101987240D01*
X152022718Y-102001000D01*
X149729282Y-102001000D01*
X149589575Y-101987240D01*
X149589572Y-101987239D01*
X149589571Y-101987239D01*
X149410307Y-101932860D01*
X149245097Y-101844553D01*
X149245095Y-101844552D01*
X149100288Y-101725712D01*
X148981448Y-101580905D01*
X148893141Y-101415695D01*
X148838760Y-101236425D01*
X148820399Y-101050000D01*
X148838760Y-100863575D01*
X148893141Y-100684305D01*
X148981448Y-100519095D01*
X149100288Y-100374288D01*
X149245095Y-100255448D01*
X149410305Y-100167141D01*
X149410307Y-100167140D01*
X149589571Y-100112761D01*
X149589572Y-100112761D01*
X149589575Y-100112760D01*
X149729282Y-100099000D01*
X152022718Y-100099000D01*
X152162425Y-100112760D01*
X152162425Y-100112760D01*
G37*
G36*
X146262424Y-96212760D02*
X146262427Y-96212761D01*
X146262428Y-96212761D01*
X146441692Y-96267140D01*
X146441694Y-96267141D01*
X146441697Y-96267142D01*
X146606904Y-96355446D01*
X146751712Y-96474288D01*
X146870552Y-96619095D01*
X146958859Y-96784305D01*
X147013240Y-96963575D01*
X147027000Y-97103282D01*
X147027000Y-99396718D01*
X147013240Y-99536425D01*
X147013239Y-99536428D01*
X147013239Y-99536429D01*
X147005182Y-99562991D01*
X146958859Y-99715695D01*
X146870552Y-99880905D01*
X146751712Y-100025712D01*
X146606905Y-100144552D01*
X146606903Y-100144553D01*
X146441693Y-100232860D01*
X146262429Y-100287239D01*
X146262428Y-100287239D01*
X146262425Y-100287240D01*
X146076000Y-100305601D01*
X145889576Y-100287240D01*
X145889573Y-100287239D01*
X145889572Y-100287239D01*
X145710308Y-100232860D01*
X145545098Y-100144553D01*
X145545096Y-100144552D01*
X145400289Y-100025712D01*
X145281449Y-99880905D01*
X145193142Y-99715695D01*
X145146820Y-99562991D01*
X145138762Y-99536429D01*
X145138762Y-99536428D01*
X145138761Y-99536425D01*
X145125001Y-99396718D01*
X145125000Y-97103283D01*
X145138760Y-96963576D01*
X145138761Y-96963572D01*
X145193140Y-96784308D01*
X145193141Y-96784306D01*
X145193142Y-96784303D01*
X145281446Y-96619096D01*
X145400288Y-96474288D01*
X145545095Y-96355448D01*
X145710305Y-96267141D01*
X145710307Y-96267140D01*
X145889571Y-96212761D01*
X145889572Y-96212761D01*
X145889575Y-96212760D01*
X146076000Y-96194399D01*
X146262424Y-96212760D01*
X146262424Y-96212760D01*
G37*
G36*
X180958443Y-98165519D02*
X181024627Y-98172037D01*
X181137853Y-98206384D01*
X181194467Y-98223557D01*
X181333087Y-98297652D01*
X181350991Y-98307222D01*
X181386729Y-98336552D01*
X181488186Y-98419814D01*
X181571448Y-98521271D01*
X181600778Y-98557009D01*
X181600779Y-98557011D01*
X181684443Y-98713533D01*
X181684443Y-98713534D01*
X181735963Y-98883373D01*
X181753359Y-99060000D01*
X181735963Y-99236627D01*
X181701616Y-99349853D01*
X181684443Y-99406467D01*
X181614978Y-99536425D01*
X181600778Y-99562991D01*
X181571448Y-99598729D01*
X181488186Y-99700186D01*
X181386729Y-99783448D01*
X181350991Y-99812778D01*
X181350989Y-99812779D01*
X181194467Y-99896443D01*
X181137853Y-99913616D01*
X181024627Y-99947963D01*
X180958443Y-99954481D01*
X180892260Y-99961000D01*
X180803740Y-99961000D01*
X180737557Y-99954481D01*
X180671373Y-99947963D01*
X180558147Y-99913616D01*
X180501533Y-99896443D01*
X180345011Y-99812779D01*
X180345009Y-99812778D01*
X180309271Y-99783448D01*
X180207814Y-99700186D01*
X180124552Y-99598729D01*
X180095222Y-99562991D01*
X180081022Y-99536425D01*
X180011557Y-99406467D01*
X179994384Y-99349853D01*
X179960037Y-99236627D01*
X179942641Y-99060000D01*
X179960037Y-98883373D01*
X180011557Y-98713534D01*
X180011557Y-98713533D01*
X180095221Y-98557011D01*
X180095222Y-98557009D01*
X180124552Y-98521271D01*
X180207814Y-98419814D01*
X180309271Y-98336552D01*
X180345009Y-98307222D01*
X180362913Y-98297652D01*
X180501533Y-98223557D01*
X180558147Y-98206384D01*
X180671373Y-98172037D01*
X180737557Y-98165519D01*
X180803740Y-98159000D01*
X180892260Y-98159000D01*
X180958443Y-98165519D01*
X180958443Y-98165519D01*
G37*
G36*
X178418443Y-98165519D02*
X178484627Y-98172037D01*
X178597853Y-98206384D01*
X178654467Y-98223557D01*
X178793087Y-98297652D01*
X178810991Y-98307222D01*
X178846729Y-98336552D01*
X178948186Y-98419814D01*
X179031448Y-98521271D01*
X179060778Y-98557009D01*
X179060779Y-98557011D01*
X179144443Y-98713533D01*
X179144443Y-98713534D01*
X179195963Y-98883373D01*
X179213359Y-99060000D01*
X179195963Y-99236627D01*
X179161616Y-99349853D01*
X179144443Y-99406467D01*
X179074978Y-99536425D01*
X179060778Y-99562991D01*
X179031448Y-99598729D01*
X178948186Y-99700186D01*
X178846729Y-99783448D01*
X178810991Y-99812778D01*
X178810989Y-99812779D01*
X178654467Y-99896443D01*
X178597853Y-99913616D01*
X178484627Y-99947963D01*
X178418443Y-99954481D01*
X178352260Y-99961000D01*
X178263740Y-99961000D01*
X178197557Y-99954481D01*
X178131373Y-99947963D01*
X178018147Y-99913616D01*
X177961533Y-99896443D01*
X177805011Y-99812779D01*
X177805009Y-99812778D01*
X177769271Y-99783448D01*
X177667814Y-99700186D01*
X177584552Y-99598729D01*
X177555222Y-99562991D01*
X177541022Y-99536425D01*
X177471557Y-99406467D01*
X177454384Y-99349853D01*
X177420037Y-99236627D01*
X177402641Y-99060000D01*
X177420037Y-98883373D01*
X177471557Y-98713534D01*
X177471557Y-98713533D01*
X177555221Y-98557011D01*
X177555222Y-98557009D01*
X177584552Y-98521271D01*
X177667814Y-98419814D01*
X177769271Y-98336552D01*
X177805009Y-98307222D01*
X177822913Y-98297652D01*
X177961533Y-98223557D01*
X178018147Y-98206384D01*
X178131373Y-98172037D01*
X178197557Y-98165519D01*
X178263740Y-98159000D01*
X178352260Y-98159000D01*
X178418443Y-98165519D01*
X178418443Y-98165519D01*
G37*
G36*
X176669000Y-99961000D02*
X174867000Y-99961000D01*
X174867000Y-98159000D01*
X176669000Y-98159000D01*
X176669000Y-99961000D01*
X176669000Y-99961000D01*
G37*
G36*
X183498443Y-98165519D02*
X183564627Y-98172037D01*
X183677853Y-98206384D01*
X183734467Y-98223557D01*
X183873087Y-98297652D01*
X183890991Y-98307222D01*
X183926729Y-98336552D01*
X184028186Y-98419814D01*
X184111448Y-98521271D01*
X184140778Y-98557009D01*
X184140779Y-98557011D01*
X184224443Y-98713533D01*
X184224443Y-98713534D01*
X184275963Y-98883373D01*
X184293359Y-99060000D01*
X184275963Y-99236627D01*
X184241616Y-99349853D01*
X184224443Y-99406467D01*
X184154978Y-99536425D01*
X184140778Y-99562991D01*
X184111448Y-99598729D01*
X184028186Y-99700186D01*
X183926729Y-99783448D01*
X183890991Y-99812778D01*
X183890989Y-99812779D01*
X183734467Y-99896443D01*
X183677853Y-99913616D01*
X183564627Y-99947963D01*
X183498443Y-99954481D01*
X183432260Y-99961000D01*
X183343740Y-99961000D01*
X183277557Y-99954481D01*
X183211373Y-99947963D01*
X183098147Y-99913616D01*
X183041533Y-99896443D01*
X182885011Y-99812779D01*
X182885009Y-99812778D01*
X182849271Y-99783448D01*
X182747814Y-99700186D01*
X182664552Y-99598729D01*
X182635222Y-99562991D01*
X182621022Y-99536425D01*
X182551557Y-99406467D01*
X182534384Y-99349853D01*
X182500037Y-99236627D01*
X182482641Y-99060000D01*
X182500037Y-98883373D01*
X182551557Y-98713534D01*
X182551557Y-98713533D01*
X182635221Y-98557011D01*
X182635222Y-98557009D01*
X182664552Y-98521271D01*
X182747814Y-98419814D01*
X182849271Y-98336552D01*
X182885009Y-98307222D01*
X182902913Y-98297652D01*
X183041533Y-98223557D01*
X183098147Y-98206384D01*
X183211373Y-98172037D01*
X183277557Y-98165519D01*
X183343740Y-98159000D01*
X183432260Y-98159000D01*
X183498443Y-98165519D01*
X183498443Y-98165519D01*
G37*
G36*
X153127000Y-96201000D02*
X148625000Y-96201000D01*
X148625000Y-94299000D01*
X153127000Y-94299000D01*
X153127000Y-96201000D01*
X153127000Y-96201000D01*
G37*
G36*
X176161000Y-95643000D02*
X174359000Y-95643000D01*
X174359000Y-93841000D01*
X176161000Y-93841000D01*
X176161000Y-95643000D01*
X176161000Y-95643000D01*
G37*
G36*
X141334443Y-93847519D02*
X141400627Y-93854037D01*
X141513853Y-93888384D01*
X141570467Y-93905557D01*
X141672774Y-93960242D01*
X141726991Y-93989222D01*
X141762729Y-94018552D01*
X141864186Y-94101814D01*
X141947448Y-94203271D01*
X141976778Y-94239009D01*
X141976779Y-94239011D01*
X142060443Y-94395533D01*
X142060443Y-94395534D01*
X142111963Y-94565373D01*
X142129359Y-94742000D01*
X142111963Y-94918627D01*
X142077616Y-95031853D01*
X142060443Y-95088467D01*
X141986348Y-95227087D01*
X141976778Y-95244991D01*
X141947448Y-95280729D01*
X141864186Y-95382186D01*
X141766358Y-95462470D01*
X141726991Y-95494778D01*
X141726989Y-95494779D01*
X141570467Y-95578443D01*
X141513853Y-95595616D01*
X141400627Y-95629963D01*
X141334442Y-95636482D01*
X141268260Y-95643000D01*
X141179740Y-95643000D01*
X141113558Y-95636482D01*
X141047373Y-95629963D01*
X140934147Y-95595616D01*
X140877533Y-95578443D01*
X140721011Y-95494779D01*
X140721009Y-95494778D01*
X140681642Y-95462470D01*
X140583814Y-95382186D01*
X140500552Y-95280729D01*
X140471222Y-95244991D01*
X140461652Y-95227087D01*
X140387557Y-95088467D01*
X140370384Y-95031853D01*
X140336037Y-94918627D01*
X140318641Y-94742000D01*
X140336037Y-94565373D01*
X140387557Y-94395534D01*
X140387557Y-94395533D01*
X140471221Y-94239011D01*
X140471222Y-94239009D01*
X140500552Y-94203271D01*
X140583814Y-94101814D01*
X140685271Y-94018552D01*
X140721009Y-93989222D01*
X140775226Y-93960242D01*
X140877533Y-93905557D01*
X140934147Y-93888384D01*
X141047373Y-93854037D01*
X141113557Y-93847519D01*
X141179740Y-93841000D01*
X141268260Y-93841000D01*
X141334443Y-93847519D01*
X141334443Y-93847519D01*
G37*
G36*
X144509142Y-93960242D02*
X144657102Y-94021530D01*
X144724130Y-94066317D01*
X144790257Y-94110501D01*
X144903499Y-94223743D01*
X144947683Y-94289870D01*
X144992470Y-94356898D01*
X145053758Y-94504858D01*
X145085000Y-94661925D01*
X145085000Y-94822075D01*
X145053758Y-94979142D01*
X145008474Y-95088466D01*
X144992471Y-95127100D01*
X144903499Y-95260257D01*
X144790257Y-95373499D01*
X144724130Y-95417683D01*
X144657102Y-95462470D01*
X144509142Y-95523758D01*
X144352075Y-95555000D01*
X144191925Y-95555000D01*
X144034858Y-95523758D01*
X143886898Y-95462470D01*
X143819870Y-95417683D01*
X143753743Y-95373499D01*
X143640501Y-95260257D01*
X143551529Y-95127100D01*
X143535526Y-95088466D01*
X143490242Y-94979142D01*
X143459000Y-94822075D01*
X143459000Y-94661925D01*
X143490242Y-94504858D01*
X143551530Y-94356898D01*
X143596317Y-94289870D01*
X143640501Y-94223743D01*
X143753743Y-94110501D01*
X143819870Y-94066317D01*
X143886898Y-94021530D01*
X144034858Y-93960242D01*
X144191925Y-93929000D01*
X144352075Y-93929000D01*
X144509142Y-93960242D01*
X144509142Y-93960242D01*
G37*
G36*
X172449142Y-93960242D02*
X172597102Y-94021530D01*
X172664130Y-94066317D01*
X172730257Y-94110501D01*
X172843499Y-94223743D01*
X172887683Y-94289870D01*
X172932470Y-94356898D01*
X172993758Y-94504858D01*
X173025000Y-94661925D01*
X173025000Y-94822075D01*
X172993758Y-94979142D01*
X172948474Y-95088466D01*
X172932471Y-95127100D01*
X172843499Y-95260257D01*
X172730257Y-95373499D01*
X172664130Y-95417683D01*
X172597102Y-95462470D01*
X172449142Y-95523758D01*
X172292075Y-95555000D01*
X172131925Y-95555000D01*
X171974858Y-95523758D01*
X171826898Y-95462470D01*
X171759870Y-95417683D01*
X171693743Y-95373499D01*
X171580501Y-95260257D01*
X171491529Y-95127100D01*
X171475526Y-95088466D01*
X171430242Y-94979142D01*
X171399000Y-94822075D01*
X171399000Y-94661925D01*
X171430242Y-94504858D01*
X171491530Y-94356898D01*
X171536317Y-94289870D01*
X171580501Y-94223743D01*
X171693743Y-94110501D01*
X171759870Y-94066317D01*
X171826898Y-94021530D01*
X171974858Y-93960242D01*
X172131925Y-93929000D01*
X172292075Y-93929000D01*
X172449142Y-93960242D01*
X172449142Y-93960242D01*
G37*
G36*
X180225000Y-94627000D02*
X178423000Y-94627000D01*
X178423000Y-92825000D01*
X180225000Y-92825000D01*
X180225000Y-94627000D01*
X180225000Y-94627000D01*
G37*
G36*
X181974442Y-92831518D02*
X182040627Y-92838037D01*
X182153853Y-92872384D01*
X182210467Y-92889557D01*
X182332485Y-92954778D01*
X182366991Y-92973222D01*
X182379829Y-92983758D01*
X182504186Y-93085814D01*
X182587448Y-93187271D01*
X182616778Y-93223009D01*
X182616779Y-93223011D01*
X182700443Y-93379533D01*
X182700443Y-93379534D01*
X182751963Y-93549373D01*
X182769359Y-93726000D01*
X182751963Y-93902627D01*
X182734485Y-93960243D01*
X182700443Y-94072467D01*
X182626348Y-94211087D01*
X182616778Y-94228991D01*
X182587448Y-94264729D01*
X182504186Y-94366186D01*
X182402729Y-94449448D01*
X182366991Y-94478778D01*
X182366989Y-94478779D01*
X182210467Y-94562443D01*
X182153853Y-94579616D01*
X182040627Y-94613963D01*
X181974443Y-94620481D01*
X181908260Y-94627000D01*
X181819740Y-94627000D01*
X181753557Y-94620481D01*
X181687373Y-94613963D01*
X181574147Y-94579616D01*
X181517533Y-94562443D01*
X181361011Y-94478779D01*
X181361009Y-94478778D01*
X181325271Y-94449448D01*
X181223814Y-94366186D01*
X181140552Y-94264729D01*
X181111222Y-94228991D01*
X181101652Y-94211087D01*
X181027557Y-94072467D01*
X180993515Y-93960243D01*
X180976037Y-93902627D01*
X180958641Y-93726000D01*
X180976037Y-93549373D01*
X181027557Y-93379534D01*
X181027557Y-93379533D01*
X181111221Y-93223011D01*
X181111222Y-93223009D01*
X181140552Y-93187271D01*
X181223814Y-93085814D01*
X181348171Y-92983758D01*
X181361009Y-92973222D01*
X181395515Y-92954778D01*
X181517533Y-92889557D01*
X181574147Y-92872384D01*
X181687373Y-92838037D01*
X181753558Y-92831518D01*
X181819740Y-92825000D01*
X181908260Y-92825000D01*
X181974442Y-92831518D01*
X181974442Y-92831518D01*
G37*
G36*
X184514442Y-92831518D02*
X184580627Y-92838037D01*
X184693853Y-92872384D01*
X184750467Y-92889557D01*
X184872485Y-92954778D01*
X184906991Y-92973222D01*
X184919829Y-92983758D01*
X185044186Y-93085814D01*
X185127448Y-93187271D01*
X185156778Y-93223009D01*
X185156779Y-93223011D01*
X185240443Y-93379533D01*
X185240443Y-93379534D01*
X185291963Y-93549373D01*
X185309359Y-93726000D01*
X185291963Y-93902627D01*
X185274485Y-93960243D01*
X185240443Y-94072467D01*
X185166348Y-94211087D01*
X185156778Y-94228991D01*
X185127448Y-94264729D01*
X185044186Y-94366186D01*
X184942729Y-94449448D01*
X184906991Y-94478778D01*
X184906989Y-94478779D01*
X184750467Y-94562443D01*
X184693853Y-94579616D01*
X184580627Y-94613963D01*
X184514443Y-94620481D01*
X184448260Y-94627000D01*
X184359740Y-94627000D01*
X184293557Y-94620481D01*
X184227373Y-94613963D01*
X184114147Y-94579616D01*
X184057533Y-94562443D01*
X183901011Y-94478779D01*
X183901009Y-94478778D01*
X183865271Y-94449448D01*
X183763814Y-94366186D01*
X183680552Y-94264729D01*
X183651222Y-94228991D01*
X183641652Y-94211087D01*
X183567557Y-94072467D01*
X183533515Y-93960243D01*
X183516037Y-93902627D01*
X183498641Y-93726000D01*
X183516037Y-93549373D01*
X183567557Y-93379534D01*
X183567557Y-93379533D01*
X183651221Y-93223011D01*
X183651222Y-93223009D01*
X183680552Y-93187271D01*
X183763814Y-93085814D01*
X183888171Y-92983758D01*
X183901009Y-92973222D01*
X183935515Y-92954778D01*
X184057533Y-92889557D01*
X184114147Y-92872384D01*
X184227373Y-92838037D01*
X184293558Y-92831518D01*
X184359740Y-92825000D01*
X184448260Y-92825000D01*
X184514442Y-92831518D01*
X184514442Y-92831518D01*
G37*
G36*
X141334443Y-91307519D02*
X141400627Y-91314037D01*
X141513853Y-91348384D01*
X141570467Y-91365557D01*
X141672774Y-91420242D01*
X141726991Y-91449222D01*
X141762729Y-91478552D01*
X141864186Y-91561814D01*
X141947448Y-91663271D01*
X141976778Y-91699009D01*
X141976779Y-91699011D01*
X142060443Y-91855533D01*
X142060443Y-91855534D01*
X142111963Y-92025373D01*
X142129359Y-92202000D01*
X142111963Y-92378627D01*
X142079991Y-92484025D01*
X142060443Y-92548467D01*
X142030019Y-92605385D01*
X141976778Y-92704991D01*
X141960357Y-92725000D01*
X141864186Y-92842186D01*
X141766358Y-92922470D01*
X141726991Y-92954778D01*
X141726989Y-92954779D01*
X141570467Y-93038443D01*
X141513853Y-93055616D01*
X141400627Y-93089963D01*
X141334443Y-93096481D01*
X141268260Y-93103000D01*
X141179740Y-93103000D01*
X141113557Y-93096481D01*
X141047373Y-93089963D01*
X140934147Y-93055616D01*
X140877533Y-93038443D01*
X140721011Y-92954779D01*
X140721009Y-92954778D01*
X140681642Y-92922470D01*
X140583814Y-92842186D01*
X140487643Y-92725000D01*
X140471222Y-92704991D01*
X140417981Y-92605385D01*
X140387557Y-92548467D01*
X140368009Y-92484025D01*
X140336037Y-92378627D01*
X140318641Y-92202000D01*
X140336037Y-92025373D01*
X140387557Y-91855534D01*
X140387557Y-91855533D01*
X140471221Y-91699011D01*
X140471222Y-91699009D01*
X140500552Y-91663271D01*
X140583814Y-91561814D01*
X140685271Y-91478552D01*
X140721009Y-91449222D01*
X140775226Y-91420242D01*
X140877533Y-91365557D01*
X140934147Y-91348384D01*
X141047373Y-91314037D01*
X141113557Y-91307519D01*
X141179740Y-91301000D01*
X141268260Y-91301000D01*
X141334443Y-91307519D01*
X141334443Y-91307519D01*
G37*
G36*
X175370443Y-91307519D02*
X175436627Y-91314037D01*
X175549853Y-91348384D01*
X175606467Y-91365557D01*
X175708774Y-91420242D01*
X175762991Y-91449222D01*
X175798729Y-91478552D01*
X175900186Y-91561814D01*
X175983448Y-91663271D01*
X176012778Y-91699009D01*
X176012779Y-91699011D01*
X176096443Y-91855533D01*
X176096443Y-91855534D01*
X176147963Y-92025373D01*
X176165359Y-92202000D01*
X176147963Y-92378627D01*
X176115991Y-92484025D01*
X176096443Y-92548467D01*
X176066019Y-92605385D01*
X176012778Y-92704991D01*
X175996357Y-92725000D01*
X175900186Y-92842186D01*
X175802358Y-92922470D01*
X175762991Y-92954778D01*
X175762989Y-92954779D01*
X175606467Y-93038443D01*
X175549853Y-93055616D01*
X175436627Y-93089963D01*
X175370443Y-93096481D01*
X175304260Y-93103000D01*
X175215740Y-93103000D01*
X175149557Y-93096481D01*
X175083373Y-93089963D01*
X174970147Y-93055616D01*
X174913533Y-93038443D01*
X174757011Y-92954779D01*
X174757009Y-92954778D01*
X174717642Y-92922470D01*
X174619814Y-92842186D01*
X174523643Y-92725000D01*
X174507222Y-92704991D01*
X174453981Y-92605385D01*
X174423557Y-92548467D01*
X174404009Y-92484025D01*
X174372037Y-92378627D01*
X174354641Y-92202000D01*
X174372037Y-92025373D01*
X174423557Y-91855534D01*
X174423557Y-91855533D01*
X174507221Y-91699011D01*
X174507222Y-91699009D01*
X174536552Y-91663271D01*
X174619814Y-91561814D01*
X174721271Y-91478552D01*
X174757009Y-91449222D01*
X174811226Y-91420242D01*
X174913533Y-91365557D01*
X174970147Y-91348384D01*
X175083373Y-91314037D01*
X175149557Y-91307519D01*
X175215740Y-91301000D01*
X175304260Y-91301000D01*
X175370443Y-91307519D01*
X175370443Y-91307519D01*
G37*
G36*
X144509142Y-91420242D02*
X144657102Y-91481530D01*
X144724130Y-91526317D01*
X144790257Y-91570501D01*
X144903499Y-91683743D01*
X144947683Y-91749870D01*
X144992470Y-91816898D01*
X145053758Y-91964858D01*
X145085000Y-92121925D01*
X145085000Y-92282075D01*
X145053758Y-92439142D01*
X144992470Y-92587102D01*
X144947683Y-92654130D01*
X144903499Y-92720257D01*
X144790257Y-92833499D01*
X144724130Y-92877683D01*
X144657102Y-92922470D01*
X144509142Y-92983758D01*
X144352075Y-93015000D01*
X144191925Y-93015000D01*
X144034858Y-92983758D01*
X143886898Y-92922470D01*
X143819870Y-92877683D01*
X143753743Y-92833499D01*
X143640501Y-92720257D01*
X143596317Y-92654130D01*
X143551530Y-92587102D01*
X143490242Y-92439142D01*
X143459000Y-92282075D01*
X143459000Y-92121925D01*
X143490242Y-91964858D01*
X143551530Y-91816898D01*
X143596317Y-91749870D01*
X143640501Y-91683743D01*
X143753743Y-91570501D01*
X143819870Y-91526317D01*
X143886898Y-91481530D01*
X144034858Y-91420242D01*
X144191925Y-91389000D01*
X144352075Y-91389000D01*
X144509142Y-91420242D01*
X144509142Y-91420242D01*
G37*
G36*
X172449142Y-91420242D02*
X172597102Y-91481530D01*
X172664130Y-91526317D01*
X172730257Y-91570501D01*
X172843499Y-91683743D01*
X172887683Y-91749870D01*
X172932470Y-91816898D01*
X172993758Y-91964858D01*
X173025000Y-92121925D01*
X173025000Y-92282075D01*
X172993758Y-92439142D01*
X172932470Y-92587102D01*
X172887683Y-92654130D01*
X172843499Y-92720257D01*
X172730257Y-92833499D01*
X172664130Y-92877683D01*
X172597102Y-92922470D01*
X172449142Y-92983758D01*
X172292075Y-93015000D01*
X172131925Y-93015000D01*
X171974858Y-92983758D01*
X171826898Y-92922470D01*
X171759870Y-92877683D01*
X171693743Y-92833499D01*
X171580501Y-92720257D01*
X171536317Y-92654130D01*
X171491530Y-92587102D01*
X171430242Y-92439142D01*
X171399000Y-92282075D01*
X171399000Y-92121925D01*
X171430242Y-91964858D01*
X171491530Y-91816898D01*
X171536317Y-91749870D01*
X171580501Y-91683743D01*
X171693743Y-91570501D01*
X171759870Y-91526317D01*
X171826898Y-91481530D01*
X171974858Y-91420242D01*
X172131925Y-91389000D01*
X172292075Y-91389000D01*
X172449142Y-91420242D01*
X172449142Y-91420242D01*
G37*
G36*
X159056565Y-90663389D02*
X159247834Y-90742615D01*
X159419976Y-90857637D01*
X159566363Y-91004024D01*
X159681385Y-91176166D01*
X159760611Y-91367435D01*
X159801000Y-91570484D01*
X159801000Y-91777516D01*
X159760611Y-91980565D01*
X159681385Y-92171834D01*
X159566363Y-92343976D01*
X159419976Y-92490363D01*
X159247834Y-92605385D01*
X159056565Y-92684611D01*
X158853516Y-92725000D01*
X158646484Y-92725000D01*
X158443435Y-92684611D01*
X158252166Y-92605385D01*
X158080024Y-92490363D01*
X157933637Y-92343976D01*
X157818615Y-92171834D01*
X157739389Y-91980565D01*
X157699000Y-91777516D01*
X157699000Y-91570484D01*
X157739389Y-91367435D01*
X157818615Y-91176166D01*
X157933637Y-91004024D01*
X158080024Y-90857637D01*
X158252166Y-90742615D01*
X158443435Y-90663389D01*
X158646484Y-90623000D01*
X158853516Y-90623000D01*
X159056565Y-90663389D01*
X159056565Y-90663389D01*
G37*
G36*
X167552821Y-90855313D02*
X167552824Y-90855314D01*
X167552825Y-90855314D01*
X167713239Y-90903975D01*
X167713241Y-90903976D01*
X167713244Y-90903977D01*
X167861078Y-90982995D01*
X167990659Y-91089341D01*
X168097005Y-91218922D01*
X168176023Y-91366756D01*
X168176024Y-91366759D01*
X168176025Y-91366761D01*
X168224686Y-91527175D01*
X168224687Y-91527179D01*
X168241117Y-91694000D01*
X168224687Y-91860821D01*
X168176023Y-92021244D01*
X168097005Y-92169078D01*
X167990659Y-92298659D01*
X167861078Y-92405005D01*
X167713244Y-92484023D01*
X167713241Y-92484024D01*
X167713239Y-92484025D01*
X167552825Y-92532686D01*
X167552824Y-92532686D01*
X167552821Y-92532687D01*
X167427804Y-92545000D01*
X167344196Y-92545000D01*
X167219179Y-92532687D01*
X167219176Y-92532686D01*
X167219175Y-92532686D01*
X167058761Y-92484025D01*
X167058759Y-92484024D01*
X167058756Y-92484023D01*
X166910922Y-92405005D01*
X166781341Y-92298659D01*
X166674995Y-92169078D01*
X166595977Y-92021244D01*
X166547313Y-91860821D01*
X166530883Y-91694000D01*
X166547313Y-91527179D01*
X166547314Y-91527175D01*
X166595975Y-91366761D01*
X166595976Y-91366759D01*
X166595977Y-91366756D01*
X166674995Y-91218922D01*
X166781341Y-91089341D01*
X166910922Y-90982995D01*
X167058756Y-90903977D01*
X167058759Y-90903976D01*
X167058761Y-90903975D01*
X167219175Y-90855314D01*
X167219176Y-90855314D01*
X167219179Y-90855313D01*
X167344196Y-90843000D01*
X167427804Y-90843000D01*
X167552821Y-90855313D01*
X167552821Y-90855313D01*
G37*
G36*
X141334442Y-88767518D02*
X141400627Y-88774037D01*
X141513853Y-88808384D01*
X141570467Y-88825557D01*
X141672774Y-88880242D01*
X141726991Y-88909222D01*
X141762729Y-88938552D01*
X141864186Y-89021814D01*
X141947448Y-89123271D01*
X141976778Y-89159009D01*
X141976779Y-89159011D01*
X142060443Y-89315533D01*
X142060443Y-89315534D01*
X142111963Y-89485373D01*
X142129359Y-89662000D01*
X142111963Y-89838627D01*
X142077616Y-89951853D01*
X142060443Y-90008467D01*
X141986348Y-90147087D01*
X141976778Y-90164991D01*
X141947448Y-90200729D01*
X141864186Y-90302186D01*
X141766358Y-90382470D01*
X141726991Y-90414778D01*
X141726989Y-90414779D01*
X141570467Y-90498443D01*
X141513853Y-90515616D01*
X141400627Y-90549963D01*
X141334442Y-90556482D01*
X141268260Y-90563000D01*
X141179740Y-90563000D01*
X141113558Y-90556482D01*
X141047373Y-90549963D01*
X140934147Y-90515616D01*
X140877533Y-90498443D01*
X140721011Y-90414779D01*
X140721009Y-90414778D01*
X140681642Y-90382470D01*
X140583814Y-90302186D01*
X140500552Y-90200729D01*
X140471222Y-90164991D01*
X140461652Y-90147087D01*
X140387557Y-90008467D01*
X140370384Y-89951853D01*
X140336037Y-89838627D01*
X140318641Y-89662000D01*
X140336037Y-89485373D01*
X140387557Y-89315534D01*
X140387557Y-89315533D01*
X140471221Y-89159011D01*
X140471222Y-89159009D01*
X140500552Y-89123271D01*
X140583814Y-89021814D01*
X140685271Y-88938552D01*
X140721009Y-88909222D01*
X140775226Y-88880242D01*
X140877533Y-88825557D01*
X140934147Y-88808384D01*
X141047373Y-88774037D01*
X141113558Y-88767518D01*
X141179740Y-88761000D01*
X141268260Y-88761000D01*
X141334442Y-88767518D01*
X141334442Y-88767518D01*
G37*
G36*
X175370442Y-88767518D02*
X175436627Y-88774037D01*
X175549853Y-88808384D01*
X175606467Y-88825557D01*
X175708774Y-88880242D01*
X175762991Y-88909222D01*
X175798729Y-88938552D01*
X175900186Y-89021814D01*
X175983448Y-89123271D01*
X176012778Y-89159009D01*
X176012779Y-89159011D01*
X176096443Y-89315533D01*
X176096443Y-89315534D01*
X176147963Y-89485373D01*
X176165359Y-89662000D01*
X176147963Y-89838627D01*
X176113616Y-89951853D01*
X176096443Y-90008467D01*
X176022348Y-90147087D01*
X176012778Y-90164991D01*
X175983448Y-90200729D01*
X175900186Y-90302186D01*
X175802358Y-90382470D01*
X175762991Y-90414778D01*
X175762989Y-90414779D01*
X175606467Y-90498443D01*
X175549853Y-90515616D01*
X175436627Y-90549963D01*
X175370442Y-90556482D01*
X175304260Y-90563000D01*
X175215740Y-90563000D01*
X175149558Y-90556482D01*
X175083373Y-90549963D01*
X174970147Y-90515616D01*
X174913533Y-90498443D01*
X174757011Y-90414779D01*
X174757009Y-90414778D01*
X174717642Y-90382470D01*
X174619814Y-90302186D01*
X174536552Y-90200729D01*
X174507222Y-90164991D01*
X174497652Y-90147087D01*
X174423557Y-90008467D01*
X174406384Y-89951853D01*
X174372037Y-89838627D01*
X174354641Y-89662000D01*
X174372037Y-89485373D01*
X174423557Y-89315534D01*
X174423557Y-89315533D01*
X174507221Y-89159011D01*
X174507222Y-89159009D01*
X174536552Y-89123271D01*
X174619814Y-89021814D01*
X174721271Y-88938552D01*
X174757009Y-88909222D01*
X174811226Y-88880242D01*
X174913533Y-88825557D01*
X174970147Y-88808384D01*
X175083373Y-88774037D01*
X175149558Y-88767518D01*
X175215740Y-88761000D01*
X175304260Y-88761000D01*
X175370442Y-88767518D01*
X175370442Y-88767518D01*
G37*
G36*
X172449142Y-88880242D02*
X172597102Y-88941530D01*
X172664130Y-88986317D01*
X172730257Y-89030501D01*
X172843499Y-89143743D01*
X172887683Y-89209870D01*
X172932470Y-89276898D01*
X172993758Y-89424858D01*
X173025000Y-89581925D01*
X173025000Y-89742075D01*
X172993758Y-89899142D01*
X172948474Y-90008466D01*
X172932471Y-90047100D01*
X172843499Y-90180257D01*
X172730257Y-90293499D01*
X172664130Y-90337683D01*
X172597102Y-90382470D01*
X172449142Y-90443758D01*
X172292075Y-90475000D01*
X172131925Y-90475000D01*
X171974858Y-90443758D01*
X171826898Y-90382470D01*
X171759870Y-90337683D01*
X171693743Y-90293499D01*
X171580501Y-90180257D01*
X171491529Y-90047100D01*
X171475526Y-90008466D01*
X171430242Y-89899142D01*
X171399000Y-89742075D01*
X171399000Y-89581925D01*
X171430242Y-89424858D01*
X171491530Y-89276898D01*
X171536317Y-89209870D01*
X171580501Y-89143743D01*
X171693743Y-89030501D01*
X171759870Y-88986317D01*
X171826898Y-88941530D01*
X171974858Y-88880242D01*
X172131925Y-88849000D01*
X172292075Y-88849000D01*
X172449142Y-88880242D01*
X172449142Y-88880242D01*
G37*
G36*
X144509142Y-88880242D02*
X144657102Y-88941530D01*
X144724130Y-88986317D01*
X144790257Y-89030501D01*
X144903499Y-89143743D01*
X144947683Y-89209870D01*
X144992470Y-89276898D01*
X145053758Y-89424858D01*
X145085000Y-89581925D01*
X145085000Y-89742075D01*
X145053758Y-89899142D01*
X145008474Y-90008466D01*
X144992471Y-90047100D01*
X144903499Y-90180257D01*
X144790257Y-90293499D01*
X144724130Y-90337683D01*
X144657102Y-90382470D01*
X144509142Y-90443758D01*
X144352075Y-90475000D01*
X144191925Y-90475000D01*
X144034858Y-90443758D01*
X143886898Y-90382470D01*
X143819870Y-90337683D01*
X143753743Y-90293499D01*
X143640501Y-90180257D01*
X143551529Y-90047100D01*
X143535526Y-90008466D01*
X143490242Y-89899142D01*
X143459000Y-89742075D01*
X143459000Y-89581925D01*
X143490242Y-89424858D01*
X143551530Y-89276898D01*
X143596317Y-89209870D01*
X143640501Y-89143743D01*
X143753743Y-89030501D01*
X143819870Y-88986317D01*
X143886898Y-88941530D01*
X144034858Y-88880242D01*
X144191925Y-88849000D01*
X144352075Y-88849000D01*
X144509142Y-88880242D01*
X144509142Y-88880242D01*
G37*
G36*
X184514443Y-86227519D02*
X184580627Y-86234037D01*
X184693853Y-86268384D01*
X184750467Y-86285557D01*
X184852774Y-86340242D01*
X184906991Y-86369222D01*
X184942729Y-86398552D01*
X185044186Y-86481814D01*
X185127448Y-86583271D01*
X185156778Y-86619009D01*
X185156779Y-86619011D01*
X185240443Y-86775533D01*
X185240443Y-86775534D01*
X185291963Y-86945373D01*
X185309359Y-87122000D01*
X185291963Y-87298627D01*
X185257616Y-87411853D01*
X185240443Y-87468467D01*
X185166348Y-87607087D01*
X185156778Y-87624991D01*
X185127448Y-87660729D01*
X185044186Y-87762186D01*
X184946358Y-87842470D01*
X184906991Y-87874778D01*
X184906989Y-87874779D01*
X184750467Y-87958443D01*
X184693853Y-87975616D01*
X184580627Y-88009963D01*
X184514443Y-88016481D01*
X184448260Y-88023000D01*
X184359740Y-88023000D01*
X184293557Y-88016481D01*
X184227373Y-88009963D01*
X184114147Y-87975616D01*
X184057533Y-87958443D01*
X183901011Y-87874779D01*
X183901009Y-87874778D01*
X183861642Y-87842470D01*
X183763814Y-87762186D01*
X183680552Y-87660729D01*
X183651222Y-87624991D01*
X183641652Y-87607087D01*
X183567557Y-87468467D01*
X183550384Y-87411853D01*
X183516037Y-87298627D01*
X183498641Y-87122000D01*
X183516037Y-86945373D01*
X183567557Y-86775534D01*
X183567557Y-86775533D01*
X183651221Y-86619011D01*
X183651222Y-86619009D01*
X183680552Y-86583271D01*
X183763814Y-86481814D01*
X183865271Y-86398552D01*
X183901009Y-86369222D01*
X183955226Y-86340242D01*
X184057533Y-86285557D01*
X184114147Y-86268384D01*
X184227373Y-86234037D01*
X184293557Y-86227519D01*
X184359740Y-86221000D01*
X184448260Y-86221000D01*
X184514443Y-86227519D01*
X184514443Y-86227519D01*
G37*
G36*
X181974443Y-86227519D02*
X182040627Y-86234037D01*
X182153853Y-86268384D01*
X182210467Y-86285557D01*
X182312774Y-86340242D01*
X182366991Y-86369222D01*
X182402729Y-86398552D01*
X182504186Y-86481814D01*
X182587448Y-86583271D01*
X182616778Y-86619009D01*
X182616779Y-86619011D01*
X182700443Y-86775533D01*
X182700443Y-86775534D01*
X182751963Y-86945373D01*
X182769359Y-87122000D01*
X182751963Y-87298627D01*
X182717616Y-87411853D01*
X182700443Y-87468467D01*
X182626348Y-87607087D01*
X182616778Y-87624991D01*
X182587448Y-87660729D01*
X182504186Y-87762186D01*
X182406358Y-87842470D01*
X182366991Y-87874778D01*
X182366989Y-87874779D01*
X182210467Y-87958443D01*
X182153853Y-87975616D01*
X182040627Y-88009963D01*
X181974443Y-88016481D01*
X181908260Y-88023000D01*
X181819740Y-88023000D01*
X181753557Y-88016481D01*
X181687373Y-88009963D01*
X181574147Y-87975616D01*
X181517533Y-87958443D01*
X181361011Y-87874779D01*
X181361009Y-87874778D01*
X181321642Y-87842470D01*
X181223814Y-87762186D01*
X181140552Y-87660729D01*
X181111222Y-87624991D01*
X181101652Y-87607087D01*
X181027557Y-87468467D01*
X181010384Y-87411853D01*
X180976037Y-87298627D01*
X180958641Y-87122000D01*
X180976037Y-86945373D01*
X181027557Y-86775534D01*
X181027557Y-86775533D01*
X181111221Y-86619011D01*
X181111222Y-86619009D01*
X181140552Y-86583271D01*
X181223814Y-86481814D01*
X181325271Y-86398552D01*
X181361009Y-86369222D01*
X181415226Y-86340242D01*
X181517533Y-86285557D01*
X181574147Y-86268384D01*
X181687373Y-86234037D01*
X181753557Y-86227519D01*
X181819740Y-86221000D01*
X181908260Y-86221000D01*
X181974443Y-86227519D01*
X181974443Y-86227519D01*
G37*
G36*
X175370443Y-86227519D02*
X175436627Y-86234037D01*
X175549853Y-86268384D01*
X175606467Y-86285557D01*
X175708774Y-86340242D01*
X175762991Y-86369222D01*
X175798729Y-86398552D01*
X175900186Y-86481814D01*
X175983448Y-86583271D01*
X176012778Y-86619009D01*
X176012779Y-86619011D01*
X176096443Y-86775533D01*
X176096443Y-86775534D01*
X176147963Y-86945373D01*
X176165359Y-87122000D01*
X176147963Y-87298627D01*
X176113616Y-87411853D01*
X176096443Y-87468467D01*
X176022348Y-87607087D01*
X176012778Y-87624991D01*
X175983448Y-87660729D01*
X175900186Y-87762186D01*
X175802358Y-87842470D01*
X175762991Y-87874778D01*
X175762989Y-87874779D01*
X175606467Y-87958443D01*
X175549853Y-87975616D01*
X175436627Y-88009963D01*
X175370443Y-88016481D01*
X175304260Y-88023000D01*
X175215740Y-88023000D01*
X175149557Y-88016481D01*
X175083373Y-88009963D01*
X174970147Y-87975616D01*
X174913533Y-87958443D01*
X174757011Y-87874779D01*
X174757009Y-87874778D01*
X174717642Y-87842470D01*
X174619814Y-87762186D01*
X174536552Y-87660729D01*
X174507222Y-87624991D01*
X174497652Y-87607087D01*
X174423557Y-87468467D01*
X174406384Y-87411853D01*
X174372037Y-87298627D01*
X174354641Y-87122000D01*
X174372037Y-86945373D01*
X174423557Y-86775534D01*
X174423557Y-86775533D01*
X174507221Y-86619011D01*
X174507222Y-86619009D01*
X174536552Y-86583271D01*
X174619814Y-86481814D01*
X174721271Y-86398552D01*
X174757009Y-86369222D01*
X174811226Y-86340242D01*
X174913533Y-86285557D01*
X174970147Y-86268384D01*
X175083373Y-86234037D01*
X175149557Y-86227519D01*
X175215740Y-86221000D01*
X175304260Y-86221000D01*
X175370443Y-86227519D01*
X175370443Y-86227519D01*
G37*
G36*
X180225000Y-88023000D02*
X178423000Y-88023000D01*
X178423000Y-86221000D01*
X180225000Y-86221000D01*
X180225000Y-88023000D01*
X180225000Y-88023000D01*
G37*
G36*
X141334443Y-86227519D02*
X141400627Y-86234037D01*
X141513853Y-86268384D01*
X141570467Y-86285557D01*
X141672774Y-86340242D01*
X141726991Y-86369222D01*
X141762729Y-86398552D01*
X141864186Y-86481814D01*
X141947448Y-86583271D01*
X141976778Y-86619009D01*
X141976779Y-86619011D01*
X142060443Y-86775533D01*
X142060443Y-86775534D01*
X142111963Y-86945373D01*
X142129359Y-87122000D01*
X142111963Y-87298627D01*
X142077616Y-87411853D01*
X142060443Y-87468467D01*
X141986348Y-87607087D01*
X141976778Y-87624991D01*
X141947448Y-87660729D01*
X141864186Y-87762186D01*
X141766358Y-87842470D01*
X141726991Y-87874778D01*
X141726989Y-87874779D01*
X141570467Y-87958443D01*
X141513853Y-87975616D01*
X141400627Y-88009963D01*
X141334443Y-88016481D01*
X141268260Y-88023000D01*
X141179740Y-88023000D01*
X141113557Y-88016481D01*
X141047373Y-88009963D01*
X140934147Y-87975616D01*
X140877533Y-87958443D01*
X140721011Y-87874779D01*
X140721009Y-87874778D01*
X140681642Y-87842470D01*
X140583814Y-87762186D01*
X140500552Y-87660729D01*
X140471222Y-87624991D01*
X140461652Y-87607087D01*
X140387557Y-87468467D01*
X140370384Y-87411853D01*
X140336037Y-87298627D01*
X140318641Y-87122000D01*
X140336037Y-86945373D01*
X140387557Y-86775534D01*
X140387557Y-86775533D01*
X140471221Y-86619011D01*
X140471222Y-86619009D01*
X140500552Y-86583271D01*
X140583814Y-86481814D01*
X140685271Y-86398552D01*
X140721009Y-86369222D01*
X140775226Y-86340242D01*
X140877533Y-86285557D01*
X140934147Y-86268384D01*
X141047373Y-86234037D01*
X141113557Y-86227519D01*
X141179740Y-86221000D01*
X141268260Y-86221000D01*
X141334443Y-86227519D01*
X141334443Y-86227519D01*
G37*
G36*
X172449142Y-86340242D02*
X172597102Y-86401530D01*
X172664130Y-86446317D01*
X172730257Y-86490501D01*
X172843499Y-86603743D01*
X172887683Y-86669870D01*
X172932470Y-86736898D01*
X172993758Y-86884858D01*
X173025000Y-87041925D01*
X173025000Y-87202075D01*
X172993758Y-87359142D01*
X172948474Y-87468466D01*
X172932471Y-87507100D01*
X172843499Y-87640257D01*
X172730257Y-87753499D01*
X172664130Y-87797683D01*
X172597102Y-87842470D01*
X172449142Y-87903758D01*
X172292075Y-87935000D01*
X172131925Y-87935000D01*
X171974858Y-87903758D01*
X171826898Y-87842470D01*
X171759870Y-87797683D01*
X171693743Y-87753499D01*
X171580501Y-87640257D01*
X171491529Y-87507100D01*
X171475526Y-87468466D01*
X171430242Y-87359142D01*
X171399000Y-87202075D01*
X171399000Y-87041925D01*
X171430242Y-86884858D01*
X171491530Y-86736898D01*
X171536317Y-86669870D01*
X171580501Y-86603743D01*
X171693743Y-86490501D01*
X171759870Y-86446317D01*
X171826898Y-86401530D01*
X171974858Y-86340242D01*
X172131925Y-86309000D01*
X172292075Y-86309000D01*
X172449142Y-86340242D01*
X172449142Y-86340242D01*
G37*
G36*
X144509142Y-86340242D02*
X144657102Y-86401530D01*
X144724130Y-86446317D01*
X144790257Y-86490501D01*
X144903499Y-86603743D01*
X144947683Y-86669870D01*
X144992470Y-86736898D01*
X145053758Y-86884858D01*
X145085000Y-87041925D01*
X145085000Y-87202075D01*
X145053758Y-87359142D01*
X145008474Y-87468466D01*
X144992471Y-87507100D01*
X144903499Y-87640257D01*
X144790257Y-87753499D01*
X144724130Y-87797683D01*
X144657102Y-87842470D01*
X144509142Y-87903758D01*
X144352075Y-87935000D01*
X144191925Y-87935000D01*
X144034858Y-87903758D01*
X143886898Y-87842470D01*
X143819870Y-87797683D01*
X143753743Y-87753499D01*
X143640501Y-87640257D01*
X143551529Y-87507100D01*
X143535526Y-87468466D01*
X143490242Y-87359142D01*
X143459000Y-87202075D01*
X143459000Y-87041925D01*
X143490242Y-86884858D01*
X143551530Y-86736898D01*
X143596317Y-86669870D01*
X143640501Y-86603743D01*
X143753743Y-86490501D01*
X143819870Y-86446317D01*
X143886898Y-86401530D01*
X144034858Y-86340242D01*
X144191925Y-86309000D01*
X144352075Y-86309000D01*
X144509142Y-86340242D01*
X144509142Y-86340242D01*
G37*
G36*
X141334443Y-83687519D02*
X141400627Y-83694037D01*
X141513853Y-83728384D01*
X141570467Y-83745557D01*
X141672774Y-83800242D01*
X141726991Y-83829222D01*
X141762729Y-83858552D01*
X141864186Y-83941814D01*
X141918999Y-84008605D01*
X141976778Y-84079009D01*
X141976779Y-84079011D01*
X142060443Y-84235533D01*
X142060443Y-84235534D01*
X142111963Y-84405373D01*
X142129359Y-84582000D01*
X142111963Y-84758627D01*
X142090874Y-84828147D01*
X142060443Y-84928467D01*
X141986348Y-85067087D01*
X141976778Y-85084991D01*
X141947448Y-85120729D01*
X141864186Y-85222186D01*
X141766358Y-85302470D01*
X141726991Y-85334778D01*
X141726989Y-85334779D01*
X141570467Y-85418443D01*
X141513853Y-85435616D01*
X141400627Y-85469963D01*
X141334442Y-85476482D01*
X141268260Y-85483000D01*
X141179740Y-85483000D01*
X141113558Y-85476482D01*
X141047373Y-85469963D01*
X140934147Y-85435616D01*
X140877533Y-85418443D01*
X140721011Y-85334779D01*
X140721009Y-85334778D01*
X140681642Y-85302470D01*
X140583814Y-85222186D01*
X140500552Y-85120729D01*
X140471222Y-85084991D01*
X140461652Y-85067087D01*
X140387557Y-84928467D01*
X140357126Y-84828147D01*
X140336037Y-84758627D01*
X140318641Y-84582000D01*
X140336037Y-84405373D01*
X140387557Y-84235534D01*
X140387557Y-84235533D01*
X140471221Y-84079011D01*
X140471222Y-84079009D01*
X140529001Y-84008605D01*
X140583814Y-83941814D01*
X140685271Y-83858552D01*
X140721009Y-83829222D01*
X140775226Y-83800242D01*
X140877533Y-83745557D01*
X140934147Y-83728384D01*
X141047373Y-83694037D01*
X141113557Y-83687519D01*
X141179740Y-83681000D01*
X141268260Y-83681000D01*
X141334443Y-83687519D01*
X141334443Y-83687519D01*
G37*
G36*
X175370443Y-83687519D02*
X175436627Y-83694037D01*
X175549853Y-83728384D01*
X175606467Y-83745557D01*
X175708774Y-83800242D01*
X175762991Y-83829222D01*
X175798729Y-83858552D01*
X175900186Y-83941814D01*
X175954999Y-84008605D01*
X176012778Y-84079009D01*
X176012779Y-84079011D01*
X176096443Y-84235533D01*
X176096443Y-84235534D01*
X176147963Y-84405373D01*
X176165359Y-84582000D01*
X176147963Y-84758627D01*
X176126874Y-84828147D01*
X176096443Y-84928467D01*
X176022348Y-85067087D01*
X176012778Y-85084991D01*
X175983448Y-85120729D01*
X175900186Y-85222186D01*
X175802358Y-85302470D01*
X175762991Y-85334778D01*
X175762989Y-85334779D01*
X175606467Y-85418443D01*
X175549853Y-85435616D01*
X175436627Y-85469963D01*
X175370442Y-85476482D01*
X175304260Y-85483000D01*
X175215740Y-85483000D01*
X175149558Y-85476482D01*
X175083373Y-85469963D01*
X174970147Y-85435616D01*
X174913533Y-85418443D01*
X174757011Y-85334779D01*
X174757009Y-85334778D01*
X174717642Y-85302470D01*
X174619814Y-85222186D01*
X174536552Y-85120729D01*
X174507222Y-85084991D01*
X174497652Y-85067087D01*
X174423557Y-84928467D01*
X174393126Y-84828147D01*
X174372037Y-84758627D01*
X174354641Y-84582000D01*
X174372037Y-84405373D01*
X174423557Y-84235534D01*
X174423557Y-84235533D01*
X174507221Y-84079011D01*
X174507222Y-84079009D01*
X174565001Y-84008605D01*
X174619814Y-83941814D01*
X174721271Y-83858552D01*
X174757009Y-83829222D01*
X174811226Y-83800242D01*
X174913533Y-83745557D01*
X174970147Y-83728384D01*
X175083373Y-83694037D01*
X175149557Y-83687519D01*
X175215740Y-83681000D01*
X175304260Y-83681000D01*
X175370443Y-83687519D01*
X175370443Y-83687519D01*
G37*
G36*
X172449142Y-83800242D02*
X172597102Y-83861530D01*
X172664130Y-83906317D01*
X172730257Y-83950501D01*
X172843499Y-84063743D01*
X172887683Y-84129870D01*
X172932470Y-84196898D01*
X172993758Y-84344858D01*
X173025000Y-84501925D01*
X173025000Y-84662075D01*
X172993758Y-84819142D01*
X172963456Y-84892296D01*
X172932471Y-84967100D01*
X172843499Y-85100257D01*
X172730257Y-85213499D01*
X172664130Y-85257683D01*
X172597102Y-85302470D01*
X172449142Y-85363758D01*
X172292075Y-85395000D01*
X172131925Y-85395000D01*
X171974858Y-85363758D01*
X171826898Y-85302470D01*
X171759870Y-85257683D01*
X171693743Y-85213499D01*
X171580501Y-85100257D01*
X171491529Y-84967100D01*
X171460544Y-84892296D01*
X171430242Y-84819142D01*
X171399000Y-84662075D01*
X171399000Y-84501925D01*
X171430242Y-84344858D01*
X171491530Y-84196898D01*
X171536317Y-84129870D01*
X171580501Y-84063743D01*
X171693743Y-83950501D01*
X171759870Y-83906317D01*
X171826898Y-83861530D01*
X171974858Y-83800242D01*
X172131925Y-83769000D01*
X172292075Y-83769000D01*
X172449142Y-83800242D01*
X172449142Y-83800242D01*
G37*
G36*
X144509142Y-83800242D02*
X144657102Y-83861530D01*
X144724130Y-83906317D01*
X144790257Y-83950501D01*
X144903499Y-84063743D01*
X144947683Y-84129870D01*
X144992470Y-84196898D01*
X145053758Y-84344858D01*
X145085000Y-84501925D01*
X145085000Y-84662075D01*
X145053758Y-84819142D01*
X145023456Y-84892296D01*
X144992471Y-84967100D01*
X144903499Y-85100257D01*
X144790257Y-85213499D01*
X144724130Y-85257683D01*
X144657102Y-85302470D01*
X144509142Y-85363758D01*
X144352075Y-85395000D01*
X144191925Y-85395000D01*
X144034858Y-85363758D01*
X143886898Y-85302470D01*
X143819870Y-85257683D01*
X143753743Y-85213499D01*
X143640501Y-85100257D01*
X143551529Y-84967100D01*
X143520544Y-84892296D01*
X143490242Y-84819142D01*
X143459000Y-84662075D01*
X143459000Y-84501925D01*
X143490242Y-84344858D01*
X143551530Y-84196898D01*
X143596317Y-84129870D01*
X143640501Y-84063743D01*
X143753743Y-83950501D01*
X143819870Y-83906317D01*
X143886898Y-83861530D01*
X144034858Y-83800242D01*
X144191925Y-83769000D01*
X144352075Y-83769000D01*
X144509142Y-83800242D01*
X144509142Y-83800242D01*
G37*
G36*
X159801000Y-85125000D02*
X157699000Y-85125000D01*
X157699000Y-83023000D01*
X159801000Y-83023000D01*
X159801000Y-85125000D01*
X159801000Y-85125000D01*
G37*
G36*
X167634228Y-83255703D02*
X167789100Y-83319853D01*
X167928481Y-83412985D01*
X168047015Y-83531519D01*
X168140147Y-83670900D01*
X168204297Y-83825772D01*
X168237000Y-83990184D01*
X168237000Y-84157816D01*
X168204297Y-84322228D01*
X168140147Y-84477100D01*
X168047015Y-84616481D01*
X167928481Y-84735015D01*
X167789100Y-84828147D01*
X167634228Y-84892297D01*
X167469816Y-84925000D01*
X167302184Y-84925000D01*
X167137772Y-84892297D01*
X166982900Y-84828147D01*
X166843519Y-84735015D01*
X166724985Y-84616481D01*
X166631853Y-84477100D01*
X166567703Y-84322228D01*
X166535000Y-84157816D01*
X166535000Y-83990184D01*
X166567703Y-83825772D01*
X166631853Y-83670900D01*
X166724985Y-83531519D01*
X166843519Y-83412985D01*
X166982900Y-83319853D01*
X167137772Y-83255703D01*
X167302184Y-83223000D01*
X167469816Y-83223000D01*
X167634228Y-83255703D01*
X167634228Y-83255703D01*
G37*
G36*
X178940180Y-82421662D02*
X179041635Y-82431654D01*
X179258600Y-82497470D01*
X179258602Y-82497471D01*
X179258605Y-82497472D01*
X179458556Y-82604347D01*
X179633818Y-82748182D01*
X179777653Y-82923444D01*
X179884528Y-83123395D01*
X179884529Y-83123398D01*
X179884530Y-83123400D01*
X179950346Y-83340365D01*
X179972569Y-83566000D01*
X179950346Y-83791635D01*
X179890116Y-83990184D01*
X179884528Y-84008605D01*
X179777653Y-84208556D01*
X179633818Y-84383818D01*
X179458556Y-84527653D01*
X179258605Y-84634528D01*
X179258602Y-84634529D01*
X179258600Y-84634530D01*
X179041635Y-84700346D01*
X178940180Y-84710338D01*
X178872545Y-84717000D01*
X178759455Y-84717000D01*
X178691820Y-84710338D01*
X178590365Y-84700346D01*
X178373400Y-84634530D01*
X178373398Y-84634529D01*
X178373395Y-84634528D01*
X178173444Y-84527653D01*
X177998182Y-84383818D01*
X177854347Y-84208556D01*
X177747472Y-84008605D01*
X177741884Y-83990184D01*
X177681654Y-83791635D01*
X177659431Y-83566000D01*
X177681654Y-83340365D01*
X177747470Y-83123400D01*
X177747471Y-83123398D01*
X177747472Y-83123395D01*
X177854347Y-82923444D01*
X177998182Y-82748182D01*
X178173444Y-82604347D01*
X178373395Y-82497472D01*
X178373398Y-82497471D01*
X178373400Y-82497470D01*
X178590365Y-82431654D01*
X178691820Y-82421662D01*
X178759455Y-82415000D01*
X178872545Y-82415000D01*
X178940180Y-82421662D01*
X178940180Y-82421662D01*
G37*
G36*
X175370443Y-81147519D02*
X175436627Y-81154037D01*
X175549853Y-81188384D01*
X175606467Y-81205557D01*
X175708774Y-81260242D01*
X175762991Y-81289222D01*
X175793769Y-81314481D01*
X175900186Y-81401814D01*
X175983448Y-81503271D01*
X176012778Y-81539009D01*
X176012779Y-81539011D01*
X176096443Y-81695533D01*
X176096443Y-81695534D01*
X176147963Y-81865373D01*
X176165359Y-82042000D01*
X176147963Y-82218627D01*
X176113616Y-82331853D01*
X176096443Y-82388467D01*
X176038179Y-82497470D01*
X176012778Y-82544991D01*
X175983448Y-82580729D01*
X175900186Y-82682186D01*
X175819768Y-82748182D01*
X175762991Y-82794778D01*
X175762989Y-82794779D01*
X175606467Y-82878443D01*
X175549853Y-82895616D01*
X175436627Y-82929963D01*
X175370443Y-82936481D01*
X175304260Y-82943000D01*
X175215740Y-82943000D01*
X175149557Y-82936481D01*
X175083373Y-82929963D01*
X174970147Y-82895616D01*
X174913533Y-82878443D01*
X174757011Y-82794779D01*
X174757009Y-82794778D01*
X174700232Y-82748182D01*
X174619814Y-82682186D01*
X174536552Y-82580729D01*
X174507222Y-82544991D01*
X174481821Y-82497470D01*
X174423557Y-82388467D01*
X174406384Y-82331853D01*
X174372037Y-82218627D01*
X174354641Y-82042000D01*
X174372037Y-81865373D01*
X174423557Y-81695534D01*
X174423557Y-81695533D01*
X174507221Y-81539011D01*
X174507222Y-81539009D01*
X174536552Y-81503271D01*
X174619814Y-81401814D01*
X174726231Y-81314481D01*
X174757009Y-81289222D01*
X174811226Y-81260242D01*
X174913533Y-81205557D01*
X174970147Y-81188384D01*
X175083373Y-81154037D01*
X175149557Y-81147519D01*
X175215740Y-81141000D01*
X175304260Y-81141000D01*
X175370443Y-81147519D01*
X175370443Y-81147519D01*
G37*
G36*
X141334443Y-81147519D02*
X141400627Y-81154037D01*
X141513853Y-81188384D01*
X141570467Y-81205557D01*
X141672774Y-81260242D01*
X141726991Y-81289222D01*
X141757769Y-81314481D01*
X141864186Y-81401814D01*
X141947448Y-81503271D01*
X141976778Y-81539009D01*
X141976779Y-81539011D01*
X142060443Y-81695533D01*
X142060443Y-81695534D01*
X142111963Y-81865373D01*
X142129359Y-82042000D01*
X142111963Y-82218627D01*
X142077616Y-82331853D01*
X142060443Y-82388467D01*
X142002179Y-82497470D01*
X141976778Y-82544991D01*
X141947448Y-82580729D01*
X141864186Y-82682186D01*
X141783768Y-82748182D01*
X141726991Y-82794778D01*
X141726989Y-82794779D01*
X141570467Y-82878443D01*
X141513853Y-82895616D01*
X141400627Y-82929963D01*
X141334443Y-82936481D01*
X141268260Y-82943000D01*
X141179740Y-82943000D01*
X141113557Y-82936481D01*
X141047373Y-82929963D01*
X140934147Y-82895616D01*
X140877533Y-82878443D01*
X140721011Y-82794779D01*
X140721009Y-82794778D01*
X140664232Y-82748182D01*
X140583814Y-82682186D01*
X140500552Y-82580729D01*
X140471222Y-82544991D01*
X140445821Y-82497470D01*
X140387557Y-82388467D01*
X140370384Y-82331853D01*
X140336037Y-82218627D01*
X140318641Y-82042000D01*
X140336037Y-81865373D01*
X140387557Y-81695534D01*
X140387557Y-81695533D01*
X140471221Y-81539011D01*
X140471222Y-81539009D01*
X140500552Y-81503271D01*
X140583814Y-81401814D01*
X140690231Y-81314481D01*
X140721009Y-81289222D01*
X140775226Y-81260242D01*
X140877533Y-81205557D01*
X140934147Y-81188384D01*
X141047373Y-81154037D01*
X141113557Y-81147519D01*
X141179740Y-81141000D01*
X141268260Y-81141000D01*
X141334443Y-81147519D01*
X141334443Y-81147519D01*
G37*
G36*
X144509142Y-81260242D02*
X144623583Y-81307646D01*
X144640085Y-81314481D01*
X144657102Y-81321530D01*
X144724130Y-81366317D01*
X144790257Y-81410501D01*
X144903499Y-81523743D01*
X144947683Y-81589870D01*
X144992470Y-81656898D01*
X145053758Y-81804858D01*
X145085000Y-81961925D01*
X145085000Y-82122075D01*
X145053758Y-82279142D01*
X145008474Y-82388466D01*
X144992471Y-82427100D01*
X144903499Y-82560257D01*
X144790257Y-82673499D01*
X144724130Y-82717683D01*
X144657102Y-82762470D01*
X144509142Y-82823758D01*
X144352075Y-82855000D01*
X144191925Y-82855000D01*
X144034858Y-82823758D01*
X143886898Y-82762470D01*
X143819870Y-82717683D01*
X143753743Y-82673499D01*
X143640501Y-82560257D01*
X143551529Y-82427100D01*
X143535526Y-82388466D01*
X143490242Y-82279142D01*
X143459000Y-82122075D01*
X143459000Y-81961925D01*
X143490242Y-81804858D01*
X143551530Y-81656898D01*
X143596317Y-81589870D01*
X143640501Y-81523743D01*
X143753743Y-81410501D01*
X143819870Y-81366317D01*
X143886898Y-81321530D01*
X143903916Y-81314481D01*
X143920417Y-81307646D01*
X144034858Y-81260242D01*
X144191925Y-81229000D01*
X144352075Y-81229000D01*
X144509142Y-81260242D01*
X144509142Y-81260242D01*
G37*
G36*
X172449142Y-81260242D02*
X172563583Y-81307646D01*
X172580085Y-81314481D01*
X172597102Y-81321530D01*
X172664130Y-81366317D01*
X172730257Y-81410501D01*
X172843499Y-81523743D01*
X172887683Y-81589870D01*
X172932470Y-81656898D01*
X172993758Y-81804858D01*
X173025000Y-81961925D01*
X173025000Y-82122075D01*
X172993758Y-82279142D01*
X172948474Y-82388466D01*
X172932471Y-82427100D01*
X172843499Y-82560257D01*
X172730257Y-82673499D01*
X172664130Y-82717683D01*
X172597102Y-82762470D01*
X172449142Y-82823758D01*
X172292075Y-82855000D01*
X172131925Y-82855000D01*
X171974858Y-82823758D01*
X171826898Y-82762470D01*
X171759870Y-82717683D01*
X171693743Y-82673499D01*
X171580501Y-82560257D01*
X171491529Y-82427100D01*
X171475526Y-82388466D01*
X171430242Y-82279142D01*
X171399000Y-82122075D01*
X171399000Y-81961925D01*
X171430242Y-81804858D01*
X171491530Y-81656898D01*
X171536317Y-81589870D01*
X171580501Y-81523743D01*
X171693743Y-81410501D01*
X171759870Y-81366317D01*
X171826898Y-81321530D01*
X171843916Y-81314481D01*
X171860417Y-81307646D01*
X171974858Y-81260242D01*
X172131925Y-81229000D01*
X172292075Y-81229000D01*
X172449142Y-81260242D01*
X172449142Y-81260242D01*
G37*
G36*
X185813000Y-82181000D02*
X184011000Y-82181000D01*
X184011000Y-80379000D01*
X185813000Y-80379000D01*
X185813000Y-82181000D01*
X185813000Y-82181000D01*
G37*
G36*
X182482442Y-80385518D02*
X182548627Y-80392037D01*
X182661853Y-80426384D01*
X182718467Y-80443557D01*
X182857087Y-80517652D01*
X182874991Y-80527222D01*
X182910729Y-80556552D01*
X183012186Y-80639814D01*
X183095448Y-80741271D01*
X183124778Y-80777009D01*
X183124779Y-80777011D01*
X183208443Y-80933533D01*
X183208443Y-80933534D01*
X183259963Y-81103373D01*
X183277359Y-81280000D01*
X183259963Y-81456627D01*
X183238874Y-81526147D01*
X183208443Y-81626467D01*
X183192177Y-81656898D01*
X183124778Y-81782991D01*
X183106833Y-81804857D01*
X183012186Y-81920186D01*
X182910729Y-82003448D01*
X182874991Y-82032778D01*
X182874989Y-82032779D01*
X182718467Y-82116443D01*
X182699900Y-82122075D01*
X182548627Y-82167963D01*
X182482443Y-82174481D01*
X182416260Y-82181000D01*
X182327740Y-82181000D01*
X182261557Y-82174481D01*
X182195373Y-82167963D01*
X182044100Y-82122075D01*
X182025533Y-82116443D01*
X181869011Y-82032779D01*
X181869009Y-82032778D01*
X181833271Y-82003448D01*
X181731814Y-81920186D01*
X181637167Y-81804857D01*
X181619222Y-81782991D01*
X181551823Y-81656898D01*
X181535557Y-81626467D01*
X181505126Y-81526147D01*
X181484037Y-81456627D01*
X181466641Y-81280000D01*
X181484037Y-81103373D01*
X181535557Y-80933534D01*
X181535557Y-80933533D01*
X181619221Y-80777011D01*
X181619222Y-80777009D01*
X181648552Y-80741271D01*
X181731814Y-80639814D01*
X181833271Y-80556552D01*
X181869009Y-80527222D01*
X181886913Y-80517652D01*
X182025533Y-80443557D01*
X182082147Y-80426384D01*
X182195373Y-80392037D01*
X182261558Y-80385518D01*
X182327740Y-80379000D01*
X182416260Y-80379000D01*
X182482442Y-80385518D01*
X182482442Y-80385518D01*
G37*
G36*
X167634228Y-79953703D02*
X167789100Y-80017853D01*
X167928481Y-80110985D01*
X168047015Y-80229519D01*
X168140147Y-80368900D01*
X168204297Y-80523772D01*
X168237000Y-80688184D01*
X168237000Y-80855816D01*
X168204297Y-81020228D01*
X168140147Y-81175100D01*
X168047015Y-81314481D01*
X167928481Y-81433015D01*
X167789100Y-81526147D01*
X167634228Y-81590297D01*
X167469816Y-81623000D01*
X167302184Y-81623000D01*
X167137772Y-81590297D01*
X166982900Y-81526147D01*
X166843519Y-81433015D01*
X166724985Y-81314481D01*
X166631853Y-81175100D01*
X166567703Y-81020228D01*
X166535000Y-80855816D01*
X166535000Y-80688184D01*
X166567703Y-80523772D01*
X166631853Y-80368900D01*
X166724985Y-80229519D01*
X166843519Y-80110985D01*
X166982900Y-80017853D01*
X167137772Y-79953703D01*
X167302184Y-79921000D01*
X167469816Y-79921000D01*
X167634228Y-79953703D01*
X167634228Y-79953703D01*
G37*
G36*
X141334442Y-78607518D02*
X141400627Y-78614037D01*
X141513853Y-78648384D01*
X141570467Y-78665557D01*
X141672774Y-78720242D01*
X141726991Y-78749222D01*
X141762729Y-78778552D01*
X141864186Y-78861814D01*
X141947448Y-78963271D01*
X141976778Y-78999009D01*
X141976779Y-78999011D01*
X142060443Y-79155533D01*
X142060443Y-79155534D01*
X142111963Y-79325373D01*
X142129359Y-79502000D01*
X142111963Y-79678627D01*
X142077616Y-79791853D01*
X142060443Y-79848467D01*
X142004192Y-79953703D01*
X141976778Y-80004991D01*
X141947448Y-80040729D01*
X141864186Y-80142186D01*
X141766358Y-80222470D01*
X141726991Y-80254778D01*
X141726989Y-80254779D01*
X141570467Y-80338443D01*
X141513853Y-80355616D01*
X141400627Y-80389963D01*
X141334442Y-80396482D01*
X141268260Y-80403000D01*
X141179740Y-80403000D01*
X141113558Y-80396482D01*
X141047373Y-80389963D01*
X140934147Y-80355616D01*
X140877533Y-80338443D01*
X140721011Y-80254779D01*
X140721009Y-80254778D01*
X140681642Y-80222470D01*
X140583814Y-80142186D01*
X140500552Y-80040729D01*
X140471222Y-80004991D01*
X140443808Y-79953703D01*
X140387557Y-79848467D01*
X140370384Y-79791853D01*
X140336037Y-79678627D01*
X140318641Y-79502000D01*
X140336037Y-79325373D01*
X140387557Y-79155534D01*
X140387557Y-79155533D01*
X140471221Y-78999011D01*
X140471222Y-78999009D01*
X140500552Y-78963271D01*
X140583814Y-78861814D01*
X140685271Y-78778552D01*
X140721009Y-78749222D01*
X140775226Y-78720242D01*
X140877533Y-78665557D01*
X140934147Y-78648384D01*
X141047373Y-78614037D01*
X141113558Y-78607518D01*
X141179740Y-78601000D01*
X141268260Y-78601000D01*
X141334442Y-78607518D01*
X141334442Y-78607518D01*
G37*
G36*
X175370442Y-78607518D02*
X175436627Y-78614037D01*
X175549853Y-78648384D01*
X175606467Y-78665557D01*
X175708774Y-78720242D01*
X175762991Y-78749222D01*
X175798729Y-78778552D01*
X175900186Y-78861814D01*
X175983448Y-78963271D01*
X176012778Y-78999009D01*
X176012779Y-78999011D01*
X176096443Y-79155533D01*
X176096443Y-79155534D01*
X176147963Y-79325373D01*
X176165359Y-79502000D01*
X176147963Y-79678627D01*
X176113616Y-79791853D01*
X176096443Y-79848467D01*
X176040192Y-79953703D01*
X176012778Y-80004991D01*
X175983448Y-80040729D01*
X175900186Y-80142186D01*
X175802358Y-80222470D01*
X175762991Y-80254778D01*
X175762989Y-80254779D01*
X175606467Y-80338443D01*
X175549853Y-80355616D01*
X175436627Y-80389963D01*
X175370442Y-80396482D01*
X175304260Y-80403000D01*
X175215740Y-80403000D01*
X175149558Y-80396482D01*
X175083373Y-80389963D01*
X174970147Y-80355616D01*
X174913533Y-80338443D01*
X174757011Y-80254779D01*
X174757009Y-80254778D01*
X174717642Y-80222470D01*
X174619814Y-80142186D01*
X174536552Y-80040729D01*
X174507222Y-80004991D01*
X174479808Y-79953703D01*
X174423557Y-79848467D01*
X174406384Y-79791853D01*
X174372037Y-79678627D01*
X174354641Y-79502000D01*
X174372037Y-79325373D01*
X174423557Y-79155534D01*
X174423557Y-79155533D01*
X174507221Y-78999011D01*
X174507222Y-78999009D01*
X174536552Y-78963271D01*
X174619814Y-78861814D01*
X174721271Y-78778552D01*
X174757009Y-78749222D01*
X174811226Y-78720242D01*
X174913533Y-78665557D01*
X174970147Y-78648384D01*
X175083373Y-78614037D01*
X175149558Y-78607518D01*
X175215740Y-78601000D01*
X175304260Y-78601000D01*
X175370442Y-78607518D01*
X175370442Y-78607518D01*
G37*
G36*
X172449142Y-78720242D02*
X172597102Y-78781530D01*
X172664130Y-78826317D01*
X172730257Y-78870501D01*
X172843499Y-78983743D01*
X172887683Y-79049870D01*
X172932470Y-79116898D01*
X172993758Y-79264858D01*
X173025000Y-79421925D01*
X173025000Y-79582075D01*
X172993758Y-79739142D01*
X172948474Y-79848466D01*
X172932471Y-79887100D01*
X172843499Y-80020257D01*
X172730257Y-80133499D01*
X172664130Y-80177683D01*
X172597102Y-80222470D01*
X172597101Y-80222471D01*
X172597100Y-80222471D01*
X172563583Y-80236354D01*
X172449142Y-80283758D01*
X172292075Y-80315000D01*
X172131925Y-80315000D01*
X171974858Y-80283758D01*
X171860417Y-80236354D01*
X171826900Y-80222471D01*
X171826899Y-80222471D01*
X171826898Y-80222470D01*
X171759870Y-80177683D01*
X171693743Y-80133499D01*
X171580501Y-80020257D01*
X171491529Y-79887100D01*
X171475526Y-79848466D01*
X171430242Y-79739142D01*
X171399000Y-79582075D01*
X171399000Y-79421925D01*
X171430242Y-79264858D01*
X171491530Y-79116898D01*
X171536317Y-79049870D01*
X171580501Y-78983743D01*
X171693743Y-78870501D01*
X171759870Y-78826317D01*
X171826898Y-78781530D01*
X171974858Y-78720242D01*
X172131925Y-78689000D01*
X172292075Y-78689000D01*
X172449142Y-78720242D01*
X172449142Y-78720242D01*
G37*
G36*
X144509142Y-78720242D02*
X144657102Y-78781530D01*
X144724130Y-78826317D01*
X144790257Y-78870501D01*
X144903499Y-78983743D01*
X144947683Y-79049870D01*
X144992470Y-79116898D01*
X145053758Y-79264858D01*
X145085000Y-79421925D01*
X145085000Y-79582075D01*
X145053758Y-79739142D01*
X145008474Y-79848466D01*
X144992471Y-79887100D01*
X144903499Y-80020257D01*
X144790257Y-80133499D01*
X144724130Y-80177683D01*
X144657102Y-80222470D01*
X144657101Y-80222471D01*
X144657100Y-80222471D01*
X144623583Y-80236354D01*
X144509142Y-80283758D01*
X144352075Y-80315000D01*
X144191925Y-80315000D01*
X144034858Y-80283758D01*
X143920417Y-80236354D01*
X143886900Y-80222471D01*
X143886899Y-80222471D01*
X143886898Y-80222470D01*
X143819870Y-80177683D01*
X143753743Y-80133499D01*
X143640501Y-80020257D01*
X143551529Y-79887100D01*
X143535526Y-79848466D01*
X143490242Y-79739142D01*
X143459000Y-79582075D01*
X143459000Y-79421925D01*
X143490242Y-79264858D01*
X143551530Y-79116898D01*
X143596317Y-79049870D01*
X143640501Y-78983743D01*
X143753743Y-78870501D01*
X143819870Y-78826317D01*
X143886898Y-78781530D01*
X144034858Y-78720242D01*
X144191925Y-78689000D01*
X144352075Y-78689000D01*
X144509142Y-78720242D01*
X144509142Y-78720242D01*
G37*
G36*
X175370443Y-76067519D02*
X175436627Y-76074037D01*
X175549853Y-76108384D01*
X175606467Y-76125557D01*
X175708774Y-76180242D01*
X175762991Y-76209222D01*
X175798729Y-76238552D01*
X175900186Y-76321814D01*
X175983448Y-76423271D01*
X176012778Y-76459009D01*
X176012779Y-76459011D01*
X176096443Y-76615533D01*
X176096443Y-76615534D01*
X176147963Y-76785373D01*
X176165359Y-76962000D01*
X176147963Y-77138627D01*
X176113616Y-77251853D01*
X176096443Y-77308467D01*
X176022348Y-77447087D01*
X176012778Y-77464991D01*
X175983448Y-77500729D01*
X175900186Y-77602186D01*
X175802358Y-77682470D01*
X175762991Y-77714778D01*
X175762989Y-77714779D01*
X175606467Y-77798443D01*
X175549853Y-77815616D01*
X175436627Y-77849963D01*
X175370443Y-77856481D01*
X175304260Y-77863000D01*
X175215740Y-77863000D01*
X175149557Y-77856481D01*
X175083373Y-77849963D01*
X174970147Y-77815616D01*
X174913533Y-77798443D01*
X174757011Y-77714779D01*
X174757009Y-77714778D01*
X174717642Y-77682470D01*
X174619814Y-77602186D01*
X174536552Y-77500729D01*
X174507222Y-77464991D01*
X174497652Y-77447087D01*
X174423557Y-77308467D01*
X174406384Y-77251853D01*
X174372037Y-77138627D01*
X174354641Y-76962000D01*
X174372037Y-76785373D01*
X174423557Y-76615534D01*
X174423557Y-76615533D01*
X174507221Y-76459011D01*
X174507222Y-76459009D01*
X174536552Y-76423271D01*
X174619814Y-76321814D01*
X174721271Y-76238552D01*
X174757009Y-76209222D01*
X174811226Y-76180242D01*
X174913533Y-76125557D01*
X174970147Y-76108384D01*
X175083373Y-76074037D01*
X175149557Y-76067519D01*
X175215740Y-76061000D01*
X175304260Y-76061000D01*
X175370443Y-76067519D01*
X175370443Y-76067519D01*
G37*
G36*
X141334443Y-76067519D02*
X141400627Y-76074037D01*
X141513853Y-76108384D01*
X141570467Y-76125557D01*
X141672774Y-76180242D01*
X141726991Y-76209222D01*
X141762729Y-76238552D01*
X141864186Y-76321814D01*
X141947448Y-76423271D01*
X141976778Y-76459009D01*
X141976779Y-76459011D01*
X142060443Y-76615533D01*
X142060443Y-76615534D01*
X142111963Y-76785373D01*
X142129359Y-76962000D01*
X142111963Y-77138627D01*
X142077616Y-77251853D01*
X142060443Y-77308467D01*
X141986348Y-77447087D01*
X141976778Y-77464991D01*
X141947448Y-77500729D01*
X141864186Y-77602186D01*
X141766358Y-77682470D01*
X141726991Y-77714778D01*
X141726989Y-77714779D01*
X141570467Y-77798443D01*
X141513853Y-77815616D01*
X141400627Y-77849963D01*
X141334443Y-77856481D01*
X141268260Y-77863000D01*
X141179740Y-77863000D01*
X141113557Y-77856481D01*
X141047373Y-77849963D01*
X140934147Y-77815616D01*
X140877533Y-77798443D01*
X140721011Y-77714779D01*
X140721009Y-77714778D01*
X140681642Y-77682470D01*
X140583814Y-77602186D01*
X140500552Y-77500729D01*
X140471222Y-77464991D01*
X140461652Y-77447087D01*
X140387557Y-77308467D01*
X140370384Y-77251853D01*
X140336037Y-77138627D01*
X140318641Y-76962000D01*
X140336037Y-76785373D01*
X140387557Y-76615534D01*
X140387557Y-76615533D01*
X140471221Y-76459011D01*
X140471222Y-76459009D01*
X140500552Y-76423271D01*
X140583814Y-76321814D01*
X140685271Y-76238552D01*
X140721009Y-76209222D01*
X140775226Y-76180242D01*
X140877533Y-76125557D01*
X140934147Y-76108384D01*
X141047373Y-76074037D01*
X141113557Y-76067519D01*
X141179740Y-76061000D01*
X141268260Y-76061000D01*
X141334443Y-76067519D01*
X141334443Y-76067519D01*
G37*
G36*
X144509142Y-76180242D02*
X144657102Y-76241530D01*
X144724130Y-76286317D01*
X144790257Y-76330501D01*
X144903499Y-76443743D01*
X144947683Y-76509870D01*
X144992470Y-76576898D01*
X145053758Y-76724858D01*
X145085000Y-76881925D01*
X145085000Y-77042075D01*
X145053758Y-77199142D01*
X145008474Y-77308466D01*
X144992471Y-77347100D01*
X144903499Y-77480257D01*
X144790257Y-77593499D01*
X144724130Y-77637683D01*
X144657102Y-77682470D01*
X144509142Y-77743758D01*
X144352075Y-77775000D01*
X144191925Y-77775000D01*
X144034858Y-77743758D01*
X143886898Y-77682470D01*
X143819870Y-77637683D01*
X143753743Y-77593499D01*
X143640501Y-77480257D01*
X143551529Y-77347100D01*
X143535526Y-77308466D01*
X143490242Y-77199142D01*
X143459000Y-77042075D01*
X143459000Y-76881925D01*
X143490242Y-76724858D01*
X143551530Y-76576898D01*
X143596317Y-76509870D01*
X143640501Y-76443743D01*
X143753743Y-76330501D01*
X143819870Y-76286317D01*
X143886898Y-76241530D01*
X144034858Y-76180242D01*
X144191925Y-76149000D01*
X144352075Y-76149000D01*
X144509142Y-76180242D01*
X144509142Y-76180242D01*
G37*
G36*
X172449142Y-76180242D02*
X172597102Y-76241530D01*
X172664130Y-76286317D01*
X172730257Y-76330501D01*
X172843499Y-76443743D01*
X172887683Y-76509870D01*
X172932470Y-76576898D01*
X172993758Y-76724858D01*
X173025000Y-76881925D01*
X173025000Y-77042075D01*
X172993758Y-77199142D01*
X172948474Y-77308466D01*
X172932471Y-77347100D01*
X172843499Y-77480257D01*
X172730257Y-77593499D01*
X172664130Y-77637683D01*
X172597102Y-77682470D01*
X172449142Y-77743758D01*
X172292075Y-77775000D01*
X172131925Y-77775000D01*
X171974858Y-77743758D01*
X171826898Y-77682470D01*
X171759870Y-77637683D01*
X171693743Y-77593499D01*
X171580501Y-77480257D01*
X171491529Y-77347100D01*
X171475526Y-77308466D01*
X171430242Y-77199142D01*
X171399000Y-77042075D01*
X171399000Y-76881925D01*
X171430242Y-76724858D01*
X171491530Y-76576898D01*
X171536317Y-76509870D01*
X171580501Y-76443743D01*
X171693743Y-76330501D01*
X171759870Y-76286317D01*
X171826898Y-76241530D01*
X171974858Y-76180242D01*
X172131925Y-76149000D01*
X172292075Y-76149000D01*
X172449142Y-76180242D01*
X172449142Y-76180242D01*
G37*
G36*
X141334442Y-73527518D02*
X141400627Y-73534037D01*
X141511049Y-73567533D01*
X141570467Y-73585557D01*
X141648146Y-73627078D01*
X141726991Y-73669222D01*
X141762729Y-73698552D01*
X141864186Y-73781814D01*
X141947448Y-73883271D01*
X141976778Y-73919009D01*
X141976779Y-73919011D01*
X142060443Y-74075533D01*
X142077616Y-74132147D01*
X142111963Y-74245373D01*
X142129359Y-74422000D01*
X142111963Y-74598627D01*
X142091289Y-74666779D01*
X142060443Y-74768467D01*
X142035570Y-74815000D01*
X141976778Y-74924991D01*
X141947448Y-74960729D01*
X141864186Y-75062186D01*
X141766358Y-75142470D01*
X141726991Y-75174778D01*
X141726989Y-75174779D01*
X141570467Y-75258443D01*
X141513853Y-75275616D01*
X141400627Y-75309963D01*
X141334443Y-75316481D01*
X141268260Y-75323000D01*
X141179740Y-75323000D01*
X141113557Y-75316481D01*
X141047373Y-75309963D01*
X140934147Y-75275616D01*
X140877533Y-75258443D01*
X140721011Y-75174779D01*
X140721009Y-75174778D01*
X140681642Y-75142470D01*
X140583814Y-75062186D01*
X140500552Y-74960729D01*
X140471222Y-74924991D01*
X140412430Y-74815000D01*
X140387557Y-74768467D01*
X140356711Y-74666779D01*
X140336037Y-74598627D01*
X140318641Y-74422000D01*
X140336037Y-74245373D01*
X140370384Y-74132147D01*
X140387557Y-74075533D01*
X140471221Y-73919011D01*
X140471222Y-73919009D01*
X140500552Y-73883271D01*
X140583814Y-73781814D01*
X140685271Y-73698552D01*
X140721009Y-73669222D01*
X140799854Y-73627078D01*
X140877533Y-73585557D01*
X140936951Y-73567533D01*
X141047373Y-73534037D01*
X141113558Y-73527518D01*
X141179740Y-73521000D01*
X141268260Y-73521000D01*
X141334442Y-73527518D01*
X141334442Y-73527518D01*
G37*
G36*
X175370442Y-73527518D02*
X175436627Y-73534037D01*
X175547049Y-73567533D01*
X175606467Y-73585557D01*
X175684146Y-73627078D01*
X175762991Y-73669222D01*
X175798729Y-73698552D01*
X175900186Y-73781814D01*
X175983448Y-73883271D01*
X176012778Y-73919009D01*
X176012779Y-73919011D01*
X176096443Y-74075533D01*
X176113616Y-74132147D01*
X176147963Y-74245373D01*
X176165359Y-74422000D01*
X176147963Y-74598627D01*
X176127289Y-74666779D01*
X176096443Y-74768467D01*
X176071570Y-74815000D01*
X176012778Y-74924991D01*
X175983448Y-74960729D01*
X175900186Y-75062186D01*
X175802358Y-75142470D01*
X175762991Y-75174778D01*
X175762989Y-75174779D01*
X175606467Y-75258443D01*
X175549853Y-75275616D01*
X175436627Y-75309963D01*
X175370443Y-75316481D01*
X175304260Y-75323000D01*
X175215740Y-75323000D01*
X175149557Y-75316481D01*
X175083373Y-75309963D01*
X174970147Y-75275616D01*
X174913533Y-75258443D01*
X174757011Y-75174779D01*
X174757009Y-75174778D01*
X174717642Y-75142470D01*
X174619814Y-75062186D01*
X174536552Y-74960729D01*
X174507222Y-74924991D01*
X174448430Y-74815000D01*
X174423557Y-74768467D01*
X174392711Y-74666779D01*
X174372037Y-74598627D01*
X174354641Y-74422000D01*
X174372037Y-74245373D01*
X174406384Y-74132147D01*
X174423557Y-74075533D01*
X174507221Y-73919011D01*
X174507222Y-73919009D01*
X174536552Y-73883271D01*
X174619814Y-73781814D01*
X174721271Y-73698552D01*
X174757009Y-73669222D01*
X174835854Y-73627078D01*
X174913533Y-73585557D01*
X174972951Y-73567533D01*
X175083373Y-73534037D01*
X175149558Y-73527518D01*
X175215740Y-73521000D01*
X175304260Y-73521000D01*
X175370442Y-73527518D01*
X175370442Y-73527518D01*
G37*
G36*
X144509142Y-73640242D02*
X144657102Y-73701530D01*
X144710745Y-73737373D01*
X144790257Y-73790501D01*
X144903499Y-73903743D01*
X144929077Y-73942023D01*
X144992470Y-74036898D01*
X145053758Y-74184858D01*
X145085000Y-74341925D01*
X145085000Y-74502075D01*
X145053758Y-74659142D01*
X144992470Y-74807102D01*
X144947683Y-74874130D01*
X144903499Y-74940257D01*
X144790257Y-75053499D01*
X144724130Y-75097683D01*
X144657102Y-75142470D01*
X144509142Y-75203758D01*
X144352075Y-75235000D01*
X144191925Y-75235000D01*
X144034858Y-75203758D01*
X143886898Y-75142470D01*
X143819870Y-75097683D01*
X143753743Y-75053499D01*
X143640501Y-74940257D01*
X143596317Y-74874130D01*
X143551530Y-74807102D01*
X143490242Y-74659142D01*
X143459000Y-74502075D01*
X143459000Y-74341925D01*
X143490242Y-74184858D01*
X143551530Y-74036898D01*
X143614923Y-73942023D01*
X143640501Y-73903743D01*
X143753743Y-73790501D01*
X143833255Y-73737373D01*
X143886898Y-73701530D01*
X144034858Y-73640242D01*
X144191925Y-73609000D01*
X144352075Y-73609000D01*
X144509142Y-73640242D01*
X144509142Y-73640242D01*
G37*
G36*
X172449142Y-73640242D02*
X172597102Y-73701530D01*
X172650745Y-73737373D01*
X172730257Y-73790501D01*
X172843499Y-73903743D01*
X172869077Y-73942023D01*
X172932470Y-74036898D01*
X172993758Y-74184858D01*
X173025000Y-74341925D01*
X173025000Y-74502075D01*
X172993758Y-74659142D01*
X172932470Y-74807102D01*
X172887683Y-74874130D01*
X172843499Y-74940257D01*
X172730257Y-75053499D01*
X172664130Y-75097683D01*
X172597102Y-75142470D01*
X172449142Y-75203758D01*
X172292075Y-75235000D01*
X172131925Y-75235000D01*
X171974858Y-75203758D01*
X171826898Y-75142470D01*
X171759870Y-75097683D01*
X171693743Y-75053499D01*
X171580501Y-74940257D01*
X171536317Y-74874130D01*
X171491530Y-74807102D01*
X171430242Y-74659142D01*
X171399000Y-74502075D01*
X171399000Y-74341925D01*
X171430242Y-74184858D01*
X171491530Y-74036898D01*
X171554923Y-73942023D01*
X171580501Y-73903743D01*
X171693743Y-73790501D01*
X171773255Y-73737373D01*
X171826898Y-73701530D01*
X171974858Y-73640242D01*
X172131925Y-73609000D01*
X172292075Y-73609000D01*
X172449142Y-73640242D01*
X172449142Y-73640242D01*
G37*
G36*
X185813000Y-74815000D02*
X184011000Y-74815000D01*
X184011000Y-73013000D01*
X185813000Y-73013000D01*
X185813000Y-74815000D01*
X185813000Y-74815000D01*
G37*
G36*
X182482442Y-73019518D02*
X182548627Y-73026037D01*
X182661853Y-73060384D01*
X182718467Y-73077557D01*
X182857087Y-73151652D01*
X182874991Y-73161222D01*
X182910729Y-73190552D01*
X183012186Y-73273814D01*
X183095448Y-73375271D01*
X183124778Y-73411009D01*
X183124779Y-73411011D01*
X183208443Y-73567533D01*
X183208443Y-73567534D01*
X183259963Y-73737373D01*
X183277359Y-73914000D01*
X183259963Y-74090627D01*
X183231379Y-74184857D01*
X183208443Y-74260467D01*
X183134348Y-74399087D01*
X183124778Y-74416991D01*
X183120667Y-74422000D01*
X183012186Y-74554186D01*
X182910729Y-74637448D01*
X182874991Y-74666778D01*
X182874989Y-74666779D01*
X182718467Y-74750443D01*
X182661853Y-74767616D01*
X182548627Y-74801963D01*
X182496469Y-74807100D01*
X182416260Y-74815000D01*
X182327740Y-74815000D01*
X182247531Y-74807100D01*
X182195373Y-74801963D01*
X182082147Y-74767616D01*
X182025533Y-74750443D01*
X181869011Y-74666779D01*
X181869009Y-74666778D01*
X181833271Y-74637448D01*
X181731814Y-74554186D01*
X181623333Y-74422000D01*
X181619222Y-74416991D01*
X181609652Y-74399087D01*
X181535557Y-74260467D01*
X181512621Y-74184857D01*
X181484037Y-74090627D01*
X181466641Y-73914000D01*
X181484037Y-73737373D01*
X181535557Y-73567534D01*
X181535557Y-73567533D01*
X181619221Y-73411011D01*
X181619222Y-73411009D01*
X181648552Y-73375271D01*
X181731814Y-73273814D01*
X181833271Y-73190552D01*
X181869009Y-73161222D01*
X181886913Y-73151652D01*
X182025533Y-73077557D01*
X182082147Y-73060384D01*
X182195373Y-73026037D01*
X182261558Y-73019518D01*
X182327740Y-73013000D01*
X182416260Y-73013000D01*
X182482442Y-73019518D01*
X182482442Y-73019518D01*
G37*
G36*
X179967000Y-74557000D02*
X177665000Y-74557000D01*
X177665000Y-72255000D01*
X179967000Y-72255000D01*
X179967000Y-74557000D01*
X179967000Y-74557000D01*
G37*
G36*
X167552821Y-72313313D02*
X167552824Y-72313314D01*
X167552825Y-72313314D01*
X167713239Y-72361975D01*
X167713241Y-72361976D01*
X167713244Y-72361977D01*
X167861078Y-72440995D01*
X167990659Y-72547341D01*
X168097005Y-72676922D01*
X168176023Y-72824756D01*
X168224687Y-72985179D01*
X168241117Y-73152000D01*
X168224687Y-73318821D01*
X168224686Y-73318824D01*
X168224686Y-73318825D01*
X168196722Y-73411011D01*
X168176023Y-73479244D01*
X168097005Y-73627078D01*
X167990659Y-73756659D01*
X167861078Y-73863005D01*
X167713244Y-73942023D01*
X167713241Y-73942024D01*
X167713239Y-73942025D01*
X167552825Y-73990686D01*
X167552824Y-73990686D01*
X167552821Y-73990687D01*
X167427804Y-74003000D01*
X167344196Y-74003000D01*
X167219179Y-73990687D01*
X167219176Y-73990686D01*
X167219175Y-73990686D01*
X167058761Y-73942025D01*
X167058759Y-73942024D01*
X167058756Y-73942023D01*
X166910922Y-73863005D01*
X166781341Y-73756659D01*
X166674995Y-73627078D01*
X166595977Y-73479244D01*
X166575279Y-73411011D01*
X166547314Y-73318825D01*
X166547314Y-73318824D01*
X166547313Y-73318821D01*
X166530883Y-73152000D01*
X166547313Y-72985179D01*
X166595977Y-72824756D01*
X166674995Y-72676922D01*
X166781341Y-72547341D01*
X166910922Y-72440995D01*
X167058756Y-72361977D01*
X167058759Y-72361976D01*
X167058761Y-72361975D01*
X167219175Y-72313314D01*
X167219176Y-72313314D01*
X167219179Y-72313313D01*
X167344196Y-72301000D01*
X167427804Y-72301000D01*
X167552821Y-72313313D01*
X167552821Y-72313313D01*
G37*
G36*
X141334443Y-70987519D02*
X141400627Y-70994037D01*
X141513853Y-71028384D01*
X141570467Y-71045557D01*
X141672774Y-71100242D01*
X141726991Y-71129222D01*
X141762729Y-71158552D01*
X141864186Y-71241814D01*
X141947448Y-71343271D01*
X141976778Y-71379009D01*
X141976779Y-71379011D01*
X142060443Y-71535533D01*
X142060443Y-71535534D01*
X142111963Y-71705373D01*
X142129359Y-71882000D01*
X142111963Y-72058627D01*
X142077616Y-72171853D01*
X142060443Y-72228467D01*
X141989080Y-72361975D01*
X141976778Y-72384991D01*
X141947448Y-72420729D01*
X141864186Y-72522186D01*
X141766358Y-72602470D01*
X141726991Y-72634778D01*
X141726989Y-72634779D01*
X141570467Y-72718443D01*
X141513853Y-72735616D01*
X141400627Y-72769963D01*
X141334443Y-72776481D01*
X141268260Y-72783000D01*
X141179740Y-72783000D01*
X141113557Y-72776481D01*
X141047373Y-72769963D01*
X140934147Y-72735616D01*
X140877533Y-72718443D01*
X140721011Y-72634779D01*
X140721009Y-72634778D01*
X140681642Y-72602470D01*
X140583814Y-72522186D01*
X140500552Y-72420729D01*
X140471222Y-72384991D01*
X140458920Y-72361975D01*
X140387557Y-72228467D01*
X140370384Y-72171853D01*
X140336037Y-72058627D01*
X140318641Y-71882000D01*
X140336037Y-71705373D01*
X140387557Y-71535534D01*
X140387557Y-71535533D01*
X140471221Y-71379011D01*
X140471222Y-71379009D01*
X140500552Y-71343271D01*
X140583814Y-71241814D01*
X140685271Y-71158552D01*
X140721009Y-71129222D01*
X140775226Y-71100242D01*
X140877533Y-71045557D01*
X140934147Y-71028384D01*
X141047373Y-70994037D01*
X141113557Y-70987519D01*
X141179740Y-70981000D01*
X141268260Y-70981000D01*
X141334443Y-70987519D01*
X141334443Y-70987519D01*
G37*
G36*
X175370443Y-70987519D02*
X175436627Y-70994037D01*
X175549853Y-71028384D01*
X175606467Y-71045557D01*
X175708774Y-71100242D01*
X175762991Y-71129222D01*
X175798729Y-71158552D01*
X175900186Y-71241814D01*
X175983448Y-71343271D01*
X176012778Y-71379009D01*
X176012779Y-71379011D01*
X176096443Y-71535533D01*
X176096443Y-71535534D01*
X176147963Y-71705373D01*
X176165359Y-71882000D01*
X176147963Y-72058627D01*
X176113616Y-72171853D01*
X176096443Y-72228467D01*
X176025080Y-72361975D01*
X176012778Y-72384991D01*
X175983448Y-72420729D01*
X175900186Y-72522186D01*
X175802358Y-72602470D01*
X175762991Y-72634778D01*
X175762989Y-72634779D01*
X175606467Y-72718443D01*
X175549853Y-72735616D01*
X175436627Y-72769963D01*
X175370443Y-72776481D01*
X175304260Y-72783000D01*
X175215740Y-72783000D01*
X175149557Y-72776481D01*
X175083373Y-72769963D01*
X174970147Y-72735616D01*
X174913533Y-72718443D01*
X174757011Y-72634779D01*
X174757009Y-72634778D01*
X174717642Y-72602470D01*
X174619814Y-72522186D01*
X174536552Y-72420729D01*
X174507222Y-72384991D01*
X174494920Y-72361975D01*
X174423557Y-72228467D01*
X174406384Y-72171853D01*
X174372037Y-72058627D01*
X174354641Y-71882000D01*
X174372037Y-71705373D01*
X174423557Y-71535534D01*
X174423557Y-71535533D01*
X174507221Y-71379011D01*
X174507222Y-71379009D01*
X174536552Y-71343271D01*
X174619814Y-71241814D01*
X174721271Y-71158552D01*
X174757009Y-71129222D01*
X174811226Y-71100242D01*
X174913533Y-71045557D01*
X174970147Y-71028384D01*
X175083373Y-70994037D01*
X175149557Y-70987519D01*
X175215740Y-70981000D01*
X175304260Y-70981000D01*
X175370443Y-70987519D01*
X175370443Y-70987519D01*
G37*
G36*
X172449142Y-71100242D02*
X172597102Y-71161530D01*
X172664130Y-71206317D01*
X172730257Y-71250501D01*
X172843499Y-71363743D01*
X172887683Y-71429870D01*
X172932470Y-71496898D01*
X172993758Y-71644858D01*
X173025000Y-71801925D01*
X173025000Y-71962075D01*
X172993758Y-72119142D01*
X172948474Y-72228466D01*
X172932471Y-72267100D01*
X172843499Y-72400257D01*
X172730257Y-72513499D01*
X172679608Y-72547341D01*
X172597102Y-72602470D01*
X172449142Y-72663758D01*
X172292075Y-72695000D01*
X172131925Y-72695000D01*
X171974858Y-72663758D01*
X171826898Y-72602470D01*
X171744392Y-72547341D01*
X171693743Y-72513499D01*
X171580501Y-72400257D01*
X171491529Y-72267100D01*
X171475526Y-72228466D01*
X171430242Y-72119142D01*
X171399000Y-71962075D01*
X171399000Y-71801925D01*
X171430242Y-71644858D01*
X171491530Y-71496898D01*
X171536317Y-71429870D01*
X171580501Y-71363743D01*
X171693743Y-71250501D01*
X171759870Y-71206317D01*
X171826898Y-71161530D01*
X171974858Y-71100242D01*
X172131925Y-71069000D01*
X172292075Y-71069000D01*
X172449142Y-71100242D01*
X172449142Y-71100242D01*
G37*
G36*
X144509142Y-71100242D02*
X144657102Y-71161530D01*
X144724130Y-71206317D01*
X144790257Y-71250501D01*
X144903499Y-71363743D01*
X144947683Y-71429870D01*
X144992470Y-71496898D01*
X145053758Y-71644858D01*
X145085000Y-71801925D01*
X145085000Y-71962075D01*
X145053758Y-72119142D01*
X145008474Y-72228466D01*
X144992471Y-72267100D01*
X144903499Y-72400257D01*
X144790257Y-72513499D01*
X144739608Y-72547341D01*
X144657102Y-72602470D01*
X144509142Y-72663758D01*
X144352075Y-72695000D01*
X144191925Y-72695000D01*
X144034858Y-72663758D01*
X143886898Y-72602470D01*
X143804392Y-72547341D01*
X143753743Y-72513499D01*
X143640501Y-72400257D01*
X143551529Y-72267100D01*
X143535526Y-72228466D01*
X143490242Y-72119142D01*
X143459000Y-71962075D01*
X143459000Y-71801925D01*
X143490242Y-71644858D01*
X143551530Y-71496898D01*
X143596317Y-71429870D01*
X143640501Y-71363743D01*
X143753743Y-71250501D01*
X143819870Y-71206317D01*
X143886898Y-71161530D01*
X144034858Y-71100242D01*
X144191925Y-71069000D01*
X144352075Y-71069000D01*
X144509142Y-71100242D01*
X144509142Y-71100242D01*
G37*
G36*
X166790821Y-68757313D02*
X166790824Y-68757314D01*
X166790825Y-68757314D01*
X166951239Y-68805975D01*
X166951241Y-68805976D01*
X166951244Y-68805977D01*
X167099078Y-68884995D01*
X167228659Y-68991341D01*
X167335005Y-69120922D01*
X167414023Y-69268756D01*
X167414024Y-69268759D01*
X167414025Y-69268761D01*
X167460532Y-69422074D01*
X167462687Y-69429179D01*
X167479117Y-69596000D01*
X167462687Y-69762821D01*
X167462686Y-69762824D01*
X167462686Y-69762825D01*
X167437762Y-69844989D01*
X167414023Y-69923244D01*
X167335005Y-70071078D01*
X167228659Y-70200659D01*
X167099078Y-70307005D01*
X166951244Y-70386023D01*
X166951241Y-70386024D01*
X166951239Y-70386025D01*
X166790825Y-70434686D01*
X166790824Y-70434686D01*
X166790821Y-70434687D01*
X166665804Y-70447000D01*
X166582196Y-70447000D01*
X166457179Y-70434687D01*
X166457176Y-70434686D01*
X166457175Y-70434686D01*
X166296761Y-70386025D01*
X166296759Y-70386024D01*
X166296756Y-70386023D01*
X166148922Y-70307005D01*
X166019341Y-70200659D01*
X165912995Y-70071078D01*
X165833977Y-69923244D01*
X165810239Y-69844989D01*
X165785314Y-69762825D01*
X165785314Y-69762824D01*
X165785313Y-69762821D01*
X165768883Y-69596000D01*
X165785313Y-69429179D01*
X165787468Y-69422074D01*
X165833975Y-69268761D01*
X165833976Y-69268759D01*
X165833977Y-69268756D01*
X165912995Y-69120922D01*
X166019341Y-68991341D01*
X166148922Y-68884995D01*
X166296756Y-68805977D01*
X166296759Y-68805976D01*
X166296761Y-68805975D01*
X166457175Y-68757314D01*
X166457176Y-68757314D01*
X166457179Y-68757313D01*
X166582196Y-68745000D01*
X166665804Y-68745000D01*
X166790821Y-68757313D01*
X166790821Y-68757313D01*
G37*
G36*
X150534821Y-68757313D02*
X150534824Y-68757314D01*
X150534825Y-68757314D01*
X150695239Y-68805975D01*
X150695241Y-68805976D01*
X150695244Y-68805977D01*
X150843078Y-68884995D01*
X150972659Y-68991341D01*
X151079005Y-69120922D01*
X151158023Y-69268756D01*
X151158024Y-69268759D01*
X151158025Y-69268761D01*
X151204532Y-69422074D01*
X151206687Y-69429179D01*
X151223117Y-69596000D01*
X151206687Y-69762821D01*
X151206686Y-69762824D01*
X151206686Y-69762825D01*
X151181762Y-69844989D01*
X151158023Y-69923244D01*
X151079005Y-70071078D01*
X150972659Y-70200659D01*
X150843078Y-70307005D01*
X150695244Y-70386023D01*
X150695241Y-70386024D01*
X150695239Y-70386025D01*
X150534825Y-70434686D01*
X150534824Y-70434686D01*
X150534821Y-70434687D01*
X150409804Y-70447000D01*
X150326196Y-70447000D01*
X150201179Y-70434687D01*
X150201176Y-70434686D01*
X150201175Y-70434686D01*
X150040761Y-70386025D01*
X150040759Y-70386024D01*
X150040756Y-70386023D01*
X149892922Y-70307005D01*
X149763341Y-70200659D01*
X149656995Y-70071078D01*
X149577977Y-69923244D01*
X149554239Y-69844989D01*
X149529314Y-69762825D01*
X149529314Y-69762824D01*
X149529313Y-69762821D01*
X149512883Y-69596000D01*
X149529313Y-69429179D01*
X149531468Y-69422074D01*
X149577975Y-69268761D01*
X149577976Y-69268759D01*
X149577977Y-69268756D01*
X149656995Y-69120922D01*
X149763341Y-68991341D01*
X149892922Y-68884995D01*
X150040756Y-68805977D01*
X150040759Y-68805976D01*
X150040761Y-68805975D01*
X150201175Y-68757314D01*
X150201176Y-68757314D01*
X150201179Y-68757313D01*
X150326196Y-68745000D01*
X150409804Y-68745000D01*
X150534821Y-68757313D01*
X150534821Y-68757313D01*
G37*
G36*
X141334442Y-68447518D02*
X141400627Y-68454037D01*
X141513853Y-68488384D01*
X141570467Y-68505557D01*
X141672774Y-68560242D01*
X141726991Y-68589222D01*
X141762729Y-68618552D01*
X141864186Y-68701814D01*
X141947448Y-68803271D01*
X141976778Y-68839009D01*
X141976779Y-68839011D01*
X142060443Y-68995533D01*
X142060443Y-68995534D01*
X142111963Y-69165373D01*
X142129359Y-69342000D01*
X142111963Y-69518627D01*
X142088492Y-69596000D01*
X142060443Y-69688467D01*
X142020699Y-69762821D01*
X141976778Y-69844991D01*
X141947448Y-69880729D01*
X141864186Y-69982186D01*
X141766358Y-70062470D01*
X141726991Y-70094778D01*
X141726989Y-70094779D01*
X141570467Y-70178443D01*
X141513853Y-70195616D01*
X141400627Y-70229963D01*
X141334442Y-70236482D01*
X141268260Y-70243000D01*
X141179740Y-70243000D01*
X141113558Y-70236482D01*
X141047373Y-70229963D01*
X140934147Y-70195616D01*
X140877533Y-70178443D01*
X140721011Y-70094779D01*
X140721009Y-70094778D01*
X140681642Y-70062470D01*
X140583814Y-69982186D01*
X140500552Y-69880729D01*
X140471222Y-69844991D01*
X140427301Y-69762821D01*
X140387557Y-69688467D01*
X140359508Y-69596000D01*
X140336037Y-69518627D01*
X140318641Y-69342000D01*
X140336037Y-69165373D01*
X140387557Y-68995534D01*
X140387557Y-68995533D01*
X140471221Y-68839011D01*
X140471222Y-68839009D01*
X140500552Y-68803271D01*
X140583814Y-68701814D01*
X140685271Y-68618552D01*
X140721009Y-68589222D01*
X140775226Y-68560242D01*
X140877533Y-68505557D01*
X140934147Y-68488384D01*
X141047373Y-68454037D01*
X141113558Y-68447518D01*
X141179740Y-68441000D01*
X141268260Y-68441000D01*
X141334442Y-68447518D01*
X141334442Y-68447518D01*
G37*
G36*
X175370442Y-68447518D02*
X175436627Y-68454037D01*
X175549853Y-68488384D01*
X175606467Y-68505557D01*
X175708774Y-68560242D01*
X175762991Y-68589222D01*
X175798729Y-68618552D01*
X175900186Y-68701814D01*
X175983448Y-68803271D01*
X176012778Y-68839009D01*
X176012779Y-68839011D01*
X176096443Y-68995533D01*
X176096443Y-68995534D01*
X176147963Y-69165373D01*
X176165359Y-69342000D01*
X176147963Y-69518627D01*
X176124492Y-69596000D01*
X176096443Y-69688467D01*
X176056699Y-69762821D01*
X176012778Y-69844991D01*
X175983448Y-69880729D01*
X175900186Y-69982186D01*
X175802358Y-70062470D01*
X175762991Y-70094778D01*
X175762989Y-70094779D01*
X175606467Y-70178443D01*
X175549853Y-70195616D01*
X175436627Y-70229963D01*
X175370442Y-70236482D01*
X175304260Y-70243000D01*
X175215740Y-70243000D01*
X175149558Y-70236482D01*
X175083373Y-70229963D01*
X174970147Y-70195616D01*
X174913533Y-70178443D01*
X174757011Y-70094779D01*
X174757009Y-70094778D01*
X174717642Y-70062470D01*
X174619814Y-69982186D01*
X174536552Y-69880729D01*
X174507222Y-69844991D01*
X174463301Y-69762821D01*
X174423557Y-69688467D01*
X174395508Y-69596000D01*
X174372037Y-69518627D01*
X174354641Y-69342000D01*
X174372037Y-69165373D01*
X174423557Y-68995534D01*
X174423557Y-68995533D01*
X174507221Y-68839011D01*
X174507222Y-68839009D01*
X174536552Y-68803271D01*
X174619814Y-68701814D01*
X174721271Y-68618552D01*
X174757009Y-68589222D01*
X174811226Y-68560242D01*
X174913533Y-68505557D01*
X174970147Y-68488384D01*
X175083373Y-68454037D01*
X175149558Y-68447518D01*
X175215740Y-68441000D01*
X175304260Y-68441000D01*
X175370442Y-68447518D01*
X175370442Y-68447518D01*
G37*
G36*
X144509142Y-68560242D02*
X144657102Y-68621530D01*
X144706360Y-68654443D01*
X144790257Y-68710501D01*
X144903499Y-68823743D01*
X144944426Y-68884995D01*
X144992470Y-68956898D01*
X145053758Y-69104858D01*
X145085000Y-69261925D01*
X145085000Y-69422075D01*
X145053758Y-69579142D01*
X144992470Y-69727102D01*
X144947683Y-69794130D01*
X144903499Y-69860257D01*
X144790257Y-69973499D01*
X144724130Y-70017683D01*
X144657102Y-70062470D01*
X144509142Y-70123758D01*
X144352075Y-70155000D01*
X144191925Y-70155000D01*
X144034858Y-70123758D01*
X143886898Y-70062470D01*
X143819870Y-70017683D01*
X143753743Y-69973499D01*
X143640501Y-69860257D01*
X143596317Y-69794130D01*
X143551530Y-69727102D01*
X143490242Y-69579142D01*
X143459000Y-69422075D01*
X143459000Y-69261925D01*
X143490242Y-69104858D01*
X143551530Y-68956898D01*
X143599574Y-68884995D01*
X143640501Y-68823743D01*
X143753743Y-68710501D01*
X143837640Y-68654443D01*
X143886898Y-68621530D01*
X144034858Y-68560242D01*
X144191925Y-68529000D01*
X144352075Y-68529000D01*
X144509142Y-68560242D01*
X144509142Y-68560242D01*
G37*
G36*
X172449142Y-68560242D02*
X172597102Y-68621530D01*
X172646360Y-68654443D01*
X172730257Y-68710501D01*
X172843499Y-68823743D01*
X172884426Y-68884995D01*
X172932470Y-68956898D01*
X172993758Y-69104858D01*
X173025000Y-69261925D01*
X173025000Y-69422075D01*
X172993758Y-69579142D01*
X172932470Y-69727102D01*
X172887683Y-69794130D01*
X172843499Y-69860257D01*
X172730257Y-69973499D01*
X172664130Y-70017683D01*
X172597102Y-70062470D01*
X172449142Y-70123758D01*
X172292075Y-70155000D01*
X172131925Y-70155000D01*
X171974858Y-70123758D01*
X171826898Y-70062470D01*
X171759870Y-70017683D01*
X171693743Y-69973499D01*
X171580501Y-69860257D01*
X171536317Y-69794130D01*
X171491530Y-69727102D01*
X171430242Y-69579142D01*
X171399000Y-69422075D01*
X171399000Y-69261925D01*
X171430242Y-69104858D01*
X171491530Y-68956898D01*
X171539574Y-68884995D01*
X171580501Y-68823743D01*
X171693743Y-68710501D01*
X171777640Y-68654443D01*
X171826898Y-68621530D01*
X171974858Y-68560242D01*
X172131925Y-68529000D01*
X172292075Y-68529000D01*
X172449142Y-68560242D01*
X172449142Y-68560242D01*
G37*
G36*
X185305000Y-68719000D02*
X183503000Y-68719000D01*
X183503000Y-66917000D01*
X185305000Y-66917000D01*
X185305000Y-68719000D01*
X185305000Y-68719000D01*
G37*
G36*
X181974443Y-66923519D02*
X182040627Y-66930037D01*
X182153853Y-66964384D01*
X182210467Y-66981557D01*
X182318199Y-67039142D01*
X182366991Y-67065222D01*
X182402729Y-67094552D01*
X182504186Y-67177814D01*
X182587448Y-67279271D01*
X182616778Y-67315009D01*
X182616779Y-67315011D01*
X182700443Y-67471533D01*
X182700443Y-67471534D01*
X182751963Y-67641373D01*
X182769359Y-67818000D01*
X182751963Y-67994627D01*
X182717616Y-68107853D01*
X182700443Y-68164467D01*
X182626348Y-68303087D01*
X182616778Y-68320991D01*
X182587448Y-68356729D01*
X182504186Y-68458186D01*
X182402729Y-68541448D01*
X182366991Y-68570778D01*
X182366989Y-68570779D01*
X182210467Y-68654443D01*
X182153853Y-68671616D01*
X182040627Y-68705963D01*
X181974443Y-68712481D01*
X181908260Y-68719000D01*
X181819740Y-68719000D01*
X181753557Y-68712481D01*
X181687373Y-68705963D01*
X181574147Y-68671616D01*
X181517533Y-68654443D01*
X181361011Y-68570779D01*
X181361009Y-68570778D01*
X181325271Y-68541448D01*
X181223814Y-68458186D01*
X181140552Y-68356729D01*
X181111222Y-68320991D01*
X181101652Y-68303087D01*
X181027557Y-68164467D01*
X181010384Y-68107853D01*
X180976037Y-67994627D01*
X180958641Y-67818000D01*
X180976037Y-67641373D01*
X181027557Y-67471534D01*
X181027557Y-67471533D01*
X181111221Y-67315011D01*
X181111222Y-67315009D01*
X181140552Y-67279271D01*
X181223814Y-67177814D01*
X181325271Y-67094552D01*
X181361009Y-67065222D01*
X181409801Y-67039142D01*
X181517533Y-66981557D01*
X181574147Y-66964384D01*
X181687373Y-66930037D01*
X181753557Y-66923519D01*
X181819740Y-66917000D01*
X181908260Y-66917000D01*
X181974443Y-66923519D01*
X181974443Y-66923519D01*
G37*
G36*
X179434443Y-66923519D02*
X179500627Y-66930037D01*
X179613853Y-66964384D01*
X179670467Y-66981557D01*
X179778199Y-67039142D01*
X179826991Y-67065222D01*
X179862729Y-67094552D01*
X179964186Y-67177814D01*
X180047448Y-67279271D01*
X180076778Y-67315009D01*
X180076779Y-67315011D01*
X180160443Y-67471533D01*
X180160443Y-67471534D01*
X180211963Y-67641373D01*
X180229359Y-67818000D01*
X180211963Y-67994627D01*
X180177616Y-68107853D01*
X180160443Y-68164467D01*
X180086348Y-68303087D01*
X180076778Y-68320991D01*
X180047448Y-68356729D01*
X179964186Y-68458186D01*
X179862729Y-68541448D01*
X179826991Y-68570778D01*
X179826989Y-68570779D01*
X179670467Y-68654443D01*
X179613853Y-68671616D01*
X179500627Y-68705963D01*
X179434443Y-68712481D01*
X179368260Y-68719000D01*
X179279740Y-68719000D01*
X179213557Y-68712481D01*
X179147373Y-68705963D01*
X179034147Y-68671616D01*
X178977533Y-68654443D01*
X178821011Y-68570779D01*
X178821009Y-68570778D01*
X178785271Y-68541448D01*
X178683814Y-68458186D01*
X178600552Y-68356729D01*
X178571222Y-68320991D01*
X178561652Y-68303087D01*
X178487557Y-68164467D01*
X178470384Y-68107853D01*
X178436037Y-67994627D01*
X178418641Y-67818000D01*
X178436037Y-67641373D01*
X178487557Y-67471534D01*
X178487557Y-67471533D01*
X178571221Y-67315011D01*
X178571222Y-67315009D01*
X178600552Y-67279271D01*
X178683814Y-67177814D01*
X178785271Y-67094552D01*
X178821009Y-67065222D01*
X178869801Y-67039142D01*
X178977533Y-66981557D01*
X179034147Y-66964384D01*
X179147373Y-66930037D01*
X179213557Y-66923519D01*
X179279740Y-66917000D01*
X179368260Y-66917000D01*
X179434443Y-66923519D01*
X179434443Y-66923519D01*
G37*
G36*
X175370443Y-65907519D02*
X175436627Y-65914037D01*
X175549853Y-65948384D01*
X175606467Y-65965557D01*
X175708774Y-66020242D01*
X175762991Y-66049222D01*
X175798729Y-66078552D01*
X175900186Y-66161814D01*
X175983448Y-66263271D01*
X176012778Y-66299009D01*
X176012779Y-66299011D01*
X176096443Y-66455533D01*
X176096443Y-66455534D01*
X176147963Y-66625373D01*
X176165359Y-66802000D01*
X176147963Y-66978627D01*
X176121695Y-67065221D01*
X176096443Y-67148467D01*
X176022348Y-67287087D01*
X176012778Y-67304991D01*
X175983448Y-67340729D01*
X175900186Y-67442186D01*
X175802358Y-67522470D01*
X175762991Y-67554778D01*
X175762989Y-67554779D01*
X175606467Y-67638443D01*
X175549853Y-67655616D01*
X175436627Y-67689963D01*
X175370442Y-67696482D01*
X175304260Y-67703000D01*
X175215740Y-67703000D01*
X175149558Y-67696482D01*
X175083373Y-67689963D01*
X174970147Y-67655616D01*
X174913533Y-67638443D01*
X174757011Y-67554779D01*
X174757009Y-67554778D01*
X174717642Y-67522470D01*
X174619814Y-67442186D01*
X174536552Y-67340729D01*
X174507222Y-67304991D01*
X174497652Y-67287087D01*
X174423557Y-67148467D01*
X174398305Y-67065221D01*
X174372037Y-66978627D01*
X174354641Y-66802000D01*
X174372037Y-66625373D01*
X174423557Y-66455534D01*
X174423557Y-66455533D01*
X174507221Y-66299011D01*
X174507222Y-66299009D01*
X174536552Y-66263271D01*
X174619814Y-66161814D01*
X174721271Y-66078552D01*
X174757009Y-66049222D01*
X174811226Y-66020242D01*
X174913533Y-65965557D01*
X174970147Y-65948384D01*
X175083373Y-65914037D01*
X175149557Y-65907519D01*
X175215740Y-65901000D01*
X175304260Y-65901000D01*
X175370443Y-65907519D01*
X175370443Y-65907519D01*
G37*
G36*
X141334443Y-65907519D02*
X141400627Y-65914037D01*
X141513853Y-65948384D01*
X141570467Y-65965557D01*
X141672774Y-66020242D01*
X141726991Y-66049222D01*
X141762729Y-66078552D01*
X141864186Y-66161814D01*
X141947448Y-66263271D01*
X141976778Y-66299009D01*
X141976779Y-66299011D01*
X142060443Y-66455533D01*
X142060443Y-66455534D01*
X142111963Y-66625373D01*
X142129359Y-66802000D01*
X142111963Y-66978627D01*
X142085695Y-67065221D01*
X142060443Y-67148467D01*
X141986348Y-67287087D01*
X141976778Y-67304991D01*
X141947448Y-67340729D01*
X141864186Y-67442186D01*
X141766358Y-67522470D01*
X141726991Y-67554778D01*
X141726989Y-67554779D01*
X141570467Y-67638443D01*
X141513853Y-67655616D01*
X141400627Y-67689963D01*
X141334442Y-67696482D01*
X141268260Y-67703000D01*
X141179740Y-67703000D01*
X141113558Y-67696482D01*
X141047373Y-67689963D01*
X140934147Y-67655616D01*
X140877533Y-67638443D01*
X140721011Y-67554779D01*
X140721009Y-67554778D01*
X140681642Y-67522470D01*
X140583814Y-67442186D01*
X140500552Y-67340729D01*
X140471222Y-67304991D01*
X140461652Y-67287087D01*
X140387557Y-67148467D01*
X140362305Y-67065221D01*
X140336037Y-66978627D01*
X140318641Y-66802000D01*
X140336037Y-66625373D01*
X140387557Y-66455534D01*
X140387557Y-66455533D01*
X140471221Y-66299011D01*
X140471222Y-66299009D01*
X140500552Y-66263271D01*
X140583814Y-66161814D01*
X140685271Y-66078552D01*
X140721009Y-66049222D01*
X140775226Y-66020242D01*
X140877533Y-65965557D01*
X140934147Y-65948384D01*
X141047373Y-65914037D01*
X141113557Y-65907519D01*
X141179740Y-65901000D01*
X141268260Y-65901000D01*
X141334443Y-65907519D01*
X141334443Y-65907519D01*
G37*
G36*
X172449142Y-66020242D02*
X172597102Y-66081530D01*
X172664130Y-66126317D01*
X172730257Y-66170501D01*
X172843499Y-66283743D01*
X172887683Y-66349870D01*
X172932470Y-66416898D01*
X172993758Y-66564858D01*
X173025000Y-66721925D01*
X173025000Y-66882075D01*
X172993758Y-67039142D01*
X172982955Y-67065222D01*
X172932471Y-67187100D01*
X172843499Y-67320257D01*
X172730257Y-67433499D01*
X172673335Y-67471533D01*
X172597102Y-67522470D01*
X172449142Y-67583758D01*
X172292075Y-67615000D01*
X172131925Y-67615000D01*
X171974858Y-67583758D01*
X171826898Y-67522470D01*
X171750665Y-67471533D01*
X171693743Y-67433499D01*
X171580501Y-67320257D01*
X171491529Y-67187100D01*
X171441045Y-67065222D01*
X171430242Y-67039142D01*
X171399000Y-66882075D01*
X171399000Y-66721925D01*
X171430242Y-66564858D01*
X171491530Y-66416898D01*
X171536317Y-66349870D01*
X171580501Y-66283743D01*
X171693743Y-66170501D01*
X171759870Y-66126317D01*
X171826898Y-66081530D01*
X171974858Y-66020242D01*
X172131925Y-65989000D01*
X172292075Y-65989000D01*
X172449142Y-66020242D01*
X172449142Y-66020242D01*
G37*
G36*
X144509142Y-66020242D02*
X144657102Y-66081530D01*
X144724130Y-66126317D01*
X144790257Y-66170501D01*
X144903499Y-66283743D01*
X144947683Y-66349870D01*
X144992470Y-66416898D01*
X145053758Y-66564858D01*
X145085000Y-66721925D01*
X145085000Y-66882075D01*
X145053758Y-67039142D01*
X145042955Y-67065222D01*
X144992471Y-67187100D01*
X144903499Y-67320257D01*
X144790257Y-67433499D01*
X144733335Y-67471533D01*
X144657102Y-67522470D01*
X144509142Y-67583758D01*
X144352075Y-67615000D01*
X144191925Y-67615000D01*
X144034858Y-67583758D01*
X143886898Y-67522470D01*
X143810665Y-67471533D01*
X143753743Y-67433499D01*
X143640501Y-67320257D01*
X143551529Y-67187100D01*
X143501045Y-67065222D01*
X143490242Y-67039142D01*
X143459000Y-66882075D01*
X143459000Y-66721925D01*
X143490242Y-66564858D01*
X143551530Y-66416898D01*
X143596317Y-66349870D01*
X143640501Y-66283743D01*
X143753743Y-66170501D01*
X143819870Y-66126317D01*
X143886898Y-66081530D01*
X144034858Y-66020242D01*
X144191925Y-65989000D01*
X144352075Y-65989000D01*
X144509142Y-66020242D01*
X144509142Y-66020242D01*
G37*
G36*
X141334442Y-63367518D02*
X141400627Y-63374037D01*
X141513853Y-63408384D01*
X141570467Y-63425557D01*
X141672774Y-63480242D01*
X141726991Y-63509222D01*
X141762729Y-63538552D01*
X141864186Y-63621814D01*
X141947448Y-63723271D01*
X141976778Y-63759009D01*
X141976779Y-63759011D01*
X142060443Y-63915533D01*
X142060443Y-63915534D01*
X142111963Y-64085373D01*
X142129359Y-64262000D01*
X142111963Y-64438627D01*
X142077616Y-64551853D01*
X142060443Y-64608467D01*
X141986348Y-64747087D01*
X141976778Y-64764991D01*
X141947448Y-64800729D01*
X141864186Y-64902186D01*
X141766358Y-64982470D01*
X141726991Y-65014778D01*
X141726989Y-65014779D01*
X141570467Y-65098443D01*
X141513853Y-65115616D01*
X141400627Y-65149963D01*
X141334443Y-65156481D01*
X141268260Y-65163000D01*
X141179740Y-65163000D01*
X141113557Y-65156481D01*
X141047373Y-65149963D01*
X140934147Y-65115616D01*
X140877533Y-65098443D01*
X140721011Y-65014779D01*
X140721009Y-65014778D01*
X140681642Y-64982470D01*
X140583814Y-64902186D01*
X140500552Y-64800729D01*
X140471222Y-64764991D01*
X140461652Y-64747087D01*
X140387557Y-64608467D01*
X140370384Y-64551853D01*
X140336037Y-64438627D01*
X140318641Y-64262000D01*
X140336037Y-64085373D01*
X140387557Y-63915534D01*
X140387557Y-63915533D01*
X140471221Y-63759011D01*
X140471222Y-63759009D01*
X140500552Y-63723271D01*
X140583814Y-63621814D01*
X140685271Y-63538552D01*
X140721009Y-63509222D01*
X140775226Y-63480242D01*
X140877533Y-63425557D01*
X140934147Y-63408384D01*
X141047373Y-63374037D01*
X141113558Y-63367518D01*
X141179740Y-63361000D01*
X141268260Y-63361000D01*
X141334442Y-63367518D01*
X141334442Y-63367518D01*
G37*
G36*
X175370442Y-63367518D02*
X175436627Y-63374037D01*
X175549853Y-63408384D01*
X175606467Y-63425557D01*
X175708774Y-63480242D01*
X175762991Y-63509222D01*
X175798729Y-63538552D01*
X175900186Y-63621814D01*
X175983448Y-63723271D01*
X176012778Y-63759009D01*
X176012779Y-63759011D01*
X176096443Y-63915533D01*
X176096443Y-63915534D01*
X176147963Y-64085373D01*
X176165359Y-64262000D01*
X176147963Y-64438627D01*
X176113616Y-64551853D01*
X176096443Y-64608467D01*
X176022348Y-64747087D01*
X176012778Y-64764991D01*
X175983448Y-64800729D01*
X175900186Y-64902186D01*
X175802358Y-64982470D01*
X175762991Y-65014778D01*
X175762989Y-65014779D01*
X175606467Y-65098443D01*
X175549853Y-65115616D01*
X175436627Y-65149963D01*
X175370443Y-65156481D01*
X175304260Y-65163000D01*
X175215740Y-65163000D01*
X175149557Y-65156481D01*
X175083373Y-65149963D01*
X174970147Y-65115616D01*
X174913533Y-65098443D01*
X174757011Y-65014779D01*
X174757009Y-65014778D01*
X174717642Y-64982470D01*
X174619814Y-64902186D01*
X174536552Y-64800729D01*
X174507222Y-64764991D01*
X174497652Y-64747087D01*
X174423557Y-64608467D01*
X174406384Y-64551853D01*
X174372037Y-64438627D01*
X174354641Y-64262000D01*
X174372037Y-64085373D01*
X174423557Y-63915534D01*
X174423557Y-63915533D01*
X174507221Y-63759011D01*
X174507222Y-63759009D01*
X174536552Y-63723271D01*
X174619814Y-63621814D01*
X174721271Y-63538552D01*
X174757009Y-63509222D01*
X174811226Y-63480242D01*
X174913533Y-63425557D01*
X174970147Y-63408384D01*
X175083373Y-63374037D01*
X175149558Y-63367518D01*
X175215740Y-63361000D01*
X175304260Y-63361000D01*
X175370442Y-63367518D01*
X175370442Y-63367518D01*
G37*
G36*
X172449142Y-63480242D02*
X172597102Y-63541530D01*
X172664130Y-63586317D01*
X172730257Y-63630501D01*
X172843499Y-63743743D01*
X172887683Y-63809870D01*
X172932470Y-63876898D01*
X172993758Y-64024858D01*
X173025000Y-64181925D01*
X173025000Y-64342075D01*
X172993758Y-64499142D01*
X172948474Y-64608466D01*
X172932471Y-64647100D01*
X172843499Y-64780257D01*
X172730257Y-64893499D01*
X172664130Y-64937683D01*
X172597102Y-64982470D01*
X172449142Y-65043758D01*
X172292075Y-65075000D01*
X172131925Y-65075000D01*
X171974858Y-65043758D01*
X171826898Y-64982470D01*
X171759870Y-64937683D01*
X171693743Y-64893499D01*
X171580501Y-64780257D01*
X171491529Y-64647100D01*
X171475526Y-64608466D01*
X171430242Y-64499142D01*
X171399000Y-64342075D01*
X171399000Y-64181925D01*
X171430242Y-64024858D01*
X171491530Y-63876898D01*
X171536317Y-63809870D01*
X171580501Y-63743743D01*
X171693743Y-63630501D01*
X171759870Y-63586317D01*
X171826898Y-63541530D01*
X171974858Y-63480242D01*
X172131925Y-63449000D01*
X172292075Y-63449000D01*
X172449142Y-63480242D01*
X172449142Y-63480242D01*
G37*
G36*
X144509142Y-63480242D02*
X144657102Y-63541530D01*
X144724130Y-63586317D01*
X144790257Y-63630501D01*
X144903499Y-63743743D01*
X144947683Y-63809870D01*
X144992470Y-63876898D01*
X145053758Y-64024858D01*
X145085000Y-64181925D01*
X145085000Y-64342075D01*
X145053758Y-64499142D01*
X145008474Y-64608466D01*
X144992471Y-64647100D01*
X144903499Y-64780257D01*
X144790257Y-64893499D01*
X144724130Y-64937683D01*
X144657102Y-64982470D01*
X144509142Y-65043758D01*
X144352075Y-65075000D01*
X144191925Y-65075000D01*
X144034858Y-65043758D01*
X143886898Y-64982470D01*
X143819870Y-64937683D01*
X143753743Y-64893499D01*
X143640501Y-64780257D01*
X143551529Y-64647100D01*
X143535526Y-64608466D01*
X143490242Y-64499142D01*
X143459000Y-64342075D01*
X143459000Y-64181925D01*
X143490242Y-64024858D01*
X143551530Y-63876898D01*
X143596317Y-63809870D01*
X143640501Y-63743743D01*
X143753743Y-63630501D01*
X143819870Y-63586317D01*
X143886898Y-63541530D01*
X144034858Y-63480242D01*
X144191925Y-63449000D01*
X144352075Y-63449000D01*
X144509142Y-63480242D01*
X144509142Y-63480242D01*
G37*
G36*
X184185000Y-63741500D02*
X182083000Y-63741500D01*
X182083000Y-61734500D01*
X184185000Y-61734500D01*
X184185000Y-63741500D01*
X184185000Y-63741500D01*
G37*
G36*
X166872228Y-61157703D02*
X167027100Y-61221853D01*
X167166481Y-61314985D01*
X167285015Y-61433519D01*
X167378147Y-61572900D01*
X167442297Y-61727772D01*
X167475000Y-61892184D01*
X167475000Y-62059816D01*
X167442297Y-62224228D01*
X167378147Y-62379100D01*
X167285015Y-62518481D01*
X167166481Y-62637015D01*
X167027100Y-62730147D01*
X166872228Y-62794297D01*
X166707816Y-62827000D01*
X166540184Y-62827000D01*
X166375772Y-62794297D01*
X166220900Y-62730147D01*
X166081519Y-62637015D01*
X165962985Y-62518481D01*
X165869853Y-62379100D01*
X165805703Y-62224228D01*
X165773000Y-62059816D01*
X165773000Y-61892184D01*
X165805703Y-61727772D01*
X165869853Y-61572900D01*
X165962985Y-61433519D01*
X166081519Y-61314985D01*
X166220900Y-61221853D01*
X166375772Y-61157703D01*
X166540184Y-61125000D01*
X166707816Y-61125000D01*
X166872228Y-61157703D01*
X166872228Y-61157703D01*
G37*
G36*
X150616228Y-61157703D02*
X150771100Y-61221853D01*
X150910481Y-61314985D01*
X151029015Y-61433519D01*
X151122147Y-61572900D01*
X151186297Y-61727772D01*
X151219000Y-61892184D01*
X151219000Y-62059816D01*
X151186297Y-62224228D01*
X151122147Y-62379100D01*
X151029015Y-62518481D01*
X150910481Y-62637015D01*
X150771100Y-62730147D01*
X150616228Y-62794297D01*
X150451816Y-62827000D01*
X150284184Y-62827000D01*
X150119772Y-62794297D01*
X149964900Y-62730147D01*
X149825519Y-62637015D01*
X149706985Y-62518481D01*
X149613853Y-62379100D01*
X149549703Y-62224228D01*
X149517000Y-62059816D01*
X149517000Y-61892184D01*
X149549703Y-61727772D01*
X149613853Y-61572900D01*
X149706985Y-61433519D01*
X149825519Y-61314985D01*
X149964900Y-61221853D01*
X150119772Y-61157703D01*
X150284184Y-61125000D01*
X150451816Y-61125000D01*
X150616228Y-61157703D01*
X150616228Y-61157703D01*
G37*
G36*
X141334443Y-60827519D02*
X141400627Y-60834037D01*
X141513853Y-60868384D01*
X141570467Y-60885557D01*
X141672774Y-60940242D01*
X141726991Y-60969222D01*
X141762729Y-60998552D01*
X141864186Y-61081814D01*
X141926466Y-61157704D01*
X141976778Y-61219009D01*
X141976779Y-61219011D01*
X142060443Y-61375533D01*
X142060443Y-61375534D01*
X142111963Y-61545373D01*
X142129359Y-61722000D01*
X142111963Y-61898627D01*
X142077616Y-62011853D01*
X142060443Y-62068467D01*
X141986348Y-62207087D01*
X141976778Y-62224991D01*
X141947448Y-62260729D01*
X141864186Y-62362186D01*
X141766358Y-62442470D01*
X141726991Y-62474778D01*
X141726989Y-62474779D01*
X141570467Y-62558443D01*
X141513853Y-62575616D01*
X141400627Y-62609963D01*
X141334442Y-62616482D01*
X141268260Y-62623000D01*
X141179740Y-62623000D01*
X141113558Y-62616482D01*
X141047373Y-62609963D01*
X140934147Y-62575616D01*
X140877533Y-62558443D01*
X140721011Y-62474779D01*
X140721009Y-62474778D01*
X140681642Y-62442470D01*
X140583814Y-62362186D01*
X140500552Y-62260729D01*
X140471222Y-62224991D01*
X140461652Y-62207087D01*
X140387557Y-62068467D01*
X140370384Y-62011853D01*
X140336037Y-61898627D01*
X140318641Y-61722000D01*
X140336037Y-61545373D01*
X140387557Y-61375534D01*
X140387557Y-61375533D01*
X140471221Y-61219011D01*
X140471222Y-61219009D01*
X140521534Y-61157704D01*
X140583814Y-61081814D01*
X140685271Y-60998552D01*
X140721009Y-60969222D01*
X140775226Y-60940242D01*
X140877533Y-60885557D01*
X140934147Y-60868384D01*
X141047373Y-60834037D01*
X141113557Y-60827519D01*
X141179740Y-60821000D01*
X141268260Y-60821000D01*
X141334443Y-60827519D01*
X141334443Y-60827519D01*
G37*
G36*
X175370443Y-60827519D02*
X175436627Y-60834037D01*
X175549853Y-60868384D01*
X175606467Y-60885557D01*
X175708774Y-60940242D01*
X175762991Y-60969222D01*
X175798729Y-60998552D01*
X175900186Y-61081814D01*
X175962466Y-61157704D01*
X176012778Y-61219009D01*
X176012779Y-61219011D01*
X176096443Y-61375533D01*
X176096443Y-61375534D01*
X176147963Y-61545373D01*
X176165359Y-61722000D01*
X176147963Y-61898627D01*
X176113616Y-62011853D01*
X176096443Y-62068467D01*
X176022348Y-62207087D01*
X176012778Y-62224991D01*
X175983448Y-62260729D01*
X175900186Y-62362186D01*
X175802358Y-62442470D01*
X175762991Y-62474778D01*
X175762989Y-62474779D01*
X175606467Y-62558443D01*
X175549853Y-62575616D01*
X175436627Y-62609963D01*
X175370442Y-62616482D01*
X175304260Y-62623000D01*
X175215740Y-62623000D01*
X175149558Y-62616482D01*
X175083373Y-62609963D01*
X174970147Y-62575616D01*
X174913533Y-62558443D01*
X174757011Y-62474779D01*
X174757009Y-62474778D01*
X174717642Y-62442470D01*
X174619814Y-62362186D01*
X174536552Y-62260729D01*
X174507222Y-62224991D01*
X174497652Y-62207087D01*
X174423557Y-62068467D01*
X174406384Y-62011853D01*
X174372037Y-61898627D01*
X174354641Y-61722000D01*
X174372037Y-61545373D01*
X174423557Y-61375534D01*
X174423557Y-61375533D01*
X174507221Y-61219011D01*
X174507222Y-61219009D01*
X174557534Y-61157704D01*
X174619814Y-61081814D01*
X174721271Y-60998552D01*
X174757009Y-60969222D01*
X174811226Y-60940242D01*
X174913533Y-60885557D01*
X174970147Y-60868384D01*
X175083373Y-60834037D01*
X175149557Y-60827519D01*
X175215740Y-60821000D01*
X175304260Y-60821000D01*
X175370443Y-60827519D01*
X175370443Y-60827519D01*
G37*
G36*
X172449142Y-60940242D02*
X172597102Y-61001530D01*
X172649314Y-61036417D01*
X172730257Y-61090501D01*
X172843499Y-61203743D01*
X172855600Y-61221854D01*
X172932470Y-61336898D01*
X172993758Y-61484858D01*
X173025000Y-61641925D01*
X173025000Y-61802075D01*
X172993758Y-61959142D01*
X172952057Y-62059816D01*
X172932471Y-62107100D01*
X172843499Y-62240257D01*
X172730257Y-62353499D01*
X172691942Y-62379100D01*
X172597102Y-62442470D01*
X172449142Y-62503758D01*
X172292075Y-62535000D01*
X172131925Y-62535000D01*
X171974858Y-62503758D01*
X171826898Y-62442470D01*
X171732058Y-62379100D01*
X171693743Y-62353499D01*
X171580501Y-62240257D01*
X171491529Y-62107100D01*
X171471943Y-62059816D01*
X171430242Y-61959142D01*
X171399000Y-61802075D01*
X171399000Y-61641925D01*
X171430242Y-61484858D01*
X171491530Y-61336898D01*
X171568400Y-61221854D01*
X171580501Y-61203743D01*
X171693743Y-61090501D01*
X171774686Y-61036417D01*
X171826898Y-61001530D01*
X171974858Y-60940242D01*
X172131925Y-60909000D01*
X172292075Y-60909000D01*
X172449142Y-60940242D01*
X172449142Y-60940242D01*
G37*
G36*
X144509142Y-60940242D02*
X144657102Y-61001530D01*
X144709314Y-61036417D01*
X144790257Y-61090501D01*
X144903499Y-61203743D01*
X144915600Y-61221854D01*
X144992470Y-61336898D01*
X145053758Y-61484858D01*
X145085000Y-61641925D01*
X145085000Y-61802075D01*
X145053758Y-61959142D01*
X145012057Y-62059816D01*
X144992471Y-62107100D01*
X144903499Y-62240257D01*
X144790257Y-62353499D01*
X144751942Y-62379100D01*
X144657102Y-62442470D01*
X144509142Y-62503758D01*
X144352075Y-62535000D01*
X144191925Y-62535000D01*
X144034858Y-62503758D01*
X143886898Y-62442470D01*
X143792058Y-62379100D01*
X143753743Y-62353499D01*
X143640501Y-62240257D01*
X143551529Y-62107100D01*
X143531943Y-62059816D01*
X143490242Y-61959142D01*
X143459000Y-61802075D01*
X143459000Y-61641925D01*
X143490242Y-61484858D01*
X143551530Y-61336898D01*
X143628400Y-61221854D01*
X143640501Y-61203743D01*
X143753743Y-61090501D01*
X143834686Y-61036417D01*
X143886898Y-61001530D01*
X144034858Y-60940242D01*
X144191925Y-60909000D01*
X144352075Y-60909000D01*
X144509142Y-60940242D01*
X144509142Y-60940242D01*
G37*
G36*
X183289764Y-59200308D02*
X183378220Y-59209020D01*
X183567381Y-59266401D01*
X183741712Y-59359583D01*
X183894515Y-59484985D01*
X184019917Y-59637788D01*
X184113099Y-59812119D01*
X184170480Y-60001280D01*
X184189855Y-60198000D01*
X184170480Y-60394720D01*
X184113099Y-60583881D01*
X184019917Y-60758212D01*
X183894515Y-60911015D01*
X183741712Y-61036417D01*
X183567381Y-61129599D01*
X183378220Y-61186980D01*
X183289764Y-61195692D01*
X183230796Y-61201500D01*
X183037204Y-61201500D01*
X182978236Y-61195692D01*
X182889780Y-61186980D01*
X182700619Y-61129599D01*
X182526288Y-61036417D01*
X182373485Y-60911015D01*
X182248083Y-60758212D01*
X182154901Y-60583881D01*
X182097520Y-60394720D01*
X182078145Y-60198000D01*
X182097520Y-60001280D01*
X182154901Y-59812119D01*
X182248083Y-59637788D01*
X182373485Y-59484985D01*
X182526288Y-59359583D01*
X182700619Y-59266401D01*
X182889780Y-59209020D01*
X182978236Y-59200308D01*
X183037204Y-59194500D01*
X183230796Y-59194500D01*
X183289764Y-59200308D01*
X183289764Y-59200308D01*
G37*
G36*
X142125000Y-60083000D02*
X140323000Y-60083000D01*
X140323000Y-58281000D01*
X142125000Y-58281000D01*
X142125000Y-60083000D01*
X142125000Y-60083000D01*
G37*
G36*
X175370442Y-58287518D02*
X175436627Y-58294037D01*
X175549853Y-58328384D01*
X175606467Y-58345557D01*
X175708774Y-58400242D01*
X175762991Y-58429222D01*
X175798729Y-58458552D01*
X175900186Y-58541814D01*
X175983448Y-58643271D01*
X176012778Y-58679009D01*
X176012779Y-58679011D01*
X176096443Y-58835533D01*
X176096443Y-58835534D01*
X176147963Y-59005373D01*
X176165359Y-59182000D01*
X176147963Y-59358627D01*
X176115991Y-59464025D01*
X176096443Y-59528467D01*
X176038009Y-59637788D01*
X176012778Y-59684991D01*
X175983448Y-59720729D01*
X175900186Y-59822186D01*
X175802358Y-59902470D01*
X175762991Y-59934778D01*
X175762989Y-59934779D01*
X175606467Y-60018443D01*
X175549853Y-60035616D01*
X175436627Y-60069963D01*
X175370442Y-60076482D01*
X175304260Y-60083000D01*
X175215740Y-60083000D01*
X175149558Y-60076482D01*
X175083373Y-60069963D01*
X174970147Y-60035616D01*
X174913533Y-60018443D01*
X174757011Y-59934779D01*
X174757009Y-59934778D01*
X174717642Y-59902470D01*
X174619814Y-59822186D01*
X174536552Y-59720729D01*
X174507222Y-59684991D01*
X174481991Y-59637788D01*
X174423557Y-59528467D01*
X174404009Y-59464025D01*
X174372037Y-59358627D01*
X174354641Y-59182000D01*
X174372037Y-59005373D01*
X174423557Y-58835534D01*
X174423557Y-58835533D01*
X174507221Y-58679011D01*
X174507222Y-58679009D01*
X174536552Y-58643271D01*
X174619814Y-58541814D01*
X174721271Y-58458552D01*
X174757009Y-58429222D01*
X174811226Y-58400242D01*
X174913533Y-58345557D01*
X174970147Y-58328384D01*
X175083373Y-58294037D01*
X175149558Y-58287518D01*
X175215740Y-58281000D01*
X175304260Y-58281000D01*
X175370442Y-58287518D01*
X175370442Y-58287518D01*
G37*
G36*
X172449142Y-58400242D02*
X172597102Y-58461530D01*
X172649314Y-58496417D01*
X172730257Y-58550501D01*
X172843499Y-58663743D01*
X172887683Y-58729870D01*
X172932470Y-58796898D01*
X172993758Y-58944858D01*
X173025000Y-59101925D01*
X173025000Y-59262075D01*
X172993758Y-59419142D01*
X172963456Y-59492296D01*
X172932471Y-59567100D01*
X172843499Y-59700257D01*
X172730257Y-59813499D01*
X172664130Y-59857683D01*
X172597102Y-59902470D01*
X172449142Y-59963758D01*
X172292075Y-59995000D01*
X172131925Y-59995000D01*
X171974858Y-59963758D01*
X171826898Y-59902470D01*
X171759870Y-59857683D01*
X171693743Y-59813499D01*
X171580501Y-59700257D01*
X171491529Y-59567100D01*
X171460544Y-59492296D01*
X171430242Y-59419142D01*
X171399000Y-59262075D01*
X171399000Y-59101925D01*
X171430242Y-58944858D01*
X171491530Y-58796898D01*
X171536317Y-58729870D01*
X171580501Y-58663743D01*
X171693743Y-58550501D01*
X171774686Y-58496417D01*
X171826898Y-58461530D01*
X171974858Y-58400242D01*
X172131925Y-58369000D01*
X172292075Y-58369000D01*
X172449142Y-58400242D01*
X172449142Y-58400242D01*
G37*
G36*
X144509142Y-58400242D02*
X144657102Y-58461530D01*
X144709314Y-58496417D01*
X144790257Y-58550501D01*
X144903499Y-58663743D01*
X144947683Y-58729870D01*
X144992470Y-58796898D01*
X145053758Y-58944858D01*
X145085000Y-59101925D01*
X145085000Y-59262075D01*
X145053758Y-59419142D01*
X145023456Y-59492296D01*
X144992471Y-59567100D01*
X144903499Y-59700257D01*
X144790257Y-59813499D01*
X144724130Y-59857683D01*
X144657102Y-59902470D01*
X144509142Y-59963758D01*
X144352075Y-59995000D01*
X144191925Y-59995000D01*
X144034858Y-59963758D01*
X143886898Y-59902470D01*
X143819870Y-59857683D01*
X143753743Y-59813499D01*
X143640501Y-59700257D01*
X143551529Y-59567100D01*
X143520544Y-59492296D01*
X143490242Y-59419142D01*
X143459000Y-59262075D01*
X143459000Y-59101925D01*
X143490242Y-58944858D01*
X143551530Y-58796898D01*
X143596317Y-58729870D01*
X143640501Y-58663743D01*
X143753743Y-58550501D01*
X143834686Y-58496417D01*
X143886898Y-58461530D01*
X144034858Y-58400242D01*
X144191925Y-58369000D01*
X144352075Y-58369000D01*
X144509142Y-58400242D01*
X144509142Y-58400242D01*
G37*
G36*
X162554228Y-57855703D02*
X162709100Y-57919853D01*
X162848481Y-58012985D01*
X162967015Y-58131519D01*
X163060147Y-58270900D01*
X163124297Y-58425772D01*
X163157000Y-58590184D01*
X163157000Y-58757816D01*
X163124297Y-58922228D01*
X163060147Y-59077100D01*
X162967015Y-59216481D01*
X162848481Y-59335015D01*
X162709100Y-59428147D01*
X162554228Y-59492297D01*
X162389816Y-59525000D01*
X162222184Y-59525000D01*
X162057772Y-59492297D01*
X161902900Y-59428147D01*
X161763519Y-59335015D01*
X161644985Y-59216481D01*
X161551853Y-59077100D01*
X161487703Y-58922228D01*
X161455000Y-58757816D01*
X161455000Y-58590184D01*
X161487703Y-58425772D01*
X161551853Y-58270900D01*
X161644985Y-58131519D01*
X161763519Y-58012985D01*
X161902900Y-57919853D01*
X162057772Y-57855703D01*
X162222184Y-57823000D01*
X162389816Y-57823000D01*
X162554228Y-57855703D01*
X162554228Y-57855703D01*
G37*
G36*
X154852821Y-57835313D02*
X154852824Y-57835314D01*
X154852825Y-57835314D01*
X155013239Y-57883975D01*
X155013241Y-57883976D01*
X155013244Y-57883977D01*
X155161078Y-57962995D01*
X155290659Y-58069341D01*
X155397005Y-58198922D01*
X155476023Y-58346756D01*
X155476024Y-58346759D01*
X155476025Y-58346761D01*
X155524686Y-58507175D01*
X155524687Y-58507179D01*
X155541117Y-58674000D01*
X155524687Y-58840821D01*
X155524686Y-58840824D01*
X155524686Y-58840825D01*
X155499993Y-58922228D01*
X155476023Y-59001244D01*
X155397005Y-59149078D01*
X155290659Y-59278659D01*
X155161078Y-59385005D01*
X155013244Y-59464023D01*
X155013241Y-59464024D01*
X155013239Y-59464025D01*
X154852825Y-59512686D01*
X154852824Y-59512686D01*
X154852821Y-59512687D01*
X154727804Y-59525000D01*
X154644196Y-59525000D01*
X154519179Y-59512687D01*
X154519176Y-59512686D01*
X154519175Y-59512686D01*
X154358761Y-59464025D01*
X154358759Y-59464024D01*
X154358756Y-59464023D01*
X154210922Y-59385005D01*
X154081341Y-59278659D01*
X153974995Y-59149078D01*
X153895977Y-59001244D01*
X153872008Y-58922228D01*
X153847314Y-58840825D01*
X153847314Y-58840824D01*
X153847313Y-58840821D01*
X153830883Y-58674000D01*
X153847313Y-58507179D01*
X153847314Y-58507175D01*
X153895975Y-58346761D01*
X153895976Y-58346759D01*
X153895977Y-58346756D01*
X153974995Y-58198922D01*
X154081341Y-58069341D01*
X154210922Y-57962995D01*
X154358756Y-57883977D01*
X154358759Y-57883976D01*
X154358761Y-57883975D01*
X154519175Y-57835314D01*
X154519176Y-57835314D01*
X154519179Y-57835313D01*
X154644196Y-57823000D01*
X154727804Y-57823000D01*
X154852821Y-57835313D01*
X154852821Y-57835313D01*
G37*
G36*
X183289764Y-56660308D02*
X183378220Y-56669020D01*
X183567381Y-56726401D01*
X183741712Y-56819583D01*
X183894515Y-56944985D01*
X184019917Y-57097788D01*
X184113099Y-57272119D01*
X184170480Y-57461280D01*
X184189855Y-57658000D01*
X184170480Y-57854720D01*
X184113099Y-58043881D01*
X184019917Y-58218212D01*
X183894515Y-58371015D01*
X183741712Y-58496417D01*
X183567381Y-58589599D01*
X183378220Y-58646980D01*
X183289764Y-58655692D01*
X183230796Y-58661500D01*
X183037204Y-58661500D01*
X182978236Y-58655692D01*
X182889780Y-58646980D01*
X182700619Y-58589599D01*
X182526288Y-58496417D01*
X182373485Y-58371015D01*
X182248083Y-58218212D01*
X182154901Y-58043881D01*
X182097520Y-57854720D01*
X182078145Y-57658000D01*
X182097520Y-57461280D01*
X182154901Y-57272119D01*
X182248083Y-57097788D01*
X182373485Y-56944985D01*
X182526288Y-56819583D01*
X182700619Y-56726401D01*
X182889780Y-56669020D01*
X182978236Y-56660308D01*
X183037204Y-56654500D01*
X183230796Y-56654500D01*
X183289764Y-56660308D01*
X183289764Y-56660308D01*
G37*
G36*
X160522228Y-54981703D02*
X160677100Y-55045853D01*
X160816481Y-55138985D01*
X160935015Y-55257519D01*
X161028147Y-55396900D01*
X161092297Y-55551772D01*
X161125000Y-55716184D01*
X161125000Y-55883816D01*
X161092297Y-56048228D01*
X161028147Y-56203100D01*
X160935015Y-56342481D01*
X160816481Y-56461015D01*
X160677100Y-56554147D01*
X160522228Y-56618297D01*
X160357816Y-56651000D01*
X160190184Y-56651000D01*
X160025772Y-56618297D01*
X159870900Y-56554147D01*
X159731519Y-56461015D01*
X159612985Y-56342481D01*
X159519853Y-56203100D01*
X159455703Y-56048228D01*
X159423000Y-55883816D01*
X159423000Y-55716184D01*
X159455703Y-55551772D01*
X159519853Y-55396900D01*
X159612985Y-55257519D01*
X159731519Y-55138985D01*
X159870900Y-55045853D01*
X160025772Y-54981703D01*
X160190184Y-54949000D01*
X160357816Y-54949000D01*
X160522228Y-54981703D01*
X160522228Y-54981703D01*
G37*
G36*
X170914565Y-53091389D02*
X171105834Y-53170615D01*
X171277976Y-53285637D01*
X171424363Y-53432024D01*
X171539385Y-53604166D01*
X171618611Y-53795435D01*
X171659000Y-53998484D01*
X171659000Y-54205516D01*
X171618611Y-54408565D01*
X171539385Y-54599834D01*
X171424363Y-54771976D01*
X171277976Y-54918363D01*
X171105834Y-55033385D01*
X170914565Y-55112611D01*
X170711516Y-55153000D01*
X170504484Y-55153000D01*
X170301435Y-55112611D01*
X170110166Y-55033385D01*
X169938024Y-54918363D01*
X169791637Y-54771976D01*
X169676615Y-54599834D01*
X169597389Y-54408565D01*
X169557000Y-54205516D01*
X169557000Y-53998484D01*
X169597389Y-53795435D01*
X169676615Y-53604166D01*
X169791637Y-53432024D01*
X169938024Y-53285637D01*
X170110166Y-53170615D01*
X170301435Y-53091389D01*
X170504484Y-53051000D01*
X170711516Y-53051000D01*
X170914565Y-53091389D01*
X170914565Y-53091389D01*
G37*
G36*
X166659000Y-55153000D02*
X164557000Y-55153000D01*
X164557000Y-53051000D01*
X166659000Y-53051000D01*
X166659000Y-55153000D01*
X166659000Y-55153000D01*
G37*
G36*
X142812433Y-50450893D02*
X142902657Y-50468839D01*
X142953029Y-50489704D01*
X143157621Y-50574449D01*
X143387089Y-50727774D01*
X143582226Y-50922911D01*
X143735551Y-51152379D01*
X143841161Y-51407344D01*
X143872921Y-51567011D01*
X143895000Y-51678014D01*
X143895000Y-51953986D01*
X143841161Y-52224657D01*
X143797415Y-52330267D01*
X143735551Y-52479621D01*
X143582226Y-52709089D01*
X143387089Y-52904226D01*
X143157621Y-53057551D01*
X143075926Y-53091390D01*
X142902657Y-53163161D01*
X142812433Y-53181107D01*
X142631988Y-53217000D01*
X142356012Y-53217000D01*
X142175567Y-53181107D01*
X142085343Y-53163161D01*
X141912074Y-53091390D01*
X141830379Y-53057551D01*
X141600911Y-52904226D01*
X141405774Y-52709089D01*
X141252449Y-52479621D01*
X141190585Y-52330267D01*
X141146839Y-52224657D01*
X141093000Y-51953986D01*
X141093000Y-51678014D01*
X141115080Y-51567011D01*
X141146839Y-51407344D01*
X141252449Y-51152379D01*
X141405774Y-50922911D01*
X141600911Y-50727774D01*
X141830379Y-50574449D01*
X142034971Y-50489704D01*
X142085343Y-50468839D01*
X142175567Y-50450893D01*
X142356012Y-50415000D01*
X142631988Y-50415000D01*
X142812433Y-50450893D01*
X142812433Y-50450893D01*
G37*
G36*
X184468433Y-50450893D02*
X184558657Y-50468839D01*
X184609029Y-50489704D01*
X184813621Y-50574449D01*
X185043089Y-50727774D01*
X185238226Y-50922911D01*
X185391551Y-51152379D01*
X185497161Y-51407344D01*
X185528921Y-51567011D01*
X185551000Y-51678014D01*
X185551000Y-51953986D01*
X185497161Y-52224657D01*
X185453415Y-52330267D01*
X185391551Y-52479621D01*
X185238226Y-52709089D01*
X185043089Y-52904226D01*
X184813621Y-53057551D01*
X184731926Y-53091390D01*
X184558657Y-53163161D01*
X184468433Y-53181107D01*
X184287988Y-53217000D01*
X184012012Y-53217000D01*
X183831567Y-53181107D01*
X183741343Y-53163161D01*
X183568074Y-53091390D01*
X183486379Y-53057551D01*
X183256911Y-52904226D01*
X183061774Y-52709089D01*
X182908449Y-52479621D01*
X182846585Y-52330267D01*
X182802839Y-52224657D01*
X182749000Y-51953986D01*
X182749000Y-51678014D01*
X182771080Y-51567011D01*
X182802839Y-51407344D01*
X182908449Y-51152379D01*
X183061774Y-50922911D01*
X183256911Y-50727774D01*
X183486379Y-50574449D01*
X183690971Y-50489704D01*
X183741343Y-50468839D01*
X183831567Y-50450893D01*
X184012012Y-50415000D01*
X184287988Y-50415000D01*
X184468433Y-50450893D01*
X184468433Y-50450893D01*
G37*
G36*
X148729000Y-52971000D02*
X146927000Y-52971000D01*
X146927000Y-51169000D01*
X148729000Y-51169000D01*
X148729000Y-52971000D01*
X148729000Y-52971000D01*
G37*
G36*
X150478443Y-51175519D02*
X150544627Y-51182037D01*
X150657853Y-51216384D01*
X150714467Y-51233557D01*
X150853087Y-51307652D01*
X150870991Y-51317222D01*
X150901769Y-51342481D01*
X151008186Y-51429814D01*
X151091448Y-51531271D01*
X151120778Y-51567009D01*
X151120779Y-51567011D01*
X151204443Y-51723533D01*
X151204443Y-51723534D01*
X151255963Y-51893373D01*
X151273359Y-52070000D01*
X151255963Y-52246627D01*
X151221616Y-52359853D01*
X151204443Y-52416467D01*
X151170686Y-52479621D01*
X151120778Y-52572991D01*
X151091448Y-52608729D01*
X151008186Y-52710186D01*
X150906729Y-52793448D01*
X150870991Y-52822778D01*
X150870989Y-52822779D01*
X150714467Y-52906443D01*
X150657853Y-52923616D01*
X150544627Y-52957963D01*
X150478442Y-52964482D01*
X150412260Y-52971000D01*
X150323740Y-52971000D01*
X150257558Y-52964482D01*
X150191373Y-52957963D01*
X150078147Y-52923616D01*
X150021533Y-52906443D01*
X149865011Y-52822779D01*
X149865009Y-52822778D01*
X149829271Y-52793448D01*
X149727814Y-52710186D01*
X149644552Y-52608729D01*
X149615222Y-52572991D01*
X149565314Y-52479621D01*
X149531557Y-52416467D01*
X149514384Y-52359853D01*
X149480037Y-52246627D01*
X149462641Y-52070000D01*
X149480037Y-51893373D01*
X149531557Y-51723534D01*
X149531557Y-51723533D01*
X149615221Y-51567011D01*
X149615222Y-51567009D01*
X149644552Y-51531271D01*
X149727814Y-51429814D01*
X149834231Y-51342481D01*
X149865009Y-51317222D01*
X149882913Y-51307652D01*
X150021533Y-51233557D01*
X150078147Y-51216384D01*
X150191373Y-51182037D01*
X150257557Y-51175519D01*
X150323740Y-51169000D01*
X150412260Y-51169000D01*
X150478443Y-51175519D01*
X150478443Y-51175519D01*
G37*
G36*
X155558443Y-51175519D02*
X155624627Y-51182037D01*
X155737853Y-51216384D01*
X155794467Y-51233557D01*
X155933087Y-51307652D01*
X155950991Y-51317222D01*
X155981769Y-51342481D01*
X156088186Y-51429814D01*
X156171448Y-51531271D01*
X156200778Y-51567009D01*
X156200779Y-51567011D01*
X156284443Y-51723533D01*
X156284443Y-51723534D01*
X156335963Y-51893373D01*
X156353359Y-52070000D01*
X156335963Y-52246627D01*
X156301616Y-52359853D01*
X156284443Y-52416467D01*
X156250686Y-52479621D01*
X156200778Y-52572991D01*
X156171448Y-52608729D01*
X156088186Y-52710186D01*
X155986729Y-52793448D01*
X155950991Y-52822778D01*
X155950989Y-52822779D01*
X155794467Y-52906443D01*
X155737853Y-52923616D01*
X155624627Y-52957963D01*
X155558442Y-52964482D01*
X155492260Y-52971000D01*
X155403740Y-52971000D01*
X155337558Y-52964482D01*
X155271373Y-52957963D01*
X155158147Y-52923616D01*
X155101533Y-52906443D01*
X154945011Y-52822779D01*
X154945009Y-52822778D01*
X154909271Y-52793448D01*
X154807814Y-52710186D01*
X154724552Y-52608729D01*
X154695222Y-52572991D01*
X154645314Y-52479621D01*
X154611557Y-52416467D01*
X154594384Y-52359853D01*
X154560037Y-52246627D01*
X154542641Y-52070000D01*
X154560037Y-51893373D01*
X154611557Y-51723534D01*
X154611557Y-51723533D01*
X154695221Y-51567011D01*
X154695222Y-51567009D01*
X154724552Y-51531271D01*
X154807814Y-51429814D01*
X154914231Y-51342481D01*
X154945009Y-51317222D01*
X154962913Y-51307652D01*
X155101533Y-51233557D01*
X155158147Y-51216384D01*
X155271373Y-51182037D01*
X155337557Y-51175519D01*
X155403740Y-51169000D01*
X155492260Y-51169000D01*
X155558443Y-51175519D01*
X155558443Y-51175519D01*
G37*
G36*
X153018443Y-51175519D02*
X153084627Y-51182037D01*
X153197853Y-51216384D01*
X153254467Y-51233557D01*
X153393087Y-51307652D01*
X153410991Y-51317222D01*
X153441769Y-51342481D01*
X153548186Y-51429814D01*
X153631448Y-51531271D01*
X153660778Y-51567009D01*
X153660779Y-51567011D01*
X153744443Y-51723533D01*
X153744443Y-51723534D01*
X153795963Y-51893373D01*
X153813359Y-52070000D01*
X153795963Y-52246627D01*
X153761616Y-52359853D01*
X153744443Y-52416467D01*
X153710686Y-52479621D01*
X153660778Y-52572991D01*
X153631448Y-52608729D01*
X153548186Y-52710186D01*
X153446729Y-52793448D01*
X153410991Y-52822778D01*
X153410989Y-52822779D01*
X153254467Y-52906443D01*
X153197853Y-52923616D01*
X153084627Y-52957963D01*
X153018442Y-52964482D01*
X152952260Y-52971000D01*
X152863740Y-52971000D01*
X152797558Y-52964482D01*
X152731373Y-52957963D01*
X152618147Y-52923616D01*
X152561533Y-52906443D01*
X152405011Y-52822779D01*
X152405009Y-52822778D01*
X152369271Y-52793448D01*
X152267814Y-52710186D01*
X152184552Y-52608729D01*
X152155222Y-52572991D01*
X152105314Y-52479621D01*
X152071557Y-52416467D01*
X152054384Y-52359853D01*
X152020037Y-52246627D01*
X152002641Y-52070000D01*
X152020037Y-51893373D01*
X152071557Y-51723534D01*
X152071557Y-51723533D01*
X152155221Y-51567011D01*
X152155222Y-51567009D01*
X152184552Y-51531271D01*
X152267814Y-51429814D01*
X152374231Y-51342481D01*
X152405009Y-51317222D01*
X152422913Y-51307652D01*
X152561533Y-51233557D01*
X152618147Y-51216384D01*
X152731373Y-51182037D01*
X152797557Y-51175519D01*
X152863740Y-51169000D01*
X152952260Y-51169000D01*
X153018443Y-51175519D01*
X153018443Y-51175519D01*
G37*
G36*
X175810228Y-50489703D02*
X175965100Y-50553853D01*
X176104481Y-50646985D01*
X176223015Y-50765519D01*
X176316147Y-50904900D01*
X176380297Y-51059772D01*
X176413000Y-51224184D01*
X176413000Y-51391816D01*
X176380297Y-51556228D01*
X176316147Y-51711100D01*
X176223015Y-51850481D01*
X176104481Y-51969015D01*
X175965100Y-52062147D01*
X175810228Y-52126297D01*
X175645816Y-52159000D01*
X175478184Y-52159000D01*
X175313772Y-52126297D01*
X175158900Y-52062147D01*
X175019519Y-51969015D01*
X174900985Y-51850481D01*
X174807853Y-51711100D01*
X174743703Y-51556228D01*
X174711000Y-51391816D01*
X174711000Y-51224184D01*
X174743703Y-51059772D01*
X174807853Y-50904900D01*
X174900985Y-50765519D01*
X175019519Y-50646985D01*
X175158900Y-50553853D01*
X175313772Y-50489703D01*
X175478184Y-50457000D01*
X175645816Y-50457000D01*
X175810228Y-50489703D01*
X175810228Y-50489703D01*
G37*
G36*
X178810228Y-50489703D02*
X178965100Y-50553853D01*
X179104481Y-50646985D01*
X179223015Y-50765519D01*
X179316147Y-50904900D01*
X179380297Y-51059772D01*
X179413000Y-51224184D01*
X179413000Y-51391816D01*
X179380297Y-51556228D01*
X179316147Y-51711100D01*
X179223015Y-51850481D01*
X179104481Y-51969015D01*
X178965100Y-52062147D01*
X178810228Y-52126297D01*
X178645816Y-52159000D01*
X178478184Y-52159000D01*
X178313772Y-52126297D01*
X178158900Y-52062147D01*
X178019519Y-51969015D01*
X177900985Y-51850481D01*
X177807853Y-51711100D01*
X177743703Y-51556228D01*
X177711000Y-51391816D01*
X177711000Y-51224184D01*
X177743703Y-51059772D01*
X177807853Y-50904900D01*
X177900985Y-50765519D01*
X178019519Y-50646985D01*
X178158900Y-50553853D01*
X178313772Y-50489703D01*
X178478184Y-50457000D01*
X178645816Y-50457000D01*
X178810228Y-50489703D01*
X178810228Y-50489703D01*
G37*
G36*
X160522228Y-49981703D02*
X160677100Y-50045853D01*
X160816481Y-50138985D01*
X160935015Y-50257519D01*
X161028147Y-50396900D01*
X161092297Y-50551772D01*
X161125000Y-50716184D01*
X161125000Y-50883816D01*
X161092297Y-51048228D01*
X161028147Y-51203100D01*
X160935015Y-51342481D01*
X160816481Y-51461015D01*
X160677100Y-51554147D01*
X160522228Y-51618297D01*
X160357816Y-51651000D01*
X160190184Y-51651000D01*
X160025772Y-51618297D01*
X159870900Y-51554147D01*
X159731519Y-51461015D01*
X159612985Y-51342481D01*
X159519853Y-51203100D01*
X159455703Y-51048228D01*
X159423000Y-50883816D01*
X159423000Y-50716184D01*
X159455703Y-50551772D01*
X159519853Y-50396900D01*
X159612985Y-50257519D01*
X159731519Y-50138985D01*
X159870900Y-50045853D01*
X160025772Y-49981703D01*
X160190184Y-49949000D01*
X160357816Y-49949000D01*
X160522228Y-49981703D01*
X160522228Y-49981703D01*
G37*
M02*
