M48
INCH,TZ
T1C0.0300
T2C0.0315
T3C0.0394
T4C0.0433
%
G90
G05
T1
X56800Y-23300
X56800Y-24300
X56800Y-25300
X56800Y-26300
X56800Y-27300
X56800Y-28300
X56800Y-29300
X56800Y-30300
X56800Y-31300
X56800Y-32300
X56800Y-33300
X56800Y-34300
X56800Y-35300
X56800Y-36300
X56800Y-37300
X67800Y-23300
X67800Y-24300
X67800Y-25300
X67800Y-26300
X67800Y-27300
X67800Y-28300
X67800Y-29300
X67800Y-30300
X67800Y-31300
X67800Y-32300
X67800Y-33300
X67800Y-34300
X67800Y-35300
X67800Y-36300
X67800Y-37300
T2
X60900Y-23100
X63900Y-23100
X65600Y-24400
X65600Y-27400
X69119Y-20200
X70300Y-20200
X63100Y-20000
X63100Y-21969
X65900Y-28800
X65900Y-31800
X59200Y-24400
X59200Y-27400
X65900Y-33100
X65900Y-36100
T3
X71800Y-32000
X72800Y-32000
X55600Y-23300
X55600Y-24300
X55600Y-25300
X55600Y-26300
X55600Y-27300
X55600Y-28300
X55600Y-29300
X55600Y-30300
X55600Y-31300
X55600Y-32300
X55600Y-33300
X55600Y-34300
X55600Y-35300
X55600Y-36300
X55600Y-37300
X69000Y-23300
X69000Y-24300
X69000Y-25300
X69000Y-26300
X69000Y-27300
X69000Y-28300
X69000Y-29300
X69000Y-30300
X69000Y-31300
X69000Y-32300
X69000Y-33300
X69000Y-34300
X69000Y-35300
X69000Y-36300
X69000Y-37300
X69200Y-39000
X70200Y-39000
X71200Y-39000
X72200Y-39000
X71800Y-29100
X72800Y-29100
X65200Y-21300
X67169Y-21300
X70600Y-34300
X71600Y-34300
X72600Y-34300
X62500Y-33100
X62500Y-36092
X70600Y-36900
X71600Y-36900
X72600Y-36900
X58200Y-20500
X59200Y-20500
X60200Y-20500
X61200Y-20500
X70600Y-26700
X71600Y-26700
X72600Y-26700
T4
X72100Y-22700
X72100Y-23700
X72100Y-24700
X70400Y-28900
X70400Y-32900
T2
X57510Y-39114G85X57510Y-38248
G05
X59912Y-37500G85X58888Y-37500
G05
X59833Y-39783G85X58967Y-39783
G05
T0
M30
