G04 #@! TF.GenerationSoftware,KiCad,Pcbnew,5.0.2-bee76a0~70~ubuntu18.04.1*
G04 #@! TF.CreationDate,2020-02-03T20:23:13+01:00*
G04 #@! TF.ProjectId,ESP8266-LolinV3-Lamp,45535038-3236-4362-9d4c-6f6c696e5633,2.0*
G04 #@! TF.SameCoordinates,Original*
G04 #@! TF.FileFunction,Legend,Bot*
G04 #@! TF.FilePolarity,Positive*
%FSLAX46Y46*%
G04 Gerber Fmt 4.6, Leading zero omitted, Abs format (unit mm)*
G04 Created by KiCad (PCBNEW 5.0.2-bee76a0~70~ubuntu18.04.1) date lun 03 feb 2020 20:23:13 CET*
%MOMM*%
%LPD*%
G01*
G04 APERTURE LIST*
%ADD10C,0.150000*%
%ADD11C,0.120000*%
%ADD12C,0.250000*%
%ADD13C,0.200000*%
%ADD14C,0.127000*%
%ADD15C,0.203200*%
%ADD16C,0.050000*%
G04 APERTURE END LIST*
D10*
X154352285Y-50236380D02*
X154352285Y-49236380D01*
X153971333Y-49236380D01*
X153876095Y-49284000D01*
X153828476Y-49331619D01*
X153780857Y-49426857D01*
X153780857Y-49569714D01*
X153828476Y-49664952D01*
X153876095Y-49712571D01*
X153971333Y-49760190D01*
X154352285Y-49760190D01*
X153447523Y-49236380D02*
X153209428Y-50236380D01*
X153018952Y-49522095D01*
X152828476Y-50236380D01*
X152590380Y-49236380D01*
X151638000Y-50236380D02*
X151971333Y-49760190D01*
X152209428Y-50236380D02*
X152209428Y-49236380D01*
X151828476Y-49236380D01*
X151733238Y-49284000D01*
X151685619Y-49331619D01*
X151638000Y-49426857D01*
X151638000Y-49569714D01*
X151685619Y-49664952D01*
X151733238Y-49712571D01*
X151828476Y-49760190D01*
X152209428Y-49760190D01*
X151209428Y-49855428D02*
X150447523Y-49855428D01*
X149971333Y-50236380D02*
X149971333Y-49236380D01*
X149495142Y-50236380D02*
X149495142Y-49236380D01*
X148923714Y-50236380D01*
X148923714Y-49236380D01*
D11*
X147770857Y-57206952D02*
X147770857Y-56597428D01*
X147466095Y-56902190D02*
X148075619Y-56902190D01*
X148266095Y-55835523D02*
X148266095Y-56216476D01*
X147885142Y-56254571D01*
X147923238Y-56216476D01*
X147961333Y-56140285D01*
X147961333Y-55949809D01*
X147923238Y-55873619D01*
X147885142Y-55835523D01*
X147808952Y-55797428D01*
X147618476Y-55797428D01*
X147542285Y-55835523D01*
X147504190Y-55873619D01*
X147466095Y-55949809D01*
X147466095Y-56140285D01*
X147504190Y-56216476D01*
X147542285Y-56254571D01*
X148266095Y-55568857D02*
X147466095Y-55302190D01*
X148266095Y-55035523D01*
X147466095Y-54768857D02*
X147999428Y-54768857D01*
X148266095Y-54768857D02*
X148228000Y-54806952D01*
X148189904Y-54768857D01*
X148228000Y-54730761D01*
X148266095Y-54768857D01*
X148189904Y-54768857D01*
X147999428Y-54387904D02*
X147466095Y-54387904D01*
X147923238Y-54387904D02*
X147961333Y-54349809D01*
X147999428Y-54273619D01*
X147999428Y-54159333D01*
X147961333Y-54083142D01*
X147885142Y-54045047D01*
X147466095Y-54045047D01*
X150310857Y-57206952D02*
X150310857Y-56597428D01*
X150006095Y-56902190D02*
X150615619Y-56902190D01*
X150806095Y-55835523D02*
X150806095Y-56216476D01*
X150425142Y-56254571D01*
X150463238Y-56216476D01*
X150501333Y-56140285D01*
X150501333Y-55949809D01*
X150463238Y-55873619D01*
X150425142Y-55835523D01*
X150348952Y-55797428D01*
X150158476Y-55797428D01*
X150082285Y-55835523D01*
X150044190Y-55873619D01*
X150006095Y-55949809D01*
X150006095Y-56140285D01*
X150044190Y-56216476D01*
X150082285Y-56254571D01*
X150806095Y-55568857D02*
X150006095Y-55302190D01*
X150806095Y-55035523D01*
X150006095Y-54768857D02*
X150539428Y-54768857D01*
X150806095Y-54768857D02*
X150768000Y-54806952D01*
X150729904Y-54768857D01*
X150768000Y-54730761D01*
X150806095Y-54768857D01*
X150729904Y-54768857D01*
X150539428Y-54387904D02*
X150006095Y-54387904D01*
X150463238Y-54387904D02*
X150501333Y-54349809D01*
X150539428Y-54273619D01*
X150539428Y-54159333D01*
X150501333Y-54083142D01*
X150425142Y-54045047D01*
X150006095Y-54045047D01*
X155848000Y-55727523D02*
X155886095Y-55803714D01*
X155886095Y-55918000D01*
X155848000Y-56032285D01*
X155771809Y-56108476D01*
X155695619Y-56146571D01*
X155543238Y-56184666D01*
X155428952Y-56184666D01*
X155276571Y-56146571D01*
X155200380Y-56108476D01*
X155124190Y-56032285D01*
X155086095Y-55918000D01*
X155086095Y-55841809D01*
X155124190Y-55727523D01*
X155162285Y-55689428D01*
X155428952Y-55689428D01*
X155428952Y-55841809D01*
X155086095Y-55346571D02*
X155886095Y-55346571D01*
X155086095Y-54889428D01*
X155886095Y-54889428D01*
X155086095Y-54508476D02*
X155886095Y-54508476D01*
X155886095Y-54318000D01*
X155848000Y-54203714D01*
X155771809Y-54127523D01*
X155695619Y-54089428D01*
X155543238Y-54051333D01*
X155428952Y-54051333D01*
X155276571Y-54089428D01*
X155200380Y-54127523D01*
X155124190Y-54203714D01*
X155086095Y-54318000D01*
X155086095Y-54508476D01*
X153054000Y-55727523D02*
X153092095Y-55803714D01*
X153092095Y-55918000D01*
X153054000Y-56032285D01*
X152977809Y-56108476D01*
X152901619Y-56146571D01*
X152749238Y-56184666D01*
X152634952Y-56184666D01*
X152482571Y-56146571D01*
X152406380Y-56108476D01*
X152330190Y-56032285D01*
X152292095Y-55918000D01*
X152292095Y-55841809D01*
X152330190Y-55727523D01*
X152368285Y-55689428D01*
X152634952Y-55689428D01*
X152634952Y-55841809D01*
X152292095Y-55346571D02*
X153092095Y-55346571D01*
X152292095Y-54889428D01*
X153092095Y-54889428D01*
X152292095Y-54508476D02*
X153092095Y-54508476D01*
X153092095Y-54318000D01*
X153054000Y-54203714D01*
X152977809Y-54127523D01*
X152901619Y-54089428D01*
X152749238Y-54051333D01*
X152634952Y-54051333D01*
X152482571Y-54089428D01*
X152406380Y-54127523D01*
X152330190Y-54203714D01*
X152292095Y-54318000D01*
X152292095Y-54508476D01*
D12*
X178468571Y-102775285D02*
X178068571Y-102775285D01*
X177897142Y-103403857D02*
X178468571Y-103403857D01*
X178468571Y-102203857D01*
X177897142Y-102203857D01*
X177440000Y-103346714D02*
X177268571Y-103403857D01*
X176982857Y-103403857D01*
X176868571Y-103346714D01*
X176811428Y-103289571D01*
X176754285Y-103175285D01*
X176754285Y-103061000D01*
X176811428Y-102946714D01*
X176868571Y-102889571D01*
X176982857Y-102832428D01*
X177211428Y-102775285D01*
X177325714Y-102718142D01*
X177382857Y-102661000D01*
X177440000Y-102546714D01*
X177440000Y-102432428D01*
X177382857Y-102318142D01*
X177325714Y-102261000D01*
X177211428Y-102203857D01*
X176925714Y-102203857D01*
X176754285Y-102261000D01*
X176240000Y-103403857D02*
X176240000Y-102203857D01*
X175782857Y-102203857D01*
X175668571Y-102261000D01*
X175611428Y-102318142D01*
X175554285Y-102432428D01*
X175554285Y-102603857D01*
X175611428Y-102718142D01*
X175668571Y-102775285D01*
X175782857Y-102832428D01*
X176240000Y-102832428D01*
X174868571Y-102718142D02*
X174982857Y-102661000D01*
X175040000Y-102603857D01*
X175097142Y-102489571D01*
X175097142Y-102432428D01*
X175040000Y-102318142D01*
X174982857Y-102261000D01*
X174868571Y-102203857D01*
X174640000Y-102203857D01*
X174525714Y-102261000D01*
X174468571Y-102318142D01*
X174411428Y-102432428D01*
X174411428Y-102489571D01*
X174468571Y-102603857D01*
X174525714Y-102661000D01*
X174640000Y-102718142D01*
X174868571Y-102718142D01*
X174982857Y-102775285D01*
X175040000Y-102832428D01*
X175097142Y-102946714D01*
X175097142Y-103175285D01*
X175040000Y-103289571D01*
X174982857Y-103346714D01*
X174868571Y-103403857D01*
X174640000Y-103403857D01*
X174525714Y-103346714D01*
X174468571Y-103289571D01*
X174411428Y-103175285D01*
X174411428Y-102946714D01*
X174468571Y-102832428D01*
X174525714Y-102775285D01*
X174640000Y-102718142D01*
X173954285Y-102318142D02*
X173897142Y-102261000D01*
X173782857Y-102203857D01*
X173497142Y-102203857D01*
X173382857Y-102261000D01*
X173325714Y-102318142D01*
X173268571Y-102432428D01*
X173268571Y-102546714D01*
X173325714Y-102718142D01*
X174011428Y-103403857D01*
X173268571Y-103403857D01*
X172240000Y-102203857D02*
X172468571Y-102203857D01*
X172582857Y-102261000D01*
X172640000Y-102318142D01*
X172754285Y-102489571D01*
X172811428Y-102718142D01*
X172811428Y-103175285D01*
X172754285Y-103289571D01*
X172697142Y-103346714D01*
X172582857Y-103403857D01*
X172354285Y-103403857D01*
X172240000Y-103346714D01*
X172182857Y-103289571D01*
X172125714Y-103175285D01*
X172125714Y-102889571D01*
X172182857Y-102775285D01*
X172240000Y-102718142D01*
X172354285Y-102661000D01*
X172582857Y-102661000D01*
X172697142Y-102718142D01*
X172754285Y-102775285D01*
X172811428Y-102889571D01*
X171097142Y-102203857D02*
X171325714Y-102203857D01*
X171440000Y-102261000D01*
X171497142Y-102318142D01*
X171611428Y-102489571D01*
X171668571Y-102718142D01*
X171668571Y-103175285D01*
X171611428Y-103289571D01*
X171554285Y-103346714D01*
X171440000Y-103403857D01*
X171211428Y-103403857D01*
X171097142Y-103346714D01*
X171040000Y-103289571D01*
X170982857Y-103175285D01*
X170982857Y-102889571D01*
X171040000Y-102775285D01*
X171097142Y-102718142D01*
X171211428Y-102661000D01*
X171440000Y-102661000D01*
X171554285Y-102718142D01*
X171611428Y-102775285D01*
X171668571Y-102889571D01*
X170468571Y-102946714D02*
X169554285Y-102946714D01*
X168411428Y-103403857D02*
X168982857Y-103403857D01*
X168982857Y-102203857D01*
X167840000Y-103403857D02*
X167954285Y-103346714D01*
X168011428Y-103289571D01*
X168068571Y-103175285D01*
X168068571Y-102832428D01*
X168011428Y-102718142D01*
X167954285Y-102661000D01*
X167840000Y-102603857D01*
X167668571Y-102603857D01*
X167554285Y-102661000D01*
X167497142Y-102718142D01*
X167440000Y-102832428D01*
X167440000Y-103175285D01*
X167497142Y-103289571D01*
X167554285Y-103346714D01*
X167668571Y-103403857D01*
X167840000Y-103403857D01*
X166754285Y-103403857D02*
X166868571Y-103346714D01*
X166925714Y-103232428D01*
X166925714Y-102203857D01*
X166297142Y-103403857D02*
X166297142Y-102603857D01*
X166297142Y-102203857D02*
X166354285Y-102261000D01*
X166297142Y-102318142D01*
X166240000Y-102261000D01*
X166297142Y-102203857D01*
X166297142Y-102318142D01*
X165725714Y-102603857D02*
X165725714Y-103403857D01*
X165725714Y-102718142D02*
X165668571Y-102661000D01*
X165554285Y-102603857D01*
X165382857Y-102603857D01*
X165268571Y-102661000D01*
X165211428Y-102775285D01*
X165211428Y-103403857D01*
X164811428Y-102203857D02*
X164411428Y-103403857D01*
X164011428Y-102203857D01*
X163725714Y-102203857D02*
X162982857Y-102203857D01*
X163382857Y-102661000D01*
X163211428Y-102661000D01*
X163097142Y-102718142D01*
X163040000Y-102775285D01*
X162982857Y-102889571D01*
X162982857Y-103175285D01*
X163040000Y-103289571D01*
X163097142Y-103346714D01*
X163211428Y-103403857D01*
X163554285Y-103403857D01*
X163668571Y-103346714D01*
X163725714Y-103289571D01*
X162468571Y-102946714D02*
X161554285Y-102946714D01*
X160411428Y-103403857D02*
X160982857Y-103403857D01*
X160982857Y-102203857D01*
X159497142Y-103403857D02*
X159497142Y-102775285D01*
X159554285Y-102661000D01*
X159668571Y-102603857D01*
X159897142Y-102603857D01*
X160011428Y-102661000D01*
X159497142Y-103346714D02*
X159611428Y-103403857D01*
X159897142Y-103403857D01*
X160011428Y-103346714D01*
X160068571Y-103232428D01*
X160068571Y-103118142D01*
X160011428Y-103003857D01*
X159897142Y-102946714D01*
X159611428Y-102946714D01*
X159497142Y-102889571D01*
X158925714Y-103403857D02*
X158925714Y-102603857D01*
X158925714Y-102718142D02*
X158868571Y-102661000D01*
X158754285Y-102603857D01*
X158582857Y-102603857D01*
X158468571Y-102661000D01*
X158411428Y-102775285D01*
X158411428Y-103403857D01*
X158411428Y-102775285D02*
X158354285Y-102661000D01*
X158240000Y-102603857D01*
X158068571Y-102603857D01*
X157954285Y-102661000D01*
X157897142Y-102775285D01*
X157897142Y-103403857D01*
X157325714Y-102603857D02*
X157325714Y-103803857D01*
X157325714Y-102661000D02*
X157211428Y-102603857D01*
X156982857Y-102603857D01*
X156868571Y-102661000D01*
X156811428Y-102718142D01*
X156754285Y-102832428D01*
X156754285Y-103175285D01*
X156811428Y-103289571D01*
X156868571Y-103346714D01*
X156982857Y-103403857D01*
X157211428Y-103403857D01*
X157325714Y-103346714D01*
X169640000Y-104653857D02*
X169354285Y-105453857D01*
X169068571Y-104653857D01*
X168611428Y-105339571D02*
X168554285Y-105396714D01*
X168611428Y-105453857D01*
X168668571Y-105396714D01*
X168611428Y-105339571D01*
X168611428Y-105453857D01*
X168097142Y-104368142D02*
X168040000Y-104311000D01*
X167925714Y-104253857D01*
X167640000Y-104253857D01*
X167525714Y-104311000D01*
X167468571Y-104368142D01*
X167411428Y-104482428D01*
X167411428Y-104596714D01*
X167468571Y-104768142D01*
X168154285Y-105453857D01*
X167411428Y-105453857D01*
X166897142Y-105339571D02*
X166840000Y-105396714D01*
X166897142Y-105453857D01*
X166954285Y-105396714D01*
X166897142Y-105339571D01*
X166897142Y-105453857D01*
X166097142Y-104253857D02*
X165982857Y-104253857D01*
X165868571Y-104311000D01*
X165811428Y-104368142D01*
X165754285Y-104482428D01*
X165697142Y-104711000D01*
X165697142Y-104996714D01*
X165754285Y-105225285D01*
X165811428Y-105339571D01*
X165868571Y-105396714D01*
X165982857Y-105453857D01*
X166097142Y-105453857D01*
X166211428Y-105396714D01*
X166268571Y-105339571D01*
X166325714Y-105225285D01*
X166382857Y-104996714D01*
X166382857Y-104711000D01*
X166325714Y-104482428D01*
X166268571Y-104368142D01*
X166211428Y-104311000D01*
X166097142Y-104253857D01*
D13*
G04 #@! TO.C,U2*
X163358000Y-80454000D02*
G75*
G03X163358000Y-80454000I-100000J0D01*
G01*
D14*
X163688000Y-78454000D02*
X163688000Y-74454000D01*
X154828000Y-78454000D02*
X154828000Y-74454000D01*
D11*
G04 #@! TO.C,J7*
X146276000Y-100450000D02*
X146276000Y-108950000D01*
X146276000Y-108950000D02*
X155476000Y-108950000D01*
X155476000Y-108950000D02*
X155476000Y-94250000D01*
X148376000Y-94250000D02*
X146276000Y-94250000D01*
X146276000Y-94250000D02*
X146276000Y-96050000D01*
X154076000Y-93950000D02*
X155776000Y-93950000D01*
X155776000Y-93950000D02*
X155776000Y-95550000D01*
X155476000Y-94250000D02*
X153376000Y-94250000D01*
G04 #@! TO.C,C1*
X173228000Y-54102000D02*
G75*
G03X173228000Y-54102000I-5120000J0D01*
G01*
X168108000Y-59182000D02*
X168108000Y-49022000D01*
X168148000Y-59182000D02*
X168148000Y-49022000D01*
X168188000Y-59182000D02*
X168188000Y-49022000D01*
X168228000Y-59181000D02*
X168228000Y-49023000D01*
X168268000Y-59180000D02*
X168268000Y-49024000D01*
X168308000Y-59179000D02*
X168308000Y-49025000D01*
X168348000Y-59177000D02*
X168348000Y-49027000D01*
X168388000Y-59175000D02*
X168388000Y-49029000D01*
X168428000Y-59172000D02*
X168428000Y-49032000D01*
X168468000Y-59170000D02*
X168468000Y-49034000D01*
X168508000Y-59167000D02*
X168508000Y-49037000D01*
X168548000Y-59164000D02*
X168548000Y-49040000D01*
X168588000Y-59160000D02*
X168588000Y-49044000D01*
X168628000Y-59156000D02*
X168628000Y-49048000D01*
X168668000Y-59152000D02*
X168668000Y-49052000D01*
X168708000Y-59147000D02*
X168708000Y-49057000D01*
X168748000Y-59142000D02*
X168748000Y-49062000D01*
X168788000Y-59137000D02*
X168788000Y-49067000D01*
X168829000Y-59132000D02*
X168829000Y-49072000D01*
X168869000Y-59126000D02*
X168869000Y-49078000D01*
X168909000Y-59120000D02*
X168909000Y-49084000D01*
X168949000Y-59113000D02*
X168949000Y-49091000D01*
X168989000Y-59106000D02*
X168989000Y-49098000D01*
X169029000Y-59099000D02*
X169029000Y-49105000D01*
X169069000Y-59092000D02*
X169069000Y-49112000D01*
X169109000Y-59084000D02*
X169109000Y-49120000D01*
X169149000Y-59076000D02*
X169149000Y-49128000D01*
X169189000Y-59067000D02*
X169189000Y-49137000D01*
X169229000Y-59058000D02*
X169229000Y-49146000D01*
X169269000Y-59049000D02*
X169269000Y-49155000D01*
X169309000Y-59040000D02*
X169309000Y-49164000D01*
X169349000Y-59030000D02*
X169349000Y-49174000D01*
X169389000Y-59020000D02*
X169389000Y-55343000D01*
X169389000Y-52861000D02*
X169389000Y-49184000D01*
X169429000Y-59009000D02*
X169429000Y-55343000D01*
X169429000Y-52861000D02*
X169429000Y-49195000D01*
X169469000Y-58999000D02*
X169469000Y-55343000D01*
X169469000Y-52861000D02*
X169469000Y-49205000D01*
X169509000Y-58987000D02*
X169509000Y-55343000D01*
X169509000Y-52861000D02*
X169509000Y-49217000D01*
X169549000Y-58976000D02*
X169549000Y-55343000D01*
X169549000Y-52861000D02*
X169549000Y-49228000D01*
X169589000Y-58964000D02*
X169589000Y-55343000D01*
X169589000Y-52861000D02*
X169589000Y-49240000D01*
X169629000Y-58952000D02*
X169629000Y-55343000D01*
X169629000Y-52861000D02*
X169629000Y-49252000D01*
X169669000Y-58939000D02*
X169669000Y-55343000D01*
X169669000Y-52861000D02*
X169669000Y-49265000D01*
X169709000Y-58926000D02*
X169709000Y-55343000D01*
X169709000Y-52861000D02*
X169709000Y-49278000D01*
X169749000Y-58913000D02*
X169749000Y-55343000D01*
X169749000Y-52861000D02*
X169749000Y-49291000D01*
X169789000Y-58899000D02*
X169789000Y-55343000D01*
X169789000Y-52861000D02*
X169789000Y-49305000D01*
X169829000Y-58885000D02*
X169829000Y-55343000D01*
X169829000Y-52861000D02*
X169829000Y-49319000D01*
X169869000Y-58870000D02*
X169869000Y-55343000D01*
X169869000Y-52861000D02*
X169869000Y-49334000D01*
X169909000Y-58856000D02*
X169909000Y-55343000D01*
X169909000Y-52861000D02*
X169909000Y-49348000D01*
X169949000Y-58840000D02*
X169949000Y-55343000D01*
X169949000Y-52861000D02*
X169949000Y-49364000D01*
X169989000Y-58825000D02*
X169989000Y-55343000D01*
X169989000Y-52861000D02*
X169989000Y-49379000D01*
X170029000Y-58809000D02*
X170029000Y-55343000D01*
X170029000Y-52861000D02*
X170029000Y-49395000D01*
X170069000Y-58792000D02*
X170069000Y-55343000D01*
X170069000Y-52861000D02*
X170069000Y-49412000D01*
X170109000Y-58776000D02*
X170109000Y-55343000D01*
X170109000Y-52861000D02*
X170109000Y-49428000D01*
X170149000Y-58759000D02*
X170149000Y-55343000D01*
X170149000Y-52861000D02*
X170149000Y-49445000D01*
X170189000Y-58741000D02*
X170189000Y-55343000D01*
X170189000Y-52861000D02*
X170189000Y-49463000D01*
X170229000Y-58723000D02*
X170229000Y-55343000D01*
X170229000Y-52861000D02*
X170229000Y-49481000D01*
X170269000Y-58705000D02*
X170269000Y-55343000D01*
X170269000Y-52861000D02*
X170269000Y-49499000D01*
X170309000Y-58686000D02*
X170309000Y-55343000D01*
X170309000Y-52861000D02*
X170309000Y-49518000D01*
X170349000Y-58666000D02*
X170349000Y-55343000D01*
X170349000Y-52861000D02*
X170349000Y-49538000D01*
X170389000Y-58647000D02*
X170389000Y-55343000D01*
X170389000Y-52861000D02*
X170389000Y-49557000D01*
X170429000Y-58627000D02*
X170429000Y-55343000D01*
X170429000Y-52861000D02*
X170429000Y-49577000D01*
X170469000Y-58606000D02*
X170469000Y-55343000D01*
X170469000Y-52861000D02*
X170469000Y-49598000D01*
X170509000Y-58585000D02*
X170509000Y-55343000D01*
X170509000Y-52861000D02*
X170509000Y-49619000D01*
X170549000Y-58564000D02*
X170549000Y-55343000D01*
X170549000Y-52861000D02*
X170549000Y-49640000D01*
X170589000Y-58542000D02*
X170589000Y-55343000D01*
X170589000Y-52861000D02*
X170589000Y-49662000D01*
X170629000Y-58519000D02*
X170629000Y-55343000D01*
X170629000Y-52861000D02*
X170629000Y-49685000D01*
X170669000Y-58497000D02*
X170669000Y-55343000D01*
X170669000Y-52861000D02*
X170669000Y-49707000D01*
X170709000Y-58473000D02*
X170709000Y-55343000D01*
X170709000Y-52861000D02*
X170709000Y-49731000D01*
X170749000Y-58449000D02*
X170749000Y-55343000D01*
X170749000Y-52861000D02*
X170749000Y-49755000D01*
X170789000Y-58425000D02*
X170789000Y-55343000D01*
X170789000Y-52861000D02*
X170789000Y-49779000D01*
X170829000Y-58400000D02*
X170829000Y-55343000D01*
X170829000Y-52861000D02*
X170829000Y-49804000D01*
X170869000Y-58375000D02*
X170869000Y-55343000D01*
X170869000Y-52861000D02*
X170869000Y-49829000D01*
X170909000Y-58349000D02*
X170909000Y-55343000D01*
X170909000Y-52861000D02*
X170909000Y-49855000D01*
X170949000Y-58323000D02*
X170949000Y-55343000D01*
X170949000Y-52861000D02*
X170949000Y-49881000D01*
X170989000Y-58296000D02*
X170989000Y-55343000D01*
X170989000Y-52861000D02*
X170989000Y-49908000D01*
X171029000Y-58268000D02*
X171029000Y-55343000D01*
X171029000Y-52861000D02*
X171029000Y-49936000D01*
X171069000Y-58240000D02*
X171069000Y-55343000D01*
X171069000Y-52861000D02*
X171069000Y-49964000D01*
X171109000Y-58212000D02*
X171109000Y-55343000D01*
X171109000Y-52861000D02*
X171109000Y-49992000D01*
X171149000Y-58182000D02*
X171149000Y-55343000D01*
X171149000Y-52861000D02*
X171149000Y-50022000D01*
X171189000Y-58152000D02*
X171189000Y-55343000D01*
X171189000Y-52861000D02*
X171189000Y-50052000D01*
X171229000Y-58122000D02*
X171229000Y-55343000D01*
X171229000Y-52861000D02*
X171229000Y-50082000D01*
X171269000Y-58091000D02*
X171269000Y-55343000D01*
X171269000Y-52861000D02*
X171269000Y-50113000D01*
X171309000Y-58059000D02*
X171309000Y-55343000D01*
X171309000Y-52861000D02*
X171309000Y-50145000D01*
X171349000Y-58027000D02*
X171349000Y-55343000D01*
X171349000Y-52861000D02*
X171349000Y-50177000D01*
X171389000Y-57994000D02*
X171389000Y-55343000D01*
X171389000Y-52861000D02*
X171389000Y-50210000D01*
X171429000Y-57960000D02*
X171429000Y-55343000D01*
X171429000Y-52861000D02*
X171429000Y-50244000D01*
X171469000Y-57926000D02*
X171469000Y-55343000D01*
X171469000Y-52861000D02*
X171469000Y-50278000D01*
X171509000Y-57891000D02*
X171509000Y-55343000D01*
X171509000Y-52861000D02*
X171509000Y-50313000D01*
X171549000Y-57855000D02*
X171549000Y-55343000D01*
X171549000Y-52861000D02*
X171549000Y-50349000D01*
X171589000Y-57818000D02*
X171589000Y-55343000D01*
X171589000Y-52861000D02*
X171589000Y-50386000D01*
X171629000Y-57781000D02*
X171629000Y-55343000D01*
X171629000Y-52861000D02*
X171629000Y-50423000D01*
X171669000Y-57742000D02*
X171669000Y-55343000D01*
X171669000Y-52861000D02*
X171669000Y-50462000D01*
X171709000Y-57703000D02*
X171709000Y-55343000D01*
X171709000Y-52861000D02*
X171709000Y-50501000D01*
X171749000Y-57663000D02*
X171749000Y-55343000D01*
X171749000Y-52861000D02*
X171749000Y-50541000D01*
X171789000Y-57622000D02*
X171789000Y-55343000D01*
X171789000Y-52861000D02*
X171789000Y-50582000D01*
X171829000Y-57580000D02*
X171829000Y-55343000D01*
X171829000Y-52861000D02*
X171829000Y-50624000D01*
X171869000Y-57538000D02*
X171869000Y-50666000D01*
X171909000Y-57494000D02*
X171909000Y-50710000D01*
X171949000Y-57449000D02*
X171949000Y-50755000D01*
X171989000Y-57403000D02*
X171989000Y-50801000D01*
X172029000Y-57356000D02*
X172029000Y-50848000D01*
X172069000Y-57308000D02*
X172069000Y-50896000D01*
X172109000Y-57258000D02*
X172109000Y-50946000D01*
X172149000Y-57208000D02*
X172149000Y-50996000D01*
X172189000Y-57156000D02*
X172189000Y-51048000D01*
X172229000Y-57102000D02*
X172229000Y-51102000D01*
X172269000Y-57047000D02*
X172269000Y-51157000D01*
X172309000Y-56991000D02*
X172309000Y-51213000D01*
X172349000Y-56932000D02*
X172349000Y-51272000D01*
X172389000Y-56872000D02*
X172389000Y-51332000D01*
X172429000Y-56811000D02*
X172429000Y-51393000D01*
X172469000Y-56747000D02*
X172469000Y-51457000D01*
X172509000Y-56681000D02*
X172509000Y-51523000D01*
X172549000Y-56612000D02*
X172549000Y-51592000D01*
X172589000Y-56541000D02*
X172589000Y-51663000D01*
X172629000Y-56467000D02*
X172629000Y-51737000D01*
X172669000Y-56391000D02*
X172669000Y-51813000D01*
X172709000Y-56311000D02*
X172709000Y-51893000D01*
X172749000Y-56227000D02*
X172749000Y-51977000D01*
X172789000Y-56139000D02*
X172789000Y-52065000D01*
X172829000Y-56046000D02*
X172829000Y-52158000D01*
X172869000Y-55948000D02*
X172869000Y-52256000D01*
X172909000Y-55844000D02*
X172909000Y-52360000D01*
X172949000Y-55732000D02*
X172949000Y-52472000D01*
X172989000Y-55612000D02*
X172989000Y-52592000D01*
X173029000Y-55480000D02*
X173029000Y-52724000D01*
X173069000Y-55332000D02*
X173069000Y-52872000D01*
X173109000Y-55164000D02*
X173109000Y-53040000D01*
X173149000Y-54964000D02*
X173149000Y-53240000D01*
X173189000Y-54701000D02*
X173189000Y-53503000D01*
X162628354Y-56977000D02*
X163628354Y-56977000D01*
X163128354Y-57477000D02*
X163128354Y-56477000D01*
G04 #@! TO.C,C2*
X157953000Y-50180000D02*
X157953000Y-56420000D01*
X162595000Y-50180000D02*
X162595000Y-56420000D01*
X157953000Y-50180000D02*
X159349000Y-50180000D01*
X161199000Y-50180000D02*
X162595000Y-50180000D01*
X157953000Y-56420000D02*
X159349000Y-56420000D01*
X161199000Y-56420000D02*
X162595000Y-56420000D01*
G04 #@! TO.C,R7*
X161766000Y-57634000D02*
X161766000Y-57304000D01*
X161766000Y-57304000D02*
X155226000Y-57304000D01*
X155226000Y-57304000D02*
X155226000Y-57634000D01*
X161766000Y-59714000D02*
X161766000Y-60044000D01*
X161766000Y-60044000D02*
X155226000Y-60044000D01*
X155226000Y-60044000D02*
X155226000Y-59714000D01*
G04 #@! TO.C,R5*
X166016000Y-73692000D02*
X166346000Y-73692000D01*
X166016000Y-80232000D02*
X166016000Y-73692000D01*
X166346000Y-80232000D02*
X166016000Y-80232000D01*
X168756000Y-73692000D02*
X168426000Y-73692000D01*
X168756000Y-80232000D02*
X168756000Y-73692000D01*
X168426000Y-80232000D02*
X168756000Y-80232000D01*
G04 #@! TO.C,R6*
X166346000Y-84614000D02*
X166016000Y-84614000D01*
X166016000Y-84614000D02*
X166016000Y-91154000D01*
X166016000Y-91154000D02*
X166346000Y-91154000D01*
X168426000Y-84614000D02*
X168756000Y-84614000D01*
X168756000Y-84614000D02*
X168756000Y-91154000D01*
X168756000Y-91154000D02*
X168426000Y-91154000D01*
G04 #@! TO.C,R4*
X151738000Y-69056000D02*
X151408000Y-69056000D01*
X151738000Y-62516000D02*
X151738000Y-69056000D01*
X151408000Y-62516000D02*
X151738000Y-62516000D01*
X148998000Y-69056000D02*
X149328000Y-69056000D01*
X148998000Y-62516000D02*
X148998000Y-69056000D01*
X149328000Y-62516000D02*
X148998000Y-62516000D01*
G04 #@! TO.C,R3*
X165584000Y-62516000D02*
X165254000Y-62516000D01*
X165254000Y-62516000D02*
X165254000Y-69056000D01*
X165254000Y-69056000D02*
X165584000Y-69056000D01*
X167664000Y-62516000D02*
X167994000Y-62516000D01*
X167994000Y-62516000D02*
X167994000Y-69056000D01*
X167994000Y-69056000D02*
X167664000Y-69056000D01*
G04 #@! TO.C,Q5*
X186404000Y-65318000D02*
X186404000Y-55078000D01*
X181763000Y-65318000D02*
X181763000Y-55078000D01*
X186404000Y-65318000D02*
X181763000Y-65318000D01*
X186404000Y-55078000D02*
X181763000Y-55078000D01*
X184894000Y-65318000D02*
X184894000Y-55078000D01*
X186404000Y-62048000D02*
X184894000Y-62048000D01*
X186404000Y-58347000D02*
X184894000Y-58347000D01*
G04 #@! TO.C,BZ1*
X164850000Y-87874000D02*
G75*
G03X164850000Y-87874000I-6100000J0D01*
G01*
G04 #@! TO.C,J2*
X146498000Y-50740000D02*
X146498000Y-52070000D01*
X147828000Y-50740000D02*
X146498000Y-50740000D01*
X149098000Y-50740000D02*
X149098000Y-53400000D01*
X149098000Y-53400000D02*
X156778000Y-53400000D01*
X149098000Y-50740000D02*
X156778000Y-50740000D01*
X156778000Y-50740000D02*
X156778000Y-53400000D01*
D15*
G04 #@! TO.C,Q6*
X158140400Y-66395600D02*
X157327600Y-66395600D01*
X157327600Y-66395600D02*
X157327600Y-67054400D01*
X157327600Y-69240400D02*
X158140400Y-69240400D01*
X157327600Y-68581600D02*
X157327600Y-69240400D01*
G04 #@! TO.C,Q4*
X158851600Y-64922400D02*
X159664400Y-64922400D01*
X159664400Y-64922400D02*
X159664400Y-64263600D01*
X159664400Y-62077600D02*
X158851600Y-62077600D01*
X159664400Y-62736400D02*
X159664400Y-62077600D01*
G04 #@! TO.C,U2*
D16*
X164127904Y-77412476D02*
X164775523Y-77412476D01*
X164851714Y-77450571D01*
X164889809Y-77488666D01*
X164927904Y-77564857D01*
X164927904Y-77717238D01*
X164889809Y-77793428D01*
X164851714Y-77831523D01*
X164775523Y-77869619D01*
X164127904Y-77869619D01*
X164204095Y-78212476D02*
X164166000Y-78250571D01*
X164127904Y-78326761D01*
X164127904Y-78517238D01*
X164166000Y-78593428D01*
X164204095Y-78631523D01*
X164280285Y-78669619D01*
X164356476Y-78669619D01*
X164470761Y-78631523D01*
X164927904Y-78174380D01*
X164927904Y-78669619D01*
X154273809Y-72694952D02*
X154311904Y-72809238D01*
X154311904Y-72999714D01*
X154273809Y-73075904D01*
X154235714Y-73114000D01*
X154159523Y-73152095D01*
X154083333Y-73152095D01*
X154007142Y-73114000D01*
X153969047Y-73075904D01*
X153930952Y-72999714D01*
X153892857Y-72847333D01*
X153854761Y-72771142D01*
X153816666Y-72733047D01*
X153740476Y-72694952D01*
X153664285Y-72694952D01*
X153588095Y-72733047D01*
X153550000Y-72771142D01*
X153511904Y-72847333D01*
X153511904Y-73037809D01*
X153550000Y-73152095D01*
X154311904Y-73494952D02*
X153511904Y-73494952D01*
X154311904Y-73952095D01*
X153511904Y-73952095D01*
X153511904Y-74256857D02*
X153511904Y-74790190D01*
X154311904Y-74447333D01*
X153778571Y-75437809D02*
X154311904Y-75437809D01*
X153473809Y-75247333D02*
X154045238Y-75056857D01*
X154045238Y-75552095D01*
X154083333Y-75818761D02*
X154083333Y-76199714D01*
X154311904Y-75742571D02*
X153511904Y-76009238D01*
X154311904Y-76275904D01*
X154311904Y-76542571D02*
X153511904Y-76542571D01*
X153892857Y-76542571D02*
X153892857Y-76999714D01*
X154311904Y-76999714D02*
X153511904Y-76999714D01*
X154235714Y-77837809D02*
X154273809Y-77799714D01*
X154311904Y-77685428D01*
X154311904Y-77609238D01*
X154273809Y-77494952D01*
X154197619Y-77418761D01*
X154121428Y-77380666D01*
X153969047Y-77342571D01*
X153854761Y-77342571D01*
X153702380Y-77380666D01*
X153626190Y-77418761D01*
X153550000Y-77494952D01*
X153511904Y-77609238D01*
X153511904Y-77685428D01*
X153550000Y-77799714D01*
X153588095Y-77837809D01*
X153511904Y-78066380D02*
X153511904Y-78523523D01*
X154311904Y-78294952D02*
X153511904Y-78294952D01*
X154311904Y-79209238D02*
X154311904Y-78752095D01*
X154311904Y-78980666D02*
X153511904Y-78980666D01*
X153626190Y-78904476D01*
X153702380Y-78828285D01*
X153740476Y-78752095D01*
X153588095Y-79514000D02*
X153550000Y-79552095D01*
X153511904Y-79628285D01*
X153511904Y-79818761D01*
X153550000Y-79894952D01*
X153588095Y-79933047D01*
X153664285Y-79971142D01*
X153740476Y-79971142D01*
X153854761Y-79933047D01*
X154311904Y-79475904D01*
X154311904Y-79971142D01*
X153511904Y-80694952D02*
X153511904Y-80314000D01*
X153892857Y-80275904D01*
X153854761Y-80314000D01*
X153816666Y-80390190D01*
X153816666Y-80580666D01*
X153854761Y-80656857D01*
X153892857Y-80694952D01*
X153969047Y-80733047D01*
X154159523Y-80733047D01*
X154235714Y-80694952D01*
X154273809Y-80656857D01*
X154311904Y-80580666D01*
X154311904Y-80390190D01*
X154273809Y-80314000D01*
X154235714Y-80275904D01*
X154311904Y-81075904D02*
X153511904Y-81075904D01*
X153511904Y-81266380D01*
X153550000Y-81380666D01*
X153626190Y-81456857D01*
X153702380Y-81494952D01*
X153854761Y-81533047D01*
X153969047Y-81533047D01*
X154121428Y-81494952D01*
X154197619Y-81456857D01*
X154273809Y-81380666D01*
X154311904Y-81266380D01*
X154311904Y-81075904D01*
X154311904Y-82333047D02*
X153930952Y-82066380D01*
X154311904Y-81875904D02*
X153511904Y-81875904D01*
X153511904Y-82180666D01*
X153550000Y-82256857D01*
X153588095Y-82294952D01*
X153664285Y-82333047D01*
X153778571Y-82333047D01*
X153854761Y-82294952D01*
X153892857Y-82256857D01*
X153930952Y-82180666D01*
X153930952Y-81875904D01*
G04 #@! TO.C,J7*
D10*
X151209333Y-102576380D02*
X151209333Y-103290666D01*
X151256952Y-103433523D01*
X151352190Y-103528761D01*
X151495047Y-103576380D01*
X151590285Y-103576380D01*
X150828380Y-102576380D02*
X150161714Y-102576380D01*
X150590285Y-103576380D01*
G04 #@! TO.C,C1*
X165774666Y-56999142D02*
X165822285Y-57046761D01*
X165965142Y-57094380D01*
X166060380Y-57094380D01*
X166203238Y-57046761D01*
X166298476Y-56951523D01*
X166346095Y-56856285D01*
X166393714Y-56665809D01*
X166393714Y-56522952D01*
X166346095Y-56332476D01*
X166298476Y-56237238D01*
X166203238Y-56142000D01*
X166060380Y-56094380D01*
X165965142Y-56094380D01*
X165822285Y-56142000D01*
X165774666Y-56189619D01*
X164822285Y-57094380D02*
X165393714Y-57094380D01*
X165108000Y-57094380D02*
X165108000Y-56094380D01*
X165203238Y-56237238D01*
X165298476Y-56332476D01*
X165393714Y-56380095D01*
G04 #@! TO.C,C2*
X160631142Y-53133333D02*
X160678761Y-53085714D01*
X160726380Y-52942857D01*
X160726380Y-52847619D01*
X160678761Y-52704761D01*
X160583523Y-52609523D01*
X160488285Y-52561904D01*
X160297809Y-52514285D01*
X160154952Y-52514285D01*
X159964476Y-52561904D01*
X159869238Y-52609523D01*
X159774000Y-52704761D01*
X159726380Y-52847619D01*
X159726380Y-52942857D01*
X159774000Y-53085714D01*
X159821619Y-53133333D01*
X159821619Y-53514285D02*
X159774000Y-53561904D01*
X159726380Y-53657142D01*
X159726380Y-53895238D01*
X159774000Y-53990476D01*
X159821619Y-54038095D01*
X159916857Y-54085714D01*
X160012095Y-54085714D01*
X160154952Y-54038095D01*
X160726380Y-53466666D01*
X160726380Y-54085714D01*
G04 #@! TO.C,R7*
X158408666Y-61412380D02*
X158742000Y-60936190D01*
X158980095Y-61412380D02*
X158980095Y-60412380D01*
X158599142Y-60412380D01*
X158503904Y-60460000D01*
X158456285Y-60507619D01*
X158408666Y-60602857D01*
X158408666Y-60745714D01*
X158456285Y-60840952D01*
X158503904Y-60888571D01*
X158599142Y-60936190D01*
X158980095Y-60936190D01*
X158075333Y-60412380D02*
X157408666Y-60412380D01*
X157837238Y-61412380D01*
G04 #@! TO.C,R5*
X170208380Y-76795333D02*
X169732190Y-76462000D01*
X170208380Y-76223904D02*
X169208380Y-76223904D01*
X169208380Y-76604857D01*
X169256000Y-76700095D01*
X169303619Y-76747714D01*
X169398857Y-76795333D01*
X169541714Y-76795333D01*
X169636952Y-76747714D01*
X169684571Y-76700095D01*
X169732190Y-76604857D01*
X169732190Y-76223904D01*
X169208380Y-77700095D02*
X169208380Y-77223904D01*
X169684571Y-77176285D01*
X169636952Y-77223904D01*
X169589333Y-77319142D01*
X169589333Y-77557238D01*
X169636952Y-77652476D01*
X169684571Y-77700095D01*
X169779809Y-77747714D01*
X170017904Y-77747714D01*
X170113142Y-77700095D01*
X170160761Y-77652476D01*
X170208380Y-77557238D01*
X170208380Y-77319142D01*
X170160761Y-77223904D01*
X170113142Y-77176285D01*
G04 #@! TO.C,R6*
X170378380Y-87209333D02*
X169902190Y-86876000D01*
X170378380Y-86637904D02*
X169378380Y-86637904D01*
X169378380Y-87018857D01*
X169426000Y-87114095D01*
X169473619Y-87161714D01*
X169568857Y-87209333D01*
X169711714Y-87209333D01*
X169806952Y-87161714D01*
X169854571Y-87114095D01*
X169902190Y-87018857D01*
X169902190Y-86637904D01*
X169378380Y-88066476D02*
X169378380Y-87876000D01*
X169426000Y-87780761D01*
X169473619Y-87733142D01*
X169616476Y-87637904D01*
X169806952Y-87590285D01*
X170187904Y-87590285D01*
X170283142Y-87637904D01*
X170330761Y-87685523D01*
X170378380Y-87780761D01*
X170378380Y-87971238D01*
X170330761Y-88066476D01*
X170283142Y-88114095D01*
X170187904Y-88161714D01*
X169949809Y-88161714D01*
X169854571Y-88114095D01*
X169806952Y-88066476D01*
X169759333Y-87971238D01*
X169759333Y-87780761D01*
X169806952Y-87685523D01*
X169854571Y-87637904D01*
X169949809Y-87590285D01*
G04 #@! TO.C,R4*
X148450380Y-65619333D02*
X147974190Y-65286000D01*
X148450380Y-65047904D02*
X147450380Y-65047904D01*
X147450380Y-65428857D01*
X147498000Y-65524095D01*
X147545619Y-65571714D01*
X147640857Y-65619333D01*
X147783714Y-65619333D01*
X147878952Y-65571714D01*
X147926571Y-65524095D01*
X147974190Y-65428857D01*
X147974190Y-65047904D01*
X147783714Y-66476476D02*
X148450380Y-66476476D01*
X147402761Y-66238380D02*
X148117047Y-66000285D01*
X148117047Y-66619333D01*
G04 #@! TO.C,R3*
X164706380Y-65619333D02*
X164230190Y-65286000D01*
X164706380Y-65047904D02*
X163706380Y-65047904D01*
X163706380Y-65428857D01*
X163754000Y-65524095D01*
X163801619Y-65571714D01*
X163896857Y-65619333D01*
X164039714Y-65619333D01*
X164134952Y-65571714D01*
X164182571Y-65524095D01*
X164230190Y-65428857D01*
X164230190Y-65047904D01*
X163706380Y-65952666D02*
X163706380Y-66571714D01*
X164087333Y-66238380D01*
X164087333Y-66381238D01*
X164134952Y-66476476D01*
X164182571Y-66524095D01*
X164277809Y-66571714D01*
X164515904Y-66571714D01*
X164611142Y-66524095D01*
X164658761Y-66476476D01*
X164706380Y-66381238D01*
X164706380Y-66095523D01*
X164658761Y-66000285D01*
X164611142Y-65952666D01*
G04 #@! TO.C,Q5*
X181395619Y-60102761D02*
X181348000Y-60007523D01*
X181252761Y-59912285D01*
X181109904Y-59769428D01*
X181062285Y-59674190D01*
X181062285Y-59578952D01*
X181300380Y-59626571D02*
X181252761Y-59531333D01*
X181157523Y-59436095D01*
X180967047Y-59388476D01*
X180633714Y-59388476D01*
X180443238Y-59436095D01*
X180348000Y-59531333D01*
X180300380Y-59626571D01*
X180300380Y-59817047D01*
X180348000Y-59912285D01*
X180443238Y-60007523D01*
X180633714Y-60055142D01*
X180967047Y-60055142D01*
X181157523Y-60007523D01*
X181252761Y-59912285D01*
X181300380Y-59817047D01*
X181300380Y-59626571D01*
X180300380Y-60959904D02*
X180300380Y-60483714D01*
X180776571Y-60436095D01*
X180728952Y-60483714D01*
X180681333Y-60578952D01*
X180681333Y-60817047D01*
X180728952Y-60912285D01*
X180776571Y-60959904D01*
X180871809Y-61007523D01*
X181109904Y-61007523D01*
X181205142Y-60959904D01*
X181252761Y-60912285D01*
X181300380Y-60817047D01*
X181300380Y-60578952D01*
X181252761Y-60483714D01*
X181205142Y-60436095D01*
G04 #@! TO.C,BZ1*
X151478571Y-86993047D02*
X151526190Y-87135904D01*
X151573809Y-87183523D01*
X151669047Y-87231142D01*
X151811904Y-87231142D01*
X151907142Y-87183523D01*
X151954761Y-87135904D01*
X152002380Y-87040666D01*
X152002380Y-86659714D01*
X151002380Y-86659714D01*
X151002380Y-86993047D01*
X151050000Y-87088285D01*
X151097619Y-87135904D01*
X151192857Y-87183523D01*
X151288095Y-87183523D01*
X151383333Y-87135904D01*
X151430952Y-87088285D01*
X151478571Y-86993047D01*
X151478571Y-86659714D01*
X151002380Y-87564476D02*
X151002380Y-88231142D01*
X152002380Y-87564476D01*
X152002380Y-88231142D01*
X152002380Y-89135904D02*
X152002380Y-88564476D01*
X152002380Y-88850190D02*
X151002380Y-88850190D01*
X151145238Y-88754952D01*
X151240476Y-88659714D01*
X151288095Y-88564476D01*
X156281428Y-83683047D02*
X156281428Y-84444952D01*
X156662380Y-84064000D02*
X155900476Y-84064000D01*
G04 #@! TO.C,J2*
X145621333Y-51522380D02*
X145621333Y-52236666D01*
X145668952Y-52379523D01*
X145764190Y-52474761D01*
X145907047Y-52522380D01*
X146002285Y-52522380D01*
X145192761Y-51617619D02*
X145145142Y-51570000D01*
X145049904Y-51522380D01*
X144811809Y-51522380D01*
X144716571Y-51570000D01*
X144668952Y-51617619D01*
X144621333Y-51712857D01*
X144621333Y-51808095D01*
X144668952Y-51950952D01*
X145240380Y-52522380D01*
X144621333Y-52522380D01*
G04 #@! TO.C,Q6*
D16*
X156902263Y-69519780D02*
X156864153Y-69443560D01*
X156787933Y-69367340D01*
X156673604Y-69253011D01*
X156635494Y-69176791D01*
X156635494Y-69100571D01*
X156826043Y-69138681D02*
X156787933Y-69062462D01*
X156711714Y-68986242D01*
X156559274Y-68948132D01*
X156292505Y-68948132D01*
X156140066Y-68986242D01*
X156063846Y-69062462D01*
X156025736Y-69138681D01*
X156025736Y-69291121D01*
X156063846Y-69367340D01*
X156140066Y-69443560D01*
X156292505Y-69481670D01*
X156559274Y-69481670D01*
X156711714Y-69443560D01*
X156787933Y-69367340D01*
X156826043Y-69291121D01*
X156826043Y-69138681D01*
X156025736Y-70167647D02*
X156025736Y-70015208D01*
X156063846Y-69938988D01*
X156101956Y-69900878D01*
X156216285Y-69824659D01*
X156368725Y-69786549D01*
X156673604Y-69786549D01*
X156749823Y-69824659D01*
X156787933Y-69862769D01*
X156826043Y-69938988D01*
X156826043Y-70091428D01*
X156787933Y-70167647D01*
X156749823Y-70205757D01*
X156673604Y-70243867D01*
X156483054Y-70243867D01*
X156406835Y-70205757D01*
X156368725Y-70167647D01*
X156330615Y-70091428D01*
X156330615Y-69938988D01*
X156368725Y-69862769D01*
X156406835Y-69824659D01*
X156483054Y-69786549D01*
X160714819Y-66129232D02*
X160714819Y-65915591D01*
X161050542Y-65915591D02*
X160409617Y-65915591D01*
X160409617Y-66220793D01*
X161050542Y-66464955D02*
X160409617Y-66464955D01*
X160409617Y-66617556D01*
X160440137Y-66709117D01*
X160501177Y-66770157D01*
X160562218Y-66800678D01*
X160684299Y-66831198D01*
X160775860Y-66831198D01*
X160897941Y-66800678D01*
X160958981Y-66770157D01*
X161020022Y-66709117D01*
X161050542Y-66617556D01*
X161050542Y-66464955D01*
X161050542Y-67105880D02*
X160409617Y-67105880D01*
X161050542Y-67472123D01*
X160409617Y-67472123D01*
X160409617Y-67716285D02*
X160409617Y-68113048D01*
X160653779Y-67899406D01*
X160653779Y-67990967D01*
X160684299Y-68052007D01*
X160714819Y-68082528D01*
X160775860Y-68113048D01*
X160928461Y-68113048D01*
X160989501Y-68082528D01*
X161020022Y-68052007D01*
X161050542Y-67990967D01*
X161050542Y-67807845D01*
X161020022Y-67746805D01*
X160989501Y-67716285D01*
X160409617Y-68326689D02*
X160409617Y-68723453D01*
X160653779Y-68509811D01*
X160653779Y-68601372D01*
X160684299Y-68662412D01*
X160714819Y-68692932D01*
X160775860Y-68723453D01*
X160928461Y-68723453D01*
X160989501Y-68692932D01*
X161020022Y-68662412D01*
X161050542Y-68601372D01*
X161050542Y-68418250D01*
X161020022Y-68357210D01*
X160989501Y-68326689D01*
X160409617Y-68937094D02*
X160409617Y-69364378D01*
X161050542Y-69089695D01*
X161050542Y-69608539D02*
X160409617Y-69608539D01*
X161050542Y-69974782D01*
X160409617Y-69974782D01*
G04 #@! TO.C,Q4*
X160712108Y-61645807D02*
X160674012Y-61569614D01*
X160597819Y-61493421D01*
X160483530Y-61379132D01*
X160445433Y-61302939D01*
X160445433Y-61226747D01*
X160635915Y-61264843D02*
X160597819Y-61188650D01*
X160521626Y-61112457D01*
X160369240Y-61074361D01*
X160102566Y-61074361D01*
X159950180Y-61112457D01*
X159873988Y-61188650D01*
X159835891Y-61264843D01*
X159835891Y-61417228D01*
X159873988Y-61493421D01*
X159950180Y-61569614D01*
X160102566Y-61607710D01*
X160369240Y-61607710D01*
X160521626Y-61569614D01*
X160597819Y-61493421D01*
X160635915Y-61417228D01*
X160635915Y-61264843D01*
X160102566Y-62293445D02*
X160635915Y-62293445D01*
X159797795Y-62102963D02*
X160369240Y-61912481D01*
X160369240Y-62407734D01*
X156184491Y-61571352D02*
X156184491Y-61357625D01*
X156520347Y-61357625D02*
X155879167Y-61357625D01*
X155879167Y-61662949D01*
X156520347Y-61907208D02*
X155879167Y-61907208D01*
X155879167Y-62059870D01*
X155909700Y-62151467D01*
X155970764Y-62212532D01*
X156031829Y-62243064D01*
X156153959Y-62273597D01*
X156245556Y-62273597D01*
X156367685Y-62243064D01*
X156428750Y-62212532D01*
X156489815Y-62151467D01*
X156520347Y-62059870D01*
X156520347Y-61907208D01*
X156520347Y-62548388D02*
X155879167Y-62548388D01*
X156520347Y-62914777D01*
X155879167Y-62914777D01*
X155879167Y-63159036D02*
X155879167Y-63555957D01*
X156123426Y-63342230D01*
X156123426Y-63433827D01*
X156153959Y-63494892D01*
X156184491Y-63525424D01*
X156245556Y-63555957D01*
X156398218Y-63555957D01*
X156459282Y-63525424D01*
X156489815Y-63494892D01*
X156520347Y-63433827D01*
X156520347Y-63250633D01*
X156489815Y-63189568D01*
X156459282Y-63159036D01*
X155879167Y-63769683D02*
X155879167Y-64166604D01*
X156123426Y-63952878D01*
X156123426Y-64044475D01*
X156153959Y-64105540D01*
X156184491Y-64136072D01*
X156245556Y-64166604D01*
X156398218Y-64166604D01*
X156459282Y-64136072D01*
X156489815Y-64105540D01*
X156520347Y-64044475D01*
X156520347Y-63861281D01*
X156489815Y-63800216D01*
X156459282Y-63769683D01*
X156153959Y-64532993D02*
X156123426Y-64471928D01*
X156092894Y-64441396D01*
X156031829Y-64410863D01*
X156001297Y-64410863D01*
X155940232Y-64441396D01*
X155909700Y-64471928D01*
X155879167Y-64532993D01*
X155879167Y-64655123D01*
X155909700Y-64716187D01*
X155940232Y-64746720D01*
X156001297Y-64777252D01*
X156031829Y-64777252D01*
X156092894Y-64746720D01*
X156123426Y-64716187D01*
X156153959Y-64655123D01*
X156153959Y-64532993D01*
X156184491Y-64471928D01*
X156215023Y-64441396D01*
X156276088Y-64410863D01*
X156398218Y-64410863D01*
X156459282Y-64441396D01*
X156489815Y-64471928D01*
X156520347Y-64532993D01*
X156520347Y-64655123D01*
X156489815Y-64716187D01*
X156459282Y-64746720D01*
X156398218Y-64777252D01*
X156276088Y-64777252D01*
X156215023Y-64746720D01*
X156184491Y-64716187D01*
X156153959Y-64655123D01*
X156520347Y-65052043D02*
X155879167Y-65052043D01*
X155879167Y-65296303D01*
X155909700Y-65357367D01*
X155940232Y-65387900D01*
X156001297Y-65418432D01*
X156092894Y-65418432D01*
X156153959Y-65387900D01*
X156184491Y-65357367D01*
X156215023Y-65296303D01*
X156215023Y-65052043D01*
G04 #@! TD*
M02*
