G04 #@! TF.GenerationSoftware,KiCad,Pcbnew,5.0.2-bee76a0~70~ubuntu18.04.1*
G04 #@! TF.CreationDate,2020-02-03T20:23:13+01:00*
G04 #@! TF.ProjectId,ESP8266-LolinV3-Lamp,45535038-3236-4362-9d4c-6f6c696e5633,2.0*
G04 #@! TF.SameCoordinates,Original*
G04 #@! TF.FileFunction,Copper,L2,Bot*
G04 #@! TF.FilePolarity,Positive*
%FSLAX46Y46*%
G04 Gerber Fmt 4.6, Leading zero omitted, Abs format (unit mm)*
G04 Created by KiCad (PCBNEW 5.0.2-bee76a0~70~ubuntu18.04.1) date lun 03 feb 2020 20:23:13 CET*
%MOMM*%
%LPD*%
G01*
G04 APERTURE LIST*
G04 #@! TA.AperFunction,ComponentPad*
%ADD10R,1.700000X1.700000*%
G04 #@! TD*
G04 #@! TA.AperFunction,ComponentPad*
%ADD11O,1.700000X1.700000*%
G04 #@! TD*
G04 #@! TA.AperFunction,SMDPad,CuDef*
%ADD12R,0.600000X1.970000*%
G04 #@! TD*
G04 #@! TA.AperFunction,ComponentPad*
%ADD13R,2.200000X2.200000*%
G04 #@! TD*
G04 #@! TA.AperFunction,ComponentPad*
%ADD14O,2.200000X2.200000*%
G04 #@! TD*
G04 #@! TA.AperFunction,ComponentPad*
%ADD15C,1.524000*%
G04 #@! TD*
G04 #@! TA.AperFunction,ComponentPad*
%ADD16O,1.800000X4.000000*%
G04 #@! TD*
G04 #@! TA.AperFunction,ComponentPad*
%ADD17O,4.000000X1.800000*%
G04 #@! TD*
G04 #@! TA.AperFunction,ComponentPad*
%ADD18R,4.400000X1.800000*%
G04 #@! TD*
G04 #@! TA.AperFunction,ComponentPad*
%ADD19R,2.000000X2.000000*%
G04 #@! TD*
G04 #@! TA.AperFunction,ComponentPad*
%ADD20C,2.000000*%
G04 #@! TD*
G04 #@! TA.AperFunction,ComponentPad*
%ADD21C,1.600000*%
G04 #@! TD*
G04 #@! TA.AperFunction,ComponentPad*
%ADD22O,1.600000X1.600000*%
G04 #@! TD*
G04 #@! TA.AperFunction,ComponentPad*
%ADD23R,2.000000X1.905000*%
G04 #@! TD*
G04 #@! TA.AperFunction,ComponentPad*
%ADD24O,2.000000X1.905000*%
G04 #@! TD*
G04 #@! TA.AperFunction,SMDPad,CuDef*
%ADD25R,1.400000X1.000000*%
G04 #@! TD*
G04 #@! TA.AperFunction,Conductor*
%ADD26C,0.160000*%
G04 #@! TD*
G04 #@! TA.AperFunction,Conductor*
%ADD27C,1.000000*%
G04 #@! TD*
G04 #@! TA.AperFunction,Conductor*
%ADD28C,0.300000*%
G04 #@! TD*
G04 #@! TA.AperFunction,Conductor*
%ADD29C,0.200000*%
G04 #@! TD*
G04 APERTURE END LIST*
D10*
G04 #@! TO.P,J9,1*
G04 #@! TO.N,GND*
X184912000Y-81280000D03*
D11*
G04 #@! TO.P,J9,2*
G04 #@! TO.N,+5V*
X182372000Y-81280000D03*
G04 #@! TD*
D12*
G04 #@! TO.P,U2,1*
G04 #@! TO.N,GND*
X163068000Y-78929000D03*
G04 #@! TO.P,U2,2*
G04 #@! TO.N,D2*
X161798000Y-78929000D03*
G04 #@! TO.P,U2,3*
G04 #@! TO.N,Net-(JP1-Pad3)*
X160528000Y-78929000D03*
G04 #@! TO.P,U2,4*
G04 #@! TO.N,Net-(U2-Pad4)*
X159258000Y-78929000D03*
G04 #@! TO.P,U2,5*
G04 #@! TO.N,Net-(U2-Pad5)*
X157988000Y-78929000D03*
G04 #@! TO.P,U2,6*
G04 #@! TO.N,Net-(U2-Pad6)*
X156718000Y-78929000D03*
G04 #@! TO.P,U2,7*
G04 #@! TO.N,GND*
X155448000Y-78929000D03*
G04 #@! TO.P,U2,8*
G04 #@! TO.N,Net-(U2-Pad8)*
X155448000Y-73979000D03*
G04 #@! TO.P,U2,9*
G04 #@! TO.N,Net-(U2-Pad9)*
X156718000Y-73979000D03*
G04 #@! TO.P,U2,10*
G04 #@! TO.N,Net-(U2-Pad10)*
X157988000Y-73979000D03*
G04 #@! TO.P,U2,11*
G04 #@! TO.N,Net-(U2-Pad11)*
X159258000Y-73979000D03*
G04 #@! TO.P,U2,12*
G04 #@! TO.N,Net-(U2-Pad12)*
X160528000Y-73979000D03*
G04 #@! TO.P,U2,13*
G04 #@! TO.N,Net-(U2-Pad13)*
X161798000Y-73979000D03*
G04 #@! TO.P,U2,14*
G04 #@! TO.N,+5V*
X163068000Y-73979000D03*
G04 #@! TD*
D10*
G04 #@! TO.P,J8,1*
G04 #@! TO.N,GND*
X184912000Y-73914000D03*
D11*
G04 #@! TO.P,J8,2*
G04 #@! TO.N,+5V*
X182372000Y-73914000D03*
G04 #@! TD*
D13*
G04 #@! TO.P,D1,1*
G04 #@! TO.N,+5V*
X178816000Y-73406000D03*
D14*
G04 #@! TO.P,D1,2*
G04 #@! TO.N,GND*
X178816000Y-83566000D03*
G04 #@! TD*
D15*
G04 #@! TO.P,U1,1*
G04 #@! TO.N,A0*
X144272000Y-59182000D03*
G04 #@! TO.P,U1,2*
G04 #@! TO.N,Net-(J1-Pad2)*
X144272000Y-61722000D03*
G04 #@! TO.P,U1,3*
G04 #@! TO.N,Net-(J1-Pad3)*
X144272000Y-64262000D03*
G04 #@! TO.P,U1,4*
G04 #@! TO.N,Net-(J1-Pad4)*
X144272000Y-66802000D03*
G04 #@! TO.P,U1,5*
G04 #@! TO.N,Net-(J1-Pad5)*
X144272000Y-69342000D03*
G04 #@! TO.P,U1,6*
G04 #@! TO.N,Net-(J1-Pad6)*
X144272000Y-71882000D03*
G04 #@! TO.P,U1,7*
G04 #@! TO.N,Net-(J1-Pad7)*
X144272000Y-74422000D03*
G04 #@! TO.P,U1,8*
G04 #@! TO.N,Net-(J1-Pad8)*
X144272000Y-76962000D03*
G04 #@! TO.P,U1,9*
G04 #@! TO.N,Net-(J1-Pad9)*
X144272000Y-79502000D03*
G04 #@! TO.P,U1,10*
G04 #@! TO.N,Net-(J1-Pad10)*
X144272000Y-82042000D03*
G04 #@! TO.P,U1,11*
G04 #@! TO.N,Net-(J1-Pad11)*
X144272000Y-84582000D03*
G04 #@! TO.P,U1,12*
G04 #@! TO.N,Net-(J1-Pad12)*
X144272000Y-87122000D03*
G04 #@! TO.P,U1,13*
G04 #@! TO.N,Net-(J1-Pad13)*
X144272000Y-89662000D03*
G04 #@! TO.P,U1,14*
G04 #@! TO.N,Net-(J1-Pad14)*
X144272000Y-92202000D03*
G04 #@! TO.P,U1,15*
G04 #@! TO.N,Net-(J1-Pad15)*
X144272000Y-94742000D03*
G04 #@! TO.P,U1,16*
G04 #@! TO.N,3.3V*
X172212000Y-94742000D03*
G04 #@! TO.P,U1,17*
G04 #@! TO.N,GND*
X172212000Y-92202000D03*
G04 #@! TO.P,U1,18*
G04 #@! TO.N,Net-(J3-Pad3)*
X172212000Y-89662000D03*
G04 #@! TO.P,U1,19*
G04 #@! TO.N,Net-(J3-Pad4)*
X172212000Y-87122000D03*
G04 #@! TO.P,U1,20*
G04 #@! TO.N,Net-(J3-Pad5)*
X172212000Y-84582000D03*
G04 #@! TO.P,U1,21*
G04 #@! TO.N,D7*
X172212000Y-82042000D03*
G04 #@! TO.P,U1,22*
G04 #@! TO.N,D6*
X172212000Y-79502000D03*
G04 #@! TO.P,U1,23*
G04 #@! TO.N,D5*
X172212000Y-76962000D03*
G04 #@! TO.P,U1,24*
G04 #@! TO.N,Net-(J3-Pad9)*
X172212000Y-74422000D03*
G04 #@! TO.P,U1,25*
G04 #@! TO.N,Net-(J3-Pad10)*
X172212000Y-71882000D03*
G04 #@! TO.P,U1,26*
G04 #@! TO.N,Net-(J3-Pad11)*
X172212000Y-69342000D03*
G04 #@! TO.P,U1,27*
G04 #@! TO.N,Net-(J3-Pad12)*
X172212000Y-66802000D03*
G04 #@! TO.P,U1,28*
G04 #@! TO.N,D2*
X172212000Y-64262000D03*
G04 #@! TO.P,U1,29*
G04 #@! TO.N,D1*
X172212000Y-61722000D03*
G04 #@! TO.P,U1,30*
G04 #@! TO.N,Net-(J3-Pad15)*
X172212000Y-59182000D03*
G04 #@! TD*
D16*
G04 #@! TO.P,J7,3*
G04 #@! TO.N,N/C*
X146076000Y-98250000D03*
D17*
G04 #@! TO.P,J7,2*
G04 #@! TO.N,GND*
X150876000Y-101050000D03*
D18*
G04 #@! TO.P,J7,1*
G04 #@! TO.N,Net-(J1-Pad15)*
X150876000Y-95250000D03*
G04 #@! TD*
D19*
G04 #@! TO.P,C1,1*
G04 #@! TO.N,+5V*
X165608000Y-54102000D03*
D20*
G04 #@! TO.P,C1,2*
G04 #@! TO.N,GND*
X170608000Y-54102000D03*
G04 #@! TD*
D21*
G04 #@! TO.P,C2,1*
G04 #@! TO.N,A0*
X160274000Y-50800000D03*
G04 #@! TO.P,C2,2*
G04 #@! TO.N,GND*
X160274000Y-55800000D03*
G04 #@! TD*
G04 #@! TO.P,R8,1*
G04 #@! TO.N,3.3V*
X178562000Y-51308000D03*
G04 #@! TO.P,R8,2*
G04 #@! TO.N,A0*
X175562000Y-51308000D03*
G04 #@! TD*
G04 #@! TO.P,R7,1*
G04 #@! TO.N,GND*
X162306000Y-58674000D03*
D22*
G04 #@! TO.P,R7,2*
G04 #@! TO.N,A0*
X154686000Y-58674000D03*
G04 #@! TD*
G04 #@! TO.P,R5,2*
G04 #@! TO.N,Net-(JP1-Pad1)*
X167386000Y-73152000D03*
D21*
G04 #@! TO.P,R5,1*
G04 #@! TO.N,D2*
X167386000Y-80772000D03*
G04 #@! TD*
G04 #@! TO.P,R6,1*
G04 #@! TO.N,D6*
X167386000Y-84074000D03*
D22*
G04 #@! TO.P,R6,2*
G04 #@! TO.N,Net-(BZ1-Pad1)*
X167386000Y-91694000D03*
G04 #@! TD*
D11*
G04 #@! TO.P,J1,15*
G04 #@! TO.N,Net-(J1-Pad15)*
X141224000Y-94742000D03*
G04 #@! TO.P,J1,14*
G04 #@! TO.N,Net-(J1-Pad14)*
X141224000Y-92202000D03*
G04 #@! TO.P,J1,13*
G04 #@! TO.N,Net-(J1-Pad13)*
X141224000Y-89662000D03*
G04 #@! TO.P,J1,12*
G04 #@! TO.N,Net-(J1-Pad12)*
X141224000Y-87122000D03*
G04 #@! TO.P,J1,11*
G04 #@! TO.N,Net-(J1-Pad11)*
X141224000Y-84582000D03*
G04 #@! TO.P,J1,10*
G04 #@! TO.N,Net-(J1-Pad10)*
X141224000Y-82042000D03*
G04 #@! TO.P,J1,9*
G04 #@! TO.N,Net-(J1-Pad9)*
X141224000Y-79502000D03*
G04 #@! TO.P,J1,8*
G04 #@! TO.N,Net-(J1-Pad8)*
X141224000Y-76962000D03*
G04 #@! TO.P,J1,7*
G04 #@! TO.N,Net-(J1-Pad7)*
X141224000Y-74422000D03*
G04 #@! TO.P,J1,6*
G04 #@! TO.N,Net-(J1-Pad6)*
X141224000Y-71882000D03*
G04 #@! TO.P,J1,5*
G04 #@! TO.N,Net-(J1-Pad5)*
X141224000Y-69342000D03*
G04 #@! TO.P,J1,4*
G04 #@! TO.N,Net-(J1-Pad4)*
X141224000Y-66802000D03*
G04 #@! TO.P,J1,3*
G04 #@! TO.N,Net-(J1-Pad3)*
X141224000Y-64262000D03*
G04 #@! TO.P,J1,2*
G04 #@! TO.N,Net-(J1-Pad2)*
X141224000Y-61722000D03*
D10*
G04 #@! TO.P,J1,1*
G04 #@! TO.N,A0*
X141224000Y-59182000D03*
G04 #@! TD*
G04 #@! TO.P,JP1,1*
G04 #@! TO.N,Net-(JP1-Pad1)*
X179324000Y-87122000D03*
D11*
G04 #@! TO.P,JP1,2*
G04 #@! TO.N,DATA*
X181864000Y-87122000D03*
G04 #@! TO.P,JP1,3*
G04 #@! TO.N,Net-(JP1-Pad3)*
X184404000Y-87122000D03*
G04 #@! TD*
D22*
G04 #@! TO.P,R4,2*
G04 #@! TO.N,Net-(Q4-Pad1)*
X150368000Y-69596000D03*
D21*
G04 #@! TO.P,R4,1*
G04 #@! TO.N,Net-(J1-Pad15)*
X150368000Y-61976000D03*
G04 #@! TD*
G04 #@! TO.P,R3,1*
G04 #@! TO.N,D1*
X166624000Y-61976000D03*
D22*
G04 #@! TO.P,R3,2*
G04 #@! TO.N,GND*
X166624000Y-69596000D03*
G04 #@! TD*
D23*
G04 #@! TO.P,Q5,1*
G04 #@! TO.N,Net-(Q4-Pad1)*
X183134000Y-62738000D03*
D24*
G04 #@! TO.P,Q5,2*
G04 #@! TO.N,+5V*
X183134000Y-60198000D03*
G04 #@! TO.P,Q5,3*
G04 #@! TO.N,Net-(J1-Pad15)*
X183134000Y-57658000D03*
G04 #@! TD*
D19*
G04 #@! TO.P,BZ1,1*
G04 #@! TO.N,Net-(BZ1-Pad1)*
X158750000Y-84074000D03*
D20*
G04 #@! TO.P,BZ1,2*
G04 #@! TO.N,GND*
X158750000Y-91674000D03*
G04 #@! TD*
D11*
G04 #@! TO.P,J4,3*
G04 #@! TO.N,+5V*
X179324000Y-67818000D03*
G04 #@! TO.P,J4,2*
G04 #@! TO.N,DATA*
X181864000Y-67818000D03*
D10*
G04 #@! TO.P,J4,1*
G04 #@! TO.N,GND*
X184404000Y-67818000D03*
G04 #@! TD*
G04 #@! TO.P,J5,1*
G04 #@! TO.N,GND*
X179324000Y-93726000D03*
D11*
G04 #@! TO.P,J5,2*
G04 #@! TO.N,D5*
X181864000Y-93726000D03*
G04 #@! TO.P,J5,3*
G04 #@! TO.N,3.3V*
X184404000Y-93726000D03*
G04 #@! TD*
G04 #@! TO.P,J2,4*
G04 #@! TO.N,GND*
X155448000Y-52070000D03*
G04 #@! TO.P,J2,3*
X152908000Y-52070000D03*
G04 #@! TO.P,J2,2*
G04 #@! TO.N,Net-(J1-Pad15)*
X150368000Y-52070000D03*
D10*
G04 #@! TO.P,J2,1*
X147828000Y-52070000D03*
G04 #@! TD*
G04 #@! TO.P,J6,1*
G04 #@! TO.N,A0*
X175768000Y-99060000D03*
D11*
G04 #@! TO.P,J6,2*
G04 #@! TO.N,GND*
X178308000Y-99060000D03*
G04 #@! TO.P,J6,3*
G04 #@! TO.N,3.3V*
X180848000Y-99060000D03*
G04 #@! TO.P,J6,4*
G04 #@! TO.N,D7*
X183388000Y-99060000D03*
G04 #@! TD*
D10*
G04 #@! TO.P,J3,1*
G04 #@! TO.N,3.3V*
X175260000Y-94742000D03*
D11*
G04 #@! TO.P,J3,2*
G04 #@! TO.N,GND*
X175260000Y-92202000D03*
G04 #@! TO.P,J3,3*
G04 #@! TO.N,Net-(J3-Pad3)*
X175260000Y-89662000D03*
G04 #@! TO.P,J3,4*
G04 #@! TO.N,Net-(J3-Pad4)*
X175260000Y-87122000D03*
G04 #@! TO.P,J3,5*
G04 #@! TO.N,Net-(J3-Pad5)*
X175260000Y-84582000D03*
G04 #@! TO.P,J3,6*
G04 #@! TO.N,D7*
X175260000Y-82042000D03*
G04 #@! TO.P,J3,7*
G04 #@! TO.N,D6*
X175260000Y-79502000D03*
G04 #@! TO.P,J3,8*
G04 #@! TO.N,D5*
X175260000Y-76962000D03*
G04 #@! TO.P,J3,9*
G04 #@! TO.N,Net-(J3-Pad9)*
X175260000Y-74422000D03*
G04 #@! TO.P,J3,10*
G04 #@! TO.N,Net-(J3-Pad10)*
X175260000Y-71882000D03*
G04 #@! TO.P,J3,11*
G04 #@! TO.N,Net-(J3-Pad11)*
X175260000Y-69342000D03*
G04 #@! TO.P,J3,12*
G04 #@! TO.N,Net-(J3-Pad12)*
X175260000Y-66802000D03*
G04 #@! TO.P,J3,13*
G04 #@! TO.N,D2*
X175260000Y-64262000D03*
G04 #@! TO.P,J3,14*
G04 #@! TO.N,D1*
X175260000Y-61722000D03*
G04 #@! TO.P,J3,15*
G04 #@! TO.N,Net-(J3-Pad15)*
X175260000Y-59182000D03*
G04 #@! TD*
D25*
G04 #@! TO.P,Q6,3*
G04 #@! TO.N,Net-(Q4-Pad1)*
X156888000Y-67818000D03*
G04 #@! TO.P,Q6,2*
G04 #@! TO.N,GND*
X159088000Y-68768000D03*
G04 #@! TO.P,Q6,1*
G04 #@! TO.N,D1*
X159088000Y-66868000D03*
G04 #@! TD*
G04 #@! TO.P,Q4,3*
G04 #@! TO.N,+5V*
X160104000Y-63500000D03*
G04 #@! TO.P,Q4,2*
G04 #@! TO.N,Net-(J1-Pad15)*
X157904000Y-62550000D03*
G04 #@! TO.P,Q4,1*
G04 #@! TO.N,Net-(Q4-Pad1)*
X157904000Y-64450000D03*
G04 #@! TD*
D26*
G04 #@! TO.N,D1*
X172212000Y-61722000D02*
X175260000Y-61722000D01*
X171958000Y-61976000D02*
X172212000Y-61722000D01*
X166624000Y-61976000D02*
X171958000Y-61976000D01*
X161732000Y-66868000D02*
X166624000Y-61976000D01*
X159088000Y-66868000D02*
X161732000Y-66868000D01*
D27*
G04 #@! TO.N,GND*
X181433999Y-64847999D02*
X184404000Y-67818000D01*
X181433999Y-61364927D02*
X181433999Y-64847999D01*
X174171072Y-54102000D02*
X181433999Y-61364927D01*
X170608000Y-54102000D02*
X174171072Y-54102000D01*
D28*
X172212000Y-92202000D02*
X175260000Y-92202000D01*
G04 #@! TO.N,3.3V*
X172212000Y-94742000D02*
X175260000Y-94742000D01*
X176530000Y-94742000D02*
X180848000Y-99060000D01*
X175260000Y-94742000D02*
X176530000Y-94742000D01*
X184404000Y-95504000D02*
X184404000Y-93726000D01*
X180848000Y-99060000D02*
X184404000Y-95504000D01*
D26*
X178562000Y-54876532D02*
X178562000Y-52439370D01*
X182575978Y-58890510D02*
X178562000Y-54876532D01*
X183617042Y-58890510D02*
X182575978Y-58890510D01*
X186042001Y-61315469D02*
X183617042Y-58890510D01*
X178562000Y-52439370D02*
X178562000Y-51308000D01*
X186042001Y-92087999D02*
X186042001Y-61315469D01*
X184404000Y-93726000D02*
X186042001Y-92087999D01*
G04 #@! TO.N,D2*
X172212000Y-64262000D02*
X175260000Y-64262000D01*
X161798000Y-79614000D02*
X161798000Y-78929000D01*
X162956000Y-80772000D02*
X161798000Y-79614000D01*
X167386000Y-80772000D02*
X162956000Y-80772000D01*
X171450001Y-65023999D02*
X172212000Y-64262000D01*
X167704001Y-68769999D02*
X171450001Y-65023999D01*
X166305999Y-71512403D02*
X167704001Y-70114401D01*
X166305999Y-78560629D02*
X166305999Y-71512403D01*
X167704001Y-70114401D02*
X167704001Y-68769999D01*
X167386000Y-79640630D02*
X166305999Y-78560629D01*
X167386000Y-80772000D02*
X167386000Y-79640630D01*
G04 #@! TO.N,DATA*
X182713999Y-68667999D02*
X181864000Y-67818000D01*
X183502001Y-85483999D02*
X183502001Y-69456001D01*
X183502001Y-69456001D02*
X182713999Y-68667999D01*
X181864000Y-87122000D02*
X183502001Y-85483999D01*
D27*
G04 #@! TO.N,+5V*
X165608000Y-59696000D02*
X165608000Y-54102000D01*
X161804000Y-63500000D02*
X165608000Y-59696000D01*
X160104000Y-63500000D02*
X161804000Y-63500000D01*
X183086500Y-60198000D02*
X183134000Y-60198000D01*
X179324000Y-60951998D02*
X179324000Y-67818000D01*
X171137999Y-57631999D02*
X176004001Y-57631999D01*
X176004001Y-57631999D02*
X179324000Y-60951998D01*
X167608000Y-54102000D02*
X171137999Y-57631999D01*
X167608000Y-54102000D02*
X165608000Y-54102000D01*
X174435997Y-52401999D02*
X169308001Y-52401999D01*
X169308001Y-52401999D02*
X167608000Y-54102000D01*
X182231998Y-60198000D02*
X174435997Y-52401999D01*
X183134000Y-60198000D02*
X182231998Y-60198000D01*
X178816000Y-68326000D02*
X179324000Y-67818000D01*
X178816000Y-73406000D02*
X178816000Y-68326000D01*
X181864000Y-73406000D02*
X182372000Y-73914000D01*
X178816000Y-73406000D02*
X181864000Y-73406000D01*
X182372000Y-73914000D02*
X182372000Y-81280000D01*
D26*
X163068000Y-74664000D02*
X163068000Y-73979000D01*
X162487999Y-75244001D02*
X163068000Y-74664000D01*
X154417599Y-75244001D02*
X162487999Y-75244001D01*
X149287999Y-70114401D02*
X154417599Y-75244001D01*
X149287999Y-68898001D02*
X149287999Y-70114401D01*
X154686000Y-63500000D02*
X149287999Y-68898001D01*
X160104000Y-63500000D02*
X154686000Y-63500000D01*
D27*
G04 #@! TO.N,Net-(J1-Pad15)*
X147828000Y-52070000D02*
X150368000Y-52070000D01*
X157904000Y-59606000D02*
X157904000Y-62550000D01*
X150368000Y-52070000D02*
X157904000Y-59606000D01*
X179282001Y-49807999D02*
X180340000Y-50865998D01*
X151918001Y-50519999D02*
X157773997Y-50519999D01*
X157773997Y-50519999D02*
X159553999Y-52300001D01*
X150368000Y-52070000D02*
X151918001Y-50519999D01*
X159553999Y-52300001D02*
X167712929Y-52300001D01*
X167712929Y-52300001D02*
X170204931Y-49807999D01*
X170204931Y-49807999D02*
X179282001Y-49807999D01*
X183134000Y-55705500D02*
X183134000Y-57658000D01*
X180340000Y-52911500D02*
X183134000Y-55705500D01*
X180340000Y-50865998D02*
X180340000Y-52911500D01*
D28*
X141224000Y-94742000D02*
X144272000Y-94742000D01*
X150942000Y-62550000D02*
X150368000Y-61976000D01*
X157904000Y-62550000D02*
X150942000Y-62550000D01*
D27*
X147828000Y-90302000D02*
X147828000Y-85090000D01*
X150876000Y-93350000D02*
X147828000Y-90302000D01*
X147828000Y-85628000D02*
X147828000Y-85090000D01*
X150876000Y-95250000D02*
X150876000Y-93350000D01*
X147828000Y-85090000D02*
X147828000Y-52070000D01*
D28*
X150368000Y-94742000D02*
X150876000Y-95250000D01*
X144272000Y-94742000D02*
X150368000Y-94742000D01*
D26*
G04 #@! TO.N,A0*
X144780000Y-58674000D02*
X144272000Y-59182000D01*
X141224000Y-59182000D02*
X144272000Y-59182000D01*
X140214000Y-59182000D02*
X141224000Y-59182000D01*
X140093999Y-95290785D02*
X140093999Y-59302001D01*
X140093999Y-59302001D02*
X140214000Y-59182000D01*
X146564776Y-100530010D02*
X145333224Y-100530010D01*
X148034786Y-99060000D02*
X146564776Y-100530010D01*
X145333224Y-100530010D02*
X140093999Y-95290785D01*
X175768000Y-99060000D02*
X148034786Y-99060000D01*
G04 #@! TO.N,Net-(J1-Pad2)*
X141224000Y-61722000D02*
X144272000Y-61722000D01*
G04 #@! TO.N,Net-(J1-Pad3)*
X141224000Y-64262000D02*
X144272000Y-64262000D01*
G04 #@! TO.N,Net-(J1-Pad4)*
X141224000Y-66802000D02*
X144272000Y-66802000D01*
G04 #@! TO.N,Net-(J1-Pad5)*
X141224000Y-69342000D02*
X144272000Y-69342000D01*
G04 #@! TO.N,Net-(J1-Pad6)*
X141224000Y-71882000D02*
X144272000Y-71882000D01*
G04 #@! TO.N,Net-(J1-Pad7)*
X141224000Y-74422000D02*
X144272000Y-74422000D01*
G04 #@! TO.N,Net-(J1-Pad8)*
X141224000Y-76962000D02*
X144272000Y-76962000D01*
G04 #@! TO.N,Net-(J1-Pad9)*
X141224000Y-79502000D02*
X144272000Y-79502000D01*
D28*
G04 #@! TO.N,Net-(J1-Pad10)*
X141224000Y-82042000D02*
X144272000Y-82042000D01*
D26*
G04 #@! TO.N,Net-(J1-Pad11)*
X141224000Y-84582000D02*
X144272000Y-84582000D01*
G04 #@! TO.N,Net-(J1-Pad12)*
X141224000Y-87122000D02*
X144272000Y-87122000D01*
G04 #@! TO.N,Net-(J1-Pad13)*
X141224000Y-89662000D02*
X144272000Y-89662000D01*
G04 #@! TO.N,Net-(J1-Pad14)*
X141224000Y-92202000D02*
X144272000Y-92202000D01*
G04 #@! TO.N,Net-(J3-Pad3)*
X172212000Y-89662000D02*
X175260000Y-89662000D01*
G04 #@! TO.N,Net-(J3-Pad4)*
X172212000Y-87122000D02*
X175260000Y-87122000D01*
G04 #@! TO.N,Net-(J3-Pad5)*
X172212000Y-84582000D02*
X175260000Y-84582000D01*
G04 #@! TO.N,D7*
X172212000Y-82042000D02*
X175260000Y-82042000D01*
G04 #@! TO.N,D6*
X172212000Y-79502000D02*
X175260000Y-79502000D01*
X167640000Y-84074000D02*
X167386000Y-84074000D01*
X172212000Y-79502000D02*
X167640000Y-84074000D01*
G04 #@! TO.N,D5*
X172212000Y-76962000D02*
X175260000Y-76962000D01*
D28*
G04 #@! TO.N,Net-(J3-Pad9)*
X172212000Y-74422000D02*
X175260000Y-74422000D01*
D26*
G04 #@! TO.N,Net-(J3-Pad10)*
X172212000Y-71882000D02*
X175260000Y-71882000D01*
G04 #@! TO.N,Net-(J3-Pad11)*
X172212000Y-69342000D02*
X175260000Y-69342000D01*
G04 #@! TO.N,Net-(J3-Pad12)*
X172212000Y-66802000D02*
X175260000Y-66802000D01*
G04 #@! TO.N,Net-(J3-Pad15)*
X172212000Y-59182000D02*
X175260000Y-59182000D01*
G04 #@! TO.N,Net-(JP1-Pad3)*
X169166001Y-88252001D02*
X160528000Y-79614000D01*
X160528000Y-79614000D02*
X160528000Y-78929000D01*
X183273999Y-88252001D02*
X169166001Y-88252001D01*
X184404000Y-87122000D02*
X183273999Y-88252001D01*
G04 #@! TO.N,Net-(BZ1-Pad1)*
X159766000Y-84074000D02*
X158750000Y-84074000D01*
X167386000Y-91694000D02*
X159766000Y-84074000D01*
G04 #@! TO.N,Net-(JP1-Pad1)*
X168517370Y-73152000D02*
X167386000Y-73152000D01*
X176390001Y-73879599D02*
X175662402Y-73152000D01*
X178314000Y-87122000D02*
X176390001Y-85198001D01*
X175662402Y-73152000D02*
X168517370Y-73152000D01*
X176390001Y-85198001D02*
X176390001Y-73879599D01*
X179324000Y-87122000D02*
X178314000Y-87122000D01*
G04 #@! TO.N,Net-(Q4-Pad1)*
X156888000Y-64606000D02*
X156888000Y-67818000D01*
X157044000Y-64450000D02*
X156888000Y-64606000D01*
X157904000Y-64450000D02*
X157044000Y-64450000D01*
X156888000Y-68478000D02*
X156888000Y-67818000D01*
X155770000Y-69596000D02*
X156888000Y-68478000D01*
X150368000Y-69596000D02*
X155770000Y-69596000D01*
G04 #@! TD*
D29*
G04 #@! TO.N,GND*
G36*
X186823001Y-106305000D02*
X139821000Y-106305000D01*
X139821000Y-103303795D01*
X140844000Y-103303795D01*
X140844000Y-103960205D01*
X141095198Y-104566650D01*
X141559350Y-105030802D01*
X142165795Y-105282000D01*
X142822205Y-105282000D01*
X143428650Y-105030802D01*
X143892802Y-104566650D01*
X144144000Y-103960205D01*
X144144000Y-103303795D01*
X182500000Y-103303795D01*
X182500000Y-103960205D01*
X182751198Y-104566650D01*
X183215350Y-105030802D01*
X183821795Y-105282000D01*
X184478205Y-105282000D01*
X185084650Y-105030802D01*
X185548802Y-104566650D01*
X185800000Y-103960205D01*
X185800000Y-103303795D01*
X185548802Y-102697350D01*
X185084650Y-102233198D01*
X184478205Y-101982000D01*
X183821795Y-101982000D01*
X183215350Y-102233198D01*
X182751198Y-102697350D01*
X182500000Y-103303795D01*
X144144000Y-103303795D01*
X143892802Y-102697350D01*
X143428650Y-102233198D01*
X142822205Y-101982000D01*
X142165795Y-101982000D01*
X141559350Y-102233198D01*
X141095198Y-102697350D01*
X140844000Y-103303795D01*
X139821000Y-103303795D01*
X139821000Y-101436774D01*
X148318444Y-101436774D01*
X148323857Y-101484810D01*
X148600789Y-102007423D01*
X149056636Y-102384277D01*
X149622000Y-102558000D01*
X150722000Y-102558000D01*
X150722000Y-101204000D01*
X151030000Y-101204000D01*
X151030000Y-102558000D01*
X152130000Y-102558000D01*
X152695364Y-102384277D01*
X153151211Y-102007423D01*
X153428143Y-101484810D01*
X153433556Y-101436774D01*
X153323227Y-101204000D01*
X151030000Y-101204000D01*
X150722000Y-101204000D01*
X148428773Y-101204000D01*
X148318444Y-101436774D01*
X139821000Y-101436774D01*
X139821000Y-95565394D01*
X139851763Y-95585949D01*
X145038062Y-100772249D01*
X145059260Y-100803974D01*
X145090985Y-100825172D01*
X145090986Y-100825173D01*
X145184954Y-100887961D01*
X145184955Y-100887961D01*
X145184956Y-100887962D01*
X145295800Y-100910010D01*
X145295804Y-100910010D01*
X145333223Y-100917453D01*
X145370642Y-100910010D01*
X146527357Y-100910010D01*
X146564776Y-100917453D01*
X146602195Y-100910010D01*
X146602200Y-100910010D01*
X146713044Y-100887962D01*
X146838740Y-100803974D01*
X146859940Y-100772246D01*
X146968960Y-100663226D01*
X148318444Y-100663226D01*
X148428773Y-100896000D01*
X150722000Y-100896000D01*
X150722000Y-99542000D01*
X151030000Y-99542000D01*
X151030000Y-100896000D01*
X153323227Y-100896000D01*
X153433556Y-100663226D01*
X153428143Y-100615190D01*
X153151211Y-100092577D01*
X152695364Y-99715723D01*
X152130000Y-99542000D01*
X151030000Y-99542000D01*
X150722000Y-99542000D01*
X149622000Y-99542000D01*
X149056636Y-99715723D01*
X148600789Y-100092577D01*
X148323857Y-100615190D01*
X148318444Y-100663226D01*
X146968960Y-100663226D01*
X148192187Y-99440000D01*
X174612123Y-99440000D01*
X174612123Y-99910000D01*
X174635407Y-100027054D01*
X174701712Y-100126288D01*
X174800946Y-100192593D01*
X174918000Y-100215877D01*
X176618000Y-100215877D01*
X176735054Y-100192593D01*
X176834288Y-100126288D01*
X176900593Y-100027054D01*
X176923877Y-99910000D01*
X176923877Y-99487023D01*
X177152259Y-99948854D01*
X177580384Y-100323477D01*
X177929090Y-100467903D01*
X178154000Y-100356889D01*
X178154000Y-99214000D01*
X178134000Y-99214000D01*
X178134000Y-98906000D01*
X178154000Y-98906000D01*
X178154000Y-97763111D01*
X177929090Y-97652097D01*
X177580384Y-97796523D01*
X177152259Y-98171146D01*
X176923877Y-98632977D01*
X176923877Y-98210000D01*
X176900593Y-98092946D01*
X176834288Y-97993712D01*
X176735054Y-97927407D01*
X176618000Y-97904123D01*
X174918000Y-97904123D01*
X174800946Y-97927407D01*
X174701712Y-97993712D01*
X174635407Y-98092946D01*
X174612123Y-98210000D01*
X174612123Y-98680000D01*
X148072204Y-98680000D01*
X148034785Y-98672557D01*
X147997366Y-98680000D01*
X147997362Y-98680000D01*
X147886518Y-98702048D01*
X147886517Y-98702049D01*
X147886516Y-98702049D01*
X147792548Y-98764837D01*
X147760822Y-98786036D01*
X147739624Y-98817761D01*
X147276000Y-99281385D01*
X147276000Y-97031812D01*
X147206375Y-96681783D01*
X146941152Y-96284848D01*
X146544216Y-96019625D01*
X146076000Y-95926491D01*
X145607783Y-96019625D01*
X145210848Y-96284848D01*
X144945625Y-96681784D01*
X144876000Y-97031813D01*
X144876001Y-99468188D01*
X144892686Y-99552072D01*
X141232614Y-95892000D01*
X141337261Y-95892000D01*
X141672707Y-95825276D01*
X142053103Y-95571103D01*
X142306412Y-95192000D01*
X143308896Y-95192000D01*
X143371680Y-95343575D01*
X143670425Y-95642320D01*
X144060755Y-95804000D01*
X144483245Y-95804000D01*
X144873575Y-95642320D01*
X145172320Y-95343575D01*
X145235104Y-95192000D01*
X148370123Y-95192000D01*
X148370123Y-96150000D01*
X148393407Y-96267054D01*
X148459712Y-96366288D01*
X148558946Y-96432593D01*
X148676000Y-96455877D01*
X153076000Y-96455877D01*
X153193054Y-96432593D01*
X153292288Y-96366288D01*
X153358593Y-96267054D01*
X153381877Y-96150000D01*
X153381877Y-94350000D01*
X153358593Y-94232946D01*
X153292288Y-94133712D01*
X153193054Y-94067407D01*
X153076000Y-94044123D01*
X151676000Y-94044123D01*
X151676000Y-93428784D01*
X151691671Y-93350000D01*
X151676000Y-93271216D01*
X151676000Y-93271211D01*
X151629583Y-93037856D01*
X151490074Y-92829066D01*
X157812723Y-92829066D01*
X157915174Y-93085040D01*
X158518703Y-93297105D01*
X159157445Y-93262067D01*
X159345026Y-93184368D01*
X171447421Y-93184368D01*
X171520551Y-93415698D01*
X172037647Y-93587917D01*
X172581287Y-93549142D01*
X172903449Y-93415698D01*
X172976579Y-93184368D01*
X172212000Y-92419789D01*
X171447421Y-93184368D01*
X159345026Y-93184368D01*
X159584826Y-93085040D01*
X159687277Y-92829066D01*
X158750000Y-91891789D01*
X157812723Y-92829066D01*
X151490074Y-92829066D01*
X151452767Y-92773233D01*
X151385975Y-92728604D01*
X150100074Y-91442703D01*
X157126895Y-91442703D01*
X157161933Y-92081445D01*
X157338960Y-92508826D01*
X157594934Y-92611277D01*
X158532211Y-91674000D01*
X158967789Y-91674000D01*
X159905066Y-92611277D01*
X160161040Y-92508826D01*
X160373105Y-91905297D01*
X160338067Y-91266555D01*
X160161040Y-90839174D01*
X159905066Y-90736723D01*
X158967789Y-91674000D01*
X158532211Y-91674000D01*
X157594934Y-90736723D01*
X157338960Y-90839174D01*
X157126895Y-91442703D01*
X150100074Y-91442703D01*
X149176305Y-90518934D01*
X157812723Y-90518934D01*
X158750000Y-91456211D01*
X159687277Y-90518934D01*
X159584826Y-90262960D01*
X158981297Y-90050895D01*
X158342555Y-90085933D01*
X157915174Y-90262960D01*
X157812723Y-90518934D01*
X149176305Y-90518934D01*
X148628000Y-89970630D01*
X148628000Y-83074000D01*
X157444123Y-83074000D01*
X157444123Y-85074000D01*
X157467407Y-85191054D01*
X157533712Y-85290288D01*
X157632946Y-85356593D01*
X157750000Y-85379877D01*
X159750000Y-85379877D01*
X159867054Y-85356593D01*
X159966288Y-85290288D01*
X160032593Y-85191054D01*
X160055877Y-85074000D01*
X160055877Y-84901277D01*
X166377691Y-91223093D01*
X166349823Y-91264801D01*
X166264450Y-91694000D01*
X166349823Y-92123199D01*
X166592944Y-92487056D01*
X166956801Y-92730177D01*
X167277661Y-92794000D01*
X167494339Y-92794000D01*
X167815199Y-92730177D01*
X168179056Y-92487056D01*
X168422177Y-92123199D01*
X168441183Y-92027647D01*
X170826083Y-92027647D01*
X170864858Y-92571287D01*
X170998302Y-92893449D01*
X171229632Y-92966579D01*
X171994211Y-92202000D01*
X172429789Y-92202000D01*
X173194368Y-92966579D01*
X173425698Y-92893449D01*
X173597917Y-92376353D01*
X173559142Y-91832713D01*
X173425698Y-91510551D01*
X173194368Y-91437421D01*
X172429789Y-92202000D01*
X171994211Y-92202000D01*
X171229632Y-91437421D01*
X170998302Y-91510551D01*
X170826083Y-92027647D01*
X168441183Y-92027647D01*
X168507550Y-91694000D01*
X168422177Y-91264801D01*
X168391997Y-91219632D01*
X171447421Y-91219632D01*
X172212000Y-91984211D01*
X172976579Y-91219632D01*
X172903449Y-90988302D01*
X172386353Y-90816083D01*
X171842713Y-90854858D01*
X171520551Y-90988302D01*
X171447421Y-91219632D01*
X168391997Y-91219632D01*
X168179056Y-90900944D01*
X167815199Y-90657823D01*
X167494339Y-90594000D01*
X167277661Y-90594000D01*
X166956801Y-90657823D01*
X166915093Y-90685691D01*
X160061163Y-83831763D01*
X160055877Y-83823851D01*
X160055877Y-83074000D01*
X160032593Y-82956946D01*
X159966288Y-82857712D01*
X159867054Y-82791407D01*
X159750000Y-82768123D01*
X157750000Y-82768123D01*
X157632946Y-82791407D01*
X157533712Y-82857712D01*
X157467407Y-82956946D01*
X157444123Y-83074000D01*
X148628000Y-83074000D01*
X148628000Y-79235000D01*
X154540000Y-79235000D01*
X154540000Y-80034939D01*
X154632563Y-80258405D01*
X154803596Y-80429438D01*
X155027062Y-80522000D01*
X155146000Y-80522000D01*
X155298000Y-80370000D01*
X155298000Y-79083000D01*
X154692000Y-79083000D01*
X154540000Y-79235000D01*
X148628000Y-79235000D01*
X148628000Y-77823061D01*
X154540000Y-77823061D01*
X154540000Y-78623000D01*
X154692000Y-78775000D01*
X155298000Y-78775000D01*
X155298000Y-77488000D01*
X155598000Y-77488000D01*
X155598000Y-78775000D01*
X155622000Y-78775000D01*
X155622000Y-79083000D01*
X155598000Y-79083000D01*
X155598000Y-80370000D01*
X155750000Y-80522000D01*
X155868938Y-80522000D01*
X156092404Y-80429438D01*
X156263437Y-80258405D01*
X156291621Y-80190362D01*
X156300946Y-80196593D01*
X156418000Y-80219877D01*
X157018000Y-80219877D01*
X157135054Y-80196593D01*
X157234288Y-80130288D01*
X157300593Y-80031054D01*
X157323877Y-79914000D01*
X157323877Y-77944000D01*
X157382123Y-77944000D01*
X157382123Y-79914000D01*
X157405407Y-80031054D01*
X157471712Y-80130288D01*
X157570946Y-80196593D01*
X157688000Y-80219877D01*
X158288000Y-80219877D01*
X158405054Y-80196593D01*
X158504288Y-80130288D01*
X158570593Y-80031054D01*
X158593877Y-79914000D01*
X158593877Y-77944000D01*
X158652123Y-77944000D01*
X158652123Y-79914000D01*
X158675407Y-80031054D01*
X158741712Y-80130288D01*
X158840946Y-80196593D01*
X158958000Y-80219877D01*
X159558000Y-80219877D01*
X159675054Y-80196593D01*
X159774288Y-80130288D01*
X159840593Y-80031054D01*
X159863877Y-79914000D01*
X159863877Y-77944000D01*
X159840593Y-77826946D01*
X159774288Y-77727712D01*
X159675054Y-77661407D01*
X159558000Y-77638123D01*
X158958000Y-77638123D01*
X158840946Y-77661407D01*
X158741712Y-77727712D01*
X158675407Y-77826946D01*
X158652123Y-77944000D01*
X158593877Y-77944000D01*
X158570593Y-77826946D01*
X158504288Y-77727712D01*
X158405054Y-77661407D01*
X158288000Y-77638123D01*
X157688000Y-77638123D01*
X157570946Y-77661407D01*
X157471712Y-77727712D01*
X157405407Y-77826946D01*
X157382123Y-77944000D01*
X157323877Y-77944000D01*
X157300593Y-77826946D01*
X157234288Y-77727712D01*
X157135054Y-77661407D01*
X157018000Y-77638123D01*
X156418000Y-77638123D01*
X156300946Y-77661407D01*
X156291621Y-77667638D01*
X156263437Y-77599595D01*
X156092404Y-77428562D01*
X155868938Y-77336000D01*
X155750000Y-77336000D01*
X155598000Y-77488000D01*
X155298000Y-77488000D01*
X155146000Y-77336000D01*
X155027062Y-77336000D01*
X154803596Y-77428562D01*
X154632563Y-77599595D01*
X154540000Y-77823061D01*
X148628000Y-77823061D01*
X148628000Y-53225877D01*
X148678000Y-53225877D01*
X148795054Y-53202593D01*
X148894288Y-53136288D01*
X148960593Y-53037054D01*
X148983877Y-52920000D01*
X148983877Y-52870000D01*
X149519451Y-52870000D01*
X149538897Y-52899103D01*
X149919293Y-53153276D01*
X150254739Y-53220000D01*
X150386630Y-53220000D01*
X154740629Y-57574000D01*
X154577661Y-57574000D01*
X154256801Y-57637823D01*
X153892944Y-57880944D01*
X153649823Y-58244801D01*
X153564450Y-58674000D01*
X153649823Y-59103199D01*
X153892944Y-59467056D01*
X154256801Y-59710177D01*
X154577661Y-59774000D01*
X154794339Y-59774000D01*
X155115199Y-59710177D01*
X155479056Y-59467056D01*
X155722177Y-59103199D01*
X155807550Y-58674000D01*
X155799336Y-58632707D01*
X157104000Y-59937371D01*
X157104001Y-61764015D01*
X157086946Y-61767407D01*
X156987712Y-61833712D01*
X156921407Y-61932946D01*
X156898123Y-62050000D01*
X156898123Y-62100000D01*
X151468000Y-62100000D01*
X151468000Y-61757196D01*
X151300535Y-61352900D01*
X150991100Y-61043465D01*
X150586804Y-60876000D01*
X150149196Y-60876000D01*
X149744900Y-61043465D01*
X149435465Y-61352900D01*
X149268000Y-61757196D01*
X149268000Y-62194804D01*
X149435465Y-62599100D01*
X149744900Y-62908535D01*
X150149196Y-63076000D01*
X150586804Y-63076000D01*
X150811613Y-62982881D01*
X150942000Y-63008816D01*
X150986321Y-63000000D01*
X156898123Y-63000000D01*
X156898123Y-63050000D01*
X156912047Y-63120000D01*
X154723418Y-63120000D01*
X154685999Y-63112557D01*
X154648580Y-63120000D01*
X154648576Y-63120000D01*
X154537732Y-63142048D01*
X154537731Y-63142049D01*
X154537730Y-63142049D01*
X154469176Y-63187856D01*
X154412036Y-63226036D01*
X154390838Y-63257761D01*
X149045763Y-68602837D01*
X149014035Y-68624037D01*
X148930047Y-68749734D01*
X148907999Y-68860578D01*
X148907999Y-68860582D01*
X148900556Y-68898001D01*
X148907999Y-68935420D01*
X148908000Y-70076977D01*
X148900556Y-70114401D01*
X148930048Y-70262669D01*
X148992836Y-70356638D01*
X148992838Y-70356640D01*
X149014036Y-70388365D01*
X149045761Y-70409563D01*
X154122437Y-75486240D01*
X154143635Y-75517965D01*
X154269331Y-75601953D01*
X154380175Y-75624001D01*
X154380180Y-75624001D01*
X154417599Y-75631444D01*
X154455018Y-75624001D01*
X162450580Y-75624001D01*
X162487999Y-75631444D01*
X162525418Y-75624001D01*
X162525423Y-75624001D01*
X162636267Y-75601953D01*
X162761963Y-75517965D01*
X162783163Y-75486237D01*
X162999524Y-75269877D01*
X163368000Y-75269877D01*
X163485054Y-75246593D01*
X163584288Y-75180288D01*
X163650593Y-75081054D01*
X163673877Y-74964000D01*
X163673877Y-72994000D01*
X163650593Y-72876946D01*
X163584288Y-72777712D01*
X163485054Y-72711407D01*
X163368000Y-72688123D01*
X162768000Y-72688123D01*
X162650946Y-72711407D01*
X162551712Y-72777712D01*
X162485407Y-72876946D01*
X162462123Y-72994000D01*
X162462123Y-74732476D01*
X162403877Y-74790722D01*
X162403877Y-72994000D01*
X162380593Y-72876946D01*
X162314288Y-72777712D01*
X162215054Y-72711407D01*
X162098000Y-72688123D01*
X161498000Y-72688123D01*
X161380946Y-72711407D01*
X161281712Y-72777712D01*
X161215407Y-72876946D01*
X161192123Y-72994000D01*
X161192123Y-74864001D01*
X161133877Y-74864001D01*
X161133877Y-72994000D01*
X161110593Y-72876946D01*
X161044288Y-72777712D01*
X160945054Y-72711407D01*
X160828000Y-72688123D01*
X160228000Y-72688123D01*
X160110946Y-72711407D01*
X160011712Y-72777712D01*
X159945407Y-72876946D01*
X159922123Y-72994000D01*
X159922123Y-74864001D01*
X159863877Y-74864001D01*
X159863877Y-72994000D01*
X159840593Y-72876946D01*
X159774288Y-72777712D01*
X159675054Y-72711407D01*
X159558000Y-72688123D01*
X158958000Y-72688123D01*
X158840946Y-72711407D01*
X158741712Y-72777712D01*
X158675407Y-72876946D01*
X158652123Y-72994000D01*
X158652123Y-74864001D01*
X158593877Y-74864001D01*
X158593877Y-72994000D01*
X158570593Y-72876946D01*
X158504288Y-72777712D01*
X158405054Y-72711407D01*
X158288000Y-72688123D01*
X157688000Y-72688123D01*
X157570946Y-72711407D01*
X157471712Y-72777712D01*
X157405407Y-72876946D01*
X157382123Y-72994000D01*
X157382123Y-74864001D01*
X157323877Y-74864001D01*
X157323877Y-72994000D01*
X157300593Y-72876946D01*
X157234288Y-72777712D01*
X157135054Y-72711407D01*
X157018000Y-72688123D01*
X156418000Y-72688123D01*
X156300946Y-72711407D01*
X156201712Y-72777712D01*
X156135407Y-72876946D01*
X156112123Y-72994000D01*
X156112123Y-74864001D01*
X156053877Y-74864001D01*
X156053877Y-72994000D01*
X156030593Y-72876946D01*
X155964288Y-72777712D01*
X155865054Y-72711407D01*
X155748000Y-72688123D01*
X155148000Y-72688123D01*
X155030946Y-72711407D01*
X154931712Y-72777712D01*
X154865407Y-72876946D01*
X154842123Y-72994000D01*
X154842123Y-74864001D01*
X154575000Y-74864001D01*
X150406998Y-70696000D01*
X150476339Y-70696000D01*
X150797199Y-70632177D01*
X151161056Y-70389056D01*
X151404177Y-70025199D01*
X151413963Y-69976000D01*
X155732581Y-69976000D01*
X155770000Y-69983443D01*
X155807419Y-69976000D01*
X155807424Y-69976000D01*
X155918268Y-69953952D01*
X156043964Y-69869964D01*
X156065164Y-69838236D01*
X156829400Y-69074000D01*
X157780000Y-69074000D01*
X157780000Y-69388939D01*
X157872563Y-69612405D01*
X158043596Y-69783438D01*
X158267062Y-69876000D01*
X158782000Y-69876000D01*
X158934000Y-69724000D01*
X158934000Y-68922000D01*
X159242000Y-68922000D01*
X159242000Y-69724000D01*
X159394000Y-69876000D01*
X159908938Y-69876000D01*
X160132404Y-69783438D01*
X160303437Y-69612405D01*
X160396000Y-69388939D01*
X160396000Y-69224956D01*
X165265757Y-69224956D01*
X165376435Y-69442000D01*
X166470000Y-69442000D01*
X166470000Y-68349477D01*
X166252958Y-68237769D01*
X165925944Y-68373209D01*
X165511139Y-68733423D01*
X165265757Y-69224956D01*
X160396000Y-69224956D01*
X160396000Y-69074000D01*
X160244000Y-68922000D01*
X159242000Y-68922000D01*
X158934000Y-68922000D01*
X157932000Y-68922000D01*
X157780000Y-69074000D01*
X156829400Y-69074000D01*
X157130239Y-68773162D01*
X157161964Y-68751964D01*
X157245952Y-68626268D01*
X157246428Y-68623877D01*
X157588000Y-68623877D01*
X157705054Y-68600593D01*
X157804288Y-68534288D01*
X157823514Y-68505514D01*
X157932000Y-68614000D01*
X158934000Y-68614000D01*
X158934000Y-68594000D01*
X159242000Y-68594000D01*
X159242000Y-68614000D01*
X160244000Y-68614000D01*
X160396000Y-68462000D01*
X160396000Y-68147061D01*
X160303437Y-67923595D01*
X160132404Y-67752562D01*
X159908938Y-67660000D01*
X159857763Y-67660000D01*
X159905054Y-67650593D01*
X160004288Y-67584288D01*
X160070593Y-67485054D01*
X160093877Y-67368000D01*
X160093877Y-67248000D01*
X161694581Y-67248000D01*
X161732000Y-67255443D01*
X161769419Y-67248000D01*
X161769424Y-67248000D01*
X161880268Y-67225952D01*
X162005964Y-67141964D01*
X162027164Y-67110236D01*
X166162096Y-62975305D01*
X166405196Y-63076000D01*
X166842804Y-63076000D01*
X167247100Y-62908535D01*
X167556535Y-62599100D01*
X167657230Y-62356000D01*
X171344105Y-62356000D01*
X171610425Y-62622320D01*
X172000755Y-62784000D01*
X172423245Y-62784000D01*
X172813575Y-62622320D01*
X173112320Y-62323575D01*
X173204099Y-62102000D01*
X174163057Y-62102000D01*
X174176724Y-62170707D01*
X174430897Y-62551103D01*
X174811293Y-62805276D01*
X175146739Y-62872000D01*
X175373261Y-62872000D01*
X175708707Y-62805276D01*
X176089103Y-62551103D01*
X176343276Y-62170707D01*
X176432529Y-61722000D01*
X176343276Y-61273293D01*
X176089103Y-60892897D01*
X175708707Y-60638724D01*
X175373261Y-60572000D01*
X175146739Y-60572000D01*
X174811293Y-60638724D01*
X174430897Y-60892897D01*
X174176724Y-61273293D01*
X174163057Y-61342000D01*
X173204099Y-61342000D01*
X173112320Y-61120425D01*
X172813575Y-60821680D01*
X172423245Y-60660000D01*
X172000755Y-60660000D01*
X171610425Y-60821680D01*
X171311680Y-61120425D01*
X171150000Y-61510755D01*
X171150000Y-61596000D01*
X167657230Y-61596000D01*
X167556535Y-61352900D01*
X167247100Y-61043465D01*
X166842804Y-60876000D01*
X166405196Y-60876000D01*
X166000900Y-61043465D01*
X165691465Y-61352900D01*
X165524000Y-61757196D01*
X165524000Y-62194804D01*
X165624695Y-62437904D01*
X161574600Y-66488000D01*
X160093877Y-66488000D01*
X160093877Y-66368000D01*
X160070593Y-66250946D01*
X160004288Y-66151712D01*
X159905054Y-66085407D01*
X159788000Y-66062123D01*
X158388000Y-66062123D01*
X158270946Y-66085407D01*
X158171712Y-66151712D01*
X158105407Y-66250946D01*
X158082123Y-66368000D01*
X158082123Y-67368000D01*
X158105407Y-67485054D01*
X158171712Y-67584288D01*
X158270946Y-67650593D01*
X158318237Y-67660000D01*
X158267062Y-67660000D01*
X158043596Y-67752562D01*
X157893877Y-67902281D01*
X157893877Y-67318000D01*
X157870593Y-67200946D01*
X157804288Y-67101712D01*
X157705054Y-67035407D01*
X157588000Y-67012123D01*
X157268000Y-67012123D01*
X157268000Y-65255877D01*
X158604000Y-65255877D01*
X158721054Y-65232593D01*
X158820288Y-65166288D01*
X158886593Y-65067054D01*
X158909877Y-64950000D01*
X158909877Y-63950000D01*
X158895953Y-63880000D01*
X159098123Y-63880000D01*
X159098123Y-64000000D01*
X159121407Y-64117054D01*
X159187712Y-64216288D01*
X159286946Y-64282593D01*
X159404000Y-64305877D01*
X160804000Y-64305877D01*
X160833545Y-64300000D01*
X161725216Y-64300000D01*
X161804000Y-64315671D01*
X161882784Y-64300000D01*
X161882789Y-64300000D01*
X162116144Y-64253583D01*
X162380767Y-64076767D01*
X162425398Y-64009972D01*
X166117975Y-60317396D01*
X166184767Y-60272767D01*
X166361583Y-60008144D01*
X166408000Y-59774789D01*
X166408000Y-59774785D01*
X166423671Y-59696001D01*
X166408000Y-59617217D01*
X166408000Y-55407877D01*
X166608000Y-55407877D01*
X166725054Y-55384593D01*
X166824288Y-55318288D01*
X166890593Y-55219054D01*
X166913877Y-55102000D01*
X166913877Y-54902000D01*
X167276630Y-54902000D01*
X170516603Y-58141974D01*
X170561232Y-58208766D01*
X170825855Y-58385582D01*
X171059210Y-58431999D01*
X171059214Y-58431999D01*
X171137998Y-58447670D01*
X171216782Y-58431999D01*
X171460106Y-58431999D01*
X171311680Y-58580425D01*
X171150000Y-58970755D01*
X171150000Y-59393245D01*
X171311680Y-59783575D01*
X171610425Y-60082320D01*
X172000755Y-60244000D01*
X172423245Y-60244000D01*
X172813575Y-60082320D01*
X173112320Y-59783575D01*
X173204099Y-59562000D01*
X174163057Y-59562000D01*
X174176724Y-59630707D01*
X174430897Y-60011103D01*
X174811293Y-60265276D01*
X175146739Y-60332000D01*
X175373261Y-60332000D01*
X175708707Y-60265276D01*
X176089103Y-60011103D01*
X176343276Y-59630707D01*
X176430887Y-59190255D01*
X178524000Y-61283368D01*
X178524001Y-66969450D01*
X178494897Y-66988897D01*
X178240724Y-67369293D01*
X178151471Y-67818000D01*
X178161063Y-67866223D01*
X178062418Y-68013856D01*
X178000329Y-68326000D01*
X178016001Y-68404789D01*
X178016000Y-72000123D01*
X177716000Y-72000123D01*
X177598946Y-72023407D01*
X177499712Y-72089712D01*
X177433407Y-72188946D01*
X177410123Y-72306000D01*
X177410123Y-74506000D01*
X177433407Y-74623054D01*
X177499712Y-74722288D01*
X177598946Y-74788593D01*
X177716000Y-74811877D01*
X179916000Y-74811877D01*
X180033054Y-74788593D01*
X180132288Y-74722288D01*
X180198593Y-74623054D01*
X180221877Y-74506000D01*
X180221877Y-74206000D01*
X181257553Y-74206000D01*
X181288724Y-74362707D01*
X181542897Y-74743103D01*
X181572000Y-74762549D01*
X181572001Y-80431450D01*
X181542897Y-80450897D01*
X181288724Y-80831293D01*
X181199471Y-81280000D01*
X181288724Y-81728707D01*
X181542897Y-82109103D01*
X181923293Y-82363276D01*
X182258739Y-82430000D01*
X182485261Y-82430000D01*
X182820707Y-82363276D01*
X183122001Y-82161957D01*
X183122001Y-85326598D01*
X182370955Y-86077644D01*
X182312707Y-86038724D01*
X181977261Y-85972000D01*
X181750739Y-85972000D01*
X181415293Y-86038724D01*
X181034897Y-86292897D01*
X180780724Y-86673293D01*
X180691471Y-87122000D01*
X180780724Y-87570707D01*
X180982043Y-87872001D01*
X180479877Y-87872001D01*
X180479877Y-86272000D01*
X180456593Y-86154946D01*
X180390288Y-86055712D01*
X180291054Y-85989407D01*
X180174000Y-85966123D01*
X178474000Y-85966123D01*
X178356946Y-85989407D01*
X178257712Y-86055712D01*
X178191407Y-86154946D01*
X178168123Y-86272000D01*
X178168123Y-86438721D01*
X176770001Y-85040601D01*
X176770001Y-83984207D01*
X177159981Y-83984207D01*
X177446079Y-84586104D01*
X177940735Y-85032699D01*
X178397794Y-85222009D01*
X178662000Y-85114360D01*
X178662000Y-83720000D01*
X178970000Y-83720000D01*
X178970000Y-85114360D01*
X179234206Y-85222009D01*
X179691265Y-85032699D01*
X180185921Y-84586104D01*
X180472019Y-83984207D01*
X180365053Y-83720000D01*
X178970000Y-83720000D01*
X178662000Y-83720000D01*
X177266947Y-83720000D01*
X177159981Y-83984207D01*
X176770001Y-83984207D01*
X176770001Y-83147793D01*
X177159981Y-83147793D01*
X177266947Y-83412000D01*
X178662000Y-83412000D01*
X178662000Y-82017640D01*
X178970000Y-82017640D01*
X178970000Y-83412000D01*
X180365053Y-83412000D01*
X180472019Y-83147793D01*
X180185921Y-82545896D01*
X179691265Y-82099301D01*
X179234206Y-81909991D01*
X178970000Y-82017640D01*
X178662000Y-82017640D01*
X178397794Y-81909991D01*
X177940735Y-82099301D01*
X177446079Y-82545896D01*
X177159981Y-83147793D01*
X176770001Y-83147793D01*
X176770001Y-73917017D01*
X176777444Y-73879598D01*
X176770001Y-73842179D01*
X176770001Y-73842175D01*
X176747953Y-73731331D01*
X176739141Y-73718143D01*
X176685164Y-73637360D01*
X176685161Y-73637357D01*
X176663965Y-73605635D01*
X176632242Y-73584438D01*
X175957566Y-72909764D01*
X175936366Y-72878036D01*
X175887818Y-72845597D01*
X176089103Y-72711103D01*
X176343276Y-72330707D01*
X176432529Y-71882000D01*
X176343276Y-71433293D01*
X176089103Y-71052897D01*
X175708707Y-70798724D01*
X175373261Y-70732000D01*
X175146739Y-70732000D01*
X174811293Y-70798724D01*
X174430897Y-71052897D01*
X174176724Y-71433293D01*
X174163057Y-71502000D01*
X173204099Y-71502000D01*
X173112320Y-71280425D01*
X172813575Y-70981680D01*
X172423245Y-70820000D01*
X172000755Y-70820000D01*
X171610425Y-70981680D01*
X171311680Y-71280425D01*
X171150000Y-71670755D01*
X171150000Y-72093245D01*
X171311680Y-72483575D01*
X171600105Y-72772000D01*
X168431963Y-72772000D01*
X168422177Y-72722801D01*
X168179056Y-72358944D01*
X167815199Y-72115823D01*
X167494339Y-72052000D01*
X167277661Y-72052000D01*
X166956801Y-72115823D01*
X166685999Y-72296767D01*
X166685999Y-71669803D01*
X167946243Y-70409561D01*
X167977965Y-70388365D01*
X167999161Y-70356643D01*
X167999164Y-70356640D01*
X168061952Y-70262671D01*
X168061952Y-70262670D01*
X168061953Y-70262669D01*
X168084001Y-70151825D01*
X168084001Y-70151821D01*
X168091444Y-70114402D01*
X168084001Y-70076983D01*
X168084001Y-69130755D01*
X171150000Y-69130755D01*
X171150000Y-69553245D01*
X171311680Y-69943575D01*
X171610425Y-70242320D01*
X172000755Y-70404000D01*
X172423245Y-70404000D01*
X172813575Y-70242320D01*
X173112320Y-69943575D01*
X173204099Y-69722000D01*
X174163057Y-69722000D01*
X174176724Y-69790707D01*
X174430897Y-70171103D01*
X174811293Y-70425276D01*
X175146739Y-70492000D01*
X175373261Y-70492000D01*
X175708707Y-70425276D01*
X176089103Y-70171103D01*
X176343276Y-69790707D01*
X176432529Y-69342000D01*
X176343276Y-68893293D01*
X176089103Y-68512897D01*
X175708707Y-68258724D01*
X175373261Y-68192000D01*
X175146739Y-68192000D01*
X174811293Y-68258724D01*
X174430897Y-68512897D01*
X174176724Y-68893293D01*
X174163057Y-68962000D01*
X173204099Y-68962000D01*
X173112320Y-68740425D01*
X172813575Y-68441680D01*
X172423245Y-68280000D01*
X172000755Y-68280000D01*
X171610425Y-68441680D01*
X171311680Y-68740425D01*
X171150000Y-69130755D01*
X168084001Y-69130755D01*
X168084001Y-68927399D01*
X170420645Y-66590755D01*
X171150000Y-66590755D01*
X171150000Y-67013245D01*
X171311680Y-67403575D01*
X171610425Y-67702320D01*
X172000755Y-67864000D01*
X172423245Y-67864000D01*
X172813575Y-67702320D01*
X173112320Y-67403575D01*
X173204099Y-67182000D01*
X174163057Y-67182000D01*
X174176724Y-67250707D01*
X174430897Y-67631103D01*
X174811293Y-67885276D01*
X175146739Y-67952000D01*
X175373261Y-67952000D01*
X175708707Y-67885276D01*
X176089103Y-67631103D01*
X176343276Y-67250707D01*
X176432529Y-66802000D01*
X176343276Y-66353293D01*
X176089103Y-65972897D01*
X175708707Y-65718724D01*
X175373261Y-65652000D01*
X175146739Y-65652000D01*
X174811293Y-65718724D01*
X174430897Y-65972897D01*
X174176724Y-66353293D01*
X174163057Y-66422000D01*
X173204099Y-66422000D01*
X173112320Y-66200425D01*
X172813575Y-65901680D01*
X172423245Y-65740000D01*
X172000755Y-65740000D01*
X171610425Y-65901680D01*
X171311680Y-66200425D01*
X171150000Y-66590755D01*
X170420645Y-66590755D01*
X171745164Y-65266237D01*
X171745166Y-65266234D01*
X171779180Y-65232220D01*
X172000755Y-65324000D01*
X172423245Y-65324000D01*
X172813575Y-65162320D01*
X173112320Y-64863575D01*
X173204099Y-64642000D01*
X174163057Y-64642000D01*
X174176724Y-64710707D01*
X174430897Y-65091103D01*
X174811293Y-65345276D01*
X175146739Y-65412000D01*
X175373261Y-65412000D01*
X175708707Y-65345276D01*
X176089103Y-65091103D01*
X176343276Y-64710707D01*
X176432529Y-64262000D01*
X176343276Y-63813293D01*
X176089103Y-63432897D01*
X175708707Y-63178724D01*
X175373261Y-63112000D01*
X175146739Y-63112000D01*
X174811293Y-63178724D01*
X174430897Y-63432897D01*
X174176724Y-63813293D01*
X174163057Y-63882000D01*
X173204099Y-63882000D01*
X173112320Y-63660425D01*
X172813575Y-63361680D01*
X172423245Y-63200000D01*
X172000755Y-63200000D01*
X171610425Y-63361680D01*
X171311680Y-63660425D01*
X171150000Y-64050755D01*
X171150000Y-64473245D01*
X171241780Y-64694820D01*
X171207766Y-64728834D01*
X171207763Y-64728836D01*
X167461763Y-68474837D01*
X167448947Y-68483400D01*
X167322056Y-68373209D01*
X166995042Y-68237769D01*
X166778000Y-68349477D01*
X166778000Y-69442000D01*
X166798000Y-69442000D01*
X166798000Y-69750000D01*
X166778000Y-69750000D01*
X166778000Y-69770000D01*
X166470000Y-69770000D01*
X166470000Y-69750000D01*
X165376435Y-69750000D01*
X165265757Y-69967044D01*
X165511139Y-70458577D01*
X165925944Y-70818791D01*
X166252958Y-70954231D01*
X166405049Y-70875952D01*
X166063761Y-71217241D01*
X166032036Y-71238439D01*
X166010838Y-71270164D01*
X166010836Y-71270166D01*
X165948048Y-71364135D01*
X165918556Y-71512403D01*
X165926000Y-71549827D01*
X165925999Y-78523210D01*
X165918556Y-78560629D01*
X165925999Y-78598048D01*
X165925999Y-78598052D01*
X165948047Y-78708896D01*
X166032035Y-78834593D01*
X166063763Y-78855793D01*
X166964096Y-79756127D01*
X166762900Y-79839465D01*
X166453465Y-80148900D01*
X166352770Y-80392000D01*
X163749842Y-80392000D01*
X163883437Y-80258405D01*
X163976000Y-80034939D01*
X163976000Y-79235000D01*
X163824000Y-79083000D01*
X163218000Y-79083000D01*
X163218000Y-79103000D01*
X162918000Y-79103000D01*
X162918000Y-79083000D01*
X162894000Y-79083000D01*
X162894000Y-78775000D01*
X162918000Y-78775000D01*
X162918000Y-77488000D01*
X163218000Y-77488000D01*
X163218000Y-78775000D01*
X163824000Y-78775000D01*
X163976000Y-78623000D01*
X163976000Y-77823061D01*
X163883437Y-77599595D01*
X163712404Y-77428562D01*
X163488938Y-77336000D01*
X163370000Y-77336000D01*
X163218000Y-77488000D01*
X162918000Y-77488000D01*
X162766000Y-77336000D01*
X162647062Y-77336000D01*
X162423596Y-77428562D01*
X162252563Y-77599595D01*
X162224379Y-77667638D01*
X162215054Y-77661407D01*
X162098000Y-77638123D01*
X161498000Y-77638123D01*
X161380946Y-77661407D01*
X161281712Y-77727712D01*
X161215407Y-77826946D01*
X161192123Y-77944000D01*
X161192123Y-79740723D01*
X161133877Y-79682477D01*
X161133877Y-77944000D01*
X161110593Y-77826946D01*
X161044288Y-77727712D01*
X160945054Y-77661407D01*
X160828000Y-77638123D01*
X160228000Y-77638123D01*
X160110946Y-77661407D01*
X160011712Y-77727712D01*
X159945407Y-77826946D01*
X159922123Y-77944000D01*
X159922123Y-79914000D01*
X159945407Y-80031054D01*
X160011712Y-80130288D01*
X160110946Y-80196593D01*
X160228000Y-80219877D01*
X160596477Y-80219877D01*
X168870839Y-88494240D01*
X168892037Y-88525965D01*
X168923762Y-88547163D01*
X168923763Y-88547164D01*
X169017731Y-88609952D01*
X169017732Y-88609952D01*
X169017733Y-88609953D01*
X169128577Y-88632001D01*
X169128581Y-88632001D01*
X169166000Y-88639444D01*
X169203419Y-88632001D01*
X171923498Y-88632001D01*
X171610425Y-88761680D01*
X171311680Y-89060425D01*
X171150000Y-89450755D01*
X171150000Y-89873245D01*
X171311680Y-90263575D01*
X171610425Y-90562320D01*
X172000755Y-90724000D01*
X172423245Y-90724000D01*
X172813575Y-90562320D01*
X173112320Y-90263575D01*
X173204099Y-90042000D01*
X174163057Y-90042000D01*
X174176724Y-90110707D01*
X174430897Y-90491103D01*
X174811293Y-90745276D01*
X175105998Y-90803896D01*
X175105998Y-90904143D01*
X174881089Y-90794085D01*
X174371146Y-91046259D01*
X173996523Y-91474384D01*
X173852097Y-91823090D01*
X173963111Y-92048000D01*
X175106000Y-92048000D01*
X175106000Y-92028000D01*
X175414000Y-92028000D01*
X175414000Y-92048000D01*
X176556889Y-92048000D01*
X176667903Y-91823090D01*
X176523477Y-91474384D01*
X176148854Y-91046259D01*
X175638911Y-90794085D01*
X175414002Y-90904143D01*
X175414002Y-90803896D01*
X175708707Y-90745276D01*
X176089103Y-90491103D01*
X176343276Y-90110707D01*
X176432529Y-89662000D01*
X176343276Y-89213293D01*
X176089103Y-88832897D01*
X175788442Y-88632001D01*
X183236580Y-88632001D01*
X183273999Y-88639444D01*
X183311418Y-88632001D01*
X183311423Y-88632001D01*
X183422267Y-88609953D01*
X183547963Y-88525965D01*
X183569163Y-88494237D01*
X183897045Y-88166356D01*
X183955293Y-88205276D01*
X184290739Y-88272000D01*
X184517261Y-88272000D01*
X184852707Y-88205276D01*
X185233103Y-87951103D01*
X185487276Y-87570707D01*
X185576529Y-87122000D01*
X185487276Y-86673293D01*
X185233103Y-86292897D01*
X184852707Y-86038724D01*
X184517261Y-85972000D01*
X184290739Y-85972000D01*
X183955293Y-86038724D01*
X183574897Y-86292897D01*
X183320724Y-86673293D01*
X183231471Y-87122000D01*
X183320724Y-87570707D01*
X183359644Y-87628955D01*
X183116599Y-87872001D01*
X182745957Y-87872001D01*
X182947276Y-87570707D01*
X183036529Y-87122000D01*
X182947276Y-86673293D01*
X182908356Y-86615045D01*
X183744240Y-85779161D01*
X183775965Y-85757963D01*
X183810159Y-85706789D01*
X183859952Y-85632269D01*
X183859952Y-85632268D01*
X183859953Y-85632267D01*
X183882001Y-85521423D01*
X183882001Y-85521419D01*
X183889444Y-85484000D01*
X183882001Y-85446581D01*
X183882001Y-82713536D01*
X183941062Y-82738000D01*
X184606000Y-82738000D01*
X184758000Y-82586000D01*
X184758000Y-81434000D01*
X184738000Y-81434000D01*
X184738000Y-81126000D01*
X184758000Y-81126000D01*
X184758000Y-79974000D01*
X184606000Y-79822000D01*
X183941062Y-79822000D01*
X183882001Y-79846464D01*
X183882001Y-75347536D01*
X183941062Y-75372000D01*
X184606000Y-75372000D01*
X184758000Y-75220000D01*
X184758000Y-74068000D01*
X184738000Y-74068000D01*
X184738000Y-73760000D01*
X184758000Y-73760000D01*
X184758000Y-72608000D01*
X184606000Y-72456000D01*
X183941062Y-72456000D01*
X183882001Y-72480464D01*
X183882001Y-69493419D01*
X183889444Y-69456000D01*
X183882001Y-69418581D01*
X183882001Y-69418577D01*
X183859953Y-69307733D01*
X183838750Y-69276000D01*
X184098000Y-69276000D01*
X184250000Y-69124000D01*
X184250000Y-68934000D01*
X184558000Y-68934000D01*
X184558000Y-69124000D01*
X184710000Y-69276000D01*
X185374938Y-69276000D01*
X185598404Y-69183438D01*
X185662002Y-69119840D01*
X185662002Y-72456000D01*
X185218000Y-72456000D01*
X185066000Y-72608000D01*
X185066000Y-73760000D01*
X185086000Y-73760000D01*
X185086000Y-74068000D01*
X185066000Y-74068000D01*
X185066000Y-75220000D01*
X185218000Y-75372000D01*
X185662002Y-75372000D01*
X185662001Y-79822000D01*
X185218000Y-79822000D01*
X185066000Y-79974000D01*
X185066000Y-81126000D01*
X185086000Y-81126000D01*
X185086000Y-81434000D01*
X185066000Y-81434000D01*
X185066000Y-82586000D01*
X185218000Y-82738000D01*
X185662001Y-82738000D01*
X185662001Y-91930598D01*
X184910955Y-92681644D01*
X184852707Y-92642724D01*
X184517261Y-92576000D01*
X184290739Y-92576000D01*
X183955293Y-92642724D01*
X183574897Y-92896897D01*
X183320724Y-93277293D01*
X183231471Y-93726000D01*
X183320724Y-94174707D01*
X183574897Y-94555103D01*
X183954000Y-94808412D01*
X183954000Y-95317604D01*
X181295184Y-97976421D01*
X180961261Y-97910000D01*
X180734739Y-97910000D01*
X180400817Y-97976421D01*
X176879540Y-94455145D01*
X176854432Y-94417568D01*
X176705581Y-94318109D01*
X176574321Y-94292000D01*
X176574320Y-94292000D01*
X176530000Y-94283184D01*
X176485680Y-94292000D01*
X176415877Y-94292000D01*
X176415877Y-94032000D01*
X177866000Y-94032000D01*
X177866000Y-94696939D01*
X177958563Y-94920405D01*
X178129596Y-95091438D01*
X178353062Y-95184000D01*
X179018000Y-95184000D01*
X179170000Y-95032000D01*
X179170000Y-93880000D01*
X178018000Y-93880000D01*
X177866000Y-94032000D01*
X176415877Y-94032000D01*
X176415877Y-93892000D01*
X176392593Y-93774946D01*
X176326288Y-93675712D01*
X176227054Y-93609407D01*
X176110000Y-93586123D01*
X175687023Y-93586123D01*
X176148854Y-93357741D01*
X176523477Y-92929616D01*
X176595773Y-92755061D01*
X177866000Y-92755061D01*
X177866000Y-93420000D01*
X178018000Y-93572000D01*
X179170000Y-93572000D01*
X179170000Y-92420000D01*
X179478000Y-92420000D01*
X179478000Y-93572000D01*
X179498000Y-93572000D01*
X179498000Y-93880000D01*
X179478000Y-93880000D01*
X179478000Y-95032000D01*
X179630000Y-95184000D01*
X180294938Y-95184000D01*
X180518404Y-95091438D01*
X180689437Y-94920405D01*
X180782000Y-94696939D01*
X180782000Y-94176617D01*
X181034897Y-94555103D01*
X181415293Y-94809276D01*
X181750739Y-94876000D01*
X181977261Y-94876000D01*
X182312707Y-94809276D01*
X182693103Y-94555103D01*
X182947276Y-94174707D01*
X183036529Y-93726000D01*
X182947276Y-93277293D01*
X182693103Y-92896897D01*
X182312707Y-92642724D01*
X181977261Y-92576000D01*
X181750739Y-92576000D01*
X181415293Y-92642724D01*
X181034897Y-92896897D01*
X180782000Y-93275383D01*
X180782000Y-92755061D01*
X180689437Y-92531595D01*
X180518404Y-92360562D01*
X180294938Y-92268000D01*
X179630000Y-92268000D01*
X179478000Y-92420000D01*
X179170000Y-92420000D01*
X179018000Y-92268000D01*
X178353062Y-92268000D01*
X178129596Y-92360562D01*
X177958563Y-92531595D01*
X177866000Y-92755061D01*
X176595773Y-92755061D01*
X176667903Y-92580910D01*
X176556889Y-92356000D01*
X175414000Y-92356000D01*
X175414000Y-92376000D01*
X175106000Y-92376000D01*
X175106000Y-92356000D01*
X173963111Y-92356000D01*
X173852097Y-92580910D01*
X173996523Y-92929616D01*
X174371146Y-93357741D01*
X174832977Y-93586123D01*
X174410000Y-93586123D01*
X174292946Y-93609407D01*
X174193712Y-93675712D01*
X174127407Y-93774946D01*
X174104123Y-93892000D01*
X174104123Y-94292000D01*
X173175104Y-94292000D01*
X173112320Y-94140425D01*
X172813575Y-93841680D01*
X172423245Y-93680000D01*
X172000755Y-93680000D01*
X171610425Y-93841680D01*
X171311680Y-94140425D01*
X171150000Y-94530755D01*
X171150000Y-94953245D01*
X171311680Y-95343575D01*
X171610425Y-95642320D01*
X172000755Y-95804000D01*
X172423245Y-95804000D01*
X172813575Y-95642320D01*
X173112320Y-95343575D01*
X173175104Y-95192000D01*
X174104123Y-95192000D01*
X174104123Y-95592000D01*
X174127407Y-95709054D01*
X174193712Y-95808288D01*
X174292946Y-95874593D01*
X174410000Y-95897877D01*
X176110000Y-95897877D01*
X176227054Y-95874593D01*
X176326288Y-95808288D01*
X176392593Y-95709054D01*
X176415877Y-95592000D01*
X176415877Y-95264272D01*
X178886273Y-97734669D01*
X178686910Y-97652097D01*
X178462000Y-97763111D01*
X178462000Y-98906000D01*
X178482000Y-98906000D01*
X178482000Y-99214000D01*
X178462000Y-99214000D01*
X178462000Y-100356889D01*
X178686910Y-100467903D01*
X179035616Y-100323477D01*
X179463741Y-99948854D01*
X179715915Y-99438911D01*
X179605857Y-99214002D01*
X179706104Y-99214002D01*
X179764724Y-99508707D01*
X180018897Y-99889103D01*
X180399293Y-100143276D01*
X180734739Y-100210000D01*
X180961261Y-100210000D01*
X181296707Y-100143276D01*
X181677103Y-99889103D01*
X181931276Y-99508707D01*
X182020529Y-99060000D01*
X182215471Y-99060000D01*
X182304724Y-99508707D01*
X182558897Y-99889103D01*
X182939293Y-100143276D01*
X183274739Y-100210000D01*
X183501261Y-100210000D01*
X183836707Y-100143276D01*
X184217103Y-99889103D01*
X184471276Y-99508707D01*
X184560529Y-99060000D01*
X184471276Y-98611293D01*
X184217103Y-98230897D01*
X183836707Y-97976724D01*
X183501261Y-97910000D01*
X183274739Y-97910000D01*
X182939293Y-97976724D01*
X182558897Y-98230897D01*
X182304724Y-98611293D01*
X182215471Y-99060000D01*
X182020529Y-99060000D01*
X181931579Y-98612816D01*
X184690858Y-95853538D01*
X184728432Y-95828432D01*
X184827891Y-95679581D01*
X184854000Y-95548321D01*
X184854000Y-95548317D01*
X184862815Y-95504001D01*
X184854000Y-95459684D01*
X184854000Y-94808412D01*
X185233103Y-94555103D01*
X185487276Y-94174707D01*
X185576529Y-93726000D01*
X185487276Y-93277293D01*
X185448356Y-93219045D01*
X186284240Y-92383161D01*
X186315965Y-92361963D01*
X186399953Y-92236267D01*
X186422001Y-92125423D01*
X186422001Y-92125419D01*
X186429444Y-92088000D01*
X186422001Y-92050581D01*
X186422001Y-61352888D01*
X186429444Y-61315469D01*
X186422001Y-61278050D01*
X186422001Y-61278045D01*
X186399953Y-61167201D01*
X186315965Y-61041505D01*
X186284240Y-61020307D01*
X183928902Y-58664970D01*
X184084502Y-58561002D01*
X184361328Y-58146701D01*
X184458537Y-57658000D01*
X184361328Y-57169299D01*
X184084502Y-56754998D01*
X183934000Y-56654436D01*
X183934000Y-55784285D01*
X183949671Y-55705500D01*
X183934000Y-55626715D01*
X183934000Y-55626711D01*
X183893801Y-55424618D01*
X183887583Y-55393355D01*
X183781428Y-55234484D01*
X183710767Y-55128733D01*
X183643972Y-55084102D01*
X181140000Y-52580130D01*
X181140000Y-51487795D01*
X182500000Y-51487795D01*
X182500000Y-52144205D01*
X182751198Y-52750650D01*
X183215350Y-53214802D01*
X183821795Y-53466000D01*
X184478205Y-53466000D01*
X185084650Y-53214802D01*
X185548802Y-52750650D01*
X185800000Y-52144205D01*
X185800000Y-51487795D01*
X185548802Y-50881350D01*
X185084650Y-50417198D01*
X184478205Y-50166000D01*
X183821795Y-50166000D01*
X183215350Y-50417198D01*
X182751198Y-50881350D01*
X182500000Y-51487795D01*
X181140000Y-51487795D01*
X181140000Y-50944787D01*
X181155672Y-50865998D01*
X181093583Y-50553853D01*
X181002272Y-50417198D01*
X180916767Y-50289231D01*
X180849972Y-50244600D01*
X179903399Y-49298027D01*
X179858768Y-49231232D01*
X179726720Y-49143000D01*
X186823000Y-49143000D01*
X186823001Y-106305000D01*
X186823001Y-106305000D01*
G37*
X186823001Y-106305000D02*
X139821000Y-106305000D01*
X139821000Y-103303795D01*
X140844000Y-103303795D01*
X140844000Y-103960205D01*
X141095198Y-104566650D01*
X141559350Y-105030802D01*
X142165795Y-105282000D01*
X142822205Y-105282000D01*
X143428650Y-105030802D01*
X143892802Y-104566650D01*
X144144000Y-103960205D01*
X144144000Y-103303795D01*
X182500000Y-103303795D01*
X182500000Y-103960205D01*
X182751198Y-104566650D01*
X183215350Y-105030802D01*
X183821795Y-105282000D01*
X184478205Y-105282000D01*
X185084650Y-105030802D01*
X185548802Y-104566650D01*
X185800000Y-103960205D01*
X185800000Y-103303795D01*
X185548802Y-102697350D01*
X185084650Y-102233198D01*
X184478205Y-101982000D01*
X183821795Y-101982000D01*
X183215350Y-102233198D01*
X182751198Y-102697350D01*
X182500000Y-103303795D01*
X144144000Y-103303795D01*
X143892802Y-102697350D01*
X143428650Y-102233198D01*
X142822205Y-101982000D01*
X142165795Y-101982000D01*
X141559350Y-102233198D01*
X141095198Y-102697350D01*
X140844000Y-103303795D01*
X139821000Y-103303795D01*
X139821000Y-101436774D01*
X148318444Y-101436774D01*
X148323857Y-101484810D01*
X148600789Y-102007423D01*
X149056636Y-102384277D01*
X149622000Y-102558000D01*
X150722000Y-102558000D01*
X150722000Y-101204000D01*
X151030000Y-101204000D01*
X151030000Y-102558000D01*
X152130000Y-102558000D01*
X152695364Y-102384277D01*
X153151211Y-102007423D01*
X153428143Y-101484810D01*
X153433556Y-101436774D01*
X153323227Y-101204000D01*
X151030000Y-101204000D01*
X150722000Y-101204000D01*
X148428773Y-101204000D01*
X148318444Y-101436774D01*
X139821000Y-101436774D01*
X139821000Y-95565394D01*
X139851763Y-95585949D01*
X145038062Y-100772249D01*
X145059260Y-100803974D01*
X145090985Y-100825172D01*
X145090986Y-100825173D01*
X145184954Y-100887961D01*
X145184955Y-100887961D01*
X145184956Y-100887962D01*
X145295800Y-100910010D01*
X145295804Y-100910010D01*
X145333223Y-100917453D01*
X145370642Y-100910010D01*
X146527357Y-100910010D01*
X146564776Y-100917453D01*
X146602195Y-100910010D01*
X146602200Y-100910010D01*
X146713044Y-100887962D01*
X146838740Y-100803974D01*
X146859940Y-100772246D01*
X146968960Y-100663226D01*
X148318444Y-100663226D01*
X148428773Y-100896000D01*
X150722000Y-100896000D01*
X150722000Y-99542000D01*
X151030000Y-99542000D01*
X151030000Y-100896000D01*
X153323227Y-100896000D01*
X153433556Y-100663226D01*
X153428143Y-100615190D01*
X153151211Y-100092577D01*
X152695364Y-99715723D01*
X152130000Y-99542000D01*
X151030000Y-99542000D01*
X150722000Y-99542000D01*
X149622000Y-99542000D01*
X149056636Y-99715723D01*
X148600789Y-100092577D01*
X148323857Y-100615190D01*
X148318444Y-100663226D01*
X146968960Y-100663226D01*
X148192187Y-99440000D01*
X174612123Y-99440000D01*
X174612123Y-99910000D01*
X174635407Y-100027054D01*
X174701712Y-100126288D01*
X174800946Y-100192593D01*
X174918000Y-100215877D01*
X176618000Y-100215877D01*
X176735054Y-100192593D01*
X176834288Y-100126288D01*
X176900593Y-100027054D01*
X176923877Y-99910000D01*
X176923877Y-99487023D01*
X177152259Y-99948854D01*
X177580384Y-100323477D01*
X177929090Y-100467903D01*
X178154000Y-100356889D01*
X178154000Y-99214000D01*
X178134000Y-99214000D01*
X178134000Y-98906000D01*
X178154000Y-98906000D01*
X178154000Y-97763111D01*
X177929090Y-97652097D01*
X177580384Y-97796523D01*
X177152259Y-98171146D01*
X176923877Y-98632977D01*
X176923877Y-98210000D01*
X176900593Y-98092946D01*
X176834288Y-97993712D01*
X176735054Y-97927407D01*
X176618000Y-97904123D01*
X174918000Y-97904123D01*
X174800946Y-97927407D01*
X174701712Y-97993712D01*
X174635407Y-98092946D01*
X174612123Y-98210000D01*
X174612123Y-98680000D01*
X148072204Y-98680000D01*
X148034785Y-98672557D01*
X147997366Y-98680000D01*
X147997362Y-98680000D01*
X147886518Y-98702048D01*
X147886517Y-98702049D01*
X147886516Y-98702049D01*
X147792548Y-98764837D01*
X147760822Y-98786036D01*
X147739624Y-98817761D01*
X147276000Y-99281385D01*
X147276000Y-97031812D01*
X147206375Y-96681783D01*
X146941152Y-96284848D01*
X146544216Y-96019625D01*
X146076000Y-95926491D01*
X145607783Y-96019625D01*
X145210848Y-96284848D01*
X144945625Y-96681784D01*
X144876000Y-97031813D01*
X144876001Y-99468188D01*
X144892686Y-99552072D01*
X141232614Y-95892000D01*
X141337261Y-95892000D01*
X141672707Y-95825276D01*
X142053103Y-95571103D01*
X142306412Y-95192000D01*
X143308896Y-95192000D01*
X143371680Y-95343575D01*
X143670425Y-95642320D01*
X144060755Y-95804000D01*
X144483245Y-95804000D01*
X144873575Y-95642320D01*
X145172320Y-95343575D01*
X145235104Y-95192000D01*
X148370123Y-95192000D01*
X148370123Y-96150000D01*
X148393407Y-96267054D01*
X148459712Y-96366288D01*
X148558946Y-96432593D01*
X148676000Y-96455877D01*
X153076000Y-96455877D01*
X153193054Y-96432593D01*
X153292288Y-96366288D01*
X153358593Y-96267054D01*
X153381877Y-96150000D01*
X153381877Y-94350000D01*
X153358593Y-94232946D01*
X153292288Y-94133712D01*
X153193054Y-94067407D01*
X153076000Y-94044123D01*
X151676000Y-94044123D01*
X151676000Y-93428784D01*
X151691671Y-93350000D01*
X151676000Y-93271216D01*
X151676000Y-93271211D01*
X151629583Y-93037856D01*
X151490074Y-92829066D01*
X157812723Y-92829066D01*
X157915174Y-93085040D01*
X158518703Y-93297105D01*
X159157445Y-93262067D01*
X159345026Y-93184368D01*
X171447421Y-93184368D01*
X171520551Y-93415698D01*
X172037647Y-93587917D01*
X172581287Y-93549142D01*
X172903449Y-93415698D01*
X172976579Y-93184368D01*
X172212000Y-92419789D01*
X171447421Y-93184368D01*
X159345026Y-93184368D01*
X159584826Y-93085040D01*
X159687277Y-92829066D01*
X158750000Y-91891789D01*
X157812723Y-92829066D01*
X151490074Y-92829066D01*
X151452767Y-92773233D01*
X151385975Y-92728604D01*
X150100074Y-91442703D01*
X157126895Y-91442703D01*
X157161933Y-92081445D01*
X157338960Y-92508826D01*
X157594934Y-92611277D01*
X158532211Y-91674000D01*
X158967789Y-91674000D01*
X159905066Y-92611277D01*
X160161040Y-92508826D01*
X160373105Y-91905297D01*
X160338067Y-91266555D01*
X160161040Y-90839174D01*
X159905066Y-90736723D01*
X158967789Y-91674000D01*
X158532211Y-91674000D01*
X157594934Y-90736723D01*
X157338960Y-90839174D01*
X157126895Y-91442703D01*
X150100074Y-91442703D01*
X149176305Y-90518934D01*
X157812723Y-90518934D01*
X158750000Y-91456211D01*
X159687277Y-90518934D01*
X159584826Y-90262960D01*
X158981297Y-90050895D01*
X158342555Y-90085933D01*
X157915174Y-90262960D01*
X157812723Y-90518934D01*
X149176305Y-90518934D01*
X148628000Y-89970630D01*
X148628000Y-83074000D01*
X157444123Y-83074000D01*
X157444123Y-85074000D01*
X157467407Y-85191054D01*
X157533712Y-85290288D01*
X157632946Y-85356593D01*
X157750000Y-85379877D01*
X159750000Y-85379877D01*
X159867054Y-85356593D01*
X159966288Y-85290288D01*
X160032593Y-85191054D01*
X160055877Y-85074000D01*
X160055877Y-84901277D01*
X166377691Y-91223093D01*
X166349823Y-91264801D01*
X166264450Y-91694000D01*
X166349823Y-92123199D01*
X166592944Y-92487056D01*
X166956801Y-92730177D01*
X167277661Y-92794000D01*
X167494339Y-92794000D01*
X167815199Y-92730177D01*
X168179056Y-92487056D01*
X168422177Y-92123199D01*
X168441183Y-92027647D01*
X170826083Y-92027647D01*
X170864858Y-92571287D01*
X170998302Y-92893449D01*
X171229632Y-92966579D01*
X171994211Y-92202000D01*
X172429789Y-92202000D01*
X173194368Y-92966579D01*
X173425698Y-92893449D01*
X173597917Y-92376353D01*
X173559142Y-91832713D01*
X173425698Y-91510551D01*
X173194368Y-91437421D01*
X172429789Y-92202000D01*
X171994211Y-92202000D01*
X171229632Y-91437421D01*
X170998302Y-91510551D01*
X170826083Y-92027647D01*
X168441183Y-92027647D01*
X168507550Y-91694000D01*
X168422177Y-91264801D01*
X168391997Y-91219632D01*
X171447421Y-91219632D01*
X172212000Y-91984211D01*
X172976579Y-91219632D01*
X172903449Y-90988302D01*
X172386353Y-90816083D01*
X171842713Y-90854858D01*
X171520551Y-90988302D01*
X171447421Y-91219632D01*
X168391997Y-91219632D01*
X168179056Y-90900944D01*
X167815199Y-90657823D01*
X167494339Y-90594000D01*
X167277661Y-90594000D01*
X166956801Y-90657823D01*
X166915093Y-90685691D01*
X160061163Y-83831763D01*
X160055877Y-83823851D01*
X160055877Y-83074000D01*
X160032593Y-82956946D01*
X159966288Y-82857712D01*
X159867054Y-82791407D01*
X159750000Y-82768123D01*
X157750000Y-82768123D01*
X157632946Y-82791407D01*
X157533712Y-82857712D01*
X157467407Y-82956946D01*
X157444123Y-83074000D01*
X148628000Y-83074000D01*
X148628000Y-79235000D01*
X154540000Y-79235000D01*
X154540000Y-80034939D01*
X154632563Y-80258405D01*
X154803596Y-80429438D01*
X155027062Y-80522000D01*
X155146000Y-80522000D01*
X155298000Y-80370000D01*
X155298000Y-79083000D01*
X154692000Y-79083000D01*
X154540000Y-79235000D01*
X148628000Y-79235000D01*
X148628000Y-77823061D01*
X154540000Y-77823061D01*
X154540000Y-78623000D01*
X154692000Y-78775000D01*
X155298000Y-78775000D01*
X155298000Y-77488000D01*
X155598000Y-77488000D01*
X155598000Y-78775000D01*
X155622000Y-78775000D01*
X155622000Y-79083000D01*
X155598000Y-79083000D01*
X155598000Y-80370000D01*
X155750000Y-80522000D01*
X155868938Y-80522000D01*
X156092404Y-80429438D01*
X156263437Y-80258405D01*
X156291621Y-80190362D01*
X156300946Y-80196593D01*
X156418000Y-80219877D01*
X157018000Y-80219877D01*
X157135054Y-80196593D01*
X157234288Y-80130288D01*
X157300593Y-80031054D01*
X157323877Y-79914000D01*
X157323877Y-77944000D01*
X157382123Y-77944000D01*
X157382123Y-79914000D01*
X157405407Y-80031054D01*
X157471712Y-80130288D01*
X157570946Y-80196593D01*
X157688000Y-80219877D01*
X158288000Y-80219877D01*
X158405054Y-80196593D01*
X158504288Y-80130288D01*
X158570593Y-80031054D01*
X158593877Y-79914000D01*
X158593877Y-77944000D01*
X158652123Y-77944000D01*
X158652123Y-79914000D01*
X158675407Y-80031054D01*
X158741712Y-80130288D01*
X158840946Y-80196593D01*
X158958000Y-80219877D01*
X159558000Y-80219877D01*
X159675054Y-80196593D01*
X159774288Y-80130288D01*
X159840593Y-80031054D01*
X159863877Y-79914000D01*
X159863877Y-77944000D01*
X159840593Y-77826946D01*
X159774288Y-77727712D01*
X159675054Y-77661407D01*
X159558000Y-77638123D01*
X158958000Y-77638123D01*
X158840946Y-77661407D01*
X158741712Y-77727712D01*
X158675407Y-77826946D01*
X158652123Y-77944000D01*
X158593877Y-77944000D01*
X158570593Y-77826946D01*
X158504288Y-77727712D01*
X158405054Y-77661407D01*
X158288000Y-77638123D01*
X157688000Y-77638123D01*
X157570946Y-77661407D01*
X157471712Y-77727712D01*
X157405407Y-77826946D01*
X157382123Y-77944000D01*
X157323877Y-77944000D01*
X157300593Y-77826946D01*
X157234288Y-77727712D01*
X157135054Y-77661407D01*
X157018000Y-77638123D01*
X156418000Y-77638123D01*
X156300946Y-77661407D01*
X156291621Y-77667638D01*
X156263437Y-77599595D01*
X156092404Y-77428562D01*
X155868938Y-77336000D01*
X155750000Y-77336000D01*
X155598000Y-77488000D01*
X155298000Y-77488000D01*
X155146000Y-77336000D01*
X155027062Y-77336000D01*
X154803596Y-77428562D01*
X154632563Y-77599595D01*
X154540000Y-77823061D01*
X148628000Y-77823061D01*
X148628000Y-53225877D01*
X148678000Y-53225877D01*
X148795054Y-53202593D01*
X148894288Y-53136288D01*
X148960593Y-53037054D01*
X148983877Y-52920000D01*
X148983877Y-52870000D01*
X149519451Y-52870000D01*
X149538897Y-52899103D01*
X149919293Y-53153276D01*
X150254739Y-53220000D01*
X150386630Y-53220000D01*
X154740629Y-57574000D01*
X154577661Y-57574000D01*
X154256801Y-57637823D01*
X153892944Y-57880944D01*
X153649823Y-58244801D01*
X153564450Y-58674000D01*
X153649823Y-59103199D01*
X153892944Y-59467056D01*
X154256801Y-59710177D01*
X154577661Y-59774000D01*
X154794339Y-59774000D01*
X155115199Y-59710177D01*
X155479056Y-59467056D01*
X155722177Y-59103199D01*
X155807550Y-58674000D01*
X155799336Y-58632707D01*
X157104000Y-59937371D01*
X157104001Y-61764015D01*
X157086946Y-61767407D01*
X156987712Y-61833712D01*
X156921407Y-61932946D01*
X156898123Y-62050000D01*
X156898123Y-62100000D01*
X151468000Y-62100000D01*
X151468000Y-61757196D01*
X151300535Y-61352900D01*
X150991100Y-61043465D01*
X150586804Y-60876000D01*
X150149196Y-60876000D01*
X149744900Y-61043465D01*
X149435465Y-61352900D01*
X149268000Y-61757196D01*
X149268000Y-62194804D01*
X149435465Y-62599100D01*
X149744900Y-62908535D01*
X150149196Y-63076000D01*
X150586804Y-63076000D01*
X150811613Y-62982881D01*
X150942000Y-63008816D01*
X150986321Y-63000000D01*
X156898123Y-63000000D01*
X156898123Y-63050000D01*
X156912047Y-63120000D01*
X154723418Y-63120000D01*
X154685999Y-63112557D01*
X154648580Y-63120000D01*
X154648576Y-63120000D01*
X154537732Y-63142048D01*
X154537731Y-63142049D01*
X154537730Y-63142049D01*
X154469176Y-63187856D01*
X154412036Y-63226036D01*
X154390838Y-63257761D01*
X149045763Y-68602837D01*
X149014035Y-68624037D01*
X148930047Y-68749734D01*
X148907999Y-68860578D01*
X148907999Y-68860582D01*
X148900556Y-68898001D01*
X148907999Y-68935420D01*
X148908000Y-70076977D01*
X148900556Y-70114401D01*
X148930048Y-70262669D01*
X148992836Y-70356638D01*
X148992838Y-70356640D01*
X149014036Y-70388365D01*
X149045761Y-70409563D01*
X154122437Y-75486240D01*
X154143635Y-75517965D01*
X154269331Y-75601953D01*
X154380175Y-75624001D01*
X154380180Y-75624001D01*
X154417599Y-75631444D01*
X154455018Y-75624001D01*
X162450580Y-75624001D01*
X162487999Y-75631444D01*
X162525418Y-75624001D01*
X162525423Y-75624001D01*
X162636267Y-75601953D01*
X162761963Y-75517965D01*
X162783163Y-75486237D01*
X162999524Y-75269877D01*
X163368000Y-75269877D01*
X163485054Y-75246593D01*
X163584288Y-75180288D01*
X163650593Y-75081054D01*
X163673877Y-74964000D01*
X163673877Y-72994000D01*
X163650593Y-72876946D01*
X163584288Y-72777712D01*
X163485054Y-72711407D01*
X163368000Y-72688123D01*
X162768000Y-72688123D01*
X162650946Y-72711407D01*
X162551712Y-72777712D01*
X162485407Y-72876946D01*
X162462123Y-72994000D01*
X162462123Y-74732476D01*
X162403877Y-74790722D01*
X162403877Y-72994000D01*
X162380593Y-72876946D01*
X162314288Y-72777712D01*
X162215054Y-72711407D01*
X162098000Y-72688123D01*
X161498000Y-72688123D01*
X161380946Y-72711407D01*
X161281712Y-72777712D01*
X161215407Y-72876946D01*
X161192123Y-72994000D01*
X161192123Y-74864001D01*
X161133877Y-74864001D01*
X161133877Y-72994000D01*
X161110593Y-72876946D01*
X161044288Y-72777712D01*
X160945054Y-72711407D01*
X160828000Y-72688123D01*
X160228000Y-72688123D01*
X160110946Y-72711407D01*
X160011712Y-72777712D01*
X159945407Y-72876946D01*
X159922123Y-72994000D01*
X159922123Y-74864001D01*
X159863877Y-74864001D01*
X159863877Y-72994000D01*
X159840593Y-72876946D01*
X159774288Y-72777712D01*
X159675054Y-72711407D01*
X159558000Y-72688123D01*
X158958000Y-72688123D01*
X158840946Y-72711407D01*
X158741712Y-72777712D01*
X158675407Y-72876946D01*
X158652123Y-72994000D01*
X158652123Y-74864001D01*
X158593877Y-74864001D01*
X158593877Y-72994000D01*
X158570593Y-72876946D01*
X158504288Y-72777712D01*
X158405054Y-72711407D01*
X158288000Y-72688123D01*
X157688000Y-72688123D01*
X157570946Y-72711407D01*
X157471712Y-72777712D01*
X157405407Y-72876946D01*
X157382123Y-72994000D01*
X157382123Y-74864001D01*
X157323877Y-74864001D01*
X157323877Y-72994000D01*
X157300593Y-72876946D01*
X157234288Y-72777712D01*
X157135054Y-72711407D01*
X157018000Y-72688123D01*
X156418000Y-72688123D01*
X156300946Y-72711407D01*
X156201712Y-72777712D01*
X156135407Y-72876946D01*
X156112123Y-72994000D01*
X156112123Y-74864001D01*
X156053877Y-74864001D01*
X156053877Y-72994000D01*
X156030593Y-72876946D01*
X155964288Y-72777712D01*
X155865054Y-72711407D01*
X155748000Y-72688123D01*
X155148000Y-72688123D01*
X155030946Y-72711407D01*
X154931712Y-72777712D01*
X154865407Y-72876946D01*
X154842123Y-72994000D01*
X154842123Y-74864001D01*
X154575000Y-74864001D01*
X150406998Y-70696000D01*
X150476339Y-70696000D01*
X150797199Y-70632177D01*
X151161056Y-70389056D01*
X151404177Y-70025199D01*
X151413963Y-69976000D01*
X155732581Y-69976000D01*
X155770000Y-69983443D01*
X155807419Y-69976000D01*
X155807424Y-69976000D01*
X155918268Y-69953952D01*
X156043964Y-69869964D01*
X156065164Y-69838236D01*
X156829400Y-69074000D01*
X157780000Y-69074000D01*
X157780000Y-69388939D01*
X157872563Y-69612405D01*
X158043596Y-69783438D01*
X158267062Y-69876000D01*
X158782000Y-69876000D01*
X158934000Y-69724000D01*
X158934000Y-68922000D01*
X159242000Y-68922000D01*
X159242000Y-69724000D01*
X159394000Y-69876000D01*
X159908938Y-69876000D01*
X160132404Y-69783438D01*
X160303437Y-69612405D01*
X160396000Y-69388939D01*
X160396000Y-69224956D01*
X165265757Y-69224956D01*
X165376435Y-69442000D01*
X166470000Y-69442000D01*
X166470000Y-68349477D01*
X166252958Y-68237769D01*
X165925944Y-68373209D01*
X165511139Y-68733423D01*
X165265757Y-69224956D01*
X160396000Y-69224956D01*
X160396000Y-69074000D01*
X160244000Y-68922000D01*
X159242000Y-68922000D01*
X158934000Y-68922000D01*
X157932000Y-68922000D01*
X157780000Y-69074000D01*
X156829400Y-69074000D01*
X157130239Y-68773162D01*
X157161964Y-68751964D01*
X157245952Y-68626268D01*
X157246428Y-68623877D01*
X157588000Y-68623877D01*
X157705054Y-68600593D01*
X157804288Y-68534288D01*
X157823514Y-68505514D01*
X157932000Y-68614000D01*
X158934000Y-68614000D01*
X158934000Y-68594000D01*
X159242000Y-68594000D01*
X159242000Y-68614000D01*
X160244000Y-68614000D01*
X160396000Y-68462000D01*
X160396000Y-68147061D01*
X160303437Y-67923595D01*
X160132404Y-67752562D01*
X159908938Y-67660000D01*
X159857763Y-67660000D01*
X159905054Y-67650593D01*
X160004288Y-67584288D01*
X160070593Y-67485054D01*
X160093877Y-67368000D01*
X160093877Y-67248000D01*
X161694581Y-67248000D01*
X161732000Y-67255443D01*
X161769419Y-67248000D01*
X161769424Y-67248000D01*
X161880268Y-67225952D01*
X162005964Y-67141964D01*
X162027164Y-67110236D01*
X166162096Y-62975305D01*
X166405196Y-63076000D01*
X166842804Y-63076000D01*
X167247100Y-62908535D01*
X167556535Y-62599100D01*
X167657230Y-62356000D01*
X171344105Y-62356000D01*
X171610425Y-62622320D01*
X172000755Y-62784000D01*
X172423245Y-62784000D01*
X172813575Y-62622320D01*
X173112320Y-62323575D01*
X173204099Y-62102000D01*
X174163057Y-62102000D01*
X174176724Y-62170707D01*
X174430897Y-62551103D01*
X174811293Y-62805276D01*
X175146739Y-62872000D01*
X175373261Y-62872000D01*
X175708707Y-62805276D01*
X176089103Y-62551103D01*
X176343276Y-62170707D01*
X176432529Y-61722000D01*
X176343276Y-61273293D01*
X176089103Y-60892897D01*
X175708707Y-60638724D01*
X175373261Y-60572000D01*
X175146739Y-60572000D01*
X174811293Y-60638724D01*
X174430897Y-60892897D01*
X174176724Y-61273293D01*
X174163057Y-61342000D01*
X173204099Y-61342000D01*
X173112320Y-61120425D01*
X172813575Y-60821680D01*
X172423245Y-60660000D01*
X172000755Y-60660000D01*
X171610425Y-60821680D01*
X171311680Y-61120425D01*
X171150000Y-61510755D01*
X171150000Y-61596000D01*
X167657230Y-61596000D01*
X167556535Y-61352900D01*
X167247100Y-61043465D01*
X166842804Y-60876000D01*
X166405196Y-60876000D01*
X166000900Y-61043465D01*
X165691465Y-61352900D01*
X165524000Y-61757196D01*
X165524000Y-62194804D01*
X165624695Y-62437904D01*
X161574600Y-66488000D01*
X160093877Y-66488000D01*
X160093877Y-66368000D01*
X160070593Y-66250946D01*
X160004288Y-66151712D01*
X159905054Y-66085407D01*
X159788000Y-66062123D01*
X158388000Y-66062123D01*
X158270946Y-66085407D01*
X158171712Y-66151712D01*
X158105407Y-66250946D01*
X158082123Y-66368000D01*
X158082123Y-67368000D01*
X158105407Y-67485054D01*
X158171712Y-67584288D01*
X158270946Y-67650593D01*
X158318237Y-67660000D01*
X158267062Y-67660000D01*
X158043596Y-67752562D01*
X157893877Y-67902281D01*
X157893877Y-67318000D01*
X157870593Y-67200946D01*
X157804288Y-67101712D01*
X157705054Y-67035407D01*
X157588000Y-67012123D01*
X157268000Y-67012123D01*
X157268000Y-65255877D01*
X158604000Y-65255877D01*
X158721054Y-65232593D01*
X158820288Y-65166288D01*
X158886593Y-65067054D01*
X158909877Y-64950000D01*
X158909877Y-63950000D01*
X158895953Y-63880000D01*
X159098123Y-63880000D01*
X159098123Y-64000000D01*
X159121407Y-64117054D01*
X159187712Y-64216288D01*
X159286946Y-64282593D01*
X159404000Y-64305877D01*
X160804000Y-64305877D01*
X160833545Y-64300000D01*
X161725216Y-64300000D01*
X161804000Y-64315671D01*
X161882784Y-64300000D01*
X161882789Y-64300000D01*
X162116144Y-64253583D01*
X162380767Y-64076767D01*
X162425398Y-64009972D01*
X166117975Y-60317396D01*
X166184767Y-60272767D01*
X166361583Y-60008144D01*
X166408000Y-59774789D01*
X166408000Y-59774785D01*
X166423671Y-59696001D01*
X166408000Y-59617217D01*
X166408000Y-55407877D01*
X166608000Y-55407877D01*
X166725054Y-55384593D01*
X166824288Y-55318288D01*
X166890593Y-55219054D01*
X166913877Y-55102000D01*
X166913877Y-54902000D01*
X167276630Y-54902000D01*
X170516603Y-58141974D01*
X170561232Y-58208766D01*
X170825855Y-58385582D01*
X171059210Y-58431999D01*
X171059214Y-58431999D01*
X171137998Y-58447670D01*
X171216782Y-58431999D01*
X171460106Y-58431999D01*
X171311680Y-58580425D01*
X171150000Y-58970755D01*
X171150000Y-59393245D01*
X171311680Y-59783575D01*
X171610425Y-60082320D01*
X172000755Y-60244000D01*
X172423245Y-60244000D01*
X172813575Y-60082320D01*
X173112320Y-59783575D01*
X173204099Y-59562000D01*
X174163057Y-59562000D01*
X174176724Y-59630707D01*
X174430897Y-60011103D01*
X174811293Y-60265276D01*
X175146739Y-60332000D01*
X175373261Y-60332000D01*
X175708707Y-60265276D01*
X176089103Y-60011103D01*
X176343276Y-59630707D01*
X176430887Y-59190255D01*
X178524000Y-61283368D01*
X178524001Y-66969450D01*
X178494897Y-66988897D01*
X178240724Y-67369293D01*
X178151471Y-67818000D01*
X178161063Y-67866223D01*
X178062418Y-68013856D01*
X178000329Y-68326000D01*
X178016001Y-68404789D01*
X178016000Y-72000123D01*
X177716000Y-72000123D01*
X177598946Y-72023407D01*
X177499712Y-72089712D01*
X177433407Y-72188946D01*
X177410123Y-72306000D01*
X177410123Y-74506000D01*
X177433407Y-74623054D01*
X177499712Y-74722288D01*
X177598946Y-74788593D01*
X177716000Y-74811877D01*
X179916000Y-74811877D01*
X180033054Y-74788593D01*
X180132288Y-74722288D01*
X180198593Y-74623054D01*
X180221877Y-74506000D01*
X180221877Y-74206000D01*
X181257553Y-74206000D01*
X181288724Y-74362707D01*
X181542897Y-74743103D01*
X181572000Y-74762549D01*
X181572001Y-80431450D01*
X181542897Y-80450897D01*
X181288724Y-80831293D01*
X181199471Y-81280000D01*
X181288724Y-81728707D01*
X181542897Y-82109103D01*
X181923293Y-82363276D01*
X182258739Y-82430000D01*
X182485261Y-82430000D01*
X182820707Y-82363276D01*
X183122001Y-82161957D01*
X183122001Y-85326598D01*
X182370955Y-86077644D01*
X182312707Y-86038724D01*
X181977261Y-85972000D01*
X181750739Y-85972000D01*
X181415293Y-86038724D01*
X181034897Y-86292897D01*
X180780724Y-86673293D01*
X180691471Y-87122000D01*
X180780724Y-87570707D01*
X180982043Y-87872001D01*
X180479877Y-87872001D01*
X180479877Y-86272000D01*
X180456593Y-86154946D01*
X180390288Y-86055712D01*
X180291054Y-85989407D01*
X180174000Y-85966123D01*
X178474000Y-85966123D01*
X178356946Y-85989407D01*
X178257712Y-86055712D01*
X178191407Y-86154946D01*
X178168123Y-86272000D01*
X178168123Y-86438721D01*
X176770001Y-85040601D01*
X176770001Y-83984207D01*
X177159981Y-83984207D01*
X177446079Y-84586104D01*
X177940735Y-85032699D01*
X178397794Y-85222009D01*
X178662000Y-85114360D01*
X178662000Y-83720000D01*
X178970000Y-83720000D01*
X178970000Y-85114360D01*
X179234206Y-85222009D01*
X179691265Y-85032699D01*
X180185921Y-84586104D01*
X180472019Y-83984207D01*
X180365053Y-83720000D01*
X178970000Y-83720000D01*
X178662000Y-83720000D01*
X177266947Y-83720000D01*
X177159981Y-83984207D01*
X176770001Y-83984207D01*
X176770001Y-83147793D01*
X177159981Y-83147793D01*
X177266947Y-83412000D01*
X178662000Y-83412000D01*
X178662000Y-82017640D01*
X178970000Y-82017640D01*
X178970000Y-83412000D01*
X180365053Y-83412000D01*
X180472019Y-83147793D01*
X180185921Y-82545896D01*
X179691265Y-82099301D01*
X179234206Y-81909991D01*
X178970000Y-82017640D01*
X178662000Y-82017640D01*
X178397794Y-81909991D01*
X177940735Y-82099301D01*
X177446079Y-82545896D01*
X177159981Y-83147793D01*
X176770001Y-83147793D01*
X176770001Y-73917017D01*
X176777444Y-73879598D01*
X176770001Y-73842179D01*
X176770001Y-73842175D01*
X176747953Y-73731331D01*
X176739141Y-73718143D01*
X176685164Y-73637360D01*
X176685161Y-73637357D01*
X176663965Y-73605635D01*
X176632242Y-73584438D01*
X175957566Y-72909764D01*
X175936366Y-72878036D01*
X175887818Y-72845597D01*
X176089103Y-72711103D01*
X176343276Y-72330707D01*
X176432529Y-71882000D01*
X176343276Y-71433293D01*
X176089103Y-71052897D01*
X175708707Y-70798724D01*
X175373261Y-70732000D01*
X175146739Y-70732000D01*
X174811293Y-70798724D01*
X174430897Y-71052897D01*
X174176724Y-71433293D01*
X174163057Y-71502000D01*
X173204099Y-71502000D01*
X173112320Y-71280425D01*
X172813575Y-70981680D01*
X172423245Y-70820000D01*
X172000755Y-70820000D01*
X171610425Y-70981680D01*
X171311680Y-71280425D01*
X171150000Y-71670755D01*
X171150000Y-72093245D01*
X171311680Y-72483575D01*
X171600105Y-72772000D01*
X168431963Y-72772000D01*
X168422177Y-72722801D01*
X168179056Y-72358944D01*
X167815199Y-72115823D01*
X167494339Y-72052000D01*
X167277661Y-72052000D01*
X166956801Y-72115823D01*
X166685999Y-72296767D01*
X166685999Y-71669803D01*
X167946243Y-70409561D01*
X167977965Y-70388365D01*
X167999161Y-70356643D01*
X167999164Y-70356640D01*
X168061952Y-70262671D01*
X168061952Y-70262670D01*
X168061953Y-70262669D01*
X168084001Y-70151825D01*
X168084001Y-70151821D01*
X168091444Y-70114402D01*
X168084001Y-70076983D01*
X168084001Y-69130755D01*
X171150000Y-69130755D01*
X171150000Y-69553245D01*
X171311680Y-69943575D01*
X171610425Y-70242320D01*
X172000755Y-70404000D01*
X172423245Y-70404000D01*
X172813575Y-70242320D01*
X173112320Y-69943575D01*
X173204099Y-69722000D01*
X174163057Y-69722000D01*
X174176724Y-69790707D01*
X174430897Y-70171103D01*
X174811293Y-70425276D01*
X175146739Y-70492000D01*
X175373261Y-70492000D01*
X175708707Y-70425276D01*
X176089103Y-70171103D01*
X176343276Y-69790707D01*
X176432529Y-69342000D01*
X176343276Y-68893293D01*
X176089103Y-68512897D01*
X175708707Y-68258724D01*
X175373261Y-68192000D01*
X175146739Y-68192000D01*
X174811293Y-68258724D01*
X174430897Y-68512897D01*
X174176724Y-68893293D01*
X174163057Y-68962000D01*
X173204099Y-68962000D01*
X173112320Y-68740425D01*
X172813575Y-68441680D01*
X172423245Y-68280000D01*
X172000755Y-68280000D01*
X171610425Y-68441680D01*
X171311680Y-68740425D01*
X171150000Y-69130755D01*
X168084001Y-69130755D01*
X168084001Y-68927399D01*
X170420645Y-66590755D01*
X171150000Y-66590755D01*
X171150000Y-67013245D01*
X171311680Y-67403575D01*
X171610425Y-67702320D01*
X172000755Y-67864000D01*
X172423245Y-67864000D01*
X172813575Y-67702320D01*
X173112320Y-67403575D01*
X173204099Y-67182000D01*
X174163057Y-67182000D01*
X174176724Y-67250707D01*
X174430897Y-67631103D01*
X174811293Y-67885276D01*
X175146739Y-67952000D01*
X175373261Y-67952000D01*
X175708707Y-67885276D01*
X176089103Y-67631103D01*
X176343276Y-67250707D01*
X176432529Y-66802000D01*
X176343276Y-66353293D01*
X176089103Y-65972897D01*
X175708707Y-65718724D01*
X175373261Y-65652000D01*
X175146739Y-65652000D01*
X174811293Y-65718724D01*
X174430897Y-65972897D01*
X174176724Y-66353293D01*
X174163057Y-66422000D01*
X173204099Y-66422000D01*
X173112320Y-66200425D01*
X172813575Y-65901680D01*
X172423245Y-65740000D01*
X172000755Y-65740000D01*
X171610425Y-65901680D01*
X171311680Y-66200425D01*
X171150000Y-66590755D01*
X170420645Y-66590755D01*
X171745164Y-65266237D01*
X171745166Y-65266234D01*
X171779180Y-65232220D01*
X172000755Y-65324000D01*
X172423245Y-65324000D01*
X172813575Y-65162320D01*
X173112320Y-64863575D01*
X173204099Y-64642000D01*
X174163057Y-64642000D01*
X174176724Y-64710707D01*
X174430897Y-65091103D01*
X174811293Y-65345276D01*
X175146739Y-65412000D01*
X175373261Y-65412000D01*
X175708707Y-65345276D01*
X176089103Y-65091103D01*
X176343276Y-64710707D01*
X176432529Y-64262000D01*
X176343276Y-63813293D01*
X176089103Y-63432897D01*
X175708707Y-63178724D01*
X175373261Y-63112000D01*
X175146739Y-63112000D01*
X174811293Y-63178724D01*
X174430897Y-63432897D01*
X174176724Y-63813293D01*
X174163057Y-63882000D01*
X173204099Y-63882000D01*
X173112320Y-63660425D01*
X172813575Y-63361680D01*
X172423245Y-63200000D01*
X172000755Y-63200000D01*
X171610425Y-63361680D01*
X171311680Y-63660425D01*
X171150000Y-64050755D01*
X171150000Y-64473245D01*
X171241780Y-64694820D01*
X171207766Y-64728834D01*
X171207763Y-64728836D01*
X167461763Y-68474837D01*
X167448947Y-68483400D01*
X167322056Y-68373209D01*
X166995042Y-68237769D01*
X166778000Y-68349477D01*
X166778000Y-69442000D01*
X166798000Y-69442000D01*
X166798000Y-69750000D01*
X166778000Y-69750000D01*
X166778000Y-69770000D01*
X166470000Y-69770000D01*
X166470000Y-69750000D01*
X165376435Y-69750000D01*
X165265757Y-69967044D01*
X165511139Y-70458577D01*
X165925944Y-70818791D01*
X166252958Y-70954231D01*
X166405049Y-70875952D01*
X166063761Y-71217241D01*
X166032036Y-71238439D01*
X166010838Y-71270164D01*
X166010836Y-71270166D01*
X165948048Y-71364135D01*
X165918556Y-71512403D01*
X165926000Y-71549827D01*
X165925999Y-78523210D01*
X165918556Y-78560629D01*
X165925999Y-78598048D01*
X165925999Y-78598052D01*
X165948047Y-78708896D01*
X166032035Y-78834593D01*
X166063763Y-78855793D01*
X166964096Y-79756127D01*
X166762900Y-79839465D01*
X166453465Y-80148900D01*
X166352770Y-80392000D01*
X163749842Y-80392000D01*
X163883437Y-80258405D01*
X163976000Y-80034939D01*
X163976000Y-79235000D01*
X163824000Y-79083000D01*
X163218000Y-79083000D01*
X163218000Y-79103000D01*
X162918000Y-79103000D01*
X162918000Y-79083000D01*
X162894000Y-79083000D01*
X162894000Y-78775000D01*
X162918000Y-78775000D01*
X162918000Y-77488000D01*
X163218000Y-77488000D01*
X163218000Y-78775000D01*
X163824000Y-78775000D01*
X163976000Y-78623000D01*
X163976000Y-77823061D01*
X163883437Y-77599595D01*
X163712404Y-77428562D01*
X163488938Y-77336000D01*
X163370000Y-77336000D01*
X163218000Y-77488000D01*
X162918000Y-77488000D01*
X162766000Y-77336000D01*
X162647062Y-77336000D01*
X162423596Y-77428562D01*
X162252563Y-77599595D01*
X162224379Y-77667638D01*
X162215054Y-77661407D01*
X162098000Y-77638123D01*
X161498000Y-77638123D01*
X161380946Y-77661407D01*
X161281712Y-77727712D01*
X161215407Y-77826946D01*
X161192123Y-77944000D01*
X161192123Y-79740723D01*
X161133877Y-79682477D01*
X161133877Y-77944000D01*
X161110593Y-77826946D01*
X161044288Y-77727712D01*
X160945054Y-77661407D01*
X160828000Y-77638123D01*
X160228000Y-77638123D01*
X160110946Y-77661407D01*
X160011712Y-77727712D01*
X159945407Y-77826946D01*
X159922123Y-77944000D01*
X159922123Y-79914000D01*
X159945407Y-80031054D01*
X160011712Y-80130288D01*
X160110946Y-80196593D01*
X160228000Y-80219877D01*
X160596477Y-80219877D01*
X168870839Y-88494240D01*
X168892037Y-88525965D01*
X168923762Y-88547163D01*
X168923763Y-88547164D01*
X169017731Y-88609952D01*
X169017732Y-88609952D01*
X169017733Y-88609953D01*
X169128577Y-88632001D01*
X169128581Y-88632001D01*
X169166000Y-88639444D01*
X169203419Y-88632001D01*
X171923498Y-88632001D01*
X171610425Y-88761680D01*
X171311680Y-89060425D01*
X171150000Y-89450755D01*
X171150000Y-89873245D01*
X171311680Y-90263575D01*
X171610425Y-90562320D01*
X172000755Y-90724000D01*
X172423245Y-90724000D01*
X172813575Y-90562320D01*
X173112320Y-90263575D01*
X173204099Y-90042000D01*
X174163057Y-90042000D01*
X174176724Y-90110707D01*
X174430897Y-90491103D01*
X174811293Y-90745276D01*
X175105998Y-90803896D01*
X175105998Y-90904143D01*
X174881089Y-90794085D01*
X174371146Y-91046259D01*
X173996523Y-91474384D01*
X173852097Y-91823090D01*
X173963111Y-92048000D01*
X175106000Y-92048000D01*
X175106000Y-92028000D01*
X175414000Y-92028000D01*
X175414000Y-92048000D01*
X176556889Y-92048000D01*
X176667903Y-91823090D01*
X176523477Y-91474384D01*
X176148854Y-91046259D01*
X175638911Y-90794085D01*
X175414002Y-90904143D01*
X175414002Y-90803896D01*
X175708707Y-90745276D01*
X176089103Y-90491103D01*
X176343276Y-90110707D01*
X176432529Y-89662000D01*
X176343276Y-89213293D01*
X176089103Y-88832897D01*
X175788442Y-88632001D01*
X183236580Y-88632001D01*
X183273999Y-88639444D01*
X183311418Y-88632001D01*
X183311423Y-88632001D01*
X183422267Y-88609953D01*
X183547963Y-88525965D01*
X183569163Y-88494237D01*
X183897045Y-88166356D01*
X183955293Y-88205276D01*
X184290739Y-88272000D01*
X184517261Y-88272000D01*
X184852707Y-88205276D01*
X185233103Y-87951103D01*
X185487276Y-87570707D01*
X185576529Y-87122000D01*
X185487276Y-86673293D01*
X185233103Y-86292897D01*
X184852707Y-86038724D01*
X184517261Y-85972000D01*
X184290739Y-85972000D01*
X183955293Y-86038724D01*
X183574897Y-86292897D01*
X183320724Y-86673293D01*
X183231471Y-87122000D01*
X183320724Y-87570707D01*
X183359644Y-87628955D01*
X183116599Y-87872001D01*
X182745957Y-87872001D01*
X182947276Y-87570707D01*
X183036529Y-87122000D01*
X182947276Y-86673293D01*
X182908356Y-86615045D01*
X183744240Y-85779161D01*
X183775965Y-85757963D01*
X183810159Y-85706789D01*
X183859952Y-85632269D01*
X183859952Y-85632268D01*
X183859953Y-85632267D01*
X183882001Y-85521423D01*
X183882001Y-85521419D01*
X183889444Y-85484000D01*
X183882001Y-85446581D01*
X183882001Y-82713536D01*
X183941062Y-82738000D01*
X184606000Y-82738000D01*
X184758000Y-82586000D01*
X184758000Y-81434000D01*
X184738000Y-81434000D01*
X184738000Y-81126000D01*
X184758000Y-81126000D01*
X184758000Y-79974000D01*
X184606000Y-79822000D01*
X183941062Y-79822000D01*
X183882001Y-79846464D01*
X183882001Y-75347536D01*
X183941062Y-75372000D01*
X184606000Y-75372000D01*
X184758000Y-75220000D01*
X184758000Y-74068000D01*
X184738000Y-74068000D01*
X184738000Y-73760000D01*
X184758000Y-73760000D01*
X184758000Y-72608000D01*
X184606000Y-72456000D01*
X183941062Y-72456000D01*
X183882001Y-72480464D01*
X183882001Y-69493419D01*
X183889444Y-69456000D01*
X183882001Y-69418581D01*
X183882001Y-69418577D01*
X183859953Y-69307733D01*
X183838750Y-69276000D01*
X184098000Y-69276000D01*
X184250000Y-69124000D01*
X184250000Y-68934000D01*
X184558000Y-68934000D01*
X184558000Y-69124000D01*
X184710000Y-69276000D01*
X185374938Y-69276000D01*
X185598404Y-69183438D01*
X185662002Y-69119840D01*
X185662002Y-72456000D01*
X185218000Y-72456000D01*
X185066000Y-72608000D01*
X185066000Y-73760000D01*
X185086000Y-73760000D01*
X185086000Y-74068000D01*
X185066000Y-74068000D01*
X185066000Y-75220000D01*
X185218000Y-75372000D01*
X185662002Y-75372000D01*
X185662001Y-79822000D01*
X185218000Y-79822000D01*
X185066000Y-79974000D01*
X185066000Y-81126000D01*
X185086000Y-81126000D01*
X185086000Y-81434000D01*
X185066000Y-81434000D01*
X185066000Y-82586000D01*
X185218000Y-82738000D01*
X185662001Y-82738000D01*
X185662001Y-91930598D01*
X184910955Y-92681644D01*
X184852707Y-92642724D01*
X184517261Y-92576000D01*
X184290739Y-92576000D01*
X183955293Y-92642724D01*
X183574897Y-92896897D01*
X183320724Y-93277293D01*
X183231471Y-93726000D01*
X183320724Y-94174707D01*
X183574897Y-94555103D01*
X183954000Y-94808412D01*
X183954000Y-95317604D01*
X181295184Y-97976421D01*
X180961261Y-97910000D01*
X180734739Y-97910000D01*
X180400817Y-97976421D01*
X176879540Y-94455145D01*
X176854432Y-94417568D01*
X176705581Y-94318109D01*
X176574321Y-94292000D01*
X176574320Y-94292000D01*
X176530000Y-94283184D01*
X176485680Y-94292000D01*
X176415877Y-94292000D01*
X176415877Y-94032000D01*
X177866000Y-94032000D01*
X177866000Y-94696939D01*
X177958563Y-94920405D01*
X178129596Y-95091438D01*
X178353062Y-95184000D01*
X179018000Y-95184000D01*
X179170000Y-95032000D01*
X179170000Y-93880000D01*
X178018000Y-93880000D01*
X177866000Y-94032000D01*
X176415877Y-94032000D01*
X176415877Y-93892000D01*
X176392593Y-93774946D01*
X176326288Y-93675712D01*
X176227054Y-93609407D01*
X176110000Y-93586123D01*
X175687023Y-93586123D01*
X176148854Y-93357741D01*
X176523477Y-92929616D01*
X176595773Y-92755061D01*
X177866000Y-92755061D01*
X177866000Y-93420000D01*
X178018000Y-93572000D01*
X179170000Y-93572000D01*
X179170000Y-92420000D01*
X179478000Y-92420000D01*
X179478000Y-93572000D01*
X179498000Y-93572000D01*
X179498000Y-93880000D01*
X179478000Y-93880000D01*
X179478000Y-95032000D01*
X179630000Y-95184000D01*
X180294938Y-95184000D01*
X180518404Y-95091438D01*
X180689437Y-94920405D01*
X180782000Y-94696939D01*
X180782000Y-94176617D01*
X181034897Y-94555103D01*
X181415293Y-94809276D01*
X181750739Y-94876000D01*
X181977261Y-94876000D01*
X182312707Y-94809276D01*
X182693103Y-94555103D01*
X182947276Y-94174707D01*
X183036529Y-93726000D01*
X182947276Y-93277293D01*
X182693103Y-92896897D01*
X182312707Y-92642724D01*
X181977261Y-92576000D01*
X181750739Y-92576000D01*
X181415293Y-92642724D01*
X181034897Y-92896897D01*
X180782000Y-93275383D01*
X180782000Y-92755061D01*
X180689437Y-92531595D01*
X180518404Y-92360562D01*
X180294938Y-92268000D01*
X179630000Y-92268000D01*
X179478000Y-92420000D01*
X179170000Y-92420000D01*
X179018000Y-92268000D01*
X178353062Y-92268000D01*
X178129596Y-92360562D01*
X177958563Y-92531595D01*
X177866000Y-92755061D01*
X176595773Y-92755061D01*
X176667903Y-92580910D01*
X176556889Y-92356000D01*
X175414000Y-92356000D01*
X175414000Y-92376000D01*
X175106000Y-92376000D01*
X175106000Y-92356000D01*
X173963111Y-92356000D01*
X173852097Y-92580910D01*
X173996523Y-92929616D01*
X174371146Y-93357741D01*
X174832977Y-93586123D01*
X174410000Y-93586123D01*
X174292946Y-93609407D01*
X174193712Y-93675712D01*
X174127407Y-93774946D01*
X174104123Y-93892000D01*
X174104123Y-94292000D01*
X173175104Y-94292000D01*
X173112320Y-94140425D01*
X172813575Y-93841680D01*
X172423245Y-93680000D01*
X172000755Y-93680000D01*
X171610425Y-93841680D01*
X171311680Y-94140425D01*
X171150000Y-94530755D01*
X171150000Y-94953245D01*
X171311680Y-95343575D01*
X171610425Y-95642320D01*
X172000755Y-95804000D01*
X172423245Y-95804000D01*
X172813575Y-95642320D01*
X173112320Y-95343575D01*
X173175104Y-95192000D01*
X174104123Y-95192000D01*
X174104123Y-95592000D01*
X174127407Y-95709054D01*
X174193712Y-95808288D01*
X174292946Y-95874593D01*
X174410000Y-95897877D01*
X176110000Y-95897877D01*
X176227054Y-95874593D01*
X176326288Y-95808288D01*
X176392593Y-95709054D01*
X176415877Y-95592000D01*
X176415877Y-95264272D01*
X178886273Y-97734669D01*
X178686910Y-97652097D01*
X178462000Y-97763111D01*
X178462000Y-98906000D01*
X178482000Y-98906000D01*
X178482000Y-99214000D01*
X178462000Y-99214000D01*
X178462000Y-100356889D01*
X178686910Y-100467903D01*
X179035616Y-100323477D01*
X179463741Y-99948854D01*
X179715915Y-99438911D01*
X179605857Y-99214002D01*
X179706104Y-99214002D01*
X179764724Y-99508707D01*
X180018897Y-99889103D01*
X180399293Y-100143276D01*
X180734739Y-100210000D01*
X180961261Y-100210000D01*
X181296707Y-100143276D01*
X181677103Y-99889103D01*
X181931276Y-99508707D01*
X182020529Y-99060000D01*
X182215471Y-99060000D01*
X182304724Y-99508707D01*
X182558897Y-99889103D01*
X182939293Y-100143276D01*
X183274739Y-100210000D01*
X183501261Y-100210000D01*
X183836707Y-100143276D01*
X184217103Y-99889103D01*
X184471276Y-99508707D01*
X184560529Y-99060000D01*
X184471276Y-98611293D01*
X184217103Y-98230897D01*
X183836707Y-97976724D01*
X183501261Y-97910000D01*
X183274739Y-97910000D01*
X182939293Y-97976724D01*
X182558897Y-98230897D01*
X182304724Y-98611293D01*
X182215471Y-99060000D01*
X182020529Y-99060000D01*
X181931579Y-98612816D01*
X184690858Y-95853538D01*
X184728432Y-95828432D01*
X184827891Y-95679581D01*
X184854000Y-95548321D01*
X184854000Y-95548317D01*
X184862815Y-95504001D01*
X184854000Y-95459684D01*
X184854000Y-94808412D01*
X185233103Y-94555103D01*
X185487276Y-94174707D01*
X185576529Y-93726000D01*
X185487276Y-93277293D01*
X185448356Y-93219045D01*
X186284240Y-92383161D01*
X186315965Y-92361963D01*
X186399953Y-92236267D01*
X186422001Y-92125423D01*
X186422001Y-92125419D01*
X186429444Y-92088000D01*
X186422001Y-92050581D01*
X186422001Y-61352888D01*
X186429444Y-61315469D01*
X186422001Y-61278050D01*
X186422001Y-61278045D01*
X186399953Y-61167201D01*
X186315965Y-61041505D01*
X186284240Y-61020307D01*
X183928902Y-58664970D01*
X184084502Y-58561002D01*
X184361328Y-58146701D01*
X184458537Y-57658000D01*
X184361328Y-57169299D01*
X184084502Y-56754998D01*
X183934000Y-56654436D01*
X183934000Y-55784285D01*
X183949671Y-55705500D01*
X183934000Y-55626715D01*
X183934000Y-55626711D01*
X183893801Y-55424618D01*
X183887583Y-55393355D01*
X183781428Y-55234484D01*
X183710767Y-55128733D01*
X183643972Y-55084102D01*
X181140000Y-52580130D01*
X181140000Y-51487795D01*
X182500000Y-51487795D01*
X182500000Y-52144205D01*
X182751198Y-52750650D01*
X183215350Y-53214802D01*
X183821795Y-53466000D01*
X184478205Y-53466000D01*
X185084650Y-53214802D01*
X185548802Y-52750650D01*
X185800000Y-52144205D01*
X185800000Y-51487795D01*
X185548802Y-50881350D01*
X185084650Y-50417198D01*
X184478205Y-50166000D01*
X183821795Y-50166000D01*
X183215350Y-50417198D01*
X182751198Y-50881350D01*
X182500000Y-51487795D01*
X181140000Y-51487795D01*
X181140000Y-50944787D01*
X181155672Y-50865998D01*
X181093583Y-50553853D01*
X181002272Y-50417198D01*
X180916767Y-50289231D01*
X180849972Y-50244600D01*
X179903399Y-49298027D01*
X179858768Y-49231232D01*
X179726720Y-49143000D01*
X186823000Y-49143000D01*
X186823001Y-106305000D01*
G36*
X158932602Y-52809975D02*
X158977232Y-52876768D01*
X159044024Y-52921397D01*
X159044025Y-52921398D01*
X159100082Y-52958854D01*
X159241855Y-53053584D01*
X159475210Y-53100001D01*
X159475215Y-53100001D01*
X159553999Y-53115672D01*
X159632783Y-53100001D01*
X164302521Y-53100001D01*
X164302123Y-53102000D01*
X164302123Y-55102000D01*
X164325407Y-55219054D01*
X164391712Y-55318288D01*
X164490946Y-55384593D01*
X164608000Y-55407877D01*
X164808001Y-55407877D01*
X164808000Y-59364629D01*
X161472630Y-62700000D01*
X160833545Y-62700000D01*
X160804000Y-62694123D01*
X159404000Y-62694123D01*
X159286946Y-62717407D01*
X159187712Y-62783712D01*
X159121407Y-62882946D01*
X159098123Y-63000000D01*
X159098123Y-63120000D01*
X158895953Y-63120000D01*
X158909877Y-63050000D01*
X158909877Y-62050000D01*
X158886593Y-61932946D01*
X158820288Y-61833712D01*
X158721054Y-61767407D01*
X158704000Y-61764015D01*
X158704000Y-59684783D01*
X158704161Y-59683969D01*
X161513820Y-59683969D01*
X161591643Y-59919229D01*
X162122548Y-60097815D01*
X162681382Y-60059637D01*
X163020357Y-59919229D01*
X163098180Y-59683969D01*
X162306000Y-58891789D01*
X161513820Y-59683969D01*
X158704161Y-59683969D01*
X158719671Y-59605999D01*
X158704000Y-59527215D01*
X158704000Y-59527211D01*
X158657583Y-59293856D01*
X158480767Y-59029233D01*
X158413975Y-58984604D01*
X157919919Y-58490548D01*
X160882185Y-58490548D01*
X160920363Y-59049382D01*
X161060771Y-59388357D01*
X161296031Y-59466180D01*
X162088211Y-58674000D01*
X162523789Y-58674000D01*
X163315969Y-59466180D01*
X163551229Y-59388357D01*
X163729815Y-58857452D01*
X163691637Y-58298618D01*
X163551229Y-57959643D01*
X163315969Y-57881820D01*
X162523789Y-58674000D01*
X162088211Y-58674000D01*
X161296031Y-57881820D01*
X161060771Y-57959643D01*
X160882185Y-58490548D01*
X157919919Y-58490548D01*
X157093402Y-57664031D01*
X161513820Y-57664031D01*
X162306000Y-58456211D01*
X163098180Y-57664031D01*
X163020357Y-57428771D01*
X162489452Y-57250185D01*
X161930618Y-57288363D01*
X161591643Y-57428771D01*
X161513820Y-57664031D01*
X157093402Y-57664031D01*
X156239340Y-56809969D01*
X159481820Y-56809969D01*
X159559643Y-57045229D01*
X160090548Y-57223815D01*
X160649382Y-57185637D01*
X160988357Y-57045229D01*
X161066180Y-56809969D01*
X160274000Y-56017789D01*
X159481820Y-56809969D01*
X156239340Y-56809969D01*
X155045919Y-55616548D01*
X158850185Y-55616548D01*
X158888363Y-56175382D01*
X159028771Y-56514357D01*
X159264031Y-56592180D01*
X160056211Y-55800000D01*
X160491789Y-55800000D01*
X161283969Y-56592180D01*
X161519229Y-56514357D01*
X161697815Y-55983452D01*
X161659637Y-55424618D01*
X161519229Y-55085643D01*
X161283969Y-55007820D01*
X160491789Y-55800000D01*
X160056211Y-55800000D01*
X159264031Y-55007820D01*
X159028771Y-55085643D01*
X158850185Y-55616548D01*
X155045919Y-55616548D01*
X154219402Y-54790031D01*
X159481820Y-54790031D01*
X160274000Y-55582211D01*
X161066180Y-54790031D01*
X160988357Y-54554771D01*
X160457452Y-54376185D01*
X159898618Y-54414363D01*
X159559643Y-54554771D01*
X159481820Y-54790031D01*
X154219402Y-54790031D01*
X152957370Y-53528000D01*
X153062002Y-53528000D01*
X153062002Y-53366890D01*
X153286910Y-53477903D01*
X153635616Y-53333477D01*
X154063741Y-52958854D01*
X154178000Y-52727801D01*
X154292259Y-52958854D01*
X154720384Y-53333477D01*
X155069090Y-53477903D01*
X155294000Y-53366889D01*
X155294000Y-52224000D01*
X155602000Y-52224000D01*
X155602000Y-53366889D01*
X155826910Y-53477903D01*
X156175616Y-53333477D01*
X156603741Y-52958854D01*
X156855915Y-52448911D01*
X156745856Y-52224000D01*
X155602000Y-52224000D01*
X155294000Y-52224000D01*
X153062000Y-52224000D01*
X153062000Y-52244000D01*
X152754000Y-52244000D01*
X152754000Y-52224000D01*
X152734000Y-52224000D01*
X152734000Y-51916000D01*
X152754000Y-51916000D01*
X152754000Y-51896000D01*
X153062000Y-51896000D01*
X153062000Y-51916000D01*
X155294000Y-51916000D01*
X155294000Y-51896000D01*
X155602000Y-51896000D01*
X155602000Y-51916000D01*
X156745856Y-51916000D01*
X156855915Y-51691089D01*
X156672406Y-51319999D01*
X157442627Y-51319999D01*
X158932602Y-52809975D01*
X158932602Y-52809975D01*
G37*
X158932602Y-52809975D02*
X158977232Y-52876768D01*
X159044024Y-52921397D01*
X159044025Y-52921398D01*
X159100082Y-52958854D01*
X159241855Y-53053584D01*
X159475210Y-53100001D01*
X159475215Y-53100001D01*
X159553999Y-53115672D01*
X159632783Y-53100001D01*
X164302521Y-53100001D01*
X164302123Y-53102000D01*
X164302123Y-55102000D01*
X164325407Y-55219054D01*
X164391712Y-55318288D01*
X164490946Y-55384593D01*
X164608000Y-55407877D01*
X164808001Y-55407877D01*
X164808000Y-59364629D01*
X161472630Y-62700000D01*
X160833545Y-62700000D01*
X160804000Y-62694123D01*
X159404000Y-62694123D01*
X159286946Y-62717407D01*
X159187712Y-62783712D01*
X159121407Y-62882946D01*
X159098123Y-63000000D01*
X159098123Y-63120000D01*
X158895953Y-63120000D01*
X158909877Y-63050000D01*
X158909877Y-62050000D01*
X158886593Y-61932946D01*
X158820288Y-61833712D01*
X158721054Y-61767407D01*
X158704000Y-61764015D01*
X158704000Y-59684783D01*
X158704161Y-59683969D01*
X161513820Y-59683969D01*
X161591643Y-59919229D01*
X162122548Y-60097815D01*
X162681382Y-60059637D01*
X163020357Y-59919229D01*
X163098180Y-59683969D01*
X162306000Y-58891789D01*
X161513820Y-59683969D01*
X158704161Y-59683969D01*
X158719671Y-59605999D01*
X158704000Y-59527215D01*
X158704000Y-59527211D01*
X158657583Y-59293856D01*
X158480767Y-59029233D01*
X158413975Y-58984604D01*
X157919919Y-58490548D01*
X160882185Y-58490548D01*
X160920363Y-59049382D01*
X161060771Y-59388357D01*
X161296031Y-59466180D01*
X162088211Y-58674000D01*
X162523789Y-58674000D01*
X163315969Y-59466180D01*
X163551229Y-59388357D01*
X163729815Y-58857452D01*
X163691637Y-58298618D01*
X163551229Y-57959643D01*
X163315969Y-57881820D01*
X162523789Y-58674000D01*
X162088211Y-58674000D01*
X161296031Y-57881820D01*
X161060771Y-57959643D01*
X160882185Y-58490548D01*
X157919919Y-58490548D01*
X157093402Y-57664031D01*
X161513820Y-57664031D01*
X162306000Y-58456211D01*
X163098180Y-57664031D01*
X163020357Y-57428771D01*
X162489452Y-57250185D01*
X161930618Y-57288363D01*
X161591643Y-57428771D01*
X161513820Y-57664031D01*
X157093402Y-57664031D01*
X156239340Y-56809969D01*
X159481820Y-56809969D01*
X159559643Y-57045229D01*
X160090548Y-57223815D01*
X160649382Y-57185637D01*
X160988357Y-57045229D01*
X161066180Y-56809969D01*
X160274000Y-56017789D01*
X159481820Y-56809969D01*
X156239340Y-56809969D01*
X155045919Y-55616548D01*
X158850185Y-55616548D01*
X158888363Y-56175382D01*
X159028771Y-56514357D01*
X159264031Y-56592180D01*
X160056211Y-55800000D01*
X160491789Y-55800000D01*
X161283969Y-56592180D01*
X161519229Y-56514357D01*
X161697815Y-55983452D01*
X161659637Y-55424618D01*
X161519229Y-55085643D01*
X161283969Y-55007820D01*
X160491789Y-55800000D01*
X160056211Y-55800000D01*
X159264031Y-55007820D01*
X159028771Y-55085643D01*
X158850185Y-55616548D01*
X155045919Y-55616548D01*
X154219402Y-54790031D01*
X159481820Y-54790031D01*
X160274000Y-55582211D01*
X161066180Y-54790031D01*
X160988357Y-54554771D01*
X160457452Y-54376185D01*
X159898618Y-54414363D01*
X159559643Y-54554771D01*
X159481820Y-54790031D01*
X154219402Y-54790031D01*
X152957370Y-53528000D01*
X153062002Y-53528000D01*
X153062002Y-53366890D01*
X153286910Y-53477903D01*
X153635616Y-53333477D01*
X154063741Y-52958854D01*
X154178000Y-52727801D01*
X154292259Y-52958854D01*
X154720384Y-53333477D01*
X155069090Y-53477903D01*
X155294000Y-53366889D01*
X155294000Y-52224000D01*
X155602000Y-52224000D01*
X155602000Y-53366889D01*
X155826910Y-53477903D01*
X156175616Y-53333477D01*
X156603741Y-52958854D01*
X156855915Y-52448911D01*
X156745856Y-52224000D01*
X155602000Y-52224000D01*
X155294000Y-52224000D01*
X153062000Y-52224000D01*
X153062000Y-52244000D01*
X152754000Y-52244000D01*
X152754000Y-52224000D01*
X152734000Y-52224000D01*
X152734000Y-51916000D01*
X152754000Y-51916000D01*
X152754000Y-51896000D01*
X153062000Y-51896000D01*
X153062000Y-51916000D01*
X155294000Y-51916000D01*
X155294000Y-51896000D01*
X155602000Y-51896000D01*
X155602000Y-51916000D01*
X156745856Y-51916000D01*
X156855915Y-51691089D01*
X156672406Y-51319999D01*
X157442627Y-51319999D01*
X158932602Y-52809975D01*
G36*
X170588000Y-54328073D02*
X170376069Y-54116142D01*
X170390211Y-54102000D01*
X170376069Y-54087858D01*
X170588000Y-53875927D01*
X170588000Y-54328073D01*
X170588000Y-54328073D01*
G37*
X170588000Y-54328073D02*
X170376069Y-54116142D01*
X170390211Y-54102000D01*
X170376069Y-54087858D01*
X170588000Y-53875927D01*
X170588000Y-54328073D01*
G04 #@! TD*
M02*
