M48
;DRILL file {KiCad 5.0.2-bee76a0~70~ubuntu18.04.1} date ven 11 ott 2019 23:19:13 CEST
;FORMAT={-:-/ absolute / inch / decimal}
FMAT,2
INCH,TZ
T1C0.0138
T2C0.0300
T3C0.0315
T4C0.0394
T5C0.0433
%
G90
G05
T1
X6.39Y-2.56
X6.39Y-2.61
X6.44Y-2.56
X6.44Y-2.61
X6.53Y-2.47
X6.53Y-2.52
X6.57Y-2.47
X6.57Y-2.52
X6.79Y-2.24
T2
X5.68Y-2.33
X5.68Y-2.43
X5.68Y-2.53
X5.68Y-2.63
X5.68Y-2.73
X5.68Y-2.83
X5.68Y-2.93
X5.68Y-3.03
X5.68Y-3.13
X5.68Y-3.23
X5.68Y-3.33
X5.68Y-3.43
X5.68Y-3.53
X5.68Y-3.63
X5.68Y-3.73
X6.78Y-2.33
X6.78Y-2.43
X6.78Y-2.53
X6.78Y-2.63
X6.78Y-2.73
X6.78Y-2.83
X6.78Y-2.93
X6.78Y-3.03
X6.78Y-3.13
X6.78Y-3.23
X6.78Y-3.33
X6.78Y-3.43
X6.78Y-3.53
X6.78Y-3.63
X6.78Y-3.73
T3
X6.56Y-2.33
X6.56Y-2.63
X5.9Y-2.34
X5.9Y-2.64
X6.56Y-2.75
X6.56Y-3.05
X5.9Y-2.75
X5.9Y-3.05
T4
X6.25Y-3.31
X6.25Y-3.6092
X6.92Y-3.9
X7.02Y-3.9
X7.12Y-3.9
X7.22Y-3.9
X5.56Y-2.33
X5.56Y-2.43
X5.56Y-2.53
X5.56Y-2.63
X5.56Y-2.73
X5.56Y-2.83
X5.56Y-2.93
X5.56Y-3.03
X5.56Y-3.13
X5.56Y-3.23
X5.56Y-3.33
X5.56Y-3.43
X5.56Y-3.53
X5.56Y-3.63
X5.56Y-3.73
X6.9Y-2.33
X6.9Y-2.43
X6.9Y-2.53
X6.9Y-2.63
X6.9Y-2.73
X6.9Y-2.83
X6.9Y-2.93
X6.9Y-3.03
X6.9Y-3.13
X6.9Y-3.23
X6.9Y-3.33
X6.9Y-3.43
X6.9Y-3.53
X6.9Y-3.63
X6.9Y-3.73
X6.1Y-1.99
X6.2Y-1.99
X6.3Y-1.99
X6.4Y-1.99
X7.04Y-3.69
X7.14Y-3.69
X7.24Y-3.69
X6.9Y-1.99
X6.9Y-2.09
X6.9Y-2.19
T5
X7.19Y-2.27
X7.19Y-2.37
X7.19Y-2.47
X7.19Y-2.76
X7.19Y-2.86
X7.19Y-2.96
X7.19Y-3.25
X7.19Y-3.35
X7.19Y-3.45
T0
M30
