%TF.GenerationSoftware,KiCad,Pcbnew,5.0.2-bee76a0~70~ubuntu18.04.1*%
%TF.CreationDate,2019-10-11T23:19:19+02:00*%
%TF.ProjectId,ESP8266-LolinV3-Lamp,45535038-3236-4362-9d4c-6f6c696e5633,1.0*%
%TF.SameCoordinates,Original*%
%TF.FileFunction,Soldermask,Top*%
%TF.FilePolarity,Negative*%
%FSLAX46Y46*%
G04 Gerber Fmt 4.6, Leading zero omitted, Abs format (unit mm)*
G04 Created by KiCad (PCBNEW 5.0.2-bee76a0~70~ubuntu18.04.1) date ven 11 ott 2019 23:19:19 CEST*
%MOMM*%
%LPD*%
G01*
G04 APERTURE LIST*
%ADD10C,0.150000*%
G04 APERTURE END LIST*
D10*
X185674000Y-48768000D02*
X185674000Y-106680000D01*
X139446000Y-106680000D02*
X185674000Y-106680000D01*
X139446000Y-48768000D02*
X185674000Y-48768000D01*
X139446000Y-106680000D02*
X139446000Y-48768000D01*
G36*
X182944433Y-102266893D02*
X183034657Y-102284839D01*
X183140267Y-102328585D01*
X183289621Y-102390449D01*
X183519089Y-102543774D01*
X183714226Y-102738911D01*
X183867551Y-102968379D01*
X183973161Y-103223344D01*
X184027000Y-103494012D01*
X184027000Y-103769988D01*
X183973161Y-104040656D01*
X183867551Y-104295621D01*
X183714226Y-104525089D01*
X183519089Y-104720226D01*
X183289621Y-104873551D01*
X183140267Y-104935415D01*
X183034657Y-104979161D01*
X182944433Y-104997107D01*
X182763988Y-105033000D01*
X182488012Y-105033000D01*
X182307567Y-104997107D01*
X182217343Y-104979161D01*
X182111733Y-104935415D01*
X181962379Y-104873551D01*
X181732911Y-104720226D01*
X181537774Y-104525089D01*
X181384449Y-104295621D01*
X181278839Y-104040656D01*
X181225000Y-103769988D01*
X181225000Y-103494012D01*
X181278839Y-103223344D01*
X181384449Y-102968379D01*
X181537774Y-102738911D01*
X181732911Y-102543774D01*
X181962379Y-102390449D01*
X182111733Y-102328585D01*
X182217343Y-102284839D01*
X182307567Y-102266893D01*
X182488012Y-102231000D01*
X182763988Y-102231000D01*
X182944433Y-102266893D01*
X182944433Y-102266893D01*
G37*
G36*
X142812433Y-102266893D02*
X142902657Y-102284839D01*
X143008267Y-102328585D01*
X143157621Y-102390449D01*
X143387089Y-102543774D01*
X143582226Y-102738911D01*
X143735551Y-102968379D01*
X143841161Y-103223344D01*
X143895000Y-103494012D01*
X143895000Y-103769988D01*
X143841161Y-104040656D01*
X143735551Y-104295621D01*
X143582226Y-104525089D01*
X143387089Y-104720226D01*
X143157621Y-104873551D01*
X143008267Y-104935415D01*
X142902657Y-104979161D01*
X142812433Y-104997107D01*
X142631988Y-105033000D01*
X142356012Y-105033000D01*
X142175567Y-104997107D01*
X142085343Y-104979161D01*
X141979733Y-104935415D01*
X141830379Y-104873551D01*
X141600911Y-104720226D01*
X141405774Y-104525089D01*
X141252449Y-104295621D01*
X141146839Y-104040656D01*
X141093000Y-103769988D01*
X141093000Y-103494012D01*
X141146839Y-103223344D01*
X141252449Y-102968379D01*
X141405774Y-102738911D01*
X141600911Y-102543774D01*
X141830379Y-102390449D01*
X141979733Y-102328585D01*
X142085343Y-102284839D01*
X142175567Y-102266893D01*
X142356012Y-102231000D01*
X142631988Y-102231000D01*
X142812433Y-102266893D01*
X142812433Y-102266893D01*
G37*
G36*
X183498443Y-98165519D02*
X183564627Y-98172037D01*
X183677853Y-98206384D01*
X183734467Y-98223557D01*
X183873087Y-98297652D01*
X183890991Y-98307222D01*
X183926729Y-98336552D01*
X184028186Y-98419814D01*
X184111448Y-98521271D01*
X184140778Y-98557009D01*
X184140779Y-98557011D01*
X184224443Y-98713533D01*
X184224443Y-98713534D01*
X184275963Y-98883373D01*
X184293359Y-99060000D01*
X184275963Y-99236627D01*
X184241616Y-99349853D01*
X184224443Y-99406467D01*
X184150348Y-99545087D01*
X184140778Y-99562991D01*
X184111448Y-99598729D01*
X184028186Y-99700186D01*
X183926729Y-99783448D01*
X183890991Y-99812778D01*
X183890989Y-99812779D01*
X183734467Y-99896443D01*
X183677853Y-99913616D01*
X183564627Y-99947963D01*
X183498443Y-99954481D01*
X183432260Y-99961000D01*
X183343740Y-99961000D01*
X183277557Y-99954481D01*
X183211373Y-99947963D01*
X183098147Y-99913616D01*
X183041533Y-99896443D01*
X182885011Y-99812779D01*
X182885009Y-99812778D01*
X182849271Y-99783448D01*
X182747814Y-99700186D01*
X182664552Y-99598729D01*
X182635222Y-99562991D01*
X182625652Y-99545087D01*
X182551557Y-99406467D01*
X182534384Y-99349853D01*
X182500037Y-99236627D01*
X182482641Y-99060000D01*
X182500037Y-98883373D01*
X182551557Y-98713534D01*
X182551557Y-98713533D01*
X182635221Y-98557011D01*
X182635222Y-98557009D01*
X182664552Y-98521271D01*
X182747814Y-98419814D01*
X182849271Y-98336552D01*
X182885009Y-98307222D01*
X182902913Y-98297652D01*
X183041533Y-98223557D01*
X183098147Y-98206384D01*
X183211373Y-98172037D01*
X183277557Y-98165519D01*
X183343740Y-98159000D01*
X183432260Y-98159000D01*
X183498443Y-98165519D01*
X183498443Y-98165519D01*
G37*
G36*
X178418443Y-98165519D02*
X178484627Y-98172037D01*
X178597853Y-98206384D01*
X178654467Y-98223557D01*
X178793087Y-98297652D01*
X178810991Y-98307222D01*
X178846729Y-98336552D01*
X178948186Y-98419814D01*
X179031448Y-98521271D01*
X179060778Y-98557009D01*
X179060779Y-98557011D01*
X179144443Y-98713533D01*
X179144443Y-98713534D01*
X179195963Y-98883373D01*
X179213359Y-99060000D01*
X179195963Y-99236627D01*
X179161616Y-99349853D01*
X179144443Y-99406467D01*
X179070348Y-99545087D01*
X179060778Y-99562991D01*
X179031448Y-99598729D01*
X178948186Y-99700186D01*
X178846729Y-99783448D01*
X178810991Y-99812778D01*
X178810989Y-99812779D01*
X178654467Y-99896443D01*
X178597853Y-99913616D01*
X178484627Y-99947963D01*
X178418443Y-99954481D01*
X178352260Y-99961000D01*
X178263740Y-99961000D01*
X178197557Y-99954481D01*
X178131373Y-99947963D01*
X178018147Y-99913616D01*
X177961533Y-99896443D01*
X177805011Y-99812779D01*
X177805009Y-99812778D01*
X177769271Y-99783448D01*
X177667814Y-99700186D01*
X177584552Y-99598729D01*
X177555222Y-99562991D01*
X177545652Y-99545087D01*
X177471557Y-99406467D01*
X177454384Y-99349853D01*
X177420037Y-99236627D01*
X177402641Y-99060000D01*
X177420037Y-98883373D01*
X177471557Y-98713534D01*
X177471557Y-98713533D01*
X177555221Y-98557011D01*
X177555222Y-98557009D01*
X177584552Y-98521271D01*
X177667814Y-98419814D01*
X177769271Y-98336552D01*
X177805009Y-98307222D01*
X177822913Y-98297652D01*
X177961533Y-98223557D01*
X178018147Y-98206384D01*
X178131373Y-98172037D01*
X178197557Y-98165519D01*
X178263740Y-98159000D01*
X178352260Y-98159000D01*
X178418443Y-98165519D01*
X178418443Y-98165519D01*
G37*
G36*
X176669000Y-99961000D02*
X174867000Y-99961000D01*
X174867000Y-98159000D01*
X176669000Y-98159000D01*
X176669000Y-99961000D01*
X176669000Y-99961000D01*
G37*
G36*
X180958443Y-98165519D02*
X181024627Y-98172037D01*
X181137853Y-98206384D01*
X181194467Y-98223557D01*
X181333087Y-98297652D01*
X181350991Y-98307222D01*
X181386729Y-98336552D01*
X181488186Y-98419814D01*
X181571448Y-98521271D01*
X181600778Y-98557009D01*
X181600779Y-98557011D01*
X181684443Y-98713533D01*
X181684443Y-98713534D01*
X181735963Y-98883373D01*
X181753359Y-99060000D01*
X181735963Y-99236627D01*
X181701616Y-99349853D01*
X181684443Y-99406467D01*
X181610348Y-99545087D01*
X181600778Y-99562991D01*
X181571448Y-99598729D01*
X181488186Y-99700186D01*
X181386729Y-99783448D01*
X181350991Y-99812778D01*
X181350989Y-99812779D01*
X181194467Y-99896443D01*
X181137853Y-99913616D01*
X181024627Y-99947963D01*
X180958443Y-99954481D01*
X180892260Y-99961000D01*
X180803740Y-99961000D01*
X180737557Y-99954481D01*
X180671373Y-99947963D01*
X180558147Y-99913616D01*
X180501533Y-99896443D01*
X180345011Y-99812779D01*
X180345009Y-99812778D01*
X180309271Y-99783448D01*
X180207814Y-99700186D01*
X180124552Y-99598729D01*
X180095222Y-99562991D01*
X180085652Y-99545087D01*
X180011557Y-99406467D01*
X179994384Y-99349853D01*
X179960037Y-99236627D01*
X179942641Y-99060000D01*
X179960037Y-98883373D01*
X180011557Y-98713534D01*
X180011557Y-98713533D01*
X180095221Y-98557011D01*
X180095222Y-98557009D01*
X180124552Y-98521271D01*
X180207814Y-98419814D01*
X180309271Y-98336552D01*
X180345009Y-98307222D01*
X180362913Y-98297652D01*
X180501533Y-98223557D01*
X180558147Y-98206384D01*
X180671373Y-98172037D01*
X180737557Y-98165519D01*
X180803740Y-98159000D01*
X180892260Y-98159000D01*
X180958443Y-98165519D01*
X180958443Y-98165519D01*
G37*
G36*
X176161000Y-95643000D02*
X174359000Y-95643000D01*
X174359000Y-93841000D01*
X176161000Y-93841000D01*
X176161000Y-95643000D01*
X176161000Y-95643000D01*
G37*
G36*
X141334443Y-93847519D02*
X141400627Y-93854037D01*
X141513853Y-93888384D01*
X141570467Y-93905557D01*
X141672774Y-93960242D01*
X141726991Y-93989222D01*
X141762729Y-94018552D01*
X141864186Y-94101814D01*
X141947448Y-94203271D01*
X141976778Y-94239009D01*
X141976779Y-94239011D01*
X142060443Y-94395533D01*
X142060443Y-94395534D01*
X142111963Y-94565373D01*
X142129359Y-94742000D01*
X142111963Y-94918627D01*
X142077616Y-95031853D01*
X142060443Y-95088467D01*
X141986348Y-95227087D01*
X141976778Y-95244991D01*
X141947448Y-95280729D01*
X141864186Y-95382186D01*
X141766358Y-95462470D01*
X141726991Y-95494778D01*
X141726989Y-95494779D01*
X141570467Y-95578443D01*
X141513853Y-95595616D01*
X141400627Y-95629963D01*
X141334442Y-95636482D01*
X141268260Y-95643000D01*
X141179740Y-95643000D01*
X141113558Y-95636482D01*
X141047373Y-95629963D01*
X140934147Y-95595616D01*
X140877533Y-95578443D01*
X140721011Y-95494779D01*
X140721009Y-95494778D01*
X140681642Y-95462470D01*
X140583814Y-95382186D01*
X140500552Y-95280729D01*
X140471222Y-95244991D01*
X140461652Y-95227087D01*
X140387557Y-95088467D01*
X140370384Y-95031853D01*
X140336037Y-94918627D01*
X140318641Y-94742000D01*
X140336037Y-94565373D01*
X140387557Y-94395534D01*
X140387557Y-94395533D01*
X140471221Y-94239011D01*
X140471222Y-94239009D01*
X140500552Y-94203271D01*
X140583814Y-94101814D01*
X140685271Y-94018552D01*
X140721009Y-93989222D01*
X140775226Y-93960242D01*
X140877533Y-93905557D01*
X140934147Y-93888384D01*
X141047373Y-93854037D01*
X141113557Y-93847519D01*
X141179740Y-93841000D01*
X141268260Y-93841000D01*
X141334443Y-93847519D01*
X141334443Y-93847519D01*
G37*
G36*
X172449142Y-93960242D02*
X172597102Y-94021530D01*
X172664130Y-94066317D01*
X172730257Y-94110501D01*
X172843499Y-94223743D01*
X172887683Y-94289870D01*
X172932470Y-94356898D01*
X172993758Y-94504858D01*
X173025000Y-94661925D01*
X173025000Y-94822075D01*
X172993758Y-94979142D01*
X172948474Y-95088466D01*
X172932471Y-95127100D01*
X172843499Y-95260257D01*
X172730257Y-95373499D01*
X172664130Y-95417683D01*
X172597102Y-95462470D01*
X172449142Y-95523758D01*
X172292075Y-95555000D01*
X172131925Y-95555000D01*
X171974858Y-95523758D01*
X171826898Y-95462470D01*
X171759870Y-95417683D01*
X171693743Y-95373499D01*
X171580501Y-95260257D01*
X171491529Y-95127100D01*
X171475526Y-95088466D01*
X171430242Y-94979142D01*
X171399000Y-94822075D01*
X171399000Y-94661925D01*
X171430242Y-94504858D01*
X171491530Y-94356898D01*
X171536317Y-94289870D01*
X171580501Y-94223743D01*
X171693743Y-94110501D01*
X171759870Y-94066317D01*
X171826898Y-94021530D01*
X171974858Y-93960242D01*
X172131925Y-93929000D01*
X172292075Y-93929000D01*
X172449142Y-93960242D01*
X172449142Y-93960242D01*
G37*
G36*
X144509142Y-93960242D02*
X144657102Y-94021530D01*
X144724130Y-94066317D01*
X144790257Y-94110501D01*
X144903499Y-94223743D01*
X144947683Y-94289870D01*
X144992470Y-94356898D01*
X145053758Y-94504858D01*
X145085000Y-94661925D01*
X145085000Y-94822075D01*
X145053758Y-94979142D01*
X145008474Y-95088466D01*
X144992471Y-95127100D01*
X144903499Y-95260257D01*
X144790257Y-95373499D01*
X144724130Y-95417683D01*
X144657102Y-95462470D01*
X144509142Y-95523758D01*
X144352075Y-95555000D01*
X144191925Y-95555000D01*
X144034858Y-95523758D01*
X143886898Y-95462470D01*
X143819870Y-95417683D01*
X143753743Y-95373499D01*
X143640501Y-95260257D01*
X143551529Y-95127100D01*
X143535526Y-95088466D01*
X143490242Y-94979142D01*
X143459000Y-94822075D01*
X143459000Y-94661925D01*
X143490242Y-94504858D01*
X143551530Y-94356898D01*
X143596317Y-94289870D01*
X143640501Y-94223743D01*
X143753743Y-94110501D01*
X143819870Y-94066317D01*
X143886898Y-94021530D01*
X144034858Y-93960242D01*
X144191925Y-93929000D01*
X144352075Y-93929000D01*
X144509142Y-93960242D01*
X144509142Y-93960242D01*
G37*
G36*
X181466442Y-92831518D02*
X181532627Y-92838037D01*
X181645853Y-92872384D01*
X181702467Y-92889557D01*
X181824485Y-92954778D01*
X181858991Y-92973222D01*
X181871829Y-92983758D01*
X181996186Y-93085814D01*
X182079448Y-93187271D01*
X182108778Y-93223009D01*
X182108779Y-93223011D01*
X182192443Y-93379533D01*
X182192443Y-93379534D01*
X182243963Y-93549373D01*
X182261359Y-93726000D01*
X182243963Y-93902627D01*
X182226485Y-93960243D01*
X182192443Y-94072467D01*
X182118348Y-94211087D01*
X182108778Y-94228991D01*
X182079448Y-94264729D01*
X181996186Y-94366186D01*
X181894729Y-94449448D01*
X181858991Y-94478778D01*
X181858989Y-94478779D01*
X181702467Y-94562443D01*
X181645853Y-94579616D01*
X181532627Y-94613963D01*
X181466443Y-94620481D01*
X181400260Y-94627000D01*
X181311740Y-94627000D01*
X181245557Y-94620481D01*
X181179373Y-94613963D01*
X181066147Y-94579616D01*
X181009533Y-94562443D01*
X180853011Y-94478779D01*
X180853009Y-94478778D01*
X180817271Y-94449448D01*
X180715814Y-94366186D01*
X180632552Y-94264729D01*
X180603222Y-94228991D01*
X180593652Y-94211087D01*
X180519557Y-94072467D01*
X180485515Y-93960243D01*
X180468037Y-93902627D01*
X180450641Y-93726000D01*
X180468037Y-93549373D01*
X180519557Y-93379534D01*
X180519557Y-93379533D01*
X180603221Y-93223011D01*
X180603222Y-93223009D01*
X180632552Y-93187271D01*
X180715814Y-93085814D01*
X180840171Y-92983758D01*
X180853009Y-92973222D01*
X180887515Y-92954778D01*
X181009533Y-92889557D01*
X181066147Y-92872384D01*
X181179373Y-92838037D01*
X181245558Y-92831518D01*
X181311740Y-92825000D01*
X181400260Y-92825000D01*
X181466442Y-92831518D01*
X181466442Y-92831518D01*
G37*
G36*
X184006442Y-92831518D02*
X184072627Y-92838037D01*
X184185853Y-92872384D01*
X184242467Y-92889557D01*
X184364485Y-92954778D01*
X184398991Y-92973222D01*
X184411829Y-92983758D01*
X184536186Y-93085814D01*
X184619448Y-93187271D01*
X184648778Y-93223009D01*
X184648779Y-93223011D01*
X184732443Y-93379533D01*
X184732443Y-93379534D01*
X184783963Y-93549373D01*
X184801359Y-93726000D01*
X184783963Y-93902627D01*
X184766485Y-93960243D01*
X184732443Y-94072467D01*
X184658348Y-94211087D01*
X184648778Y-94228991D01*
X184619448Y-94264729D01*
X184536186Y-94366186D01*
X184434729Y-94449448D01*
X184398991Y-94478778D01*
X184398989Y-94478779D01*
X184242467Y-94562443D01*
X184185853Y-94579616D01*
X184072627Y-94613963D01*
X184006443Y-94620481D01*
X183940260Y-94627000D01*
X183851740Y-94627000D01*
X183785557Y-94620481D01*
X183719373Y-94613963D01*
X183606147Y-94579616D01*
X183549533Y-94562443D01*
X183393011Y-94478779D01*
X183393009Y-94478778D01*
X183357271Y-94449448D01*
X183255814Y-94366186D01*
X183172552Y-94264729D01*
X183143222Y-94228991D01*
X183133652Y-94211087D01*
X183059557Y-94072467D01*
X183025515Y-93960243D01*
X183008037Y-93902627D01*
X182990641Y-93726000D01*
X183008037Y-93549373D01*
X183059557Y-93379534D01*
X183059557Y-93379533D01*
X183143221Y-93223011D01*
X183143222Y-93223009D01*
X183172552Y-93187271D01*
X183255814Y-93085814D01*
X183380171Y-92983758D01*
X183393009Y-92973222D01*
X183427515Y-92954778D01*
X183549533Y-92889557D01*
X183606147Y-92872384D01*
X183719373Y-92838037D01*
X183785558Y-92831518D01*
X183851740Y-92825000D01*
X183940260Y-92825000D01*
X184006442Y-92831518D01*
X184006442Y-92831518D01*
G37*
G36*
X179717000Y-94627000D02*
X177915000Y-94627000D01*
X177915000Y-92825000D01*
X179717000Y-92825000D01*
X179717000Y-94627000D01*
X179717000Y-94627000D01*
G37*
G36*
X175370443Y-91307519D02*
X175436627Y-91314037D01*
X175549853Y-91348384D01*
X175606467Y-91365557D01*
X175708774Y-91420242D01*
X175762991Y-91449222D01*
X175798729Y-91478552D01*
X175900186Y-91561814D01*
X175983448Y-91663271D01*
X176012778Y-91699009D01*
X176012779Y-91699011D01*
X176096443Y-91855533D01*
X176096443Y-91855534D01*
X176147963Y-92025373D01*
X176165359Y-92202000D01*
X176147963Y-92378627D01*
X176114068Y-92490363D01*
X176096443Y-92548467D01*
X176066019Y-92605385D01*
X176012778Y-92704991D01*
X175996357Y-92725000D01*
X175900186Y-92842186D01*
X175802358Y-92922470D01*
X175762991Y-92954778D01*
X175762989Y-92954779D01*
X175606467Y-93038443D01*
X175549853Y-93055616D01*
X175436627Y-93089963D01*
X175370443Y-93096481D01*
X175304260Y-93103000D01*
X175215740Y-93103000D01*
X175149557Y-93096481D01*
X175083373Y-93089963D01*
X174970147Y-93055616D01*
X174913533Y-93038443D01*
X174757011Y-92954779D01*
X174757009Y-92954778D01*
X174717642Y-92922470D01*
X174619814Y-92842186D01*
X174523643Y-92725000D01*
X174507222Y-92704991D01*
X174453981Y-92605385D01*
X174423557Y-92548467D01*
X174405932Y-92490363D01*
X174372037Y-92378627D01*
X174354641Y-92202000D01*
X174372037Y-92025373D01*
X174423557Y-91855534D01*
X174423557Y-91855533D01*
X174507221Y-91699011D01*
X174507222Y-91699009D01*
X174536552Y-91663271D01*
X174619814Y-91561814D01*
X174721271Y-91478552D01*
X174757009Y-91449222D01*
X174811226Y-91420242D01*
X174913533Y-91365557D01*
X174970147Y-91348384D01*
X175083373Y-91314037D01*
X175149557Y-91307519D01*
X175215740Y-91301000D01*
X175304260Y-91301000D01*
X175370443Y-91307519D01*
X175370443Y-91307519D01*
G37*
G36*
X141334443Y-91307519D02*
X141400627Y-91314037D01*
X141513853Y-91348384D01*
X141570467Y-91365557D01*
X141672774Y-91420242D01*
X141726991Y-91449222D01*
X141762729Y-91478552D01*
X141864186Y-91561814D01*
X141947448Y-91663271D01*
X141976778Y-91699009D01*
X141976779Y-91699011D01*
X142060443Y-91855533D01*
X142060443Y-91855534D01*
X142111963Y-92025373D01*
X142129359Y-92202000D01*
X142111963Y-92378627D01*
X142078068Y-92490363D01*
X142060443Y-92548467D01*
X142030019Y-92605385D01*
X141976778Y-92704991D01*
X141960357Y-92725000D01*
X141864186Y-92842186D01*
X141766358Y-92922470D01*
X141726991Y-92954778D01*
X141726989Y-92954779D01*
X141570467Y-93038443D01*
X141513853Y-93055616D01*
X141400627Y-93089963D01*
X141334443Y-93096481D01*
X141268260Y-93103000D01*
X141179740Y-93103000D01*
X141113557Y-93096481D01*
X141047373Y-93089963D01*
X140934147Y-93055616D01*
X140877533Y-93038443D01*
X140721011Y-92954779D01*
X140721009Y-92954778D01*
X140681642Y-92922470D01*
X140583814Y-92842186D01*
X140487643Y-92725000D01*
X140471222Y-92704991D01*
X140417981Y-92605385D01*
X140387557Y-92548467D01*
X140369932Y-92490363D01*
X140336037Y-92378627D01*
X140318641Y-92202000D01*
X140336037Y-92025373D01*
X140387557Y-91855534D01*
X140387557Y-91855533D01*
X140471221Y-91699011D01*
X140471222Y-91699009D01*
X140500552Y-91663271D01*
X140583814Y-91561814D01*
X140685271Y-91478552D01*
X140721009Y-91449222D01*
X140775226Y-91420242D01*
X140877533Y-91365557D01*
X140934147Y-91348384D01*
X141047373Y-91314037D01*
X141113557Y-91307519D01*
X141179740Y-91301000D01*
X141268260Y-91301000D01*
X141334443Y-91307519D01*
X141334443Y-91307519D01*
G37*
G36*
X144509142Y-91420242D02*
X144657102Y-91481530D01*
X144724130Y-91526317D01*
X144790257Y-91570501D01*
X144903499Y-91683743D01*
X144947683Y-91749870D01*
X144992470Y-91816898D01*
X145053758Y-91964858D01*
X145085000Y-92121925D01*
X145085000Y-92282075D01*
X145053758Y-92439142D01*
X144992470Y-92587102D01*
X144947683Y-92654130D01*
X144903499Y-92720257D01*
X144790257Y-92833499D01*
X144724130Y-92877683D01*
X144657102Y-92922470D01*
X144509142Y-92983758D01*
X144352075Y-93015000D01*
X144191925Y-93015000D01*
X144034858Y-92983758D01*
X143886898Y-92922470D01*
X143819870Y-92877683D01*
X143753743Y-92833499D01*
X143640501Y-92720257D01*
X143596317Y-92654130D01*
X143551530Y-92587102D01*
X143490242Y-92439142D01*
X143459000Y-92282075D01*
X143459000Y-92121925D01*
X143490242Y-91964858D01*
X143551530Y-91816898D01*
X143596317Y-91749870D01*
X143640501Y-91683743D01*
X143753743Y-91570501D01*
X143819870Y-91526317D01*
X143886898Y-91481530D01*
X144034858Y-91420242D01*
X144191925Y-91389000D01*
X144352075Y-91389000D01*
X144509142Y-91420242D01*
X144509142Y-91420242D01*
G37*
G36*
X172449142Y-91420242D02*
X172597102Y-91481530D01*
X172664130Y-91526317D01*
X172730257Y-91570501D01*
X172843499Y-91683743D01*
X172887683Y-91749870D01*
X172932470Y-91816898D01*
X172993758Y-91964858D01*
X173025000Y-92121925D01*
X173025000Y-92282075D01*
X172993758Y-92439142D01*
X172932470Y-92587102D01*
X172887683Y-92654130D01*
X172843499Y-92720257D01*
X172730257Y-92833499D01*
X172664130Y-92877683D01*
X172597102Y-92922470D01*
X172449142Y-92983758D01*
X172292075Y-93015000D01*
X172131925Y-93015000D01*
X171974858Y-92983758D01*
X171826898Y-92922470D01*
X171759870Y-92877683D01*
X171693743Y-92833499D01*
X171580501Y-92720257D01*
X171536317Y-92654130D01*
X171491530Y-92587102D01*
X171430242Y-92439142D01*
X171399000Y-92282075D01*
X171399000Y-92121925D01*
X171430242Y-91964858D01*
X171491530Y-91816898D01*
X171536317Y-91749870D01*
X171580501Y-91683743D01*
X171693743Y-91570501D01*
X171759870Y-91526317D01*
X171826898Y-91481530D01*
X171974858Y-91420242D01*
X172131925Y-91389000D01*
X172292075Y-91389000D01*
X172449142Y-91420242D01*
X172449142Y-91420242D01*
G37*
G36*
X159056565Y-90663389D02*
X159247834Y-90742615D01*
X159419976Y-90857637D01*
X159566363Y-91004024D01*
X159681385Y-91176166D01*
X159760611Y-91367435D01*
X159801000Y-91570484D01*
X159801000Y-91777516D01*
X159760611Y-91980565D01*
X159681385Y-92171834D01*
X159566363Y-92343976D01*
X159419976Y-92490363D01*
X159247834Y-92605385D01*
X159056565Y-92684611D01*
X158853516Y-92725000D01*
X158646484Y-92725000D01*
X158443435Y-92684611D01*
X158252166Y-92605385D01*
X158080024Y-92490363D01*
X157933637Y-92343976D01*
X157818615Y-92171834D01*
X157739389Y-91980565D01*
X157699000Y-91777516D01*
X157699000Y-91570484D01*
X157739389Y-91367435D01*
X157818615Y-91176166D01*
X157933637Y-91004024D01*
X158080024Y-90857637D01*
X158252166Y-90742615D01*
X158443435Y-90663389D01*
X158646484Y-90623000D01*
X158853516Y-90623000D01*
X159056565Y-90663389D01*
X159056565Y-90663389D01*
G37*
G36*
X175370442Y-88767518D02*
X175436627Y-88774037D01*
X175549853Y-88808384D01*
X175606467Y-88825557D01*
X175708774Y-88880242D01*
X175762991Y-88909222D01*
X175798729Y-88938552D01*
X175900186Y-89021814D01*
X175983448Y-89123271D01*
X176012778Y-89159009D01*
X176012779Y-89159011D01*
X176096443Y-89315533D01*
X176096443Y-89315534D01*
X176147963Y-89485373D01*
X176165359Y-89662000D01*
X176147963Y-89838627D01*
X176113616Y-89951853D01*
X176096443Y-90008467D01*
X176022348Y-90147087D01*
X176012778Y-90164991D01*
X175983448Y-90200729D01*
X175900186Y-90302186D01*
X175802358Y-90382470D01*
X175762991Y-90414778D01*
X175762989Y-90414779D01*
X175606467Y-90498443D01*
X175549853Y-90515616D01*
X175436627Y-90549963D01*
X175370442Y-90556482D01*
X175304260Y-90563000D01*
X175215740Y-90563000D01*
X175149558Y-90556482D01*
X175083373Y-90549963D01*
X174970147Y-90515616D01*
X174913533Y-90498443D01*
X174757011Y-90414779D01*
X174757009Y-90414778D01*
X174717642Y-90382470D01*
X174619814Y-90302186D01*
X174536552Y-90200729D01*
X174507222Y-90164991D01*
X174497652Y-90147087D01*
X174423557Y-90008467D01*
X174406384Y-89951853D01*
X174372037Y-89838627D01*
X174354641Y-89662000D01*
X174372037Y-89485373D01*
X174423557Y-89315534D01*
X174423557Y-89315533D01*
X174507221Y-89159011D01*
X174507222Y-89159009D01*
X174536552Y-89123271D01*
X174619814Y-89021814D01*
X174721271Y-88938552D01*
X174757009Y-88909222D01*
X174811226Y-88880242D01*
X174913533Y-88825557D01*
X174970147Y-88808384D01*
X175083373Y-88774037D01*
X175149558Y-88767518D01*
X175215740Y-88761000D01*
X175304260Y-88761000D01*
X175370442Y-88767518D01*
X175370442Y-88767518D01*
G37*
G36*
X141334442Y-88767518D02*
X141400627Y-88774037D01*
X141513853Y-88808384D01*
X141570467Y-88825557D01*
X141672774Y-88880242D01*
X141726991Y-88909222D01*
X141762729Y-88938552D01*
X141864186Y-89021814D01*
X141947448Y-89123271D01*
X141976778Y-89159009D01*
X141976779Y-89159011D01*
X142060443Y-89315533D01*
X142060443Y-89315534D01*
X142111963Y-89485373D01*
X142129359Y-89662000D01*
X142111963Y-89838627D01*
X142077616Y-89951853D01*
X142060443Y-90008467D01*
X141986348Y-90147087D01*
X141976778Y-90164991D01*
X141947448Y-90200729D01*
X141864186Y-90302186D01*
X141766358Y-90382470D01*
X141726991Y-90414778D01*
X141726989Y-90414779D01*
X141570467Y-90498443D01*
X141513853Y-90515616D01*
X141400627Y-90549963D01*
X141334442Y-90556482D01*
X141268260Y-90563000D01*
X141179740Y-90563000D01*
X141113558Y-90556482D01*
X141047373Y-90549963D01*
X140934147Y-90515616D01*
X140877533Y-90498443D01*
X140721011Y-90414779D01*
X140721009Y-90414778D01*
X140681642Y-90382470D01*
X140583814Y-90302186D01*
X140500552Y-90200729D01*
X140471222Y-90164991D01*
X140461652Y-90147087D01*
X140387557Y-90008467D01*
X140370384Y-89951853D01*
X140336037Y-89838627D01*
X140318641Y-89662000D01*
X140336037Y-89485373D01*
X140387557Y-89315534D01*
X140387557Y-89315533D01*
X140471221Y-89159011D01*
X140471222Y-89159009D01*
X140500552Y-89123271D01*
X140583814Y-89021814D01*
X140685271Y-88938552D01*
X140721009Y-88909222D01*
X140775226Y-88880242D01*
X140877533Y-88825557D01*
X140934147Y-88808384D01*
X141047373Y-88774037D01*
X141113558Y-88767518D01*
X141179740Y-88761000D01*
X141268260Y-88761000D01*
X141334442Y-88767518D01*
X141334442Y-88767518D01*
G37*
G36*
X172449142Y-88880242D02*
X172597102Y-88941530D01*
X172664130Y-88986317D01*
X172730257Y-89030501D01*
X172843499Y-89143743D01*
X172887683Y-89209870D01*
X172932470Y-89276898D01*
X172993758Y-89424858D01*
X173025000Y-89581925D01*
X173025000Y-89742075D01*
X172993758Y-89899142D01*
X172948474Y-90008466D01*
X172932471Y-90047100D01*
X172843499Y-90180257D01*
X172730257Y-90293499D01*
X172664130Y-90337683D01*
X172597102Y-90382470D01*
X172449142Y-90443758D01*
X172292075Y-90475000D01*
X172131925Y-90475000D01*
X171974858Y-90443758D01*
X171826898Y-90382470D01*
X171759870Y-90337683D01*
X171693743Y-90293499D01*
X171580501Y-90180257D01*
X171491529Y-90047100D01*
X171475526Y-90008466D01*
X171430242Y-89899142D01*
X171399000Y-89742075D01*
X171399000Y-89581925D01*
X171430242Y-89424858D01*
X171491530Y-89276898D01*
X171536317Y-89209870D01*
X171580501Y-89143743D01*
X171693743Y-89030501D01*
X171759870Y-88986317D01*
X171826898Y-88941530D01*
X171974858Y-88880242D01*
X172131925Y-88849000D01*
X172292075Y-88849000D01*
X172449142Y-88880242D01*
X172449142Y-88880242D01*
G37*
G36*
X144509142Y-88880242D02*
X144657102Y-88941530D01*
X144724130Y-88986317D01*
X144790257Y-89030501D01*
X144903499Y-89143743D01*
X144947683Y-89209870D01*
X144992470Y-89276898D01*
X145053758Y-89424858D01*
X145085000Y-89581925D01*
X145085000Y-89742075D01*
X145053758Y-89899142D01*
X145008474Y-90008466D01*
X144992471Y-90047100D01*
X144903499Y-90180257D01*
X144790257Y-90293499D01*
X144724130Y-90337683D01*
X144657102Y-90382470D01*
X144509142Y-90443758D01*
X144352075Y-90475000D01*
X144191925Y-90475000D01*
X144034858Y-90443758D01*
X143886898Y-90382470D01*
X143819870Y-90337683D01*
X143753743Y-90293499D01*
X143640501Y-90180257D01*
X143551529Y-90047100D01*
X143535526Y-90008466D01*
X143490242Y-89899142D01*
X143459000Y-89742075D01*
X143459000Y-89581925D01*
X143490242Y-89424858D01*
X143551530Y-89276898D01*
X143596317Y-89209870D01*
X143640501Y-89143743D01*
X143753743Y-89030501D01*
X143819870Y-88986317D01*
X143886898Y-88941530D01*
X144034858Y-88880242D01*
X144191925Y-88849000D01*
X144352075Y-88849000D01*
X144509142Y-88880242D01*
X144509142Y-88880242D01*
G37*
G36*
X183677000Y-88633500D02*
X181575000Y-88633500D01*
X181575000Y-86626500D01*
X183677000Y-86626500D01*
X183677000Y-88633500D01*
X183677000Y-88633500D01*
G37*
G36*
X175370443Y-86227519D02*
X175436627Y-86234037D01*
X175549853Y-86268384D01*
X175606467Y-86285557D01*
X175708774Y-86340242D01*
X175762991Y-86369222D01*
X175798729Y-86398552D01*
X175900186Y-86481814D01*
X175983448Y-86583271D01*
X176012778Y-86619009D01*
X176012779Y-86619011D01*
X176096443Y-86775533D01*
X176096443Y-86775534D01*
X176147963Y-86945373D01*
X176165359Y-87122000D01*
X176147963Y-87298627D01*
X176113616Y-87411853D01*
X176096443Y-87468467D01*
X176022348Y-87607087D01*
X176012778Y-87624991D01*
X175983448Y-87660729D01*
X175900186Y-87762186D01*
X175802358Y-87842470D01*
X175762991Y-87874778D01*
X175762989Y-87874779D01*
X175606467Y-87958443D01*
X175549853Y-87975616D01*
X175436627Y-88009963D01*
X175370443Y-88016481D01*
X175304260Y-88023000D01*
X175215740Y-88023000D01*
X175149557Y-88016481D01*
X175083373Y-88009963D01*
X174970147Y-87975616D01*
X174913533Y-87958443D01*
X174757011Y-87874779D01*
X174757009Y-87874778D01*
X174717642Y-87842470D01*
X174619814Y-87762186D01*
X174536552Y-87660729D01*
X174507222Y-87624991D01*
X174497652Y-87607087D01*
X174423557Y-87468467D01*
X174406384Y-87411853D01*
X174372037Y-87298627D01*
X174354641Y-87122000D01*
X174372037Y-86945373D01*
X174423557Y-86775534D01*
X174423557Y-86775533D01*
X174507221Y-86619011D01*
X174507222Y-86619009D01*
X174536552Y-86583271D01*
X174619814Y-86481814D01*
X174721271Y-86398552D01*
X174757009Y-86369222D01*
X174811226Y-86340242D01*
X174913533Y-86285557D01*
X174970147Y-86268384D01*
X175083373Y-86234037D01*
X175149557Y-86227519D01*
X175215740Y-86221000D01*
X175304260Y-86221000D01*
X175370443Y-86227519D01*
X175370443Y-86227519D01*
G37*
G36*
X141334443Y-86227519D02*
X141400627Y-86234037D01*
X141513853Y-86268384D01*
X141570467Y-86285557D01*
X141672774Y-86340242D01*
X141726991Y-86369222D01*
X141762729Y-86398552D01*
X141864186Y-86481814D01*
X141947448Y-86583271D01*
X141976778Y-86619009D01*
X141976779Y-86619011D01*
X142060443Y-86775533D01*
X142060443Y-86775534D01*
X142111963Y-86945373D01*
X142129359Y-87122000D01*
X142111963Y-87298627D01*
X142077616Y-87411853D01*
X142060443Y-87468467D01*
X141986348Y-87607087D01*
X141976778Y-87624991D01*
X141947448Y-87660729D01*
X141864186Y-87762186D01*
X141766358Y-87842470D01*
X141726991Y-87874778D01*
X141726989Y-87874779D01*
X141570467Y-87958443D01*
X141513853Y-87975616D01*
X141400627Y-88009963D01*
X141334443Y-88016481D01*
X141268260Y-88023000D01*
X141179740Y-88023000D01*
X141113557Y-88016481D01*
X141047373Y-88009963D01*
X140934147Y-87975616D01*
X140877533Y-87958443D01*
X140721011Y-87874779D01*
X140721009Y-87874778D01*
X140681642Y-87842470D01*
X140583814Y-87762186D01*
X140500552Y-87660729D01*
X140471222Y-87624991D01*
X140461652Y-87607087D01*
X140387557Y-87468467D01*
X140370384Y-87411853D01*
X140336037Y-87298627D01*
X140318641Y-87122000D01*
X140336037Y-86945373D01*
X140387557Y-86775534D01*
X140387557Y-86775533D01*
X140471221Y-86619011D01*
X140471222Y-86619009D01*
X140500552Y-86583271D01*
X140583814Y-86481814D01*
X140685271Y-86398552D01*
X140721009Y-86369222D01*
X140775226Y-86340242D01*
X140877533Y-86285557D01*
X140934147Y-86268384D01*
X141047373Y-86234037D01*
X141113557Y-86227519D01*
X141179740Y-86221000D01*
X141268260Y-86221000D01*
X141334443Y-86227519D01*
X141334443Y-86227519D01*
G37*
G36*
X144509142Y-86340242D02*
X144657102Y-86401530D01*
X144724130Y-86446317D01*
X144790257Y-86490501D01*
X144903499Y-86603743D01*
X144947683Y-86669870D01*
X144992470Y-86736898D01*
X145053758Y-86884858D01*
X145085000Y-87041925D01*
X145085000Y-87202075D01*
X145053758Y-87359142D01*
X145008474Y-87468466D01*
X144992471Y-87507100D01*
X144903499Y-87640257D01*
X144790257Y-87753499D01*
X144724130Y-87797683D01*
X144657102Y-87842470D01*
X144509142Y-87903758D01*
X144352075Y-87935000D01*
X144191925Y-87935000D01*
X144034858Y-87903758D01*
X143886898Y-87842470D01*
X143819870Y-87797683D01*
X143753743Y-87753499D01*
X143640501Y-87640257D01*
X143551529Y-87507100D01*
X143535526Y-87468466D01*
X143490242Y-87359142D01*
X143459000Y-87202075D01*
X143459000Y-87041925D01*
X143490242Y-86884858D01*
X143551530Y-86736898D01*
X143596317Y-86669870D01*
X143640501Y-86603743D01*
X143753743Y-86490501D01*
X143819870Y-86446317D01*
X143886898Y-86401530D01*
X144034858Y-86340242D01*
X144191925Y-86309000D01*
X144352075Y-86309000D01*
X144509142Y-86340242D01*
X144509142Y-86340242D01*
G37*
G36*
X172449142Y-86340242D02*
X172597102Y-86401530D01*
X172664130Y-86446317D01*
X172730257Y-86490501D01*
X172843499Y-86603743D01*
X172887683Y-86669870D01*
X172932470Y-86736898D01*
X172993758Y-86884858D01*
X173025000Y-87041925D01*
X173025000Y-87202075D01*
X172993758Y-87359142D01*
X172948474Y-87468466D01*
X172932471Y-87507100D01*
X172843499Y-87640257D01*
X172730257Y-87753499D01*
X172664130Y-87797683D01*
X172597102Y-87842470D01*
X172449142Y-87903758D01*
X172292075Y-87935000D01*
X172131925Y-87935000D01*
X171974858Y-87903758D01*
X171826898Y-87842470D01*
X171759870Y-87797683D01*
X171693743Y-87753499D01*
X171580501Y-87640257D01*
X171491529Y-87507100D01*
X171475526Y-87468466D01*
X171430242Y-87359142D01*
X171399000Y-87202075D01*
X171399000Y-87041925D01*
X171430242Y-86884858D01*
X171491530Y-86736898D01*
X171536317Y-86669870D01*
X171580501Y-86603743D01*
X171693743Y-86490501D01*
X171759870Y-86446317D01*
X171826898Y-86401530D01*
X171974858Y-86340242D01*
X172131925Y-86309000D01*
X172292075Y-86309000D01*
X172449142Y-86340242D01*
X172449142Y-86340242D01*
G37*
G36*
X182781764Y-84092308D02*
X182870220Y-84101020D01*
X183059381Y-84158401D01*
X183233712Y-84251583D01*
X183386515Y-84376985D01*
X183511917Y-84529788D01*
X183605099Y-84704119D01*
X183662480Y-84893280D01*
X183681855Y-85090000D01*
X183662480Y-85286720D01*
X183605099Y-85475881D01*
X183511917Y-85650212D01*
X183386515Y-85803015D01*
X183233712Y-85928417D01*
X183059381Y-86021599D01*
X182870220Y-86078980D01*
X182781764Y-86087692D01*
X182722796Y-86093500D01*
X182529204Y-86093500D01*
X182470236Y-86087692D01*
X182381780Y-86078980D01*
X182192619Y-86021599D01*
X182018288Y-85928417D01*
X181865485Y-85803015D01*
X181740083Y-85650212D01*
X181646901Y-85475881D01*
X181589520Y-85286720D01*
X181570145Y-85090000D01*
X181589520Y-84893280D01*
X181646901Y-84704119D01*
X181740083Y-84529788D01*
X181865485Y-84376985D01*
X182018288Y-84251583D01*
X182192619Y-84158401D01*
X182381780Y-84101020D01*
X182470236Y-84092308D01*
X182529204Y-84086500D01*
X182722796Y-84086500D01*
X182781764Y-84092308D01*
X182781764Y-84092308D01*
G37*
G36*
X141334443Y-83687519D02*
X141400627Y-83694037D01*
X141513853Y-83728384D01*
X141570467Y-83745557D01*
X141672774Y-83800242D01*
X141726991Y-83829222D01*
X141762729Y-83858552D01*
X141864186Y-83941814D01*
X141947448Y-84043271D01*
X141976778Y-84079009D01*
X141976779Y-84079011D01*
X142060443Y-84235533D01*
X142077616Y-84292147D01*
X142111963Y-84405373D01*
X142129359Y-84582000D01*
X142111963Y-84758627D01*
X142077616Y-84871853D01*
X142060443Y-84928467D01*
X141986348Y-85067087D01*
X141976778Y-85084991D01*
X141947448Y-85120729D01*
X141864186Y-85222186D01*
X141766358Y-85302470D01*
X141726991Y-85334778D01*
X141726989Y-85334779D01*
X141570467Y-85418443D01*
X141513853Y-85435616D01*
X141400627Y-85469963D01*
X141340519Y-85475883D01*
X141268260Y-85483000D01*
X141179740Y-85483000D01*
X141107481Y-85475883D01*
X141047373Y-85469963D01*
X140934147Y-85435616D01*
X140877533Y-85418443D01*
X140721011Y-85334779D01*
X140721009Y-85334778D01*
X140681642Y-85302470D01*
X140583814Y-85222186D01*
X140500552Y-85120729D01*
X140471222Y-85084991D01*
X140461652Y-85067087D01*
X140387557Y-84928467D01*
X140370384Y-84871853D01*
X140336037Y-84758627D01*
X140318641Y-84582000D01*
X140336037Y-84405373D01*
X140370384Y-84292147D01*
X140387557Y-84235533D01*
X140471221Y-84079011D01*
X140471222Y-84079009D01*
X140500552Y-84043271D01*
X140583814Y-83941814D01*
X140685271Y-83858552D01*
X140721009Y-83829222D01*
X140775226Y-83800242D01*
X140877533Y-83745557D01*
X140934147Y-83728384D01*
X141047373Y-83694037D01*
X141113557Y-83687519D01*
X141179740Y-83681000D01*
X141268260Y-83681000D01*
X141334443Y-83687519D01*
X141334443Y-83687519D01*
G37*
G36*
X175370443Y-83687519D02*
X175436627Y-83694037D01*
X175549853Y-83728384D01*
X175606467Y-83745557D01*
X175708774Y-83800242D01*
X175762991Y-83829222D01*
X175798729Y-83858552D01*
X175900186Y-83941814D01*
X175983448Y-84043271D01*
X176012778Y-84079009D01*
X176012779Y-84079011D01*
X176096443Y-84235533D01*
X176113616Y-84292147D01*
X176147963Y-84405373D01*
X176165359Y-84582000D01*
X176147963Y-84758627D01*
X176113616Y-84871853D01*
X176096443Y-84928467D01*
X176022348Y-85067087D01*
X176012778Y-85084991D01*
X175983448Y-85120729D01*
X175900186Y-85222186D01*
X175802358Y-85302470D01*
X175762991Y-85334778D01*
X175762989Y-85334779D01*
X175606467Y-85418443D01*
X175549853Y-85435616D01*
X175436627Y-85469963D01*
X175376519Y-85475883D01*
X175304260Y-85483000D01*
X175215740Y-85483000D01*
X175143481Y-85475883D01*
X175083373Y-85469963D01*
X174970147Y-85435616D01*
X174913533Y-85418443D01*
X174757011Y-85334779D01*
X174757009Y-85334778D01*
X174717642Y-85302470D01*
X174619814Y-85222186D01*
X174536552Y-85120729D01*
X174507222Y-85084991D01*
X174497652Y-85067087D01*
X174423557Y-84928467D01*
X174406384Y-84871853D01*
X174372037Y-84758627D01*
X174354641Y-84582000D01*
X174372037Y-84405373D01*
X174406384Y-84292147D01*
X174423557Y-84235533D01*
X174507221Y-84079011D01*
X174507222Y-84079009D01*
X174536552Y-84043271D01*
X174619814Y-83941814D01*
X174721271Y-83858552D01*
X174757009Y-83829222D01*
X174811226Y-83800242D01*
X174913533Y-83745557D01*
X174970147Y-83728384D01*
X175083373Y-83694037D01*
X175149557Y-83687519D01*
X175215740Y-83681000D01*
X175304260Y-83681000D01*
X175370443Y-83687519D01*
X175370443Y-83687519D01*
G37*
G36*
X144509142Y-83800242D02*
X144657102Y-83861530D01*
X144724130Y-83906317D01*
X144790257Y-83950501D01*
X144903499Y-84063743D01*
X144947683Y-84129870D01*
X144992470Y-84196898D01*
X145053758Y-84344858D01*
X145085000Y-84501925D01*
X145085000Y-84662075D01*
X145053758Y-84819142D01*
X145023047Y-84893283D01*
X144992471Y-84967100D01*
X144903499Y-85100257D01*
X144790257Y-85213499D01*
X144724130Y-85257683D01*
X144657102Y-85302470D01*
X144509142Y-85363758D01*
X144352075Y-85395000D01*
X144191925Y-85395000D01*
X144034858Y-85363758D01*
X143886898Y-85302470D01*
X143819870Y-85257683D01*
X143753743Y-85213499D01*
X143640501Y-85100257D01*
X143551529Y-84967100D01*
X143520953Y-84893283D01*
X143490242Y-84819142D01*
X143459000Y-84662075D01*
X143459000Y-84501925D01*
X143490242Y-84344858D01*
X143551530Y-84196898D01*
X143596317Y-84129870D01*
X143640501Y-84063743D01*
X143753743Y-83950501D01*
X143819870Y-83906317D01*
X143886898Y-83861530D01*
X144034858Y-83800242D01*
X144191925Y-83769000D01*
X144352075Y-83769000D01*
X144509142Y-83800242D01*
X144509142Y-83800242D01*
G37*
G36*
X172449142Y-83800242D02*
X172597102Y-83861530D01*
X172664130Y-83906317D01*
X172730257Y-83950501D01*
X172843499Y-84063743D01*
X172887683Y-84129870D01*
X172932470Y-84196898D01*
X172993758Y-84344858D01*
X173025000Y-84501925D01*
X173025000Y-84662075D01*
X172993758Y-84819142D01*
X172963047Y-84893283D01*
X172932471Y-84967100D01*
X172843499Y-85100257D01*
X172730257Y-85213499D01*
X172664130Y-85257683D01*
X172597102Y-85302470D01*
X172449142Y-85363758D01*
X172292075Y-85395000D01*
X172131925Y-85395000D01*
X171974858Y-85363758D01*
X171826898Y-85302470D01*
X171759870Y-85257683D01*
X171693743Y-85213499D01*
X171580501Y-85100257D01*
X171491529Y-84967100D01*
X171460953Y-84893283D01*
X171430242Y-84819142D01*
X171399000Y-84662075D01*
X171399000Y-84501925D01*
X171430242Y-84344858D01*
X171491530Y-84196898D01*
X171536317Y-84129870D01*
X171580501Y-84063743D01*
X171693743Y-83950501D01*
X171759870Y-83906317D01*
X171826898Y-83861530D01*
X171974858Y-83800242D01*
X172131925Y-83769000D01*
X172292075Y-83769000D01*
X172449142Y-83800242D01*
X172449142Y-83800242D01*
G37*
G36*
X159801000Y-85125000D02*
X157699000Y-85125000D01*
X157699000Y-83023000D01*
X159801000Y-83023000D01*
X159801000Y-85125000D01*
X159801000Y-85125000D01*
G37*
G36*
X182781764Y-81552308D02*
X182870220Y-81561020D01*
X183059381Y-81618401D01*
X183233712Y-81711583D01*
X183386515Y-81836985D01*
X183511917Y-81989788D01*
X183605099Y-82164119D01*
X183662480Y-82353280D01*
X183681855Y-82550000D01*
X183662480Y-82746720D01*
X183605099Y-82935881D01*
X183511917Y-83110212D01*
X183386515Y-83263015D01*
X183233712Y-83388417D01*
X183059381Y-83481599D01*
X182870220Y-83538980D01*
X182781764Y-83547692D01*
X182722796Y-83553500D01*
X182529204Y-83553500D01*
X182470236Y-83547692D01*
X182381780Y-83538980D01*
X182192619Y-83481599D01*
X182018288Y-83388417D01*
X181865485Y-83263015D01*
X181740083Y-83110212D01*
X181646901Y-82935881D01*
X181589520Y-82746720D01*
X181570145Y-82550000D01*
X181589520Y-82353280D01*
X181646901Y-82164119D01*
X181740083Y-81989788D01*
X181865485Y-81836985D01*
X182018288Y-81711583D01*
X182192619Y-81618401D01*
X182381780Y-81561020D01*
X182470236Y-81552308D01*
X182529204Y-81546500D01*
X182722796Y-81546500D01*
X182781764Y-81552308D01*
X182781764Y-81552308D01*
G37*
G36*
X175370443Y-81147519D02*
X175436627Y-81154037D01*
X175549853Y-81188384D01*
X175606467Y-81205557D01*
X175708774Y-81260242D01*
X175762991Y-81289222D01*
X175798729Y-81318552D01*
X175900186Y-81401814D01*
X175983448Y-81503271D01*
X176012778Y-81539009D01*
X176012779Y-81539011D01*
X176096443Y-81695533D01*
X176113616Y-81752147D01*
X176147963Y-81865373D01*
X176165359Y-82042000D01*
X176147963Y-82218627D01*
X176113616Y-82331853D01*
X176096443Y-82388467D01*
X176022348Y-82527087D01*
X176012778Y-82544991D01*
X175983448Y-82580729D01*
X175900186Y-82682186D01*
X175802358Y-82762470D01*
X175762991Y-82794778D01*
X175762989Y-82794779D01*
X175606467Y-82878443D01*
X175549853Y-82895616D01*
X175436627Y-82929963D01*
X175376519Y-82935883D01*
X175304260Y-82943000D01*
X175215740Y-82943000D01*
X175143481Y-82935883D01*
X175083373Y-82929963D01*
X174970147Y-82895616D01*
X174913533Y-82878443D01*
X174757011Y-82794779D01*
X174757009Y-82794778D01*
X174717642Y-82762470D01*
X174619814Y-82682186D01*
X174536552Y-82580729D01*
X174507222Y-82544991D01*
X174497652Y-82527087D01*
X174423557Y-82388467D01*
X174406384Y-82331853D01*
X174372037Y-82218627D01*
X174354641Y-82042000D01*
X174372037Y-81865373D01*
X174406384Y-81752147D01*
X174423557Y-81695533D01*
X174507221Y-81539011D01*
X174507222Y-81539009D01*
X174536552Y-81503271D01*
X174619814Y-81401814D01*
X174721271Y-81318552D01*
X174757009Y-81289222D01*
X174811226Y-81260242D01*
X174913533Y-81205557D01*
X174970147Y-81188384D01*
X175083373Y-81154037D01*
X175149557Y-81147519D01*
X175215740Y-81141000D01*
X175304260Y-81141000D01*
X175370443Y-81147519D01*
X175370443Y-81147519D01*
G37*
G36*
X141334443Y-81147519D02*
X141400627Y-81154037D01*
X141513853Y-81188384D01*
X141570467Y-81205557D01*
X141672774Y-81260242D01*
X141726991Y-81289222D01*
X141762729Y-81318552D01*
X141864186Y-81401814D01*
X141947448Y-81503271D01*
X141976778Y-81539009D01*
X141976779Y-81539011D01*
X142060443Y-81695533D01*
X142077616Y-81752147D01*
X142111963Y-81865373D01*
X142129359Y-82042000D01*
X142111963Y-82218627D01*
X142077616Y-82331853D01*
X142060443Y-82388467D01*
X141986348Y-82527087D01*
X141976778Y-82544991D01*
X141947448Y-82580729D01*
X141864186Y-82682186D01*
X141766358Y-82762470D01*
X141726991Y-82794778D01*
X141726989Y-82794779D01*
X141570467Y-82878443D01*
X141513853Y-82895616D01*
X141400627Y-82929963D01*
X141340519Y-82935883D01*
X141268260Y-82943000D01*
X141179740Y-82943000D01*
X141107481Y-82935883D01*
X141047373Y-82929963D01*
X140934147Y-82895616D01*
X140877533Y-82878443D01*
X140721011Y-82794779D01*
X140721009Y-82794778D01*
X140681642Y-82762470D01*
X140583814Y-82682186D01*
X140500552Y-82580729D01*
X140471222Y-82544991D01*
X140461652Y-82527087D01*
X140387557Y-82388467D01*
X140370384Y-82331853D01*
X140336037Y-82218627D01*
X140318641Y-82042000D01*
X140336037Y-81865373D01*
X140370384Y-81752147D01*
X140387557Y-81695533D01*
X140471221Y-81539011D01*
X140471222Y-81539009D01*
X140500552Y-81503271D01*
X140583814Y-81401814D01*
X140685271Y-81318552D01*
X140721009Y-81289222D01*
X140775226Y-81260242D01*
X140877533Y-81205557D01*
X140934147Y-81188384D01*
X141047373Y-81154037D01*
X141113557Y-81147519D01*
X141179740Y-81141000D01*
X141268260Y-81141000D01*
X141334443Y-81147519D01*
X141334443Y-81147519D01*
G37*
G36*
X172449142Y-81260242D02*
X172597102Y-81321530D01*
X172664130Y-81366317D01*
X172730257Y-81410501D01*
X172843499Y-81523743D01*
X172887683Y-81589870D01*
X172932470Y-81656898D01*
X172993758Y-81804858D01*
X173025000Y-81961925D01*
X173025000Y-82122075D01*
X172993758Y-82279142D01*
X172963047Y-82353283D01*
X172932471Y-82427100D01*
X172843499Y-82560257D01*
X172730257Y-82673499D01*
X172664130Y-82717683D01*
X172597102Y-82762470D01*
X172449142Y-82823758D01*
X172292075Y-82855000D01*
X172131925Y-82855000D01*
X171974858Y-82823758D01*
X171826898Y-82762470D01*
X171759870Y-82717683D01*
X171693743Y-82673499D01*
X171580501Y-82560257D01*
X171491529Y-82427100D01*
X171460953Y-82353283D01*
X171430242Y-82279142D01*
X171399000Y-82122075D01*
X171399000Y-81961925D01*
X171430242Y-81804858D01*
X171491530Y-81656898D01*
X171536317Y-81589870D01*
X171580501Y-81523743D01*
X171693743Y-81410501D01*
X171759870Y-81366317D01*
X171826898Y-81321530D01*
X171974858Y-81260242D01*
X172131925Y-81229000D01*
X172292075Y-81229000D01*
X172449142Y-81260242D01*
X172449142Y-81260242D01*
G37*
G36*
X144509142Y-81260242D02*
X144657102Y-81321530D01*
X144724130Y-81366317D01*
X144790257Y-81410501D01*
X144903499Y-81523743D01*
X144947683Y-81589870D01*
X144992470Y-81656898D01*
X145053758Y-81804858D01*
X145085000Y-81961925D01*
X145085000Y-82122075D01*
X145053758Y-82279142D01*
X145023047Y-82353283D01*
X144992471Y-82427100D01*
X144903499Y-82560257D01*
X144790257Y-82673499D01*
X144724130Y-82717683D01*
X144657102Y-82762470D01*
X144509142Y-82823758D01*
X144352075Y-82855000D01*
X144191925Y-82855000D01*
X144034858Y-82823758D01*
X143886898Y-82762470D01*
X143819870Y-82717683D01*
X143753743Y-82673499D01*
X143640501Y-82560257D01*
X143551529Y-82427100D01*
X143520953Y-82353283D01*
X143490242Y-82279142D01*
X143459000Y-82122075D01*
X143459000Y-81961925D01*
X143490242Y-81804858D01*
X143551530Y-81656898D01*
X143596317Y-81589870D01*
X143640501Y-81523743D01*
X143753743Y-81410501D01*
X143819870Y-81366317D01*
X143886898Y-81321530D01*
X144034858Y-81260242D01*
X144191925Y-81229000D01*
X144352075Y-81229000D01*
X144509142Y-81260242D01*
X144509142Y-81260242D01*
G37*
G36*
X141334442Y-78607518D02*
X141400627Y-78614037D01*
X141513853Y-78648384D01*
X141570467Y-78665557D01*
X141672774Y-78720242D01*
X141726991Y-78749222D01*
X141762729Y-78778552D01*
X141864186Y-78861814D01*
X141947448Y-78963271D01*
X141976778Y-78999009D01*
X141976779Y-78999011D01*
X142060443Y-79155533D01*
X142060443Y-79155534D01*
X142111963Y-79325373D01*
X142129359Y-79502000D01*
X142111963Y-79678627D01*
X142077616Y-79791853D01*
X142060443Y-79848467D01*
X141986348Y-79987087D01*
X141976778Y-80004991D01*
X141947448Y-80040729D01*
X141864186Y-80142186D01*
X141766358Y-80222470D01*
X141726991Y-80254778D01*
X141726989Y-80254779D01*
X141570467Y-80338443D01*
X141513853Y-80355616D01*
X141400627Y-80389963D01*
X141334442Y-80396482D01*
X141268260Y-80403000D01*
X141179740Y-80403000D01*
X141113558Y-80396482D01*
X141047373Y-80389963D01*
X140934147Y-80355616D01*
X140877533Y-80338443D01*
X140721011Y-80254779D01*
X140721009Y-80254778D01*
X140681642Y-80222470D01*
X140583814Y-80142186D01*
X140500552Y-80040729D01*
X140471222Y-80004991D01*
X140461652Y-79987087D01*
X140387557Y-79848467D01*
X140370384Y-79791853D01*
X140336037Y-79678627D01*
X140318641Y-79502000D01*
X140336037Y-79325373D01*
X140387557Y-79155534D01*
X140387557Y-79155533D01*
X140471221Y-78999011D01*
X140471222Y-78999009D01*
X140500552Y-78963271D01*
X140583814Y-78861814D01*
X140685271Y-78778552D01*
X140721009Y-78749222D01*
X140775226Y-78720242D01*
X140877533Y-78665557D01*
X140934147Y-78648384D01*
X141047373Y-78614037D01*
X141113558Y-78607518D01*
X141179740Y-78601000D01*
X141268260Y-78601000D01*
X141334442Y-78607518D01*
X141334442Y-78607518D01*
G37*
G36*
X175370442Y-78607518D02*
X175436627Y-78614037D01*
X175549853Y-78648384D01*
X175606467Y-78665557D01*
X175708774Y-78720242D01*
X175762991Y-78749222D01*
X175798729Y-78778552D01*
X175900186Y-78861814D01*
X175983448Y-78963271D01*
X176012778Y-78999009D01*
X176012779Y-78999011D01*
X176096443Y-79155533D01*
X176096443Y-79155534D01*
X176147963Y-79325373D01*
X176165359Y-79502000D01*
X176147963Y-79678627D01*
X176113616Y-79791853D01*
X176096443Y-79848467D01*
X176022348Y-79987087D01*
X176012778Y-80004991D01*
X175983448Y-80040729D01*
X175900186Y-80142186D01*
X175802358Y-80222470D01*
X175762991Y-80254778D01*
X175762989Y-80254779D01*
X175606467Y-80338443D01*
X175549853Y-80355616D01*
X175436627Y-80389963D01*
X175370442Y-80396482D01*
X175304260Y-80403000D01*
X175215740Y-80403000D01*
X175149558Y-80396482D01*
X175083373Y-80389963D01*
X174970147Y-80355616D01*
X174913533Y-80338443D01*
X174757011Y-80254779D01*
X174757009Y-80254778D01*
X174717642Y-80222470D01*
X174619814Y-80142186D01*
X174536552Y-80040729D01*
X174507222Y-80004991D01*
X174497652Y-79987087D01*
X174423557Y-79848467D01*
X174406384Y-79791853D01*
X174372037Y-79678627D01*
X174354641Y-79502000D01*
X174372037Y-79325373D01*
X174423557Y-79155534D01*
X174423557Y-79155533D01*
X174507221Y-78999011D01*
X174507222Y-78999009D01*
X174536552Y-78963271D01*
X174619814Y-78861814D01*
X174721271Y-78778552D01*
X174757009Y-78749222D01*
X174811226Y-78720242D01*
X174913533Y-78665557D01*
X174970147Y-78648384D01*
X175083373Y-78614037D01*
X175149558Y-78607518D01*
X175215740Y-78601000D01*
X175304260Y-78601000D01*
X175370442Y-78607518D01*
X175370442Y-78607518D01*
G37*
G36*
X144509142Y-78720242D02*
X144657102Y-78781530D01*
X144724130Y-78826317D01*
X144790257Y-78870501D01*
X144903499Y-78983743D01*
X144947683Y-79049870D01*
X144992470Y-79116898D01*
X145053758Y-79264858D01*
X145085000Y-79421925D01*
X145085000Y-79582075D01*
X145053758Y-79739142D01*
X145008474Y-79848466D01*
X144992471Y-79887100D01*
X144903499Y-80020257D01*
X144790257Y-80133499D01*
X144724130Y-80177683D01*
X144657102Y-80222470D01*
X144509142Y-80283758D01*
X144352075Y-80315000D01*
X144191925Y-80315000D01*
X144034858Y-80283758D01*
X143886898Y-80222470D01*
X143819870Y-80177683D01*
X143753743Y-80133499D01*
X143640501Y-80020257D01*
X143551529Y-79887100D01*
X143535526Y-79848466D01*
X143490242Y-79739142D01*
X143459000Y-79582075D01*
X143459000Y-79421925D01*
X143490242Y-79264858D01*
X143551530Y-79116898D01*
X143596317Y-79049870D01*
X143640501Y-78983743D01*
X143753743Y-78870501D01*
X143819870Y-78826317D01*
X143886898Y-78781530D01*
X144034858Y-78720242D01*
X144191925Y-78689000D01*
X144352075Y-78689000D01*
X144509142Y-78720242D01*
X144509142Y-78720242D01*
G37*
G36*
X172449142Y-78720242D02*
X172597102Y-78781530D01*
X172664130Y-78826317D01*
X172730257Y-78870501D01*
X172843499Y-78983743D01*
X172887683Y-79049870D01*
X172932470Y-79116898D01*
X172993758Y-79264858D01*
X173025000Y-79421925D01*
X173025000Y-79582075D01*
X172993758Y-79739142D01*
X172948474Y-79848466D01*
X172932471Y-79887100D01*
X172843499Y-80020257D01*
X172730257Y-80133499D01*
X172664130Y-80177683D01*
X172597102Y-80222470D01*
X172449142Y-80283758D01*
X172292075Y-80315000D01*
X172131925Y-80315000D01*
X171974858Y-80283758D01*
X171826898Y-80222470D01*
X171759870Y-80177683D01*
X171693743Y-80133499D01*
X171580501Y-80020257D01*
X171491529Y-79887100D01*
X171475526Y-79848466D01*
X171430242Y-79739142D01*
X171399000Y-79582075D01*
X171399000Y-79421925D01*
X171430242Y-79264858D01*
X171491530Y-79116898D01*
X171536317Y-79049870D01*
X171580501Y-78983743D01*
X171693743Y-78870501D01*
X171759870Y-78826317D01*
X171826898Y-78781530D01*
X171974858Y-78720242D01*
X172131925Y-78689000D01*
X172292075Y-78689000D01*
X172449142Y-78720242D01*
X172449142Y-78720242D01*
G37*
G36*
X150026821Y-76631313D02*
X150026824Y-76631314D01*
X150026825Y-76631314D01*
X150187239Y-76679975D01*
X150187241Y-76679976D01*
X150187244Y-76679977D01*
X150335078Y-76758995D01*
X150464659Y-76865341D01*
X150571005Y-76994922D01*
X150650023Y-77142756D01*
X150650024Y-77142759D01*
X150650025Y-77142761D01*
X150698686Y-77303175D01*
X150698687Y-77303179D01*
X150715117Y-77470000D01*
X150698687Y-77636821D01*
X150698686Y-77636824D01*
X150698686Y-77636825D01*
X150666249Y-77743757D01*
X150650023Y-77797244D01*
X150571005Y-77945078D01*
X150464659Y-78074659D01*
X150335078Y-78181005D01*
X150187244Y-78260023D01*
X150187241Y-78260024D01*
X150187239Y-78260025D01*
X150026825Y-78308686D01*
X150026824Y-78308686D01*
X150026821Y-78308687D01*
X149901804Y-78321000D01*
X149818196Y-78321000D01*
X149693179Y-78308687D01*
X149693176Y-78308686D01*
X149693175Y-78308686D01*
X149532761Y-78260025D01*
X149532759Y-78260024D01*
X149532756Y-78260023D01*
X149384922Y-78181005D01*
X149255341Y-78074659D01*
X149148995Y-77945078D01*
X149069977Y-77797244D01*
X149053752Y-77743757D01*
X149021314Y-77636825D01*
X149021314Y-77636824D01*
X149021313Y-77636821D01*
X149004883Y-77470000D01*
X149021313Y-77303179D01*
X149021314Y-77303175D01*
X149069975Y-77142761D01*
X149069976Y-77142759D01*
X149069977Y-77142756D01*
X149148995Y-76994922D01*
X149255341Y-76865341D01*
X149384922Y-76758995D01*
X149532756Y-76679977D01*
X149532759Y-76679976D01*
X149532761Y-76679975D01*
X149693175Y-76631314D01*
X149693176Y-76631314D01*
X149693179Y-76631313D01*
X149818196Y-76619000D01*
X149901804Y-76619000D01*
X150026821Y-76631313D01*
X150026821Y-76631313D01*
G37*
G36*
X166872228Y-76651703D02*
X167027100Y-76715853D01*
X167166481Y-76808985D01*
X167285015Y-76927519D01*
X167378147Y-77066900D01*
X167442297Y-77221772D01*
X167475000Y-77386184D01*
X167475000Y-77553816D01*
X167442297Y-77718228D01*
X167378147Y-77873100D01*
X167285015Y-78012481D01*
X167166481Y-78131015D01*
X167027100Y-78224147D01*
X166872228Y-78288297D01*
X166707816Y-78321000D01*
X166540184Y-78321000D01*
X166375772Y-78288297D01*
X166220900Y-78224147D01*
X166081519Y-78131015D01*
X165962985Y-78012481D01*
X165869853Y-77873100D01*
X165805703Y-77718228D01*
X165773000Y-77553816D01*
X165773000Y-77386184D01*
X165805703Y-77221772D01*
X165869853Y-77066900D01*
X165962985Y-76927519D01*
X166081519Y-76808985D01*
X166220900Y-76715853D01*
X166375772Y-76651703D01*
X166540184Y-76619000D01*
X166707816Y-76619000D01*
X166872228Y-76651703D01*
X166872228Y-76651703D01*
G37*
G36*
X141334443Y-76067519D02*
X141400627Y-76074037D01*
X141513853Y-76108384D01*
X141570467Y-76125557D01*
X141672774Y-76180242D01*
X141726991Y-76209222D01*
X141762729Y-76238552D01*
X141864186Y-76321814D01*
X141947448Y-76423271D01*
X141976778Y-76459009D01*
X141976779Y-76459011D01*
X142060443Y-76615533D01*
X142065230Y-76631314D01*
X142111963Y-76785373D01*
X142129359Y-76962000D01*
X142111963Y-77138627D01*
X142086741Y-77221772D01*
X142060443Y-77308467D01*
X142018902Y-77386184D01*
X141976778Y-77464991D01*
X141947448Y-77500729D01*
X141864186Y-77602186D01*
X141766358Y-77682470D01*
X141726991Y-77714778D01*
X141709087Y-77724348D01*
X141570467Y-77798443D01*
X141513853Y-77815616D01*
X141400627Y-77849963D01*
X141334443Y-77856481D01*
X141268260Y-77863000D01*
X141179740Y-77863000D01*
X141113557Y-77856481D01*
X141047373Y-77849963D01*
X140934147Y-77815616D01*
X140877533Y-77798443D01*
X140738913Y-77724348D01*
X140721009Y-77714778D01*
X140681642Y-77682470D01*
X140583814Y-77602186D01*
X140500552Y-77500729D01*
X140471222Y-77464991D01*
X140429098Y-77386184D01*
X140387557Y-77308467D01*
X140361259Y-77221772D01*
X140336037Y-77138627D01*
X140318641Y-76962000D01*
X140336037Y-76785373D01*
X140382770Y-76631314D01*
X140387557Y-76615533D01*
X140471221Y-76459011D01*
X140471222Y-76459009D01*
X140500552Y-76423271D01*
X140583814Y-76321814D01*
X140685271Y-76238552D01*
X140721009Y-76209222D01*
X140775226Y-76180242D01*
X140877533Y-76125557D01*
X140934147Y-76108384D01*
X141047373Y-76074037D01*
X141113557Y-76067519D01*
X141179740Y-76061000D01*
X141268260Y-76061000D01*
X141334443Y-76067519D01*
X141334443Y-76067519D01*
G37*
G36*
X175370443Y-76067519D02*
X175436627Y-76074037D01*
X175549853Y-76108384D01*
X175606467Y-76125557D01*
X175708774Y-76180242D01*
X175762991Y-76209222D01*
X175798729Y-76238552D01*
X175900186Y-76321814D01*
X175983448Y-76423271D01*
X176012778Y-76459009D01*
X176012779Y-76459011D01*
X176096443Y-76615533D01*
X176101230Y-76631314D01*
X176147963Y-76785373D01*
X176165359Y-76962000D01*
X176147963Y-77138627D01*
X176122741Y-77221772D01*
X176096443Y-77308467D01*
X176054902Y-77386184D01*
X176012778Y-77464991D01*
X175983448Y-77500729D01*
X175900186Y-77602186D01*
X175802358Y-77682470D01*
X175762991Y-77714778D01*
X175745087Y-77724348D01*
X175606467Y-77798443D01*
X175549853Y-77815616D01*
X175436627Y-77849963D01*
X175370443Y-77856481D01*
X175304260Y-77863000D01*
X175215740Y-77863000D01*
X175149557Y-77856481D01*
X175083373Y-77849963D01*
X174970147Y-77815616D01*
X174913533Y-77798443D01*
X174774913Y-77724348D01*
X174757009Y-77714778D01*
X174717642Y-77682470D01*
X174619814Y-77602186D01*
X174536552Y-77500729D01*
X174507222Y-77464991D01*
X174465098Y-77386184D01*
X174423557Y-77308467D01*
X174397259Y-77221772D01*
X174372037Y-77138627D01*
X174354641Y-76962000D01*
X174372037Y-76785373D01*
X174418770Y-76631314D01*
X174423557Y-76615533D01*
X174507221Y-76459011D01*
X174507222Y-76459009D01*
X174536552Y-76423271D01*
X174619814Y-76321814D01*
X174721271Y-76238552D01*
X174757009Y-76209222D01*
X174811226Y-76180242D01*
X174913533Y-76125557D01*
X174970147Y-76108384D01*
X175083373Y-76074037D01*
X175149557Y-76067519D01*
X175215740Y-76061000D01*
X175304260Y-76061000D01*
X175370443Y-76067519D01*
X175370443Y-76067519D01*
G37*
G36*
X172449142Y-76180242D02*
X172597102Y-76241530D01*
X172664130Y-76286317D01*
X172730257Y-76330501D01*
X172843499Y-76443743D01*
X172887683Y-76509870D01*
X172932470Y-76576898D01*
X172993758Y-76724858D01*
X173025000Y-76881925D01*
X173025000Y-77042075D01*
X172993758Y-77199142D01*
X172984384Y-77221772D01*
X172932471Y-77347100D01*
X172843499Y-77480257D01*
X172730257Y-77593499D01*
X172665421Y-77636821D01*
X172597102Y-77682470D01*
X172449142Y-77743758D01*
X172292075Y-77775000D01*
X172131925Y-77775000D01*
X171974858Y-77743758D01*
X171826898Y-77682470D01*
X171758579Y-77636821D01*
X171693743Y-77593499D01*
X171580501Y-77480257D01*
X171491529Y-77347100D01*
X171439616Y-77221772D01*
X171430242Y-77199142D01*
X171399000Y-77042075D01*
X171399000Y-76881925D01*
X171430242Y-76724858D01*
X171491530Y-76576898D01*
X171536317Y-76509870D01*
X171580501Y-76443743D01*
X171693743Y-76330501D01*
X171759870Y-76286317D01*
X171826898Y-76241530D01*
X171974858Y-76180242D01*
X172131925Y-76149000D01*
X172292075Y-76149000D01*
X172449142Y-76180242D01*
X172449142Y-76180242D01*
G37*
G36*
X144509142Y-76180242D02*
X144657102Y-76241530D01*
X144724130Y-76286317D01*
X144790257Y-76330501D01*
X144903499Y-76443743D01*
X144947683Y-76509870D01*
X144992470Y-76576898D01*
X145053758Y-76724858D01*
X145085000Y-76881925D01*
X145085000Y-77042075D01*
X145053758Y-77199142D01*
X145044384Y-77221772D01*
X144992471Y-77347100D01*
X144903499Y-77480257D01*
X144790257Y-77593499D01*
X144725421Y-77636821D01*
X144657102Y-77682470D01*
X144509142Y-77743758D01*
X144352075Y-77775000D01*
X144191925Y-77775000D01*
X144034858Y-77743758D01*
X143886898Y-77682470D01*
X143818579Y-77636821D01*
X143753743Y-77593499D01*
X143640501Y-77480257D01*
X143551529Y-77347100D01*
X143499616Y-77221772D01*
X143490242Y-77199142D01*
X143459000Y-77042075D01*
X143459000Y-76881925D01*
X143490242Y-76724858D01*
X143551530Y-76576898D01*
X143596317Y-76509870D01*
X143640501Y-76443743D01*
X143753743Y-76330501D01*
X143819870Y-76286317D01*
X143886898Y-76241530D01*
X144034858Y-76180242D01*
X144191925Y-76149000D01*
X144352075Y-76149000D01*
X144509142Y-76180242D01*
X144509142Y-76180242D01*
G37*
G36*
X183677000Y-76187500D02*
X181575000Y-76187500D01*
X181575000Y-74180500D01*
X183677000Y-74180500D01*
X183677000Y-76187500D01*
X183677000Y-76187500D01*
G37*
G36*
X175370442Y-73527518D02*
X175436627Y-73534037D01*
X175549853Y-73568384D01*
X175606467Y-73585557D01*
X175695188Y-73632980D01*
X175762991Y-73669222D01*
X175798729Y-73698552D01*
X175900186Y-73781814D01*
X175983448Y-73883271D01*
X176012778Y-73919009D01*
X176012779Y-73919011D01*
X176096443Y-74075533D01*
X176096443Y-74075534D01*
X176147963Y-74245373D01*
X176165359Y-74422000D01*
X176147963Y-74598627D01*
X176113616Y-74711853D01*
X176096443Y-74768467D01*
X176022348Y-74907087D01*
X176012778Y-74924991D01*
X175983448Y-74960729D01*
X175900186Y-75062186D01*
X175802358Y-75142470D01*
X175762991Y-75174778D01*
X175762989Y-75174779D01*
X175606467Y-75258443D01*
X175549853Y-75275616D01*
X175436627Y-75309963D01*
X175370443Y-75316481D01*
X175304260Y-75323000D01*
X175215740Y-75323000D01*
X175149557Y-75316481D01*
X175083373Y-75309963D01*
X174970147Y-75275616D01*
X174913533Y-75258443D01*
X174757011Y-75174779D01*
X174757009Y-75174778D01*
X174717642Y-75142470D01*
X174619814Y-75062186D01*
X174536552Y-74960729D01*
X174507222Y-74924991D01*
X174497652Y-74907087D01*
X174423557Y-74768467D01*
X174406384Y-74711853D01*
X174372037Y-74598627D01*
X174354641Y-74422000D01*
X174372037Y-74245373D01*
X174423557Y-74075534D01*
X174423557Y-74075533D01*
X174507221Y-73919011D01*
X174507222Y-73919009D01*
X174536552Y-73883271D01*
X174619814Y-73781814D01*
X174721271Y-73698552D01*
X174757009Y-73669222D01*
X174824812Y-73632980D01*
X174913533Y-73585557D01*
X174970147Y-73568384D01*
X175083373Y-73534037D01*
X175149558Y-73527518D01*
X175215740Y-73521000D01*
X175304260Y-73521000D01*
X175370442Y-73527518D01*
X175370442Y-73527518D01*
G37*
G36*
X141334442Y-73527518D02*
X141400627Y-73534037D01*
X141513853Y-73568384D01*
X141570467Y-73585557D01*
X141659188Y-73632980D01*
X141726991Y-73669222D01*
X141762729Y-73698552D01*
X141864186Y-73781814D01*
X141947448Y-73883271D01*
X141976778Y-73919009D01*
X141976779Y-73919011D01*
X142060443Y-74075533D01*
X142060443Y-74075534D01*
X142111963Y-74245373D01*
X142129359Y-74422000D01*
X142111963Y-74598627D01*
X142077616Y-74711853D01*
X142060443Y-74768467D01*
X141986348Y-74907087D01*
X141976778Y-74924991D01*
X141947448Y-74960729D01*
X141864186Y-75062186D01*
X141766358Y-75142470D01*
X141726991Y-75174778D01*
X141726989Y-75174779D01*
X141570467Y-75258443D01*
X141513853Y-75275616D01*
X141400627Y-75309963D01*
X141334443Y-75316481D01*
X141268260Y-75323000D01*
X141179740Y-75323000D01*
X141113557Y-75316481D01*
X141047373Y-75309963D01*
X140934147Y-75275616D01*
X140877533Y-75258443D01*
X140721011Y-75174779D01*
X140721009Y-75174778D01*
X140681642Y-75142470D01*
X140583814Y-75062186D01*
X140500552Y-74960729D01*
X140471222Y-74924991D01*
X140461652Y-74907087D01*
X140387557Y-74768467D01*
X140370384Y-74711853D01*
X140336037Y-74598627D01*
X140318641Y-74422000D01*
X140336037Y-74245373D01*
X140387557Y-74075534D01*
X140387557Y-74075533D01*
X140471221Y-73919011D01*
X140471222Y-73919009D01*
X140500552Y-73883271D01*
X140583814Y-73781814D01*
X140685271Y-73698552D01*
X140721009Y-73669222D01*
X140788812Y-73632980D01*
X140877533Y-73585557D01*
X140934147Y-73568384D01*
X141047373Y-73534037D01*
X141113558Y-73527518D01*
X141179740Y-73521000D01*
X141268260Y-73521000D01*
X141334442Y-73527518D01*
X141334442Y-73527518D01*
G37*
G36*
X144509142Y-73640242D02*
X144657102Y-73701530D01*
X144724130Y-73746317D01*
X144790257Y-73790501D01*
X144903499Y-73903743D01*
X144947683Y-73969870D01*
X144992470Y-74036898D01*
X145053758Y-74184858D01*
X145085000Y-74341925D01*
X145085000Y-74502075D01*
X145053758Y-74659142D01*
X145008474Y-74768466D01*
X144992471Y-74807100D01*
X144903499Y-74940257D01*
X144790257Y-75053499D01*
X144724130Y-75097683D01*
X144657102Y-75142470D01*
X144509142Y-75203758D01*
X144352075Y-75235000D01*
X144191925Y-75235000D01*
X144034858Y-75203758D01*
X143886898Y-75142470D01*
X143819870Y-75097683D01*
X143753743Y-75053499D01*
X143640501Y-74940257D01*
X143551529Y-74807100D01*
X143535526Y-74768466D01*
X143490242Y-74659142D01*
X143459000Y-74502075D01*
X143459000Y-74341925D01*
X143490242Y-74184858D01*
X143551530Y-74036898D01*
X143596317Y-73969870D01*
X143640501Y-73903743D01*
X143753743Y-73790501D01*
X143819870Y-73746317D01*
X143886898Y-73701530D01*
X144034858Y-73640242D01*
X144191925Y-73609000D01*
X144352075Y-73609000D01*
X144509142Y-73640242D01*
X144509142Y-73640242D01*
G37*
G36*
X172449142Y-73640242D02*
X172597102Y-73701530D01*
X172664130Y-73746317D01*
X172730257Y-73790501D01*
X172843499Y-73903743D01*
X172887683Y-73969870D01*
X172932470Y-74036898D01*
X172993758Y-74184858D01*
X173025000Y-74341925D01*
X173025000Y-74502075D01*
X172993758Y-74659142D01*
X172948474Y-74768466D01*
X172932471Y-74807100D01*
X172843499Y-74940257D01*
X172730257Y-75053499D01*
X172664130Y-75097683D01*
X172597102Y-75142470D01*
X172449142Y-75203758D01*
X172292075Y-75235000D01*
X172131925Y-75235000D01*
X171974858Y-75203758D01*
X171826898Y-75142470D01*
X171759870Y-75097683D01*
X171693743Y-75053499D01*
X171580501Y-74940257D01*
X171491529Y-74807100D01*
X171475526Y-74768466D01*
X171430242Y-74659142D01*
X171399000Y-74502075D01*
X171399000Y-74341925D01*
X171430242Y-74184858D01*
X171491530Y-74036898D01*
X171536317Y-73969870D01*
X171580501Y-73903743D01*
X171693743Y-73790501D01*
X171759870Y-73746317D01*
X171826898Y-73701530D01*
X171974858Y-73640242D01*
X172131925Y-73609000D01*
X172292075Y-73609000D01*
X172449142Y-73640242D01*
X172449142Y-73640242D01*
G37*
G36*
X182781764Y-71646308D02*
X182870220Y-71655020D01*
X183059381Y-71712401D01*
X183233712Y-71805583D01*
X183386515Y-71930985D01*
X183511917Y-72083788D01*
X183605099Y-72258119D01*
X183662480Y-72447280D01*
X183681855Y-72644000D01*
X183662480Y-72840720D01*
X183605099Y-73029881D01*
X183511917Y-73204212D01*
X183386515Y-73357015D01*
X183233712Y-73482417D01*
X183059381Y-73575599D01*
X182870220Y-73632980D01*
X182781764Y-73641692D01*
X182722796Y-73647500D01*
X182529204Y-73647500D01*
X182470236Y-73641692D01*
X182381780Y-73632980D01*
X182192619Y-73575599D01*
X182018288Y-73482417D01*
X181865485Y-73357015D01*
X181740083Y-73204212D01*
X181646901Y-73029881D01*
X181589520Y-72840720D01*
X181570145Y-72644000D01*
X181589520Y-72447280D01*
X181646901Y-72258119D01*
X181740083Y-72083788D01*
X181865485Y-71930985D01*
X182018288Y-71805583D01*
X182192619Y-71712401D01*
X182381780Y-71655020D01*
X182470236Y-71646308D01*
X182529204Y-71640500D01*
X182722796Y-71640500D01*
X182781764Y-71646308D01*
X182781764Y-71646308D01*
G37*
G36*
X175370443Y-70987519D02*
X175436627Y-70994037D01*
X175549853Y-71028384D01*
X175606467Y-71045557D01*
X175695188Y-71092980D01*
X175762991Y-71129222D01*
X175798729Y-71158552D01*
X175900186Y-71241814D01*
X175983448Y-71343271D01*
X176012778Y-71379009D01*
X176012779Y-71379011D01*
X176096443Y-71535533D01*
X176096443Y-71535534D01*
X176147963Y-71705373D01*
X176165359Y-71882000D01*
X176147963Y-72058627D01*
X176113616Y-72171853D01*
X176096443Y-72228467D01*
X176022348Y-72367087D01*
X176012778Y-72384991D01*
X175983448Y-72420729D01*
X175900186Y-72522186D01*
X175802358Y-72602470D01*
X175762991Y-72634778D01*
X175762989Y-72634779D01*
X175606467Y-72718443D01*
X175549853Y-72735616D01*
X175436627Y-72769963D01*
X175370443Y-72776481D01*
X175304260Y-72783000D01*
X175215740Y-72783000D01*
X175149557Y-72776481D01*
X175083373Y-72769963D01*
X174970147Y-72735616D01*
X174913533Y-72718443D01*
X174757011Y-72634779D01*
X174757009Y-72634778D01*
X174717642Y-72602470D01*
X174619814Y-72522186D01*
X174536552Y-72420729D01*
X174507222Y-72384991D01*
X174497652Y-72367087D01*
X174423557Y-72228467D01*
X174406384Y-72171853D01*
X174372037Y-72058627D01*
X174354641Y-71882000D01*
X174372037Y-71705373D01*
X174423557Y-71535534D01*
X174423557Y-71535533D01*
X174507221Y-71379011D01*
X174507222Y-71379009D01*
X174536552Y-71343271D01*
X174619814Y-71241814D01*
X174721271Y-71158552D01*
X174757009Y-71129222D01*
X174824812Y-71092980D01*
X174913533Y-71045557D01*
X174970147Y-71028384D01*
X175083373Y-70994037D01*
X175149557Y-70987519D01*
X175215740Y-70981000D01*
X175304260Y-70981000D01*
X175370443Y-70987519D01*
X175370443Y-70987519D01*
G37*
G36*
X141334443Y-70987519D02*
X141400627Y-70994037D01*
X141513853Y-71028384D01*
X141570467Y-71045557D01*
X141659188Y-71092980D01*
X141726991Y-71129222D01*
X141762729Y-71158552D01*
X141864186Y-71241814D01*
X141947448Y-71343271D01*
X141976778Y-71379009D01*
X141976779Y-71379011D01*
X142060443Y-71535533D01*
X142060443Y-71535534D01*
X142111963Y-71705373D01*
X142129359Y-71882000D01*
X142111963Y-72058627D01*
X142077616Y-72171853D01*
X142060443Y-72228467D01*
X141986348Y-72367087D01*
X141976778Y-72384991D01*
X141947448Y-72420729D01*
X141864186Y-72522186D01*
X141766358Y-72602470D01*
X141726991Y-72634778D01*
X141726989Y-72634779D01*
X141570467Y-72718443D01*
X141513853Y-72735616D01*
X141400627Y-72769963D01*
X141334443Y-72776481D01*
X141268260Y-72783000D01*
X141179740Y-72783000D01*
X141113557Y-72776481D01*
X141047373Y-72769963D01*
X140934147Y-72735616D01*
X140877533Y-72718443D01*
X140721011Y-72634779D01*
X140721009Y-72634778D01*
X140681642Y-72602470D01*
X140583814Y-72522186D01*
X140500552Y-72420729D01*
X140471222Y-72384991D01*
X140461652Y-72367087D01*
X140387557Y-72228467D01*
X140370384Y-72171853D01*
X140336037Y-72058627D01*
X140318641Y-71882000D01*
X140336037Y-71705373D01*
X140387557Y-71535534D01*
X140387557Y-71535533D01*
X140471221Y-71379011D01*
X140471222Y-71379009D01*
X140500552Y-71343271D01*
X140583814Y-71241814D01*
X140685271Y-71158552D01*
X140721009Y-71129222D01*
X140788812Y-71092980D01*
X140877533Y-71045557D01*
X140934147Y-71028384D01*
X141047373Y-70994037D01*
X141113557Y-70987519D01*
X141179740Y-70981000D01*
X141268260Y-70981000D01*
X141334443Y-70987519D01*
X141334443Y-70987519D01*
G37*
G36*
X144509142Y-71100242D02*
X144657102Y-71161530D01*
X144724130Y-71206317D01*
X144790257Y-71250501D01*
X144903499Y-71363743D01*
X144947683Y-71429870D01*
X144992470Y-71496898D01*
X145053758Y-71644858D01*
X145085000Y-71801925D01*
X145085000Y-71962075D01*
X145053758Y-72119142D01*
X145008474Y-72228466D01*
X144992471Y-72267100D01*
X144903499Y-72400257D01*
X144790257Y-72513499D01*
X144724130Y-72557683D01*
X144657102Y-72602470D01*
X144509142Y-72663758D01*
X144352075Y-72695000D01*
X144191925Y-72695000D01*
X144034858Y-72663758D01*
X143886898Y-72602470D01*
X143819870Y-72557683D01*
X143753743Y-72513499D01*
X143640501Y-72400257D01*
X143551529Y-72267100D01*
X143535526Y-72228466D01*
X143490242Y-72119142D01*
X143459000Y-71962075D01*
X143459000Y-71801925D01*
X143490242Y-71644858D01*
X143551530Y-71496898D01*
X143596317Y-71429870D01*
X143640501Y-71363743D01*
X143753743Y-71250501D01*
X143819870Y-71206317D01*
X143886898Y-71161530D01*
X144034858Y-71100242D01*
X144191925Y-71069000D01*
X144352075Y-71069000D01*
X144509142Y-71100242D01*
X144509142Y-71100242D01*
G37*
G36*
X172449142Y-71100242D02*
X172597102Y-71161530D01*
X172664130Y-71206317D01*
X172730257Y-71250501D01*
X172843499Y-71363743D01*
X172887683Y-71429870D01*
X172932470Y-71496898D01*
X172993758Y-71644858D01*
X173025000Y-71801925D01*
X173025000Y-71962075D01*
X172993758Y-72119142D01*
X172948474Y-72228466D01*
X172932471Y-72267100D01*
X172843499Y-72400257D01*
X172730257Y-72513499D01*
X172664130Y-72557683D01*
X172597102Y-72602470D01*
X172449142Y-72663758D01*
X172292075Y-72695000D01*
X172131925Y-72695000D01*
X171974858Y-72663758D01*
X171826898Y-72602470D01*
X171759870Y-72557683D01*
X171693743Y-72513499D01*
X171580501Y-72400257D01*
X171491529Y-72267100D01*
X171475526Y-72228466D01*
X171430242Y-72119142D01*
X171399000Y-71962075D01*
X171399000Y-71801925D01*
X171430242Y-71644858D01*
X171491530Y-71496898D01*
X171536317Y-71429870D01*
X171580501Y-71363743D01*
X171693743Y-71250501D01*
X171759870Y-71206317D01*
X171826898Y-71161530D01*
X171974858Y-71100242D01*
X172131925Y-71069000D01*
X172292075Y-71069000D01*
X172449142Y-71100242D01*
X172449142Y-71100242D01*
G37*
G36*
X182781764Y-69106308D02*
X182870220Y-69115020D01*
X183059381Y-69172401D01*
X183233712Y-69265583D01*
X183386515Y-69390985D01*
X183511917Y-69543788D01*
X183605099Y-69718119D01*
X183662480Y-69907280D01*
X183681855Y-70104000D01*
X183662480Y-70300720D01*
X183605099Y-70489881D01*
X183511917Y-70664212D01*
X183386515Y-70817015D01*
X183233712Y-70942417D01*
X183059381Y-71035599D01*
X182870220Y-71092980D01*
X182781764Y-71101692D01*
X182722796Y-71107500D01*
X182529204Y-71107500D01*
X182470236Y-71101692D01*
X182381780Y-71092980D01*
X182192619Y-71035599D01*
X182018288Y-70942417D01*
X181865485Y-70817015D01*
X181740083Y-70664212D01*
X181646901Y-70489881D01*
X181589520Y-70300720D01*
X181570145Y-70104000D01*
X181589520Y-69907280D01*
X181646901Y-69718119D01*
X181740083Y-69543788D01*
X181865485Y-69390985D01*
X182018288Y-69265583D01*
X182192619Y-69172401D01*
X182381780Y-69115020D01*
X182470236Y-69106308D01*
X182529204Y-69100500D01*
X182722796Y-69100500D01*
X182781764Y-69106308D01*
X182781764Y-69106308D01*
G37*
G36*
X166790821Y-69011313D02*
X166790824Y-69011314D01*
X166790825Y-69011314D01*
X166951239Y-69059975D01*
X166951241Y-69059976D01*
X166951244Y-69059977D01*
X167099078Y-69138995D01*
X167228659Y-69245341D01*
X167335005Y-69374922D01*
X167414023Y-69522756D01*
X167414024Y-69522759D01*
X167414025Y-69522761D01*
X167462686Y-69683175D01*
X167462687Y-69683179D01*
X167479117Y-69850000D01*
X167462687Y-70016821D01*
X167462686Y-70016824D01*
X167462686Y-70016825D01*
X167430249Y-70123757D01*
X167414023Y-70177244D01*
X167335005Y-70325078D01*
X167228659Y-70454659D01*
X167099078Y-70561005D01*
X166951244Y-70640023D01*
X166951241Y-70640024D01*
X166951239Y-70640025D01*
X166790825Y-70688686D01*
X166790824Y-70688686D01*
X166790821Y-70688687D01*
X166665804Y-70701000D01*
X166582196Y-70701000D01*
X166457179Y-70688687D01*
X166457176Y-70688686D01*
X166457175Y-70688686D01*
X166296761Y-70640025D01*
X166296759Y-70640024D01*
X166296756Y-70640023D01*
X166148922Y-70561005D01*
X166019341Y-70454659D01*
X165912995Y-70325078D01*
X165833977Y-70177244D01*
X165817752Y-70123757D01*
X165785314Y-70016825D01*
X165785314Y-70016824D01*
X165785313Y-70016821D01*
X165768883Y-69850000D01*
X165785313Y-69683179D01*
X165785314Y-69683175D01*
X165833975Y-69522761D01*
X165833976Y-69522759D01*
X165833977Y-69522756D01*
X165912995Y-69374922D01*
X166019341Y-69245341D01*
X166148922Y-69138995D01*
X166296756Y-69059977D01*
X166296759Y-69059976D01*
X166296761Y-69059975D01*
X166457175Y-69011314D01*
X166457176Y-69011314D01*
X166457179Y-69011313D01*
X166582196Y-68999000D01*
X166665804Y-68999000D01*
X166790821Y-69011313D01*
X166790821Y-69011313D01*
G37*
G36*
X150108228Y-69031703D02*
X150263100Y-69095853D01*
X150402481Y-69188985D01*
X150521015Y-69307519D01*
X150614147Y-69446900D01*
X150678297Y-69601772D01*
X150711000Y-69766184D01*
X150711000Y-69933816D01*
X150678297Y-70098228D01*
X150614147Y-70253100D01*
X150521015Y-70392481D01*
X150402481Y-70511015D01*
X150263100Y-70604147D01*
X150108228Y-70668297D01*
X149943816Y-70701000D01*
X149776184Y-70701000D01*
X149611772Y-70668297D01*
X149456900Y-70604147D01*
X149317519Y-70511015D01*
X149198985Y-70392481D01*
X149105853Y-70253100D01*
X149041703Y-70098228D01*
X149009000Y-69933816D01*
X149009000Y-69766184D01*
X149041703Y-69601772D01*
X149105853Y-69446900D01*
X149198985Y-69307519D01*
X149317519Y-69188985D01*
X149456900Y-69095853D01*
X149611772Y-69031703D01*
X149776184Y-68999000D01*
X149943816Y-68999000D01*
X150108228Y-69031703D01*
X150108228Y-69031703D01*
G37*
G36*
X141334442Y-68447518D02*
X141400627Y-68454037D01*
X141513853Y-68488384D01*
X141570467Y-68505557D01*
X141672774Y-68560242D01*
X141726991Y-68589222D01*
X141762729Y-68618552D01*
X141864186Y-68701814D01*
X141947448Y-68803271D01*
X141976778Y-68839009D01*
X141976779Y-68839011D01*
X142060443Y-68995533D01*
X142065230Y-69011314D01*
X142111963Y-69165373D01*
X142129359Y-69342000D01*
X142111963Y-69518627D01*
X142086741Y-69601772D01*
X142060443Y-69688467D01*
X142018902Y-69766184D01*
X141976778Y-69844991D01*
X141947448Y-69880729D01*
X141864186Y-69982186D01*
X141766358Y-70062470D01*
X141726991Y-70094778D01*
X141709738Y-70104000D01*
X141570467Y-70178443D01*
X141513853Y-70195616D01*
X141400627Y-70229963D01*
X141334442Y-70236482D01*
X141268260Y-70243000D01*
X141179740Y-70243000D01*
X141113558Y-70236482D01*
X141047373Y-70229963D01*
X140934147Y-70195616D01*
X140877533Y-70178443D01*
X140738262Y-70104000D01*
X140721009Y-70094778D01*
X140681642Y-70062470D01*
X140583814Y-69982186D01*
X140500552Y-69880729D01*
X140471222Y-69844991D01*
X140429098Y-69766184D01*
X140387557Y-69688467D01*
X140361259Y-69601772D01*
X140336037Y-69518627D01*
X140318641Y-69342000D01*
X140336037Y-69165373D01*
X140382770Y-69011314D01*
X140387557Y-68995533D01*
X140471221Y-68839011D01*
X140471222Y-68839009D01*
X140500552Y-68803271D01*
X140583814Y-68701814D01*
X140685271Y-68618552D01*
X140721009Y-68589222D01*
X140775226Y-68560242D01*
X140877533Y-68505557D01*
X140934147Y-68488384D01*
X141047373Y-68454037D01*
X141113558Y-68447518D01*
X141179740Y-68441000D01*
X141268260Y-68441000D01*
X141334442Y-68447518D01*
X141334442Y-68447518D01*
G37*
G36*
X175370442Y-68447518D02*
X175436627Y-68454037D01*
X175549853Y-68488384D01*
X175606467Y-68505557D01*
X175708774Y-68560242D01*
X175762991Y-68589222D01*
X175798729Y-68618552D01*
X175900186Y-68701814D01*
X175983448Y-68803271D01*
X176012778Y-68839009D01*
X176012779Y-68839011D01*
X176096443Y-68995533D01*
X176101230Y-69011314D01*
X176147963Y-69165373D01*
X176165359Y-69342000D01*
X176147963Y-69518627D01*
X176122741Y-69601772D01*
X176096443Y-69688467D01*
X176054902Y-69766184D01*
X176012778Y-69844991D01*
X175983448Y-69880729D01*
X175900186Y-69982186D01*
X175802358Y-70062470D01*
X175762991Y-70094778D01*
X175745738Y-70104000D01*
X175606467Y-70178443D01*
X175549853Y-70195616D01*
X175436627Y-70229963D01*
X175370442Y-70236482D01*
X175304260Y-70243000D01*
X175215740Y-70243000D01*
X175149558Y-70236482D01*
X175083373Y-70229963D01*
X174970147Y-70195616D01*
X174913533Y-70178443D01*
X174774262Y-70104000D01*
X174757009Y-70094778D01*
X174717642Y-70062470D01*
X174619814Y-69982186D01*
X174536552Y-69880729D01*
X174507222Y-69844991D01*
X174465098Y-69766184D01*
X174423557Y-69688467D01*
X174397259Y-69601772D01*
X174372037Y-69518627D01*
X174354641Y-69342000D01*
X174372037Y-69165373D01*
X174418770Y-69011314D01*
X174423557Y-68995533D01*
X174507221Y-68839011D01*
X174507222Y-68839009D01*
X174536552Y-68803271D01*
X174619814Y-68701814D01*
X174721271Y-68618552D01*
X174757009Y-68589222D01*
X174811226Y-68560242D01*
X174913533Y-68505557D01*
X174970147Y-68488384D01*
X175083373Y-68454037D01*
X175149558Y-68447518D01*
X175215740Y-68441000D01*
X175304260Y-68441000D01*
X175370442Y-68447518D01*
X175370442Y-68447518D01*
G37*
G36*
X144509142Y-68560242D02*
X144657102Y-68621530D01*
X144724130Y-68666317D01*
X144790257Y-68710501D01*
X144903499Y-68823743D01*
X144947683Y-68889870D01*
X144992470Y-68956898D01*
X145053758Y-69104858D01*
X145085000Y-69261925D01*
X145085000Y-69422075D01*
X145053758Y-69579142D01*
X145044384Y-69601772D01*
X144992471Y-69727100D01*
X144903499Y-69860257D01*
X144790257Y-69973499D01*
X144725421Y-70016821D01*
X144657102Y-70062470D01*
X144509142Y-70123758D01*
X144352075Y-70155000D01*
X144191925Y-70155000D01*
X144034858Y-70123758D01*
X143886898Y-70062470D01*
X143818579Y-70016821D01*
X143753743Y-69973499D01*
X143640501Y-69860257D01*
X143551529Y-69727100D01*
X143499616Y-69601772D01*
X143490242Y-69579142D01*
X143459000Y-69422075D01*
X143459000Y-69261925D01*
X143490242Y-69104858D01*
X143551530Y-68956898D01*
X143596317Y-68889870D01*
X143640501Y-68823743D01*
X143753743Y-68710501D01*
X143819870Y-68666317D01*
X143886898Y-68621530D01*
X144034858Y-68560242D01*
X144191925Y-68529000D01*
X144352075Y-68529000D01*
X144509142Y-68560242D01*
X144509142Y-68560242D01*
G37*
G36*
X172449142Y-68560242D02*
X172597102Y-68621530D01*
X172664130Y-68666317D01*
X172730257Y-68710501D01*
X172843499Y-68823743D01*
X172887683Y-68889870D01*
X172932470Y-68956898D01*
X172993758Y-69104858D01*
X173025000Y-69261925D01*
X173025000Y-69422075D01*
X172993758Y-69579142D01*
X172984384Y-69601772D01*
X172932471Y-69727100D01*
X172843499Y-69860257D01*
X172730257Y-69973499D01*
X172665421Y-70016821D01*
X172597102Y-70062470D01*
X172449142Y-70123758D01*
X172292075Y-70155000D01*
X172131925Y-70155000D01*
X171974858Y-70123758D01*
X171826898Y-70062470D01*
X171758579Y-70016821D01*
X171693743Y-69973499D01*
X171580501Y-69860257D01*
X171491529Y-69727100D01*
X171439616Y-69601772D01*
X171430242Y-69579142D01*
X171399000Y-69422075D01*
X171399000Y-69261925D01*
X171430242Y-69104858D01*
X171491530Y-68956898D01*
X171536317Y-68889870D01*
X171580501Y-68823743D01*
X171693743Y-68710501D01*
X171759870Y-68666317D01*
X171826898Y-68621530D01*
X171974858Y-68560242D01*
X172131925Y-68529000D01*
X172292075Y-68529000D01*
X172449142Y-68560242D01*
X172449142Y-68560242D01*
G37*
G36*
X150026821Y-66217313D02*
X150026824Y-66217314D01*
X150026825Y-66217314D01*
X150187239Y-66265975D01*
X150187241Y-66265976D01*
X150187244Y-66265977D01*
X150335078Y-66344995D01*
X150464659Y-66451341D01*
X150571005Y-66580922D01*
X150650023Y-66728756D01*
X150650024Y-66728759D01*
X150650025Y-66728761D01*
X150696532Y-66882074D01*
X150698687Y-66889179D01*
X150715117Y-67056000D01*
X150698687Y-67222821D01*
X150698686Y-67222824D01*
X150698686Y-67222825D01*
X150673762Y-67304989D01*
X150650023Y-67383244D01*
X150571005Y-67531078D01*
X150464659Y-67660659D01*
X150335078Y-67767005D01*
X150187244Y-67846023D01*
X150187241Y-67846024D01*
X150187239Y-67846025D01*
X150026825Y-67894686D01*
X150026824Y-67894686D01*
X150026821Y-67894687D01*
X149901804Y-67907000D01*
X149818196Y-67907000D01*
X149693179Y-67894687D01*
X149693176Y-67894686D01*
X149693175Y-67894686D01*
X149532761Y-67846025D01*
X149532759Y-67846024D01*
X149532756Y-67846023D01*
X149384922Y-67767005D01*
X149255341Y-67660659D01*
X149148995Y-67531078D01*
X149069977Y-67383244D01*
X149046239Y-67304989D01*
X149021314Y-67222825D01*
X149021314Y-67222824D01*
X149021313Y-67222821D01*
X149004883Y-67056000D01*
X149021313Y-66889179D01*
X149023468Y-66882074D01*
X149069975Y-66728761D01*
X149069976Y-66728759D01*
X149069977Y-66728756D01*
X149148995Y-66580922D01*
X149255341Y-66451341D01*
X149384922Y-66344995D01*
X149532756Y-66265977D01*
X149532759Y-66265976D01*
X149532761Y-66265975D01*
X149693175Y-66217314D01*
X149693176Y-66217314D01*
X149693179Y-66217313D01*
X149818196Y-66205000D01*
X149901804Y-66205000D01*
X150026821Y-66217313D01*
X150026821Y-66217313D01*
G37*
G36*
X175370443Y-65907519D02*
X175436627Y-65914037D01*
X175549853Y-65948384D01*
X175606467Y-65965557D01*
X175708774Y-66020242D01*
X175762991Y-66049222D01*
X175798729Y-66078552D01*
X175900186Y-66161814D01*
X175980369Y-66259519D01*
X176012778Y-66299009D01*
X176012779Y-66299011D01*
X176096443Y-66455533D01*
X176096443Y-66455534D01*
X176147963Y-66625373D01*
X176165359Y-66802000D01*
X176147963Y-66978627D01*
X176126243Y-67050228D01*
X176096443Y-67148467D01*
X176056699Y-67222821D01*
X176012778Y-67304991D01*
X175983448Y-67340729D01*
X175900186Y-67442186D01*
X175802358Y-67522470D01*
X175762991Y-67554778D01*
X175762989Y-67554779D01*
X175606467Y-67638443D01*
X175558478Y-67653000D01*
X175436627Y-67689963D01*
X175370442Y-67696482D01*
X175304260Y-67703000D01*
X175215740Y-67703000D01*
X175149558Y-67696482D01*
X175083373Y-67689963D01*
X174961522Y-67653000D01*
X174913533Y-67638443D01*
X174757011Y-67554779D01*
X174757009Y-67554778D01*
X174717642Y-67522470D01*
X174619814Y-67442186D01*
X174536552Y-67340729D01*
X174507222Y-67304991D01*
X174463301Y-67222821D01*
X174423557Y-67148467D01*
X174393757Y-67050228D01*
X174372037Y-66978627D01*
X174354641Y-66802000D01*
X174372037Y-66625373D01*
X174423557Y-66455534D01*
X174423557Y-66455533D01*
X174507221Y-66299011D01*
X174507222Y-66299009D01*
X174539631Y-66259519D01*
X174619814Y-66161814D01*
X174721271Y-66078552D01*
X174757009Y-66049222D01*
X174811226Y-66020242D01*
X174913533Y-65965557D01*
X174970147Y-65948384D01*
X175083373Y-65914037D01*
X175149557Y-65907519D01*
X175215740Y-65901000D01*
X175304260Y-65901000D01*
X175370443Y-65907519D01*
X175370443Y-65907519D01*
G37*
G36*
X141334443Y-65907519D02*
X141400627Y-65914037D01*
X141513853Y-65948384D01*
X141570467Y-65965557D01*
X141672774Y-66020242D01*
X141726991Y-66049222D01*
X141762729Y-66078552D01*
X141864186Y-66161814D01*
X141944369Y-66259519D01*
X141976778Y-66299009D01*
X141976779Y-66299011D01*
X142060443Y-66455533D01*
X142060443Y-66455534D01*
X142111963Y-66625373D01*
X142129359Y-66802000D01*
X142111963Y-66978627D01*
X142090243Y-67050228D01*
X142060443Y-67148467D01*
X142020699Y-67222821D01*
X141976778Y-67304991D01*
X141947448Y-67340729D01*
X141864186Y-67442186D01*
X141766358Y-67522470D01*
X141726991Y-67554778D01*
X141726989Y-67554779D01*
X141570467Y-67638443D01*
X141522478Y-67653000D01*
X141400627Y-67689963D01*
X141334442Y-67696482D01*
X141268260Y-67703000D01*
X141179740Y-67703000D01*
X141113558Y-67696482D01*
X141047373Y-67689963D01*
X140925522Y-67653000D01*
X140877533Y-67638443D01*
X140721011Y-67554779D01*
X140721009Y-67554778D01*
X140681642Y-67522470D01*
X140583814Y-67442186D01*
X140500552Y-67340729D01*
X140471222Y-67304991D01*
X140427301Y-67222821D01*
X140387557Y-67148467D01*
X140357757Y-67050228D01*
X140336037Y-66978627D01*
X140318641Y-66802000D01*
X140336037Y-66625373D01*
X140387557Y-66455534D01*
X140387557Y-66455533D01*
X140471221Y-66299011D01*
X140471222Y-66299009D01*
X140503631Y-66259519D01*
X140583814Y-66161814D01*
X140685271Y-66078552D01*
X140721009Y-66049222D01*
X140775226Y-66020242D01*
X140877533Y-65965557D01*
X140934147Y-65948384D01*
X141047373Y-65914037D01*
X141113557Y-65907519D01*
X141179740Y-65901000D01*
X141268260Y-65901000D01*
X141334443Y-65907519D01*
X141334443Y-65907519D01*
G37*
G36*
X166872228Y-65983703D02*
X167027100Y-66047853D01*
X167166481Y-66140985D01*
X167285015Y-66259519D01*
X167378147Y-66398900D01*
X167442297Y-66553772D01*
X167475000Y-66718184D01*
X167475000Y-66885816D01*
X167442297Y-67050228D01*
X167378147Y-67205100D01*
X167285015Y-67344481D01*
X167166481Y-67463015D01*
X167027100Y-67556147D01*
X166872228Y-67620297D01*
X166707816Y-67653000D01*
X166540184Y-67653000D01*
X166375772Y-67620297D01*
X166220900Y-67556147D01*
X166081519Y-67463015D01*
X165962985Y-67344481D01*
X165869853Y-67205100D01*
X165805703Y-67050228D01*
X165773000Y-66885816D01*
X165773000Y-66718184D01*
X165805703Y-66553772D01*
X165869853Y-66398900D01*
X165962985Y-66259519D01*
X166081519Y-66140985D01*
X166220900Y-66047853D01*
X166375772Y-65983703D01*
X166540184Y-65951000D01*
X166707816Y-65951000D01*
X166872228Y-65983703D01*
X166872228Y-65983703D01*
G37*
G36*
X172449142Y-66020242D02*
X172597102Y-66081530D01*
X172664130Y-66126317D01*
X172730257Y-66170501D01*
X172843499Y-66283743D01*
X172884426Y-66344995D01*
X172932470Y-66416898D01*
X172993758Y-66564858D01*
X173025000Y-66721925D01*
X173025000Y-66882075D01*
X172993758Y-67039142D01*
X172932470Y-67187102D01*
X172887683Y-67254130D01*
X172843499Y-67320257D01*
X172730257Y-67433499D01*
X172686084Y-67463014D01*
X172597102Y-67522470D01*
X172449142Y-67583758D01*
X172292075Y-67615000D01*
X172131925Y-67615000D01*
X171974858Y-67583758D01*
X171826898Y-67522470D01*
X171737916Y-67463014D01*
X171693743Y-67433499D01*
X171580501Y-67320257D01*
X171536317Y-67254130D01*
X171491530Y-67187102D01*
X171430242Y-67039142D01*
X171399000Y-66882075D01*
X171399000Y-66721925D01*
X171430242Y-66564858D01*
X171491530Y-66416898D01*
X171539574Y-66344995D01*
X171580501Y-66283743D01*
X171693743Y-66170501D01*
X171759870Y-66126317D01*
X171826898Y-66081530D01*
X171974858Y-66020242D01*
X172131925Y-65989000D01*
X172292075Y-65989000D01*
X172449142Y-66020242D01*
X172449142Y-66020242D01*
G37*
G36*
X144509142Y-66020242D02*
X144657102Y-66081530D01*
X144724130Y-66126317D01*
X144790257Y-66170501D01*
X144903499Y-66283743D01*
X144944426Y-66344995D01*
X144992470Y-66416898D01*
X145053758Y-66564858D01*
X145085000Y-66721925D01*
X145085000Y-66882075D01*
X145053758Y-67039142D01*
X144992470Y-67187102D01*
X144947683Y-67254130D01*
X144903499Y-67320257D01*
X144790257Y-67433499D01*
X144746084Y-67463014D01*
X144657102Y-67522470D01*
X144509142Y-67583758D01*
X144352075Y-67615000D01*
X144191925Y-67615000D01*
X144034858Y-67583758D01*
X143886898Y-67522470D01*
X143797916Y-67463014D01*
X143753743Y-67433499D01*
X143640501Y-67320257D01*
X143596317Y-67254130D01*
X143551530Y-67187102D01*
X143490242Y-67039142D01*
X143459000Y-66882075D01*
X143459000Y-66721925D01*
X143490242Y-66564858D01*
X143551530Y-66416898D01*
X143599574Y-66344995D01*
X143640501Y-66283743D01*
X143753743Y-66170501D01*
X143819870Y-66126317D01*
X143886898Y-66081530D01*
X144034858Y-66020242D01*
X144191925Y-65989000D01*
X144352075Y-65989000D01*
X144509142Y-66020242D01*
X144509142Y-66020242D01*
G37*
G36*
X141334442Y-63367518D02*
X141400627Y-63374037D01*
X141513853Y-63408384D01*
X141570467Y-63425557D01*
X141672774Y-63480242D01*
X141726991Y-63509222D01*
X141762729Y-63538552D01*
X141864186Y-63621814D01*
X141947448Y-63723271D01*
X141976778Y-63759009D01*
X141976779Y-63759011D01*
X142060443Y-63915533D01*
X142060443Y-63915534D01*
X142111963Y-64085373D01*
X142129359Y-64262000D01*
X142111963Y-64438627D01*
X142077616Y-64551853D01*
X142060443Y-64608467D01*
X141986348Y-64747087D01*
X141976778Y-64764991D01*
X141947448Y-64800729D01*
X141864186Y-64902186D01*
X141766358Y-64982470D01*
X141726991Y-65014778D01*
X141726989Y-65014779D01*
X141570467Y-65098443D01*
X141513853Y-65115616D01*
X141400627Y-65149963D01*
X141334443Y-65156481D01*
X141268260Y-65163000D01*
X141179740Y-65163000D01*
X141113557Y-65156481D01*
X141047373Y-65149963D01*
X140934147Y-65115616D01*
X140877533Y-65098443D01*
X140721011Y-65014779D01*
X140721009Y-65014778D01*
X140681642Y-64982470D01*
X140583814Y-64902186D01*
X140500552Y-64800729D01*
X140471222Y-64764991D01*
X140461652Y-64747087D01*
X140387557Y-64608467D01*
X140370384Y-64551853D01*
X140336037Y-64438627D01*
X140318641Y-64262000D01*
X140336037Y-64085373D01*
X140387557Y-63915534D01*
X140387557Y-63915533D01*
X140471221Y-63759011D01*
X140471222Y-63759009D01*
X140500552Y-63723271D01*
X140583814Y-63621814D01*
X140685271Y-63538552D01*
X140721009Y-63509222D01*
X140775226Y-63480242D01*
X140877533Y-63425557D01*
X140934147Y-63408384D01*
X141047373Y-63374037D01*
X141113558Y-63367518D01*
X141179740Y-63361000D01*
X141268260Y-63361000D01*
X141334442Y-63367518D01*
X141334442Y-63367518D01*
G37*
G36*
X175370442Y-63367518D02*
X175436627Y-63374037D01*
X175549853Y-63408384D01*
X175606467Y-63425557D01*
X175708774Y-63480242D01*
X175762991Y-63509222D01*
X175798729Y-63538552D01*
X175900186Y-63621814D01*
X175983448Y-63723271D01*
X176012778Y-63759009D01*
X176012779Y-63759011D01*
X176096443Y-63915533D01*
X176096443Y-63915534D01*
X176147963Y-64085373D01*
X176165359Y-64262000D01*
X176147963Y-64438627D01*
X176113616Y-64551853D01*
X176096443Y-64608467D01*
X176022348Y-64747087D01*
X176012778Y-64764991D01*
X175983448Y-64800729D01*
X175900186Y-64902186D01*
X175802358Y-64982470D01*
X175762991Y-65014778D01*
X175762989Y-65014779D01*
X175606467Y-65098443D01*
X175549853Y-65115616D01*
X175436627Y-65149963D01*
X175370443Y-65156481D01*
X175304260Y-65163000D01*
X175215740Y-65163000D01*
X175149557Y-65156481D01*
X175083373Y-65149963D01*
X174970147Y-65115616D01*
X174913533Y-65098443D01*
X174757011Y-65014779D01*
X174757009Y-65014778D01*
X174717642Y-64982470D01*
X174619814Y-64902186D01*
X174536552Y-64800729D01*
X174507222Y-64764991D01*
X174497652Y-64747087D01*
X174423557Y-64608467D01*
X174406384Y-64551853D01*
X174372037Y-64438627D01*
X174354641Y-64262000D01*
X174372037Y-64085373D01*
X174423557Y-63915534D01*
X174423557Y-63915533D01*
X174507221Y-63759011D01*
X174507222Y-63759009D01*
X174536552Y-63723271D01*
X174619814Y-63621814D01*
X174721271Y-63538552D01*
X174757009Y-63509222D01*
X174811226Y-63480242D01*
X174913533Y-63425557D01*
X174970147Y-63408384D01*
X175083373Y-63374037D01*
X175149558Y-63367518D01*
X175215740Y-63361000D01*
X175304260Y-63361000D01*
X175370442Y-63367518D01*
X175370442Y-63367518D01*
G37*
G36*
X144509142Y-63480242D02*
X144657102Y-63541530D01*
X144724130Y-63586317D01*
X144790257Y-63630501D01*
X144903499Y-63743743D01*
X144947683Y-63809870D01*
X144992470Y-63876898D01*
X145053758Y-64024858D01*
X145085000Y-64181925D01*
X145085000Y-64342075D01*
X145053758Y-64499142D01*
X145008474Y-64608466D01*
X144992471Y-64647100D01*
X144903499Y-64780257D01*
X144790257Y-64893499D01*
X144724130Y-64937683D01*
X144657102Y-64982470D01*
X144509142Y-65043758D01*
X144352075Y-65075000D01*
X144191925Y-65075000D01*
X144034858Y-65043758D01*
X143886898Y-64982470D01*
X143819870Y-64937683D01*
X143753743Y-64893499D01*
X143640501Y-64780257D01*
X143551529Y-64647100D01*
X143535526Y-64608466D01*
X143490242Y-64499142D01*
X143459000Y-64342075D01*
X143459000Y-64181925D01*
X143490242Y-64024858D01*
X143551530Y-63876898D01*
X143596317Y-63809870D01*
X143640501Y-63743743D01*
X143753743Y-63630501D01*
X143819870Y-63586317D01*
X143886898Y-63541530D01*
X144034858Y-63480242D01*
X144191925Y-63449000D01*
X144352075Y-63449000D01*
X144509142Y-63480242D01*
X144509142Y-63480242D01*
G37*
G36*
X172449142Y-63480242D02*
X172597102Y-63541530D01*
X172664130Y-63586317D01*
X172730257Y-63630501D01*
X172843499Y-63743743D01*
X172887683Y-63809870D01*
X172932470Y-63876898D01*
X172993758Y-64024858D01*
X173025000Y-64181925D01*
X173025000Y-64342075D01*
X172993758Y-64499142D01*
X172948474Y-64608466D01*
X172932471Y-64647100D01*
X172843499Y-64780257D01*
X172730257Y-64893499D01*
X172664130Y-64937683D01*
X172597102Y-64982470D01*
X172449142Y-65043758D01*
X172292075Y-65075000D01*
X172131925Y-65075000D01*
X171974858Y-65043758D01*
X171826898Y-64982470D01*
X171759870Y-64937683D01*
X171693743Y-64893499D01*
X171580501Y-64780257D01*
X171491529Y-64647100D01*
X171475526Y-64608466D01*
X171430242Y-64499142D01*
X171399000Y-64342075D01*
X171399000Y-64181925D01*
X171430242Y-64024858D01*
X171491530Y-63876898D01*
X171536317Y-63809870D01*
X171580501Y-63743743D01*
X171693743Y-63630501D01*
X171759870Y-63586317D01*
X171826898Y-63541530D01*
X171974858Y-63480242D01*
X172131925Y-63449000D01*
X172292075Y-63449000D01*
X172449142Y-63480242D01*
X172449142Y-63480242D01*
G37*
G36*
X183677000Y-63741500D02*
X181575000Y-63741500D01*
X181575000Y-61734500D01*
X183677000Y-61734500D01*
X183677000Y-63741500D01*
X183677000Y-63741500D01*
G37*
G36*
X175370443Y-60827519D02*
X175436627Y-60834037D01*
X175549853Y-60868384D01*
X175606467Y-60885557D01*
X175708774Y-60940242D01*
X175762991Y-60969222D01*
X175798729Y-60998552D01*
X175900186Y-61081814D01*
X175983448Y-61183271D01*
X176012778Y-61219009D01*
X176012779Y-61219011D01*
X176096443Y-61375533D01*
X176096443Y-61375534D01*
X176147963Y-61545373D01*
X176165359Y-61722000D01*
X176147963Y-61898627D01*
X176113616Y-62011853D01*
X176096443Y-62068467D01*
X176022348Y-62207087D01*
X176012778Y-62224991D01*
X175983448Y-62260729D01*
X175900186Y-62362186D01*
X175802358Y-62442470D01*
X175762991Y-62474778D01*
X175762989Y-62474779D01*
X175606467Y-62558443D01*
X175549853Y-62575616D01*
X175436627Y-62609963D01*
X175370442Y-62616482D01*
X175304260Y-62623000D01*
X175215740Y-62623000D01*
X175149558Y-62616482D01*
X175083373Y-62609963D01*
X174970147Y-62575616D01*
X174913533Y-62558443D01*
X174757011Y-62474779D01*
X174757009Y-62474778D01*
X174717642Y-62442470D01*
X174619814Y-62362186D01*
X174536552Y-62260729D01*
X174507222Y-62224991D01*
X174497652Y-62207087D01*
X174423557Y-62068467D01*
X174406384Y-62011853D01*
X174372037Y-61898627D01*
X174354641Y-61722000D01*
X174372037Y-61545373D01*
X174423557Y-61375534D01*
X174423557Y-61375533D01*
X174507221Y-61219011D01*
X174507222Y-61219009D01*
X174536552Y-61183271D01*
X174619814Y-61081814D01*
X174721271Y-60998552D01*
X174757009Y-60969222D01*
X174811226Y-60940242D01*
X174913533Y-60885557D01*
X174970147Y-60868384D01*
X175083373Y-60834037D01*
X175149557Y-60827519D01*
X175215740Y-60821000D01*
X175304260Y-60821000D01*
X175370443Y-60827519D01*
X175370443Y-60827519D01*
G37*
G36*
X141334443Y-60827519D02*
X141400627Y-60834037D01*
X141513853Y-60868384D01*
X141570467Y-60885557D01*
X141672774Y-60940242D01*
X141726991Y-60969222D01*
X141762729Y-60998552D01*
X141864186Y-61081814D01*
X141947448Y-61183271D01*
X141976778Y-61219009D01*
X141976779Y-61219011D01*
X142060443Y-61375533D01*
X142060443Y-61375534D01*
X142111963Y-61545373D01*
X142129359Y-61722000D01*
X142111963Y-61898627D01*
X142077616Y-62011853D01*
X142060443Y-62068467D01*
X141986348Y-62207087D01*
X141976778Y-62224991D01*
X141947448Y-62260729D01*
X141864186Y-62362186D01*
X141766358Y-62442470D01*
X141726991Y-62474778D01*
X141726989Y-62474779D01*
X141570467Y-62558443D01*
X141513853Y-62575616D01*
X141400627Y-62609963D01*
X141334442Y-62616482D01*
X141268260Y-62623000D01*
X141179740Y-62623000D01*
X141113558Y-62616482D01*
X141047373Y-62609963D01*
X140934147Y-62575616D01*
X140877533Y-62558443D01*
X140721011Y-62474779D01*
X140721009Y-62474778D01*
X140681642Y-62442470D01*
X140583814Y-62362186D01*
X140500552Y-62260729D01*
X140471222Y-62224991D01*
X140461652Y-62207087D01*
X140387557Y-62068467D01*
X140370384Y-62011853D01*
X140336037Y-61898627D01*
X140318641Y-61722000D01*
X140336037Y-61545373D01*
X140387557Y-61375534D01*
X140387557Y-61375533D01*
X140471221Y-61219011D01*
X140471222Y-61219009D01*
X140500552Y-61183271D01*
X140583814Y-61081814D01*
X140685271Y-60998552D01*
X140721009Y-60969222D01*
X140775226Y-60940242D01*
X140877533Y-60885557D01*
X140934147Y-60868384D01*
X141047373Y-60834037D01*
X141113557Y-60827519D01*
X141179740Y-60821000D01*
X141268260Y-60821000D01*
X141334443Y-60827519D01*
X141334443Y-60827519D01*
G37*
G36*
X172449142Y-60940242D02*
X172597102Y-61001530D01*
X172649314Y-61036417D01*
X172730257Y-61090501D01*
X172843499Y-61203743D01*
X172887683Y-61269870D01*
X172932470Y-61336898D01*
X172993758Y-61484858D01*
X173025000Y-61641925D01*
X173025000Y-61802075D01*
X172993758Y-61959142D01*
X172948474Y-62068466D01*
X172932471Y-62107100D01*
X172843499Y-62240257D01*
X172730257Y-62353499D01*
X172664130Y-62397683D01*
X172597102Y-62442470D01*
X172449142Y-62503758D01*
X172292075Y-62535000D01*
X172131925Y-62535000D01*
X171974858Y-62503758D01*
X171826898Y-62442470D01*
X171759870Y-62397683D01*
X171693743Y-62353499D01*
X171580501Y-62240257D01*
X171491529Y-62107100D01*
X171475526Y-62068466D01*
X171430242Y-61959142D01*
X171399000Y-61802075D01*
X171399000Y-61641925D01*
X171430242Y-61484858D01*
X171491530Y-61336898D01*
X171536317Y-61269870D01*
X171580501Y-61203743D01*
X171693743Y-61090501D01*
X171774686Y-61036417D01*
X171826898Y-61001530D01*
X171974858Y-60940242D01*
X172131925Y-60909000D01*
X172292075Y-60909000D01*
X172449142Y-60940242D01*
X172449142Y-60940242D01*
G37*
G36*
X144509142Y-60940242D02*
X144657102Y-61001530D01*
X144709314Y-61036417D01*
X144790257Y-61090501D01*
X144903499Y-61203743D01*
X144947683Y-61269870D01*
X144992470Y-61336898D01*
X145053758Y-61484858D01*
X145085000Y-61641925D01*
X145085000Y-61802075D01*
X145053758Y-61959142D01*
X145008474Y-62068466D01*
X144992471Y-62107100D01*
X144903499Y-62240257D01*
X144790257Y-62353499D01*
X144724130Y-62397683D01*
X144657102Y-62442470D01*
X144509142Y-62503758D01*
X144352075Y-62535000D01*
X144191925Y-62535000D01*
X144034858Y-62503758D01*
X143886898Y-62442470D01*
X143819870Y-62397683D01*
X143753743Y-62353499D01*
X143640501Y-62240257D01*
X143551529Y-62107100D01*
X143535526Y-62068466D01*
X143490242Y-61959142D01*
X143459000Y-61802075D01*
X143459000Y-61641925D01*
X143490242Y-61484858D01*
X143551530Y-61336898D01*
X143596317Y-61269870D01*
X143640501Y-61203743D01*
X143753743Y-61090501D01*
X143834686Y-61036417D01*
X143886898Y-61001530D01*
X144034858Y-60940242D01*
X144191925Y-60909000D01*
X144352075Y-60909000D01*
X144509142Y-60940242D01*
X144509142Y-60940242D01*
G37*
G36*
X182781764Y-59200308D02*
X182870220Y-59209020D01*
X183059381Y-59266401D01*
X183233712Y-59359583D01*
X183386515Y-59484985D01*
X183511917Y-59637788D01*
X183605099Y-59812119D01*
X183662480Y-60001280D01*
X183681855Y-60198000D01*
X183662480Y-60394720D01*
X183605099Y-60583881D01*
X183511917Y-60758212D01*
X183386515Y-60911015D01*
X183233712Y-61036417D01*
X183059381Y-61129599D01*
X182870220Y-61186980D01*
X182781764Y-61195692D01*
X182722796Y-61201500D01*
X182529204Y-61201500D01*
X182470236Y-61195692D01*
X182381780Y-61186980D01*
X182192619Y-61129599D01*
X182018288Y-61036417D01*
X181865485Y-60911015D01*
X181740083Y-60758212D01*
X181646901Y-60583881D01*
X181589520Y-60394720D01*
X181570145Y-60198000D01*
X181589520Y-60001280D01*
X181646901Y-59812119D01*
X181740083Y-59637788D01*
X181865485Y-59484985D01*
X182018288Y-59359583D01*
X182192619Y-59266401D01*
X182381780Y-59209020D01*
X182470236Y-59200308D01*
X182529204Y-59194500D01*
X182722796Y-59194500D01*
X182781764Y-59200308D01*
X182781764Y-59200308D01*
G37*
G36*
X150108228Y-58617703D02*
X150263100Y-58681853D01*
X150402481Y-58774985D01*
X150521015Y-58893519D01*
X150614147Y-59032900D01*
X150678297Y-59187772D01*
X150711000Y-59352184D01*
X150711000Y-59519816D01*
X150678297Y-59684228D01*
X150614147Y-59839100D01*
X150521015Y-59978481D01*
X150402481Y-60097015D01*
X150263100Y-60190147D01*
X150108228Y-60254297D01*
X149943816Y-60287000D01*
X149776184Y-60287000D01*
X149611772Y-60254297D01*
X149456900Y-60190147D01*
X149317519Y-60097015D01*
X149198985Y-59978481D01*
X149105853Y-59839100D01*
X149041703Y-59684228D01*
X149009000Y-59519816D01*
X149009000Y-59352184D01*
X149041703Y-59187772D01*
X149105853Y-59032900D01*
X149198985Y-58893519D01*
X149317519Y-58774985D01*
X149456900Y-58681853D01*
X149611772Y-58617703D01*
X149776184Y-58585000D01*
X149943816Y-58585000D01*
X150108228Y-58617703D01*
X150108228Y-58617703D01*
G37*
G36*
X175370442Y-58287518D02*
X175436627Y-58294037D01*
X175549853Y-58328384D01*
X175606467Y-58345557D01*
X175693311Y-58391977D01*
X175762991Y-58429222D01*
X175798729Y-58458552D01*
X175900186Y-58541814D01*
X175962466Y-58617704D01*
X176012778Y-58679009D01*
X176012779Y-58679011D01*
X176096443Y-58835533D01*
X176113616Y-58892147D01*
X176147963Y-59005373D01*
X176165359Y-59182000D01*
X176147963Y-59358627D01*
X176113616Y-59471853D01*
X176096443Y-59528467D01*
X176038009Y-59637788D01*
X176012778Y-59684991D01*
X175983448Y-59720729D01*
X175900186Y-59822186D01*
X175802358Y-59902470D01*
X175762991Y-59934778D01*
X175762989Y-59934779D01*
X175606467Y-60018443D01*
X175599069Y-60020687D01*
X175436627Y-60069963D01*
X175370442Y-60076482D01*
X175304260Y-60083000D01*
X175215740Y-60083000D01*
X175149558Y-60076482D01*
X175083373Y-60069963D01*
X174920931Y-60020687D01*
X174913533Y-60018443D01*
X174757011Y-59934779D01*
X174757009Y-59934778D01*
X174717642Y-59902470D01*
X174619814Y-59822186D01*
X174536552Y-59720729D01*
X174507222Y-59684991D01*
X174481991Y-59637788D01*
X174423557Y-59528467D01*
X174406384Y-59471853D01*
X174372037Y-59358627D01*
X174354641Y-59182000D01*
X174372037Y-59005373D01*
X174406384Y-58892147D01*
X174423557Y-58835533D01*
X174507221Y-58679011D01*
X174507222Y-58679009D01*
X174557534Y-58617704D01*
X174619814Y-58541814D01*
X174721271Y-58458552D01*
X174757009Y-58429222D01*
X174826689Y-58391977D01*
X174913533Y-58345557D01*
X174970147Y-58328384D01*
X175083373Y-58294037D01*
X175149558Y-58287518D01*
X175215740Y-58281000D01*
X175304260Y-58281000D01*
X175370442Y-58287518D01*
X175370442Y-58287518D01*
G37*
G36*
X142125000Y-60083000D02*
X140323000Y-60083000D01*
X140323000Y-58281000D01*
X142125000Y-58281000D01*
X142125000Y-60083000D01*
X142125000Y-60083000D01*
G37*
G36*
X166790821Y-58343313D02*
X166790824Y-58343314D01*
X166790825Y-58343314D01*
X166951239Y-58391975D01*
X166951241Y-58391976D01*
X166951244Y-58391977D01*
X167099078Y-58470995D01*
X167228659Y-58577341D01*
X167335005Y-58706922D01*
X167414023Y-58854756D01*
X167414024Y-58854759D01*
X167414025Y-58854761D01*
X167459713Y-59005375D01*
X167462687Y-59015179D01*
X167479117Y-59182000D01*
X167462687Y-59348821D01*
X167462686Y-59348824D01*
X167462686Y-59348825D01*
X167441356Y-59419142D01*
X167414023Y-59509244D01*
X167335005Y-59657078D01*
X167228659Y-59786659D01*
X167099078Y-59893005D01*
X166951244Y-59972023D01*
X166951241Y-59972024D01*
X166951239Y-59972025D01*
X166790825Y-60020686D01*
X166790824Y-60020686D01*
X166790821Y-60020687D01*
X166665804Y-60033000D01*
X166582196Y-60033000D01*
X166457179Y-60020687D01*
X166457176Y-60020686D01*
X166457175Y-60020686D01*
X166296761Y-59972025D01*
X166296759Y-59972024D01*
X166296756Y-59972023D01*
X166148922Y-59893005D01*
X166019341Y-59786659D01*
X165912995Y-59657078D01*
X165833977Y-59509244D01*
X165806645Y-59419142D01*
X165785314Y-59348825D01*
X165785314Y-59348824D01*
X165785313Y-59348821D01*
X165768883Y-59182000D01*
X165785313Y-59015179D01*
X165788287Y-59005375D01*
X165833975Y-58854761D01*
X165833976Y-58854759D01*
X165833977Y-58854756D01*
X165912995Y-58706922D01*
X166019341Y-58577341D01*
X166148922Y-58470995D01*
X166296756Y-58391977D01*
X166296759Y-58391976D01*
X166296761Y-58391975D01*
X166457175Y-58343314D01*
X166457176Y-58343314D01*
X166457179Y-58343313D01*
X166582196Y-58331000D01*
X166665804Y-58331000D01*
X166790821Y-58343313D01*
X166790821Y-58343313D01*
G37*
G36*
X144509142Y-58400242D02*
X144657102Y-58461530D01*
X144709314Y-58496417D01*
X144790257Y-58550501D01*
X144903499Y-58663743D01*
X144915600Y-58681854D01*
X144992470Y-58796898D01*
X145053758Y-58944858D01*
X145085000Y-59101925D01*
X145085000Y-59262075D01*
X145053758Y-59419142D01*
X145016438Y-59509239D01*
X144992471Y-59567100D01*
X144903499Y-59700257D01*
X144790257Y-59813499D01*
X144751942Y-59839100D01*
X144657102Y-59902470D01*
X144509142Y-59963758D01*
X144352075Y-59995000D01*
X144191925Y-59995000D01*
X144034858Y-59963758D01*
X143886898Y-59902470D01*
X143792058Y-59839100D01*
X143753743Y-59813499D01*
X143640501Y-59700257D01*
X143551529Y-59567100D01*
X143527562Y-59509239D01*
X143490242Y-59419142D01*
X143459000Y-59262075D01*
X143459000Y-59101925D01*
X143490242Y-58944858D01*
X143551530Y-58796898D01*
X143628400Y-58681854D01*
X143640501Y-58663743D01*
X143753743Y-58550501D01*
X143834686Y-58496417D01*
X143886898Y-58461530D01*
X144034858Y-58400242D01*
X144191925Y-58369000D01*
X144352075Y-58369000D01*
X144509142Y-58400242D01*
X144509142Y-58400242D01*
G37*
G36*
X172449142Y-58400242D02*
X172597102Y-58461530D01*
X172649314Y-58496417D01*
X172730257Y-58550501D01*
X172843499Y-58663743D01*
X172855600Y-58681854D01*
X172932470Y-58796898D01*
X172993758Y-58944858D01*
X173025000Y-59101925D01*
X173025000Y-59262075D01*
X172993758Y-59419142D01*
X172956438Y-59509239D01*
X172932471Y-59567100D01*
X172843499Y-59700257D01*
X172730257Y-59813499D01*
X172691942Y-59839100D01*
X172597102Y-59902470D01*
X172449142Y-59963758D01*
X172292075Y-59995000D01*
X172131925Y-59995000D01*
X171974858Y-59963758D01*
X171826898Y-59902470D01*
X171732058Y-59839100D01*
X171693743Y-59813499D01*
X171580501Y-59700257D01*
X171491529Y-59567100D01*
X171467562Y-59509239D01*
X171430242Y-59419142D01*
X171399000Y-59262075D01*
X171399000Y-59101925D01*
X171430242Y-58944858D01*
X171491530Y-58796898D01*
X171568400Y-58681854D01*
X171580501Y-58663743D01*
X171693743Y-58550501D01*
X171774686Y-58496417D01*
X171826898Y-58461530D01*
X171974858Y-58400242D01*
X172131925Y-58369000D01*
X172292075Y-58369000D01*
X172449142Y-58400242D01*
X172449142Y-58400242D01*
G37*
G36*
X182781764Y-56660308D02*
X182870220Y-56669020D01*
X183059381Y-56726401D01*
X183233712Y-56819583D01*
X183386515Y-56944985D01*
X183511917Y-57097788D01*
X183605099Y-57272119D01*
X183662480Y-57461280D01*
X183681855Y-57658000D01*
X183662480Y-57854720D01*
X183605099Y-58043881D01*
X183511917Y-58218212D01*
X183386515Y-58371015D01*
X183233712Y-58496417D01*
X183059381Y-58589599D01*
X182870220Y-58646980D01*
X182781764Y-58655692D01*
X182722796Y-58661500D01*
X182529204Y-58661500D01*
X182470236Y-58655692D01*
X182381780Y-58646980D01*
X182192619Y-58589599D01*
X182018288Y-58496417D01*
X181865485Y-58371015D01*
X181740083Y-58218212D01*
X181646901Y-58043881D01*
X181589520Y-57854720D01*
X181570145Y-57658000D01*
X181589520Y-57461280D01*
X181646901Y-57272119D01*
X181740083Y-57097788D01*
X181865485Y-56944985D01*
X182018288Y-56819583D01*
X182192619Y-56726401D01*
X182381780Y-56669020D01*
X182470236Y-56660308D01*
X182529204Y-56654500D01*
X182722796Y-56654500D01*
X182781764Y-56660308D01*
X182781764Y-56660308D01*
G37*
G36*
X176161000Y-56527000D02*
X174359000Y-56527000D01*
X174359000Y-54725000D01*
X176161000Y-54725000D01*
X176161000Y-56527000D01*
X176161000Y-56527000D01*
G37*
G36*
X175370442Y-52191518D02*
X175436627Y-52198037D01*
X175549853Y-52232384D01*
X175606467Y-52249557D01*
X175745087Y-52323652D01*
X175762991Y-52333222D01*
X175798729Y-52362552D01*
X175900186Y-52445814D01*
X175983448Y-52547271D01*
X176012778Y-52583009D01*
X176012779Y-52583011D01*
X176096443Y-52739533D01*
X176096443Y-52739534D01*
X176147963Y-52909373D01*
X176165359Y-53086000D01*
X176147963Y-53262627D01*
X176113616Y-53375853D01*
X176096443Y-53432467D01*
X176022348Y-53571087D01*
X176012778Y-53588991D01*
X175983448Y-53624729D01*
X175900186Y-53726186D01*
X175798729Y-53809448D01*
X175762991Y-53838778D01*
X175762989Y-53838779D01*
X175606467Y-53922443D01*
X175549853Y-53939616D01*
X175436627Y-53973963D01*
X175370443Y-53980481D01*
X175304260Y-53987000D01*
X175215740Y-53987000D01*
X175149557Y-53980481D01*
X175083373Y-53973963D01*
X174970147Y-53939616D01*
X174913533Y-53922443D01*
X174757011Y-53838779D01*
X174757009Y-53838778D01*
X174721271Y-53809448D01*
X174619814Y-53726186D01*
X174536552Y-53624729D01*
X174507222Y-53588991D01*
X174497652Y-53571087D01*
X174423557Y-53432467D01*
X174406384Y-53375853D01*
X174372037Y-53262627D01*
X174354641Y-53086000D01*
X174372037Y-52909373D01*
X174423557Y-52739534D01*
X174423557Y-52739533D01*
X174507221Y-52583011D01*
X174507222Y-52583009D01*
X174536552Y-52547271D01*
X174619814Y-52445814D01*
X174721271Y-52362552D01*
X174757009Y-52333222D01*
X174774913Y-52323652D01*
X174913533Y-52249557D01*
X174970147Y-52232384D01*
X175083373Y-52198037D01*
X175149557Y-52191519D01*
X175215740Y-52185000D01*
X175304260Y-52185000D01*
X175370442Y-52191518D01*
X175370442Y-52191518D01*
G37*
G36*
X142812433Y-50450893D02*
X142902657Y-50468839D01*
X143008267Y-50512585D01*
X143157621Y-50574449D01*
X143387089Y-50727774D01*
X143582226Y-50922911D01*
X143735551Y-51152379D01*
X143841161Y-51407344D01*
X143895000Y-51678012D01*
X143895000Y-51953988D01*
X143841161Y-52224656D01*
X143735551Y-52479621D01*
X143582226Y-52709089D01*
X143387089Y-52904226D01*
X143157621Y-53057551D01*
X143008267Y-53119415D01*
X142902657Y-53163161D01*
X142812433Y-53181107D01*
X142631988Y-53217000D01*
X142356012Y-53217000D01*
X142175567Y-53181107D01*
X142085343Y-53163161D01*
X141979733Y-53119415D01*
X141830379Y-53057551D01*
X141600911Y-52904226D01*
X141405774Y-52709089D01*
X141252449Y-52479621D01*
X141146839Y-52224656D01*
X141093000Y-51953988D01*
X141093000Y-51678012D01*
X141146839Y-51407344D01*
X141252449Y-51152379D01*
X141405774Y-50922911D01*
X141600911Y-50727774D01*
X141830379Y-50574449D01*
X141979733Y-50512585D01*
X142085343Y-50468839D01*
X142175567Y-50450893D01*
X142356012Y-50415000D01*
X142631988Y-50415000D01*
X142812433Y-50450893D01*
X142812433Y-50450893D01*
G37*
G36*
X182944433Y-50450893D02*
X183034657Y-50468839D01*
X183140267Y-50512585D01*
X183289621Y-50574449D01*
X183519089Y-50727774D01*
X183714226Y-50922911D01*
X183867551Y-51152379D01*
X183973161Y-51407344D01*
X184027000Y-51678012D01*
X184027000Y-51953988D01*
X183973161Y-52224656D01*
X183867551Y-52479621D01*
X183714226Y-52709089D01*
X183519089Y-52904226D01*
X183289621Y-53057551D01*
X183140267Y-53119415D01*
X183034657Y-53163161D01*
X182944433Y-53181107D01*
X182763988Y-53217000D01*
X182488012Y-53217000D01*
X182307567Y-53181107D01*
X182217343Y-53163161D01*
X182111733Y-53119415D01*
X181962379Y-53057551D01*
X181732911Y-52904226D01*
X181537774Y-52709089D01*
X181384449Y-52479621D01*
X181278839Y-52224656D01*
X181225000Y-51953988D01*
X181225000Y-51678012D01*
X181278839Y-51407344D01*
X181384449Y-51152379D01*
X181537774Y-50922911D01*
X181732911Y-50727774D01*
X181962379Y-50574449D01*
X182111733Y-50512585D01*
X182217343Y-50468839D01*
X182307567Y-50450893D01*
X182488012Y-50415000D01*
X182763988Y-50415000D01*
X182944433Y-50450893D01*
X182944433Y-50450893D01*
G37*
G36*
X162670443Y-49651519D02*
X162736627Y-49658037D01*
X162849853Y-49692384D01*
X162906467Y-49709557D01*
X163045087Y-49783652D01*
X163062991Y-49793222D01*
X163098729Y-49822552D01*
X163200186Y-49905814D01*
X163283448Y-50007271D01*
X163312778Y-50043009D01*
X163312779Y-50043011D01*
X163396443Y-50199533D01*
X163396443Y-50199534D01*
X163447963Y-50369373D01*
X163465359Y-50546000D01*
X163447963Y-50722627D01*
X163413616Y-50835853D01*
X163396443Y-50892467D01*
X163380170Y-50922911D01*
X163312778Y-51048991D01*
X163283448Y-51084729D01*
X163200186Y-51186186D01*
X163098729Y-51269448D01*
X163062991Y-51298778D01*
X163062989Y-51298779D01*
X162906467Y-51382443D01*
X162849853Y-51399616D01*
X162736627Y-51433963D01*
X162670443Y-51440481D01*
X162604260Y-51447000D01*
X162515740Y-51447000D01*
X162449557Y-51440481D01*
X162383373Y-51433963D01*
X162270147Y-51399616D01*
X162213533Y-51382443D01*
X162057011Y-51298779D01*
X162057009Y-51298778D01*
X162021271Y-51269448D01*
X161919814Y-51186186D01*
X161836552Y-51084729D01*
X161807222Y-51048991D01*
X161739830Y-50922911D01*
X161723557Y-50892467D01*
X161706384Y-50835853D01*
X161672037Y-50722627D01*
X161654641Y-50546000D01*
X161672037Y-50369373D01*
X161723557Y-50199534D01*
X161723557Y-50199533D01*
X161807221Y-50043011D01*
X161807222Y-50043009D01*
X161836552Y-50007271D01*
X161919814Y-49905814D01*
X162021271Y-49822552D01*
X162057009Y-49793222D01*
X162074913Y-49783652D01*
X162213533Y-49709557D01*
X162270147Y-49692384D01*
X162383373Y-49658037D01*
X162449557Y-49651519D01*
X162515740Y-49645000D01*
X162604260Y-49645000D01*
X162670443Y-49651519D01*
X162670443Y-49651519D01*
G37*
G36*
X175370443Y-49651519D02*
X175436627Y-49658037D01*
X175549853Y-49692384D01*
X175606467Y-49709557D01*
X175745087Y-49783652D01*
X175762991Y-49793222D01*
X175798729Y-49822552D01*
X175900186Y-49905814D01*
X175983448Y-50007271D01*
X176012778Y-50043009D01*
X176012779Y-50043011D01*
X176096443Y-50199533D01*
X176096443Y-50199534D01*
X176147963Y-50369373D01*
X176165359Y-50546000D01*
X176147963Y-50722627D01*
X176113616Y-50835853D01*
X176096443Y-50892467D01*
X176080170Y-50922911D01*
X176012778Y-51048991D01*
X175983448Y-51084729D01*
X175900186Y-51186186D01*
X175798729Y-51269448D01*
X175762991Y-51298778D01*
X175762989Y-51298779D01*
X175606467Y-51382443D01*
X175549853Y-51399616D01*
X175436627Y-51433963D01*
X175370443Y-51440481D01*
X175304260Y-51447000D01*
X175215740Y-51447000D01*
X175149557Y-51440481D01*
X175083373Y-51433963D01*
X174970147Y-51399616D01*
X174913533Y-51382443D01*
X174757011Y-51298779D01*
X174757009Y-51298778D01*
X174721271Y-51269448D01*
X174619814Y-51186186D01*
X174536552Y-51084729D01*
X174507222Y-51048991D01*
X174439830Y-50922911D01*
X174423557Y-50892467D01*
X174406384Y-50835853D01*
X174372037Y-50722627D01*
X174354641Y-50546000D01*
X174372037Y-50369373D01*
X174423557Y-50199534D01*
X174423557Y-50199533D01*
X174507221Y-50043011D01*
X174507222Y-50043009D01*
X174536552Y-50007271D01*
X174619814Y-49905814D01*
X174721271Y-49822552D01*
X174757009Y-49793222D01*
X174774913Y-49783652D01*
X174913533Y-49709557D01*
X174970147Y-49692384D01*
X175083373Y-49658037D01*
X175149557Y-49651519D01*
X175215740Y-49645000D01*
X175304260Y-49645000D01*
X175370443Y-49651519D01*
X175370443Y-49651519D01*
G37*
G36*
X160130443Y-49651519D02*
X160196627Y-49658037D01*
X160309853Y-49692384D01*
X160366467Y-49709557D01*
X160505087Y-49783652D01*
X160522991Y-49793222D01*
X160558729Y-49822552D01*
X160660186Y-49905814D01*
X160743448Y-50007271D01*
X160772778Y-50043009D01*
X160772779Y-50043011D01*
X160856443Y-50199533D01*
X160856443Y-50199534D01*
X160907963Y-50369373D01*
X160925359Y-50546000D01*
X160907963Y-50722627D01*
X160873616Y-50835853D01*
X160856443Y-50892467D01*
X160840170Y-50922911D01*
X160772778Y-51048991D01*
X160743448Y-51084729D01*
X160660186Y-51186186D01*
X160558729Y-51269448D01*
X160522991Y-51298778D01*
X160522989Y-51298779D01*
X160366467Y-51382443D01*
X160309853Y-51399616D01*
X160196627Y-51433963D01*
X160130443Y-51440481D01*
X160064260Y-51447000D01*
X159975740Y-51447000D01*
X159909557Y-51440481D01*
X159843373Y-51433963D01*
X159730147Y-51399616D01*
X159673533Y-51382443D01*
X159517011Y-51298779D01*
X159517009Y-51298778D01*
X159481271Y-51269448D01*
X159379814Y-51186186D01*
X159296552Y-51084729D01*
X159267222Y-51048991D01*
X159199830Y-50922911D01*
X159183557Y-50892467D01*
X159166384Y-50835853D01*
X159132037Y-50722627D01*
X159114641Y-50546000D01*
X159132037Y-50369373D01*
X159183557Y-50199534D01*
X159183557Y-50199533D01*
X159267221Y-50043011D01*
X159267222Y-50043009D01*
X159296552Y-50007271D01*
X159379814Y-49905814D01*
X159481271Y-49822552D01*
X159517009Y-49793222D01*
X159534913Y-49783652D01*
X159673533Y-49709557D01*
X159730147Y-49692384D01*
X159843373Y-49658037D01*
X159909557Y-49651519D01*
X159975740Y-49645000D01*
X160064260Y-49645000D01*
X160130443Y-49651519D01*
X160130443Y-49651519D01*
G37*
G36*
X157590443Y-49651519D02*
X157656627Y-49658037D01*
X157769853Y-49692384D01*
X157826467Y-49709557D01*
X157965087Y-49783652D01*
X157982991Y-49793222D01*
X158018729Y-49822552D01*
X158120186Y-49905814D01*
X158203448Y-50007271D01*
X158232778Y-50043009D01*
X158232779Y-50043011D01*
X158316443Y-50199533D01*
X158316443Y-50199534D01*
X158367963Y-50369373D01*
X158385359Y-50546000D01*
X158367963Y-50722627D01*
X158333616Y-50835853D01*
X158316443Y-50892467D01*
X158300170Y-50922911D01*
X158232778Y-51048991D01*
X158203448Y-51084729D01*
X158120186Y-51186186D01*
X158018729Y-51269448D01*
X157982991Y-51298778D01*
X157982989Y-51298779D01*
X157826467Y-51382443D01*
X157769853Y-51399616D01*
X157656627Y-51433963D01*
X157590443Y-51440481D01*
X157524260Y-51447000D01*
X157435740Y-51447000D01*
X157369557Y-51440481D01*
X157303373Y-51433963D01*
X157190147Y-51399616D01*
X157133533Y-51382443D01*
X156977011Y-51298779D01*
X156977009Y-51298778D01*
X156941271Y-51269448D01*
X156839814Y-51186186D01*
X156756552Y-51084729D01*
X156727222Y-51048991D01*
X156659830Y-50922911D01*
X156643557Y-50892467D01*
X156626384Y-50835853D01*
X156592037Y-50722627D01*
X156574641Y-50546000D01*
X156592037Y-50369373D01*
X156643557Y-50199534D01*
X156643557Y-50199533D01*
X156727221Y-50043011D01*
X156727222Y-50043009D01*
X156756552Y-50007271D01*
X156839814Y-49905814D01*
X156941271Y-49822552D01*
X156977009Y-49793222D01*
X156994913Y-49783652D01*
X157133533Y-49709557D01*
X157190147Y-49692384D01*
X157303373Y-49658037D01*
X157369557Y-49651519D01*
X157435740Y-49645000D01*
X157524260Y-49645000D01*
X157590443Y-49651519D01*
X157590443Y-49651519D01*
G37*
G36*
X155841000Y-51447000D02*
X154039000Y-51447000D01*
X154039000Y-49645000D01*
X155841000Y-49645000D01*
X155841000Y-51447000D01*
X155841000Y-51447000D01*
G37*
M02*
