%TF.GenerationSoftware,KiCad,Pcbnew,5.0.2-bee76a0~70~ubuntu18.04.1*%
%TF.CreationDate,2019-10-11T23:30:34+02:00*%
%TF.ProjectId,ESP8266-LolinV3-Lamp,45535038-3236-4362-9d4c-6f6c696e5633,1.0*%
%TF.SameCoordinates,Original*%
%TF.FileFunction,Copper,L2,Bot*%
%TF.FilePolarity,Positive*%
%FSLAX46Y46*%
G04 Gerber Fmt 4.6, Leading zero omitted, Abs format (unit mm)*
G04 Created by KiCad (PCBNEW 5.0.2-bee76a0~70~ubuntu18.04.1) date ven 11 ott 2019 23:30:34 CEST*
%MOMM*%
%LPD*%
G01*
G04 APERTURE LIST*
%ADD10C,0.150000*%
%ADD11O,1.600000X1.600000*%
%ADD12C,1.600000*%
%ADD13R,2.000000X1.905000*%
%ADD14O,2.000000X1.905000*%
%ADD15R,2.000000X2.000000*%
%ADD16C,2.000000*%
%ADD17O,1.700000X1.700000*%
%ADD18R,1.700000X1.700000*%
%ADD19C,1.524000*%
%ADD20R,1.400000X1.000000*%
%ADD21C,0.650000*%
%ADD22C,0.160000*%
%ADD23C,0.300000*%
%ADD24C,1.000000*%
%ADD25C,0.200000*%
G04 APERTURE END LIST*
D10*
X185674000Y-48768000D02*
X185674000Y-106680000D01*
X139446000Y-106680000D02*
X185674000Y-106680000D01*
X139446000Y-48768000D02*
X185674000Y-48768000D01*
X139446000Y-106680000D02*
X139446000Y-48768000D01*
D11*
X149860000Y-67056000D03*
D12*
X149860000Y-59436000D03*
X166624000Y-77470000D03*
D11*
X166624000Y-69850000D03*
X149860000Y-77470000D03*
D12*
X149860000Y-69850000D03*
X166624000Y-66802000D03*
D11*
X166624000Y-59182000D03*
D13*
X182626000Y-62738000D03*
D14*
X182626000Y-60198000D03*
X182626000Y-57658000D03*
D15*
X158750000Y-84074000D03*
D16*
X158750000Y-91674000D03*
D17*
X175260000Y-50546000D03*
X175260000Y-53086000D03*
D18*
X175260000Y-55626000D03*
X178816000Y-93726000D03*
D17*
X181356000Y-93726000D03*
X183896000Y-93726000D03*
X162560000Y-50546000D03*
X160020000Y-50546000D03*
X157480000Y-50546000D03*
D18*
X154940000Y-50546000D03*
X175768000Y-99060000D03*
D17*
X178308000Y-99060000D03*
X180848000Y-99060000D03*
X183388000Y-99060000D03*
X141224000Y-94742000D03*
X141224000Y-92202000D03*
X141224000Y-89662000D03*
X141224000Y-87122000D03*
X141224000Y-84582000D03*
X141224000Y-82042000D03*
X141224000Y-79502000D03*
X141224000Y-76962000D03*
X141224000Y-74422000D03*
X141224000Y-71882000D03*
X141224000Y-69342000D03*
X141224000Y-66802000D03*
X141224000Y-64262000D03*
X141224000Y-61722000D03*
D18*
X141224000Y-59182000D03*
X175260000Y-94742000D03*
D17*
X175260000Y-92202000D03*
X175260000Y-89662000D03*
X175260000Y-87122000D03*
X175260000Y-84582000D03*
X175260000Y-82042000D03*
X175260000Y-79502000D03*
X175260000Y-76962000D03*
X175260000Y-74422000D03*
X175260000Y-71882000D03*
X175260000Y-69342000D03*
X175260000Y-66802000D03*
X175260000Y-64262000D03*
X175260000Y-61722000D03*
X175260000Y-59182000D03*
D19*
X144272000Y-59182000D03*
X144272000Y-61722000D03*
X144272000Y-64262000D03*
X144272000Y-66802000D03*
X144272000Y-69342000D03*
X144272000Y-71882000D03*
X144272000Y-74422000D03*
X144272000Y-76962000D03*
X144272000Y-79502000D03*
X144272000Y-82042000D03*
X144272000Y-84582000D03*
X144272000Y-87122000D03*
X144272000Y-89662000D03*
X144272000Y-92202000D03*
X144272000Y-94742000D03*
X172212000Y-94742000D03*
X172212000Y-92202000D03*
X172212000Y-89662000D03*
X172212000Y-87122000D03*
X172212000Y-84582000D03*
X172212000Y-82042000D03*
X172212000Y-79502000D03*
X172212000Y-76962000D03*
X172212000Y-74422000D03*
X172212000Y-71882000D03*
X172212000Y-69342000D03*
X172212000Y-66802000D03*
X172212000Y-64262000D03*
X172212000Y-61722000D03*
X172212000Y-59182000D03*
D20*
X158158000Y-73848000D03*
X158158000Y-71948000D03*
X160358000Y-72898000D03*
X156634000Y-64516000D03*
X158834000Y-65466000D03*
X158834000Y-63566000D03*
X160104000Y-60452000D03*
X157904000Y-59502000D03*
X157904000Y-61402000D03*
D14*
X182626000Y-82550000D03*
X182626000Y-85090000D03*
D13*
X182626000Y-87630000D03*
X182626000Y-75184000D03*
D14*
X182626000Y-72644000D03*
X182626000Y-70104000D03*
D21*
X163576000Y-66294000D03*
X162306000Y-66294000D03*
X162306000Y-65024000D03*
X163576000Y-65024000D03*
X166878000Y-62738000D03*
X166878000Y-64008000D03*
X165862000Y-62738000D03*
X165862000Y-64008000D03*
X172466000Y-56896000D03*
D22*
X163388000Y-63566000D02*
X166624000Y-66802000D01*
X158834000Y-63566000D02*
X163388000Y-63566000D01*
X171704000Y-61722000D02*
X172212000Y-61722000D01*
X166624000Y-66802000D02*
X171704000Y-61722000D01*
X158158000Y-74508000D02*
X158158000Y-73848000D01*
X155196000Y-77470000D02*
X158158000Y-74508000D01*
X149860000Y-77470000D02*
X155196000Y-77470000D01*
D23*
X176530000Y-94742000D02*
X180848000Y-99060000D01*
X175260000Y-94742000D02*
X176530000Y-94742000D01*
X183896000Y-96012000D02*
X183896000Y-93726000D01*
X180848000Y-99060000D02*
X183896000Y-96012000D01*
X183896000Y-88900000D02*
X182626000Y-87630000D01*
X183896000Y-93726000D02*
X183896000Y-88900000D01*
D22*
X171134370Y-94742000D02*
X172212000Y-94742000D01*
X166000630Y-94742000D02*
X171134370Y-94742000D01*
X149860000Y-78601370D02*
X166000630Y-94742000D01*
X149860000Y-77470000D02*
X149860000Y-78601370D01*
X156720000Y-69850000D02*
X158158000Y-71288000D01*
X149860000Y-69850000D02*
X156720000Y-69850000D01*
X171450001Y-65023999D02*
X172212000Y-64262000D01*
X161563999Y-67882001D02*
X168591999Y-67882001D01*
X168591999Y-67882001D02*
X171450001Y-65023999D01*
X158158000Y-71288000D02*
X161563999Y-67882001D01*
X158158000Y-71948000D02*
X158158000Y-71288000D01*
X162052000Y-72898000D02*
X166624000Y-77470000D01*
X160358000Y-72898000D02*
X162052000Y-72898000D01*
D24*
X174057919Y-50546000D02*
X175260000Y-50546000D01*
X168510000Y-50546000D02*
X174057919Y-50546000D01*
X160104000Y-58952000D02*
X168510000Y-50546000D01*
X160104000Y-60452000D02*
X160104000Y-58952000D01*
X182880000Y-60198000D02*
X182832500Y-60198000D01*
X184326010Y-56973508D02*
X182978502Y-55626000D01*
X182978502Y-55626000D02*
X180340000Y-55626000D01*
X184326010Y-58342492D02*
X184326010Y-56973508D01*
X182626000Y-60198000D02*
X182626000Y-60042502D01*
X180340000Y-55626000D02*
X175260000Y-50546000D01*
X182626000Y-60042502D02*
X184326010Y-58342492D01*
D22*
X156634000Y-65176000D02*
X156634000Y-64516000D01*
X154754000Y-67056000D02*
X156634000Y-65176000D01*
X149860000Y-67056000D02*
X154754000Y-67056000D01*
X157704000Y-61402000D02*
X157904000Y-61402000D01*
X156634000Y-62472000D02*
X157704000Y-61402000D01*
X156634000Y-64516000D02*
X156634000Y-62472000D01*
X181345990Y-65130510D02*
X182626000Y-63850500D01*
X181345990Y-72523990D02*
X181345990Y-65130510D01*
X181466000Y-72644000D02*
X181345990Y-72523990D01*
X182626000Y-63850500D02*
X182626000Y-62738000D01*
X182626000Y-72644000D02*
X181466000Y-72644000D01*
X182626000Y-72644000D02*
X182673500Y-72644000D01*
X157904000Y-61402000D02*
X167960000Y-61402000D01*
X167960000Y-61402000D02*
X172466000Y-56896000D01*
D24*
X154940000Y-50546000D02*
X157480000Y-50546000D01*
X157480000Y-59078000D02*
X157904000Y-59502000D01*
X157480000Y-50546000D02*
X157480000Y-59078000D01*
X149926000Y-59502000D02*
X149860000Y-59436000D01*
X157904000Y-59502000D02*
X149926000Y-59502000D01*
X141224000Y-94742000D02*
X144272000Y-94742000D01*
X149060001Y-60235999D02*
X149860000Y-59436000D01*
X148359999Y-60936001D02*
X149060001Y-60235999D01*
X148359999Y-90654001D02*
X148359999Y-60936001D01*
X144272000Y-94742000D02*
X148359999Y-90654001D01*
X144272000Y-94742000D02*
X145734001Y-96204001D01*
X180626000Y-57658000D02*
X182626000Y-57658000D01*
X145734001Y-96204001D02*
X172913761Y-96204001D01*
X172913761Y-96204001D02*
X173674001Y-95443761D01*
X173674001Y-95443761D02*
X173674001Y-58473997D01*
X180599999Y-57631999D02*
X180626000Y-57658000D01*
X174515999Y-57631999D02*
X180599999Y-57631999D01*
X173674001Y-58473997D02*
X174515999Y-57631999D01*
D22*
X167640000Y-84074000D02*
X172212000Y-79502000D01*
X158750000Y-84074000D02*
X167640000Y-84074000D01*
X181356000Y-92523919D02*
X181356000Y-93726000D01*
X181345999Y-92513918D02*
X181356000Y-92523919D01*
X181345999Y-83047999D02*
X181345999Y-92513918D01*
X175260000Y-76962000D02*
X181345999Y-83047999D01*
D25*
G36*
X159292384Y-49282523D02*
X158864259Y-49657146D01*
X158612085Y-50167089D01*
X158722143Y-50391998D01*
X158621896Y-50391998D01*
X158563276Y-50097293D01*
X158309103Y-49716897D01*
X157928707Y-49462724D01*
X157593261Y-49396000D01*
X157366739Y-49396000D01*
X157031293Y-49462724D01*
X156650897Y-49716897D01*
X156631451Y-49746000D01*
X156095877Y-49746000D01*
X156095877Y-49696000D01*
X156072593Y-49578946D01*
X156006288Y-49479712D01*
X155907054Y-49413407D01*
X155790000Y-49390123D01*
X154090000Y-49390123D01*
X153972946Y-49413407D01*
X153873712Y-49479712D01*
X153807407Y-49578946D01*
X153784123Y-49696000D01*
X153784123Y-51396000D01*
X153807407Y-51513054D01*
X153873712Y-51612288D01*
X153972946Y-51678593D01*
X154090000Y-51701877D01*
X155790000Y-51701877D01*
X155907054Y-51678593D01*
X156006288Y-51612288D01*
X156072593Y-51513054D01*
X156095877Y-51396000D01*
X156095877Y-51346000D01*
X156631451Y-51346000D01*
X156650897Y-51375103D01*
X156680000Y-51394549D01*
X156680001Y-58702000D01*
X150681635Y-58702000D01*
X150483100Y-58503465D01*
X150078804Y-58336000D01*
X149641196Y-58336000D01*
X149236900Y-58503465D01*
X148927465Y-58812900D01*
X148760000Y-59217196D01*
X148760000Y-59404630D01*
X148550030Y-59614600D01*
X148550027Y-59614602D01*
X147850025Y-60314605D01*
X147783233Y-60359234D01*
X147738604Y-60426026D01*
X147738602Y-60426028D01*
X147657007Y-60548144D01*
X147606417Y-60623857D01*
X147578513Y-60764143D01*
X147544328Y-60936001D01*
X147560000Y-61014790D01*
X147559999Y-90322631D01*
X145238268Y-92644362D01*
X145334000Y-92413245D01*
X145334000Y-91990755D01*
X145172320Y-91600425D01*
X144873575Y-91301680D01*
X144483245Y-91140000D01*
X144060755Y-91140000D01*
X143670425Y-91301680D01*
X143371680Y-91600425D01*
X143210000Y-91990755D01*
X143210000Y-92413245D01*
X143371680Y-92803575D01*
X143670425Y-93102320D01*
X144060755Y-93264000D01*
X144483245Y-93264000D01*
X144714362Y-93168268D01*
X144202630Y-93680000D01*
X144060755Y-93680000D01*
X143670425Y-93841680D01*
X143570105Y-93942000D01*
X142072549Y-93942000D01*
X142053103Y-93912897D01*
X141672707Y-93658724D01*
X141337261Y-93592000D01*
X141110739Y-93592000D01*
X140775293Y-93658724D01*
X140394897Y-93912897D01*
X140140724Y-94293293D01*
X140051471Y-94742000D01*
X140140724Y-95190707D01*
X140394897Y-95571103D01*
X140775293Y-95825276D01*
X141110739Y-95892000D01*
X141337261Y-95892000D01*
X141672707Y-95825276D01*
X142053103Y-95571103D01*
X142072549Y-95542000D01*
X143570105Y-95542000D01*
X143670425Y-95642320D01*
X144060755Y-95804000D01*
X144202630Y-95804000D01*
X145112603Y-96713973D01*
X145157234Y-96780768D01*
X145305348Y-96879735D01*
X145421856Y-96957584D01*
X145471951Y-96967548D01*
X145655212Y-97004001D01*
X145655216Y-97004001D01*
X145734001Y-97019672D01*
X145812786Y-97004001D01*
X172834977Y-97004001D01*
X172913761Y-97019672D01*
X172992545Y-97004001D01*
X172992550Y-97004001D01*
X173225905Y-96957584D01*
X173490528Y-96780768D01*
X173535159Y-96713973D01*
X174183973Y-96065159D01*
X174250768Y-96020528D01*
X174341787Y-95884308D01*
X174410000Y-95897877D01*
X176110000Y-95897877D01*
X176227054Y-95874593D01*
X176326288Y-95808288D01*
X176392593Y-95709054D01*
X176415877Y-95592000D01*
X176415877Y-95264272D01*
X178886273Y-97734669D01*
X178686910Y-97652097D01*
X178462000Y-97763111D01*
X178462000Y-98906000D01*
X178482000Y-98906000D01*
X178482000Y-99214000D01*
X178462000Y-99214000D01*
X178462000Y-100356889D01*
X178686910Y-100467903D01*
X179035616Y-100323477D01*
X179463741Y-99948854D01*
X179715915Y-99438911D01*
X179605857Y-99214002D01*
X179706104Y-99214002D01*
X179764724Y-99508707D01*
X180018897Y-99889103D01*
X180399293Y-100143276D01*
X180734739Y-100210000D01*
X180961261Y-100210000D01*
X181296707Y-100143276D01*
X181677103Y-99889103D01*
X181931276Y-99508707D01*
X182020529Y-99060000D01*
X182215471Y-99060000D01*
X182304724Y-99508707D01*
X182558897Y-99889103D01*
X182939293Y-100143276D01*
X183274739Y-100210000D01*
X183501261Y-100210000D01*
X183836707Y-100143276D01*
X184217103Y-99889103D01*
X184471276Y-99508707D01*
X184560529Y-99060000D01*
X184471276Y-98611293D01*
X184217103Y-98230897D01*
X183836707Y-97976724D01*
X183501261Y-97910000D01*
X183274739Y-97910000D01*
X182939293Y-97976724D01*
X182558897Y-98230897D01*
X182304724Y-98611293D01*
X182215471Y-99060000D01*
X182020529Y-99060000D01*
X181931579Y-98612816D01*
X184182858Y-96361538D01*
X184220432Y-96336432D01*
X184319891Y-96187581D01*
X184346000Y-96056321D01*
X184346000Y-96056320D01*
X184354816Y-96012000D01*
X184346000Y-95967680D01*
X184346000Y-94808412D01*
X184725103Y-94555103D01*
X184979276Y-94174707D01*
X185068529Y-93726000D01*
X184979276Y-93277293D01*
X184725103Y-92896897D01*
X184346000Y-92643588D01*
X184346000Y-88944316D01*
X184354815Y-88899999D01*
X184346000Y-88855683D01*
X184346000Y-88855679D01*
X184319891Y-88724419D01*
X184220432Y-88575568D01*
X184182857Y-88550462D01*
X183931877Y-88299481D01*
X183931877Y-86677500D01*
X183908593Y-86560446D01*
X183842288Y-86461212D01*
X183743054Y-86394907D01*
X183626000Y-86371623D01*
X181725999Y-86371623D01*
X181725999Y-86026746D01*
X182089799Y-86269828D01*
X182455145Y-86342500D01*
X182796855Y-86342500D01*
X183162201Y-86269828D01*
X183576502Y-85993002D01*
X183853328Y-85578701D01*
X183950537Y-85090000D01*
X183853328Y-84601299D01*
X183576502Y-84186998D01*
X183162201Y-83910172D01*
X182796855Y-83837500D01*
X182455145Y-83837500D01*
X182089799Y-83910172D01*
X181725999Y-84153254D01*
X181725999Y-83486746D01*
X182089799Y-83729828D01*
X182455145Y-83802500D01*
X182796855Y-83802500D01*
X183162201Y-83729828D01*
X183576502Y-83453002D01*
X183853328Y-83038701D01*
X183950537Y-82550000D01*
X183853328Y-82061299D01*
X183576502Y-81646998D01*
X183162201Y-81370172D01*
X182796855Y-81297500D01*
X182455145Y-81297500D01*
X182089799Y-81370172D01*
X181675498Y-81646998D01*
X181398672Y-82061299D01*
X181315389Y-82479988D01*
X176304356Y-77468955D01*
X176343276Y-77410707D01*
X176432529Y-76962000D01*
X176343276Y-76513293D01*
X176089103Y-76132897D01*
X175708707Y-75878724D01*
X175373261Y-75812000D01*
X175146739Y-75812000D01*
X174811293Y-75878724D01*
X174474001Y-76104096D01*
X174474001Y-75279904D01*
X174811293Y-75505276D01*
X175146739Y-75572000D01*
X175373261Y-75572000D01*
X175708707Y-75505276D01*
X176089103Y-75251103D01*
X176343276Y-74870707D01*
X176432529Y-74422000D01*
X176394637Y-74231500D01*
X181320123Y-74231500D01*
X181320123Y-76136500D01*
X181343407Y-76253554D01*
X181409712Y-76352788D01*
X181508946Y-76419093D01*
X181626000Y-76442377D01*
X183626000Y-76442377D01*
X183743054Y-76419093D01*
X183842288Y-76352788D01*
X183908593Y-76253554D01*
X183931877Y-76136500D01*
X183931877Y-74231500D01*
X183908593Y-74114446D01*
X183842288Y-74015212D01*
X183743054Y-73948907D01*
X183626000Y-73925623D01*
X181626000Y-73925623D01*
X181508946Y-73948907D01*
X181409712Y-74015212D01*
X181343407Y-74114446D01*
X181320123Y-74231500D01*
X176394637Y-74231500D01*
X176343276Y-73973293D01*
X176089103Y-73592897D01*
X175708707Y-73338724D01*
X175373261Y-73272000D01*
X175146739Y-73272000D01*
X174811293Y-73338724D01*
X174474001Y-73564096D01*
X174474001Y-72739904D01*
X174811293Y-72965276D01*
X175146739Y-73032000D01*
X175373261Y-73032000D01*
X175708707Y-72965276D01*
X176089103Y-72711103D01*
X176343276Y-72330707D01*
X176432529Y-71882000D01*
X176343276Y-71433293D01*
X176089103Y-71052897D01*
X175708707Y-70798724D01*
X175373261Y-70732000D01*
X175146739Y-70732000D01*
X174811293Y-70798724D01*
X174474001Y-71024096D01*
X174474001Y-70199904D01*
X174811293Y-70425276D01*
X175146739Y-70492000D01*
X175373261Y-70492000D01*
X175708707Y-70425276D01*
X176089103Y-70171103D01*
X176343276Y-69790707D01*
X176432529Y-69342000D01*
X176343276Y-68893293D01*
X176089103Y-68512897D01*
X175708707Y-68258724D01*
X175373261Y-68192000D01*
X175146739Y-68192000D01*
X174811293Y-68258724D01*
X174474001Y-68484096D01*
X174474001Y-67659904D01*
X174811293Y-67885276D01*
X175146739Y-67952000D01*
X175373261Y-67952000D01*
X175708707Y-67885276D01*
X176089103Y-67631103D01*
X176343276Y-67250707D01*
X176432529Y-66802000D01*
X176343276Y-66353293D01*
X176089103Y-65972897D01*
X175708707Y-65718724D01*
X175373261Y-65652000D01*
X175146739Y-65652000D01*
X174811293Y-65718724D01*
X174474001Y-65944096D01*
X174474001Y-65119904D01*
X174811293Y-65345276D01*
X175146739Y-65412000D01*
X175373261Y-65412000D01*
X175708707Y-65345276D01*
X176030126Y-65130510D01*
X180958547Y-65130510D01*
X180965991Y-65167934D01*
X180965990Y-72486571D01*
X180958547Y-72523990D01*
X180965990Y-72561409D01*
X180965990Y-72561413D01*
X180988038Y-72672257D01*
X181072026Y-72797954D01*
X181103754Y-72819154D01*
X181170836Y-72886236D01*
X181192036Y-72917964D01*
X181317732Y-73001952D01*
X181374927Y-73013329D01*
X181398672Y-73132701D01*
X181675498Y-73547002D01*
X182089799Y-73823828D01*
X182455145Y-73896500D01*
X182796855Y-73896500D01*
X183162201Y-73823828D01*
X183576502Y-73547002D01*
X183853328Y-73132701D01*
X183950537Y-72644000D01*
X183853328Y-72155299D01*
X183576502Y-71740998D01*
X183248460Y-71521808D01*
X183576919Y-71374417D01*
X183994318Y-70931989D01*
X184183174Y-70499028D01*
X184073556Y-70258000D01*
X182780000Y-70258000D01*
X182780000Y-70278000D01*
X182472000Y-70278000D01*
X182472000Y-70258000D01*
X182452000Y-70258000D01*
X182452000Y-69950000D01*
X182472000Y-69950000D01*
X182472000Y-68700756D01*
X182780000Y-68700756D01*
X182780000Y-69950000D01*
X184073556Y-69950000D01*
X184183174Y-69708972D01*
X183994318Y-69276011D01*
X183576919Y-68833583D01*
X183021983Y-68584564D01*
X182780000Y-68700756D01*
X182472000Y-68700756D01*
X182230017Y-68584564D01*
X181725990Y-68810738D01*
X181725990Y-65287910D01*
X182868239Y-64145662D01*
X182899964Y-64124464D01*
X182983952Y-63998768D01*
X182984428Y-63996377D01*
X183626000Y-63996377D01*
X183743054Y-63973093D01*
X183842288Y-63906788D01*
X183908593Y-63807554D01*
X183931877Y-63690500D01*
X183931877Y-61785500D01*
X183908593Y-61668446D01*
X183842288Y-61569212D01*
X183743054Y-61502907D01*
X183626000Y-61479623D01*
X181626000Y-61479623D01*
X181508946Y-61502907D01*
X181409712Y-61569212D01*
X181343407Y-61668446D01*
X181320123Y-61785500D01*
X181320123Y-63690500D01*
X181343407Y-63807554D01*
X181409712Y-63906788D01*
X181508946Y-63973093D01*
X181626000Y-63996377D01*
X181942722Y-63996377D01*
X181103752Y-64835348D01*
X181072027Y-64856546D01*
X181050829Y-64888271D01*
X181050827Y-64888273D01*
X180988039Y-64982242D01*
X180958547Y-65130510D01*
X176030126Y-65130510D01*
X176089103Y-65091103D01*
X176343276Y-64710707D01*
X176432529Y-64262000D01*
X176343276Y-63813293D01*
X176089103Y-63432897D01*
X175708707Y-63178724D01*
X175373261Y-63112000D01*
X175146739Y-63112000D01*
X174811293Y-63178724D01*
X174474001Y-63404096D01*
X174474001Y-62579904D01*
X174811293Y-62805276D01*
X175146739Y-62872000D01*
X175373261Y-62872000D01*
X175708707Y-62805276D01*
X176089103Y-62551103D01*
X176343276Y-62170707D01*
X176432529Y-61722000D01*
X176343276Y-61273293D01*
X176089103Y-60892897D01*
X175708707Y-60638724D01*
X175373261Y-60572000D01*
X175146739Y-60572000D01*
X174811293Y-60638724D01*
X174474001Y-60864096D01*
X174474001Y-60039904D01*
X174811293Y-60265276D01*
X175146739Y-60332000D01*
X175373261Y-60332000D01*
X175708707Y-60265276D01*
X176089103Y-60011103D01*
X176343276Y-59630707D01*
X176432529Y-59182000D01*
X176343276Y-58733293D01*
X176141957Y-58431999D01*
X180416495Y-58431999D01*
X180547211Y-58458000D01*
X180547216Y-58458000D01*
X180626000Y-58473671D01*
X180704784Y-58458000D01*
X181606675Y-58458000D01*
X181675498Y-58561002D01*
X182089799Y-58837828D01*
X182455145Y-58910500D01*
X182626632Y-58910500D01*
X182591632Y-58945500D01*
X182455145Y-58945500D01*
X182089799Y-59018172D01*
X181675498Y-59294998D01*
X181398672Y-59709299D01*
X181301463Y-60198000D01*
X181398672Y-60686701D01*
X181675498Y-61101002D01*
X182089799Y-61377828D01*
X182455145Y-61450500D01*
X182796855Y-61450500D01*
X183162201Y-61377828D01*
X183576502Y-61101002D01*
X183853328Y-60686701D01*
X183950537Y-60198000D01*
X183892690Y-59907183D01*
X184835985Y-58963888D01*
X184902777Y-58919259D01*
X185079593Y-58654636D01*
X185126010Y-58421281D01*
X185126010Y-58421277D01*
X185141681Y-58342493D01*
X185126010Y-58263709D01*
X185126010Y-57052291D01*
X185141681Y-56973507D01*
X185126010Y-56894723D01*
X185126010Y-56894719D01*
X185079593Y-56661364D01*
X184902777Y-56396741D01*
X184835984Y-56352111D01*
X183599900Y-55116028D01*
X183555269Y-55049233D01*
X183290646Y-54872417D01*
X183057291Y-54826000D01*
X183057286Y-54826000D01*
X182978502Y-54810329D01*
X182899718Y-54826000D01*
X180671371Y-54826000D01*
X177333166Y-51487795D01*
X180976000Y-51487795D01*
X180976000Y-52144205D01*
X181227198Y-52750650D01*
X181691350Y-53214802D01*
X182297795Y-53466000D01*
X182954205Y-53466000D01*
X183560650Y-53214802D01*
X184024802Y-52750650D01*
X184276000Y-52144205D01*
X184276000Y-51487795D01*
X184024802Y-50881350D01*
X183560650Y-50417198D01*
X182954205Y-50166000D01*
X182297795Y-50166000D01*
X181691350Y-50417198D01*
X181227198Y-50881350D01*
X180976000Y-51487795D01*
X177333166Y-51487795D01*
X176425700Y-50580330D01*
X176432529Y-50546000D01*
X176343276Y-50097293D01*
X176089103Y-49716897D01*
X175708707Y-49462724D01*
X175373261Y-49396000D01*
X175146739Y-49396000D01*
X174811293Y-49462724D01*
X174430897Y-49716897D01*
X174411451Y-49746000D01*
X168588783Y-49746000D01*
X168509999Y-49730329D01*
X168431215Y-49746000D01*
X168431211Y-49746000D01*
X168197856Y-49792417D01*
X167933233Y-49969233D01*
X167888604Y-50036025D01*
X159594026Y-58330604D01*
X159527234Y-58375233D01*
X159482605Y-58442025D01*
X159482603Y-58442027D01*
X159350418Y-58639856D01*
X159288329Y-58952000D01*
X159304001Y-59030788D01*
X159304001Y-59666015D01*
X159286946Y-59669407D01*
X159187712Y-59735712D01*
X159121407Y-59834946D01*
X159098123Y-59952000D01*
X159098123Y-60952000D01*
X159112047Y-61022000D01*
X158909877Y-61022000D01*
X158909877Y-60902000D01*
X158886593Y-60784946D01*
X158820288Y-60685712D01*
X158721054Y-60619407D01*
X158604000Y-60596123D01*
X157204000Y-60596123D01*
X157086946Y-60619407D01*
X156987712Y-60685712D01*
X156921407Y-60784946D01*
X156898123Y-60902000D01*
X156898123Y-61670477D01*
X156391762Y-62176838D01*
X156360037Y-62198036D01*
X156338839Y-62229761D01*
X156338837Y-62229763D01*
X156276049Y-62323732D01*
X156246557Y-62472000D01*
X156254001Y-62509424D01*
X156254000Y-63710123D01*
X155934000Y-63710123D01*
X155816946Y-63733407D01*
X155717712Y-63799712D01*
X155651407Y-63898946D01*
X155628123Y-64016000D01*
X155628123Y-65016000D01*
X155651407Y-65133054D01*
X155717712Y-65232288D01*
X155816946Y-65298593D01*
X155934000Y-65321877D01*
X155950722Y-65321877D01*
X154596600Y-66676000D01*
X150905963Y-66676000D01*
X150896177Y-66626801D01*
X150653056Y-66262944D01*
X150289199Y-66019823D01*
X149968339Y-65956000D01*
X149751661Y-65956000D01*
X149430801Y-66019823D01*
X149159999Y-66200767D01*
X149159999Y-61267371D01*
X149681398Y-60745973D01*
X149681400Y-60745970D01*
X149891370Y-60536000D01*
X150078804Y-60536000D01*
X150483100Y-60368535D01*
X150549635Y-60302000D01*
X157174455Y-60302000D01*
X157204000Y-60307877D01*
X157854757Y-60307877D01*
X157904000Y-60317672D01*
X157953243Y-60307877D01*
X158604000Y-60307877D01*
X158721054Y-60284593D01*
X158820288Y-60218288D01*
X158886593Y-60119054D01*
X158909877Y-60002000D01*
X158909877Y-59002000D01*
X158886593Y-58884946D01*
X158820288Y-58785712D01*
X158721054Y-58719407D01*
X158604000Y-58696123D01*
X158280000Y-58696123D01*
X158280000Y-51394549D01*
X158309103Y-51375103D01*
X158563276Y-50994707D01*
X158621896Y-50700002D01*
X158722143Y-50700002D01*
X158612085Y-50924911D01*
X158864259Y-51434854D01*
X159292384Y-51809477D01*
X159641090Y-51953903D01*
X159866000Y-51842889D01*
X159866000Y-50700000D01*
X160174000Y-50700000D01*
X160174000Y-51842889D01*
X160398910Y-51953903D01*
X160747616Y-51809477D01*
X161175741Y-51434854D01*
X161290000Y-51203801D01*
X161404259Y-51434854D01*
X161832384Y-51809477D01*
X162181090Y-51953903D01*
X162406000Y-51842889D01*
X162406000Y-50700000D01*
X162714000Y-50700000D01*
X162714000Y-51842889D01*
X162938910Y-51953903D01*
X163287616Y-51809477D01*
X163715741Y-51434854D01*
X163967915Y-50924911D01*
X163857856Y-50700000D01*
X162714000Y-50700000D01*
X162406000Y-50700000D01*
X160174000Y-50700000D01*
X159866000Y-50700000D01*
X159846000Y-50700000D01*
X159846000Y-50392000D01*
X159866000Y-50392000D01*
X159866000Y-50372000D01*
X160174000Y-50372000D01*
X160174000Y-50392000D01*
X162406000Y-50392000D01*
X162406000Y-50372000D01*
X162714000Y-50372000D01*
X162714000Y-50392000D01*
X163857856Y-50392000D01*
X163967915Y-50167089D01*
X163715741Y-49657146D01*
X163287616Y-49282523D01*
X162950748Y-49143000D01*
X185299000Y-49143000D01*
X185299001Y-106305000D01*
X139821000Y-106305000D01*
X139821000Y-103303795D01*
X140844000Y-103303795D01*
X140844000Y-103960205D01*
X141095198Y-104566650D01*
X141559350Y-105030802D01*
X142165795Y-105282000D01*
X142822205Y-105282000D01*
X143428650Y-105030802D01*
X143892802Y-104566650D01*
X144144000Y-103960205D01*
X144144000Y-103303795D01*
X180976000Y-103303795D01*
X180976000Y-103960205D01*
X181227198Y-104566650D01*
X181691350Y-105030802D01*
X182297795Y-105282000D01*
X182954205Y-105282000D01*
X183560650Y-105030802D01*
X184024802Y-104566650D01*
X184276000Y-103960205D01*
X184276000Y-103303795D01*
X184024802Y-102697350D01*
X183560650Y-102233198D01*
X182954205Y-101982000D01*
X182297795Y-101982000D01*
X181691350Y-102233198D01*
X181227198Y-102697350D01*
X180976000Y-103303795D01*
X144144000Y-103303795D01*
X143892802Y-102697350D01*
X143428650Y-102233198D01*
X142822205Y-101982000D01*
X142165795Y-101982000D01*
X141559350Y-102233198D01*
X141095198Y-102697350D01*
X140844000Y-103303795D01*
X139821000Y-103303795D01*
X139821000Y-98210000D01*
X174612123Y-98210000D01*
X174612123Y-99910000D01*
X174635407Y-100027054D01*
X174701712Y-100126288D01*
X174800946Y-100192593D01*
X174918000Y-100215877D01*
X176618000Y-100215877D01*
X176735054Y-100192593D01*
X176834288Y-100126288D01*
X176900593Y-100027054D01*
X176923877Y-99910000D01*
X176923877Y-99487023D01*
X177152259Y-99948854D01*
X177580384Y-100323477D01*
X177929090Y-100467903D01*
X178154000Y-100356889D01*
X178154000Y-99214000D01*
X178134000Y-99214000D01*
X178134000Y-98906000D01*
X178154000Y-98906000D01*
X178154000Y-97763111D01*
X177929090Y-97652097D01*
X177580384Y-97796523D01*
X177152259Y-98171146D01*
X176923877Y-98632977D01*
X176923877Y-98210000D01*
X176900593Y-98092946D01*
X176834288Y-97993712D01*
X176735054Y-97927407D01*
X176618000Y-97904123D01*
X174918000Y-97904123D01*
X174800946Y-97927407D01*
X174701712Y-97993712D01*
X174635407Y-98092946D01*
X174612123Y-98210000D01*
X139821000Y-98210000D01*
X139821000Y-92202000D01*
X140051471Y-92202000D01*
X140140724Y-92650707D01*
X140394897Y-93031103D01*
X140775293Y-93285276D01*
X141110739Y-93352000D01*
X141337261Y-93352000D01*
X141672707Y-93285276D01*
X142053103Y-93031103D01*
X142307276Y-92650707D01*
X142396529Y-92202000D01*
X142307276Y-91753293D01*
X142053103Y-91372897D01*
X141672707Y-91118724D01*
X141337261Y-91052000D01*
X141110739Y-91052000D01*
X140775293Y-91118724D01*
X140394897Y-91372897D01*
X140140724Y-91753293D01*
X140051471Y-92202000D01*
X139821000Y-92202000D01*
X139821000Y-89662000D01*
X140051471Y-89662000D01*
X140140724Y-90110707D01*
X140394897Y-90491103D01*
X140775293Y-90745276D01*
X141110739Y-90812000D01*
X141337261Y-90812000D01*
X141672707Y-90745276D01*
X142053103Y-90491103D01*
X142307276Y-90110707D01*
X142396529Y-89662000D01*
X142354510Y-89450755D01*
X143210000Y-89450755D01*
X143210000Y-89873245D01*
X143371680Y-90263575D01*
X143670425Y-90562320D01*
X144060755Y-90724000D01*
X144483245Y-90724000D01*
X144873575Y-90562320D01*
X145172320Y-90263575D01*
X145334000Y-89873245D01*
X145334000Y-89450755D01*
X145172320Y-89060425D01*
X144873575Y-88761680D01*
X144483245Y-88600000D01*
X144060755Y-88600000D01*
X143670425Y-88761680D01*
X143371680Y-89060425D01*
X143210000Y-89450755D01*
X142354510Y-89450755D01*
X142307276Y-89213293D01*
X142053103Y-88832897D01*
X141672707Y-88578724D01*
X141337261Y-88512000D01*
X141110739Y-88512000D01*
X140775293Y-88578724D01*
X140394897Y-88832897D01*
X140140724Y-89213293D01*
X140051471Y-89662000D01*
X139821000Y-89662000D01*
X139821000Y-87122000D01*
X140051471Y-87122000D01*
X140140724Y-87570707D01*
X140394897Y-87951103D01*
X140775293Y-88205276D01*
X141110739Y-88272000D01*
X141337261Y-88272000D01*
X141672707Y-88205276D01*
X142053103Y-87951103D01*
X142307276Y-87570707D01*
X142396529Y-87122000D01*
X142354510Y-86910755D01*
X143210000Y-86910755D01*
X143210000Y-87333245D01*
X143371680Y-87723575D01*
X143670425Y-88022320D01*
X144060755Y-88184000D01*
X144483245Y-88184000D01*
X144873575Y-88022320D01*
X145172320Y-87723575D01*
X145334000Y-87333245D01*
X145334000Y-86910755D01*
X145172320Y-86520425D01*
X144873575Y-86221680D01*
X144483245Y-86060000D01*
X144060755Y-86060000D01*
X143670425Y-86221680D01*
X143371680Y-86520425D01*
X143210000Y-86910755D01*
X142354510Y-86910755D01*
X142307276Y-86673293D01*
X142053103Y-86292897D01*
X141672707Y-86038724D01*
X141337261Y-85972000D01*
X141110739Y-85972000D01*
X140775293Y-86038724D01*
X140394897Y-86292897D01*
X140140724Y-86673293D01*
X140051471Y-87122000D01*
X139821000Y-87122000D01*
X139821000Y-84582000D01*
X140051471Y-84582000D01*
X140140724Y-85030707D01*
X140394897Y-85411103D01*
X140775293Y-85665276D01*
X141110739Y-85732000D01*
X141337261Y-85732000D01*
X141672707Y-85665276D01*
X142053103Y-85411103D01*
X142307276Y-85030707D01*
X142396529Y-84582000D01*
X142354510Y-84370755D01*
X143210000Y-84370755D01*
X143210000Y-84793245D01*
X143371680Y-85183575D01*
X143670425Y-85482320D01*
X144060755Y-85644000D01*
X144483245Y-85644000D01*
X144873575Y-85482320D01*
X145172320Y-85183575D01*
X145334000Y-84793245D01*
X145334000Y-84370755D01*
X145172320Y-83980425D01*
X144873575Y-83681680D01*
X144483245Y-83520000D01*
X144060755Y-83520000D01*
X143670425Y-83681680D01*
X143371680Y-83980425D01*
X143210000Y-84370755D01*
X142354510Y-84370755D01*
X142307276Y-84133293D01*
X142053103Y-83752897D01*
X141672707Y-83498724D01*
X141337261Y-83432000D01*
X141110739Y-83432000D01*
X140775293Y-83498724D01*
X140394897Y-83752897D01*
X140140724Y-84133293D01*
X140051471Y-84582000D01*
X139821000Y-84582000D01*
X139821000Y-82042000D01*
X140051471Y-82042000D01*
X140140724Y-82490707D01*
X140394897Y-82871103D01*
X140775293Y-83125276D01*
X141110739Y-83192000D01*
X141337261Y-83192000D01*
X141672707Y-83125276D01*
X142053103Y-82871103D01*
X142307276Y-82490707D01*
X142396529Y-82042000D01*
X142354510Y-81830755D01*
X143210000Y-81830755D01*
X143210000Y-82253245D01*
X143371680Y-82643575D01*
X143670425Y-82942320D01*
X144060755Y-83104000D01*
X144483245Y-83104000D01*
X144873575Y-82942320D01*
X145172320Y-82643575D01*
X145334000Y-82253245D01*
X145334000Y-81830755D01*
X145172320Y-81440425D01*
X144873575Y-81141680D01*
X144483245Y-80980000D01*
X144060755Y-80980000D01*
X143670425Y-81141680D01*
X143371680Y-81440425D01*
X143210000Y-81830755D01*
X142354510Y-81830755D01*
X142307276Y-81593293D01*
X142053103Y-81212897D01*
X141672707Y-80958724D01*
X141337261Y-80892000D01*
X141110739Y-80892000D01*
X140775293Y-80958724D01*
X140394897Y-81212897D01*
X140140724Y-81593293D01*
X140051471Y-82042000D01*
X139821000Y-82042000D01*
X139821000Y-79502000D01*
X140051471Y-79502000D01*
X140140724Y-79950707D01*
X140394897Y-80331103D01*
X140775293Y-80585276D01*
X141110739Y-80652000D01*
X141337261Y-80652000D01*
X141672707Y-80585276D01*
X142053103Y-80331103D01*
X142307276Y-79950707D01*
X142396529Y-79502000D01*
X142354510Y-79290755D01*
X143210000Y-79290755D01*
X143210000Y-79713245D01*
X143371680Y-80103575D01*
X143670425Y-80402320D01*
X144060755Y-80564000D01*
X144483245Y-80564000D01*
X144873575Y-80402320D01*
X145172320Y-80103575D01*
X145334000Y-79713245D01*
X145334000Y-79290755D01*
X145172320Y-78900425D01*
X144873575Y-78601680D01*
X144483245Y-78440000D01*
X144060755Y-78440000D01*
X143670425Y-78601680D01*
X143371680Y-78900425D01*
X143210000Y-79290755D01*
X142354510Y-79290755D01*
X142307276Y-79053293D01*
X142053103Y-78672897D01*
X141672707Y-78418724D01*
X141337261Y-78352000D01*
X141110739Y-78352000D01*
X140775293Y-78418724D01*
X140394897Y-78672897D01*
X140140724Y-79053293D01*
X140051471Y-79502000D01*
X139821000Y-79502000D01*
X139821000Y-76962000D01*
X140051471Y-76962000D01*
X140140724Y-77410707D01*
X140394897Y-77791103D01*
X140775293Y-78045276D01*
X141110739Y-78112000D01*
X141337261Y-78112000D01*
X141672707Y-78045276D01*
X142053103Y-77791103D01*
X142307276Y-77410707D01*
X142396529Y-76962000D01*
X142354510Y-76750755D01*
X143210000Y-76750755D01*
X143210000Y-77173245D01*
X143371680Y-77563575D01*
X143670425Y-77862320D01*
X144060755Y-78024000D01*
X144483245Y-78024000D01*
X144873575Y-77862320D01*
X145172320Y-77563575D01*
X145334000Y-77173245D01*
X145334000Y-76750755D01*
X145172320Y-76360425D01*
X144873575Y-76061680D01*
X144483245Y-75900000D01*
X144060755Y-75900000D01*
X143670425Y-76061680D01*
X143371680Y-76360425D01*
X143210000Y-76750755D01*
X142354510Y-76750755D01*
X142307276Y-76513293D01*
X142053103Y-76132897D01*
X141672707Y-75878724D01*
X141337261Y-75812000D01*
X141110739Y-75812000D01*
X140775293Y-75878724D01*
X140394897Y-76132897D01*
X140140724Y-76513293D01*
X140051471Y-76962000D01*
X139821000Y-76962000D01*
X139821000Y-74422000D01*
X140051471Y-74422000D01*
X140140724Y-74870707D01*
X140394897Y-75251103D01*
X140775293Y-75505276D01*
X141110739Y-75572000D01*
X141337261Y-75572000D01*
X141672707Y-75505276D01*
X142053103Y-75251103D01*
X142307276Y-74870707D01*
X142396529Y-74422000D01*
X142354510Y-74210755D01*
X143210000Y-74210755D01*
X143210000Y-74633245D01*
X143371680Y-75023575D01*
X143670425Y-75322320D01*
X144060755Y-75484000D01*
X144483245Y-75484000D01*
X144873575Y-75322320D01*
X145172320Y-75023575D01*
X145334000Y-74633245D01*
X145334000Y-74210755D01*
X145172320Y-73820425D01*
X144873575Y-73521680D01*
X144483245Y-73360000D01*
X144060755Y-73360000D01*
X143670425Y-73521680D01*
X143371680Y-73820425D01*
X143210000Y-74210755D01*
X142354510Y-74210755D01*
X142307276Y-73973293D01*
X142053103Y-73592897D01*
X141672707Y-73338724D01*
X141337261Y-73272000D01*
X141110739Y-73272000D01*
X140775293Y-73338724D01*
X140394897Y-73592897D01*
X140140724Y-73973293D01*
X140051471Y-74422000D01*
X139821000Y-74422000D01*
X139821000Y-71882000D01*
X140051471Y-71882000D01*
X140140724Y-72330707D01*
X140394897Y-72711103D01*
X140775293Y-72965276D01*
X141110739Y-73032000D01*
X141337261Y-73032000D01*
X141672707Y-72965276D01*
X142053103Y-72711103D01*
X142307276Y-72330707D01*
X142396529Y-71882000D01*
X142354510Y-71670755D01*
X143210000Y-71670755D01*
X143210000Y-72093245D01*
X143371680Y-72483575D01*
X143670425Y-72782320D01*
X144060755Y-72944000D01*
X144483245Y-72944000D01*
X144873575Y-72782320D01*
X145172320Y-72483575D01*
X145334000Y-72093245D01*
X145334000Y-71670755D01*
X145172320Y-71280425D01*
X144873575Y-70981680D01*
X144483245Y-70820000D01*
X144060755Y-70820000D01*
X143670425Y-70981680D01*
X143371680Y-71280425D01*
X143210000Y-71670755D01*
X142354510Y-71670755D01*
X142307276Y-71433293D01*
X142053103Y-71052897D01*
X141672707Y-70798724D01*
X141337261Y-70732000D01*
X141110739Y-70732000D01*
X140775293Y-70798724D01*
X140394897Y-71052897D01*
X140140724Y-71433293D01*
X140051471Y-71882000D01*
X139821000Y-71882000D01*
X139821000Y-69342000D01*
X140051471Y-69342000D01*
X140140724Y-69790707D01*
X140394897Y-70171103D01*
X140775293Y-70425276D01*
X141110739Y-70492000D01*
X141337261Y-70492000D01*
X141672707Y-70425276D01*
X142053103Y-70171103D01*
X142307276Y-69790707D01*
X142396529Y-69342000D01*
X142354510Y-69130755D01*
X143210000Y-69130755D01*
X143210000Y-69553245D01*
X143371680Y-69943575D01*
X143670425Y-70242320D01*
X144060755Y-70404000D01*
X144483245Y-70404000D01*
X144873575Y-70242320D01*
X145172320Y-69943575D01*
X145334000Y-69553245D01*
X145334000Y-69130755D01*
X145172320Y-68740425D01*
X144873575Y-68441680D01*
X144483245Y-68280000D01*
X144060755Y-68280000D01*
X143670425Y-68441680D01*
X143371680Y-68740425D01*
X143210000Y-69130755D01*
X142354510Y-69130755D01*
X142307276Y-68893293D01*
X142053103Y-68512897D01*
X141672707Y-68258724D01*
X141337261Y-68192000D01*
X141110739Y-68192000D01*
X140775293Y-68258724D01*
X140394897Y-68512897D01*
X140140724Y-68893293D01*
X140051471Y-69342000D01*
X139821000Y-69342000D01*
X139821000Y-66802000D01*
X140051471Y-66802000D01*
X140140724Y-67250707D01*
X140394897Y-67631103D01*
X140775293Y-67885276D01*
X141110739Y-67952000D01*
X141337261Y-67952000D01*
X141672707Y-67885276D01*
X142053103Y-67631103D01*
X142307276Y-67250707D01*
X142396529Y-66802000D01*
X142354510Y-66590755D01*
X143210000Y-66590755D01*
X143210000Y-67013245D01*
X143371680Y-67403575D01*
X143670425Y-67702320D01*
X144060755Y-67864000D01*
X144483245Y-67864000D01*
X144873575Y-67702320D01*
X145172320Y-67403575D01*
X145334000Y-67013245D01*
X145334000Y-66590755D01*
X145172320Y-66200425D01*
X144873575Y-65901680D01*
X144483245Y-65740000D01*
X144060755Y-65740000D01*
X143670425Y-65901680D01*
X143371680Y-66200425D01*
X143210000Y-66590755D01*
X142354510Y-66590755D01*
X142307276Y-66353293D01*
X142053103Y-65972897D01*
X141672707Y-65718724D01*
X141337261Y-65652000D01*
X141110739Y-65652000D01*
X140775293Y-65718724D01*
X140394897Y-65972897D01*
X140140724Y-66353293D01*
X140051471Y-66802000D01*
X139821000Y-66802000D01*
X139821000Y-64262000D01*
X140051471Y-64262000D01*
X140140724Y-64710707D01*
X140394897Y-65091103D01*
X140775293Y-65345276D01*
X141110739Y-65412000D01*
X141337261Y-65412000D01*
X141672707Y-65345276D01*
X142053103Y-65091103D01*
X142307276Y-64710707D01*
X142396529Y-64262000D01*
X142354510Y-64050755D01*
X143210000Y-64050755D01*
X143210000Y-64473245D01*
X143371680Y-64863575D01*
X143670425Y-65162320D01*
X144060755Y-65324000D01*
X144483245Y-65324000D01*
X144873575Y-65162320D01*
X145172320Y-64863575D01*
X145334000Y-64473245D01*
X145334000Y-64050755D01*
X145172320Y-63660425D01*
X144873575Y-63361680D01*
X144483245Y-63200000D01*
X144060755Y-63200000D01*
X143670425Y-63361680D01*
X143371680Y-63660425D01*
X143210000Y-64050755D01*
X142354510Y-64050755D01*
X142307276Y-63813293D01*
X142053103Y-63432897D01*
X141672707Y-63178724D01*
X141337261Y-63112000D01*
X141110739Y-63112000D01*
X140775293Y-63178724D01*
X140394897Y-63432897D01*
X140140724Y-63813293D01*
X140051471Y-64262000D01*
X139821000Y-64262000D01*
X139821000Y-61722000D01*
X140051471Y-61722000D01*
X140140724Y-62170707D01*
X140394897Y-62551103D01*
X140775293Y-62805276D01*
X141110739Y-62872000D01*
X141337261Y-62872000D01*
X141672707Y-62805276D01*
X142053103Y-62551103D01*
X142307276Y-62170707D01*
X142396529Y-61722000D01*
X142354510Y-61510755D01*
X143210000Y-61510755D01*
X143210000Y-61933245D01*
X143371680Y-62323575D01*
X143670425Y-62622320D01*
X144060755Y-62784000D01*
X144483245Y-62784000D01*
X144873575Y-62622320D01*
X145172320Y-62323575D01*
X145334000Y-61933245D01*
X145334000Y-61510755D01*
X145172320Y-61120425D01*
X144873575Y-60821680D01*
X144483245Y-60660000D01*
X144060755Y-60660000D01*
X143670425Y-60821680D01*
X143371680Y-61120425D01*
X143210000Y-61510755D01*
X142354510Y-61510755D01*
X142307276Y-61273293D01*
X142053103Y-60892897D01*
X141672707Y-60638724D01*
X141337261Y-60572000D01*
X141110739Y-60572000D01*
X140775293Y-60638724D01*
X140394897Y-60892897D01*
X140140724Y-61273293D01*
X140051471Y-61722000D01*
X139821000Y-61722000D01*
X139821000Y-58332000D01*
X140068123Y-58332000D01*
X140068123Y-60032000D01*
X140091407Y-60149054D01*
X140157712Y-60248288D01*
X140256946Y-60314593D01*
X140374000Y-60337877D01*
X142074000Y-60337877D01*
X142191054Y-60314593D01*
X142290288Y-60248288D01*
X142356593Y-60149054D01*
X142379877Y-60032000D01*
X142379877Y-58970755D01*
X143210000Y-58970755D01*
X143210000Y-59393245D01*
X143371680Y-59783575D01*
X143670425Y-60082320D01*
X144060755Y-60244000D01*
X144483245Y-60244000D01*
X144873575Y-60082320D01*
X145172320Y-59783575D01*
X145334000Y-59393245D01*
X145334000Y-58970755D01*
X145172320Y-58580425D01*
X144873575Y-58281680D01*
X144483245Y-58120000D01*
X144060755Y-58120000D01*
X143670425Y-58281680D01*
X143371680Y-58580425D01*
X143210000Y-58970755D01*
X142379877Y-58970755D01*
X142379877Y-58332000D01*
X142356593Y-58214946D01*
X142290288Y-58115712D01*
X142191054Y-58049407D01*
X142074000Y-58026123D01*
X140374000Y-58026123D01*
X140256946Y-58049407D01*
X140157712Y-58115712D01*
X140091407Y-58214946D01*
X140068123Y-58332000D01*
X139821000Y-58332000D01*
X139821000Y-51487795D01*
X140844000Y-51487795D01*
X140844000Y-52144205D01*
X141095198Y-52750650D01*
X141559350Y-53214802D01*
X142165795Y-53466000D01*
X142822205Y-53466000D01*
X143428650Y-53214802D01*
X143892802Y-52750650D01*
X144144000Y-52144205D01*
X144144000Y-51487795D01*
X143892802Y-50881350D01*
X143428650Y-50417198D01*
X142822205Y-50166000D01*
X142165795Y-50166000D01*
X141559350Y-50417198D01*
X141095198Y-50881350D01*
X140844000Y-51487795D01*
X139821000Y-51487795D01*
X139821000Y-49143000D01*
X159629252Y-49143000D01*
X159292384Y-49282523D01*
X159292384Y-49282523D01*
G37*
X159292384Y-49282523D02*
X158864259Y-49657146D01*
X158612085Y-50167089D01*
X158722143Y-50391998D01*
X158621896Y-50391998D01*
X158563276Y-50097293D01*
X158309103Y-49716897D01*
X157928707Y-49462724D01*
X157593261Y-49396000D01*
X157366739Y-49396000D01*
X157031293Y-49462724D01*
X156650897Y-49716897D01*
X156631451Y-49746000D01*
X156095877Y-49746000D01*
X156095877Y-49696000D01*
X156072593Y-49578946D01*
X156006288Y-49479712D01*
X155907054Y-49413407D01*
X155790000Y-49390123D01*
X154090000Y-49390123D01*
X153972946Y-49413407D01*
X153873712Y-49479712D01*
X153807407Y-49578946D01*
X153784123Y-49696000D01*
X153784123Y-51396000D01*
X153807407Y-51513054D01*
X153873712Y-51612288D01*
X153972946Y-51678593D01*
X154090000Y-51701877D01*
X155790000Y-51701877D01*
X155907054Y-51678593D01*
X156006288Y-51612288D01*
X156072593Y-51513054D01*
X156095877Y-51396000D01*
X156095877Y-51346000D01*
X156631451Y-51346000D01*
X156650897Y-51375103D01*
X156680000Y-51394549D01*
X156680001Y-58702000D01*
X150681635Y-58702000D01*
X150483100Y-58503465D01*
X150078804Y-58336000D01*
X149641196Y-58336000D01*
X149236900Y-58503465D01*
X148927465Y-58812900D01*
X148760000Y-59217196D01*
X148760000Y-59404630D01*
X148550030Y-59614600D01*
X148550027Y-59614602D01*
X147850025Y-60314605D01*
X147783233Y-60359234D01*
X147738604Y-60426026D01*
X147738602Y-60426028D01*
X147657007Y-60548144D01*
X147606417Y-60623857D01*
X147578513Y-60764143D01*
X147544328Y-60936001D01*
X147560000Y-61014790D01*
X147559999Y-90322631D01*
X145238268Y-92644362D01*
X145334000Y-92413245D01*
X145334000Y-91990755D01*
X145172320Y-91600425D01*
X144873575Y-91301680D01*
X144483245Y-91140000D01*
X144060755Y-91140000D01*
X143670425Y-91301680D01*
X143371680Y-91600425D01*
X143210000Y-91990755D01*
X143210000Y-92413245D01*
X143371680Y-92803575D01*
X143670425Y-93102320D01*
X144060755Y-93264000D01*
X144483245Y-93264000D01*
X144714362Y-93168268D01*
X144202630Y-93680000D01*
X144060755Y-93680000D01*
X143670425Y-93841680D01*
X143570105Y-93942000D01*
X142072549Y-93942000D01*
X142053103Y-93912897D01*
X141672707Y-93658724D01*
X141337261Y-93592000D01*
X141110739Y-93592000D01*
X140775293Y-93658724D01*
X140394897Y-93912897D01*
X140140724Y-94293293D01*
X140051471Y-94742000D01*
X140140724Y-95190707D01*
X140394897Y-95571103D01*
X140775293Y-95825276D01*
X141110739Y-95892000D01*
X141337261Y-95892000D01*
X141672707Y-95825276D01*
X142053103Y-95571103D01*
X142072549Y-95542000D01*
X143570105Y-95542000D01*
X143670425Y-95642320D01*
X144060755Y-95804000D01*
X144202630Y-95804000D01*
X145112603Y-96713973D01*
X145157234Y-96780768D01*
X145305348Y-96879735D01*
X145421856Y-96957584D01*
X145471951Y-96967548D01*
X145655212Y-97004001D01*
X145655216Y-97004001D01*
X145734001Y-97019672D01*
X145812786Y-97004001D01*
X172834977Y-97004001D01*
X172913761Y-97019672D01*
X172992545Y-97004001D01*
X172992550Y-97004001D01*
X173225905Y-96957584D01*
X173490528Y-96780768D01*
X173535159Y-96713973D01*
X174183973Y-96065159D01*
X174250768Y-96020528D01*
X174341787Y-95884308D01*
X174410000Y-95897877D01*
X176110000Y-95897877D01*
X176227054Y-95874593D01*
X176326288Y-95808288D01*
X176392593Y-95709054D01*
X176415877Y-95592000D01*
X176415877Y-95264272D01*
X178886273Y-97734669D01*
X178686910Y-97652097D01*
X178462000Y-97763111D01*
X178462000Y-98906000D01*
X178482000Y-98906000D01*
X178482000Y-99214000D01*
X178462000Y-99214000D01*
X178462000Y-100356889D01*
X178686910Y-100467903D01*
X179035616Y-100323477D01*
X179463741Y-99948854D01*
X179715915Y-99438911D01*
X179605857Y-99214002D01*
X179706104Y-99214002D01*
X179764724Y-99508707D01*
X180018897Y-99889103D01*
X180399293Y-100143276D01*
X180734739Y-100210000D01*
X180961261Y-100210000D01*
X181296707Y-100143276D01*
X181677103Y-99889103D01*
X181931276Y-99508707D01*
X182020529Y-99060000D01*
X182215471Y-99060000D01*
X182304724Y-99508707D01*
X182558897Y-99889103D01*
X182939293Y-100143276D01*
X183274739Y-100210000D01*
X183501261Y-100210000D01*
X183836707Y-100143276D01*
X184217103Y-99889103D01*
X184471276Y-99508707D01*
X184560529Y-99060000D01*
X184471276Y-98611293D01*
X184217103Y-98230897D01*
X183836707Y-97976724D01*
X183501261Y-97910000D01*
X183274739Y-97910000D01*
X182939293Y-97976724D01*
X182558897Y-98230897D01*
X182304724Y-98611293D01*
X182215471Y-99060000D01*
X182020529Y-99060000D01*
X181931579Y-98612816D01*
X184182858Y-96361538D01*
X184220432Y-96336432D01*
X184319891Y-96187581D01*
X184346000Y-96056321D01*
X184346000Y-96056320D01*
X184354816Y-96012000D01*
X184346000Y-95967680D01*
X184346000Y-94808412D01*
X184725103Y-94555103D01*
X184979276Y-94174707D01*
X185068529Y-93726000D01*
X184979276Y-93277293D01*
X184725103Y-92896897D01*
X184346000Y-92643588D01*
X184346000Y-88944316D01*
X184354815Y-88899999D01*
X184346000Y-88855683D01*
X184346000Y-88855679D01*
X184319891Y-88724419D01*
X184220432Y-88575568D01*
X184182857Y-88550462D01*
X183931877Y-88299481D01*
X183931877Y-86677500D01*
X183908593Y-86560446D01*
X183842288Y-86461212D01*
X183743054Y-86394907D01*
X183626000Y-86371623D01*
X181725999Y-86371623D01*
X181725999Y-86026746D01*
X182089799Y-86269828D01*
X182455145Y-86342500D01*
X182796855Y-86342500D01*
X183162201Y-86269828D01*
X183576502Y-85993002D01*
X183853328Y-85578701D01*
X183950537Y-85090000D01*
X183853328Y-84601299D01*
X183576502Y-84186998D01*
X183162201Y-83910172D01*
X182796855Y-83837500D01*
X182455145Y-83837500D01*
X182089799Y-83910172D01*
X181725999Y-84153254D01*
X181725999Y-83486746D01*
X182089799Y-83729828D01*
X182455145Y-83802500D01*
X182796855Y-83802500D01*
X183162201Y-83729828D01*
X183576502Y-83453002D01*
X183853328Y-83038701D01*
X183950537Y-82550000D01*
X183853328Y-82061299D01*
X183576502Y-81646998D01*
X183162201Y-81370172D01*
X182796855Y-81297500D01*
X182455145Y-81297500D01*
X182089799Y-81370172D01*
X181675498Y-81646998D01*
X181398672Y-82061299D01*
X181315389Y-82479988D01*
X176304356Y-77468955D01*
X176343276Y-77410707D01*
X176432529Y-76962000D01*
X176343276Y-76513293D01*
X176089103Y-76132897D01*
X175708707Y-75878724D01*
X175373261Y-75812000D01*
X175146739Y-75812000D01*
X174811293Y-75878724D01*
X174474001Y-76104096D01*
X174474001Y-75279904D01*
X174811293Y-75505276D01*
X175146739Y-75572000D01*
X175373261Y-75572000D01*
X175708707Y-75505276D01*
X176089103Y-75251103D01*
X176343276Y-74870707D01*
X176432529Y-74422000D01*
X176394637Y-74231500D01*
X181320123Y-74231500D01*
X181320123Y-76136500D01*
X181343407Y-76253554D01*
X181409712Y-76352788D01*
X181508946Y-76419093D01*
X181626000Y-76442377D01*
X183626000Y-76442377D01*
X183743054Y-76419093D01*
X183842288Y-76352788D01*
X183908593Y-76253554D01*
X183931877Y-76136500D01*
X183931877Y-74231500D01*
X183908593Y-74114446D01*
X183842288Y-74015212D01*
X183743054Y-73948907D01*
X183626000Y-73925623D01*
X181626000Y-73925623D01*
X181508946Y-73948907D01*
X181409712Y-74015212D01*
X181343407Y-74114446D01*
X181320123Y-74231500D01*
X176394637Y-74231500D01*
X176343276Y-73973293D01*
X176089103Y-73592897D01*
X175708707Y-73338724D01*
X175373261Y-73272000D01*
X175146739Y-73272000D01*
X174811293Y-73338724D01*
X174474001Y-73564096D01*
X174474001Y-72739904D01*
X174811293Y-72965276D01*
X175146739Y-73032000D01*
X175373261Y-73032000D01*
X175708707Y-72965276D01*
X176089103Y-72711103D01*
X176343276Y-72330707D01*
X176432529Y-71882000D01*
X176343276Y-71433293D01*
X176089103Y-71052897D01*
X175708707Y-70798724D01*
X175373261Y-70732000D01*
X175146739Y-70732000D01*
X174811293Y-70798724D01*
X174474001Y-71024096D01*
X174474001Y-70199904D01*
X174811293Y-70425276D01*
X175146739Y-70492000D01*
X175373261Y-70492000D01*
X175708707Y-70425276D01*
X176089103Y-70171103D01*
X176343276Y-69790707D01*
X176432529Y-69342000D01*
X176343276Y-68893293D01*
X176089103Y-68512897D01*
X175708707Y-68258724D01*
X175373261Y-68192000D01*
X175146739Y-68192000D01*
X174811293Y-68258724D01*
X174474001Y-68484096D01*
X174474001Y-67659904D01*
X174811293Y-67885276D01*
X175146739Y-67952000D01*
X175373261Y-67952000D01*
X175708707Y-67885276D01*
X176089103Y-67631103D01*
X176343276Y-67250707D01*
X176432529Y-66802000D01*
X176343276Y-66353293D01*
X176089103Y-65972897D01*
X175708707Y-65718724D01*
X175373261Y-65652000D01*
X175146739Y-65652000D01*
X174811293Y-65718724D01*
X174474001Y-65944096D01*
X174474001Y-65119904D01*
X174811293Y-65345276D01*
X175146739Y-65412000D01*
X175373261Y-65412000D01*
X175708707Y-65345276D01*
X176030126Y-65130510D01*
X180958547Y-65130510D01*
X180965991Y-65167934D01*
X180965990Y-72486571D01*
X180958547Y-72523990D01*
X180965990Y-72561409D01*
X180965990Y-72561413D01*
X180988038Y-72672257D01*
X181072026Y-72797954D01*
X181103754Y-72819154D01*
X181170836Y-72886236D01*
X181192036Y-72917964D01*
X181317732Y-73001952D01*
X181374927Y-73013329D01*
X181398672Y-73132701D01*
X181675498Y-73547002D01*
X182089799Y-73823828D01*
X182455145Y-73896500D01*
X182796855Y-73896500D01*
X183162201Y-73823828D01*
X183576502Y-73547002D01*
X183853328Y-73132701D01*
X183950537Y-72644000D01*
X183853328Y-72155299D01*
X183576502Y-71740998D01*
X183248460Y-71521808D01*
X183576919Y-71374417D01*
X183994318Y-70931989D01*
X184183174Y-70499028D01*
X184073556Y-70258000D01*
X182780000Y-70258000D01*
X182780000Y-70278000D01*
X182472000Y-70278000D01*
X182472000Y-70258000D01*
X182452000Y-70258000D01*
X182452000Y-69950000D01*
X182472000Y-69950000D01*
X182472000Y-68700756D01*
X182780000Y-68700756D01*
X182780000Y-69950000D01*
X184073556Y-69950000D01*
X184183174Y-69708972D01*
X183994318Y-69276011D01*
X183576919Y-68833583D01*
X183021983Y-68584564D01*
X182780000Y-68700756D01*
X182472000Y-68700756D01*
X182230017Y-68584564D01*
X181725990Y-68810738D01*
X181725990Y-65287910D01*
X182868239Y-64145662D01*
X182899964Y-64124464D01*
X182983952Y-63998768D01*
X182984428Y-63996377D01*
X183626000Y-63996377D01*
X183743054Y-63973093D01*
X183842288Y-63906788D01*
X183908593Y-63807554D01*
X183931877Y-63690500D01*
X183931877Y-61785500D01*
X183908593Y-61668446D01*
X183842288Y-61569212D01*
X183743054Y-61502907D01*
X183626000Y-61479623D01*
X181626000Y-61479623D01*
X181508946Y-61502907D01*
X181409712Y-61569212D01*
X181343407Y-61668446D01*
X181320123Y-61785500D01*
X181320123Y-63690500D01*
X181343407Y-63807554D01*
X181409712Y-63906788D01*
X181508946Y-63973093D01*
X181626000Y-63996377D01*
X181942722Y-63996377D01*
X181103752Y-64835348D01*
X181072027Y-64856546D01*
X181050829Y-64888271D01*
X181050827Y-64888273D01*
X180988039Y-64982242D01*
X180958547Y-65130510D01*
X176030126Y-65130510D01*
X176089103Y-65091103D01*
X176343276Y-64710707D01*
X176432529Y-64262000D01*
X176343276Y-63813293D01*
X176089103Y-63432897D01*
X175708707Y-63178724D01*
X175373261Y-63112000D01*
X175146739Y-63112000D01*
X174811293Y-63178724D01*
X174474001Y-63404096D01*
X174474001Y-62579904D01*
X174811293Y-62805276D01*
X175146739Y-62872000D01*
X175373261Y-62872000D01*
X175708707Y-62805276D01*
X176089103Y-62551103D01*
X176343276Y-62170707D01*
X176432529Y-61722000D01*
X176343276Y-61273293D01*
X176089103Y-60892897D01*
X175708707Y-60638724D01*
X175373261Y-60572000D01*
X175146739Y-60572000D01*
X174811293Y-60638724D01*
X174474001Y-60864096D01*
X174474001Y-60039904D01*
X174811293Y-60265276D01*
X175146739Y-60332000D01*
X175373261Y-60332000D01*
X175708707Y-60265276D01*
X176089103Y-60011103D01*
X176343276Y-59630707D01*
X176432529Y-59182000D01*
X176343276Y-58733293D01*
X176141957Y-58431999D01*
X180416495Y-58431999D01*
X180547211Y-58458000D01*
X180547216Y-58458000D01*
X180626000Y-58473671D01*
X180704784Y-58458000D01*
X181606675Y-58458000D01*
X181675498Y-58561002D01*
X182089799Y-58837828D01*
X182455145Y-58910500D01*
X182626632Y-58910500D01*
X182591632Y-58945500D01*
X182455145Y-58945500D01*
X182089799Y-59018172D01*
X181675498Y-59294998D01*
X181398672Y-59709299D01*
X181301463Y-60198000D01*
X181398672Y-60686701D01*
X181675498Y-61101002D01*
X182089799Y-61377828D01*
X182455145Y-61450500D01*
X182796855Y-61450500D01*
X183162201Y-61377828D01*
X183576502Y-61101002D01*
X183853328Y-60686701D01*
X183950537Y-60198000D01*
X183892690Y-59907183D01*
X184835985Y-58963888D01*
X184902777Y-58919259D01*
X185079593Y-58654636D01*
X185126010Y-58421281D01*
X185126010Y-58421277D01*
X185141681Y-58342493D01*
X185126010Y-58263709D01*
X185126010Y-57052291D01*
X185141681Y-56973507D01*
X185126010Y-56894723D01*
X185126010Y-56894719D01*
X185079593Y-56661364D01*
X184902777Y-56396741D01*
X184835984Y-56352111D01*
X183599900Y-55116028D01*
X183555269Y-55049233D01*
X183290646Y-54872417D01*
X183057291Y-54826000D01*
X183057286Y-54826000D01*
X182978502Y-54810329D01*
X182899718Y-54826000D01*
X180671371Y-54826000D01*
X177333166Y-51487795D01*
X180976000Y-51487795D01*
X180976000Y-52144205D01*
X181227198Y-52750650D01*
X181691350Y-53214802D01*
X182297795Y-53466000D01*
X182954205Y-53466000D01*
X183560650Y-53214802D01*
X184024802Y-52750650D01*
X184276000Y-52144205D01*
X184276000Y-51487795D01*
X184024802Y-50881350D01*
X183560650Y-50417198D01*
X182954205Y-50166000D01*
X182297795Y-50166000D01*
X181691350Y-50417198D01*
X181227198Y-50881350D01*
X180976000Y-51487795D01*
X177333166Y-51487795D01*
X176425700Y-50580330D01*
X176432529Y-50546000D01*
X176343276Y-50097293D01*
X176089103Y-49716897D01*
X175708707Y-49462724D01*
X175373261Y-49396000D01*
X175146739Y-49396000D01*
X174811293Y-49462724D01*
X174430897Y-49716897D01*
X174411451Y-49746000D01*
X168588783Y-49746000D01*
X168509999Y-49730329D01*
X168431215Y-49746000D01*
X168431211Y-49746000D01*
X168197856Y-49792417D01*
X167933233Y-49969233D01*
X167888604Y-50036025D01*
X159594026Y-58330604D01*
X159527234Y-58375233D01*
X159482605Y-58442025D01*
X159482603Y-58442027D01*
X159350418Y-58639856D01*
X159288329Y-58952000D01*
X159304001Y-59030788D01*
X159304001Y-59666015D01*
X159286946Y-59669407D01*
X159187712Y-59735712D01*
X159121407Y-59834946D01*
X159098123Y-59952000D01*
X159098123Y-60952000D01*
X159112047Y-61022000D01*
X158909877Y-61022000D01*
X158909877Y-60902000D01*
X158886593Y-60784946D01*
X158820288Y-60685712D01*
X158721054Y-60619407D01*
X158604000Y-60596123D01*
X157204000Y-60596123D01*
X157086946Y-60619407D01*
X156987712Y-60685712D01*
X156921407Y-60784946D01*
X156898123Y-60902000D01*
X156898123Y-61670477D01*
X156391762Y-62176838D01*
X156360037Y-62198036D01*
X156338839Y-62229761D01*
X156338837Y-62229763D01*
X156276049Y-62323732D01*
X156246557Y-62472000D01*
X156254001Y-62509424D01*
X156254000Y-63710123D01*
X155934000Y-63710123D01*
X155816946Y-63733407D01*
X155717712Y-63799712D01*
X155651407Y-63898946D01*
X155628123Y-64016000D01*
X155628123Y-65016000D01*
X155651407Y-65133054D01*
X155717712Y-65232288D01*
X155816946Y-65298593D01*
X155934000Y-65321877D01*
X155950722Y-65321877D01*
X154596600Y-66676000D01*
X150905963Y-66676000D01*
X150896177Y-66626801D01*
X150653056Y-66262944D01*
X150289199Y-66019823D01*
X149968339Y-65956000D01*
X149751661Y-65956000D01*
X149430801Y-66019823D01*
X149159999Y-66200767D01*
X149159999Y-61267371D01*
X149681398Y-60745973D01*
X149681400Y-60745970D01*
X149891370Y-60536000D01*
X150078804Y-60536000D01*
X150483100Y-60368535D01*
X150549635Y-60302000D01*
X157174455Y-60302000D01*
X157204000Y-60307877D01*
X157854757Y-60307877D01*
X157904000Y-60317672D01*
X157953243Y-60307877D01*
X158604000Y-60307877D01*
X158721054Y-60284593D01*
X158820288Y-60218288D01*
X158886593Y-60119054D01*
X158909877Y-60002000D01*
X158909877Y-59002000D01*
X158886593Y-58884946D01*
X158820288Y-58785712D01*
X158721054Y-58719407D01*
X158604000Y-58696123D01*
X158280000Y-58696123D01*
X158280000Y-51394549D01*
X158309103Y-51375103D01*
X158563276Y-50994707D01*
X158621896Y-50700002D01*
X158722143Y-50700002D01*
X158612085Y-50924911D01*
X158864259Y-51434854D01*
X159292384Y-51809477D01*
X159641090Y-51953903D01*
X159866000Y-51842889D01*
X159866000Y-50700000D01*
X160174000Y-50700000D01*
X160174000Y-51842889D01*
X160398910Y-51953903D01*
X160747616Y-51809477D01*
X161175741Y-51434854D01*
X161290000Y-51203801D01*
X161404259Y-51434854D01*
X161832384Y-51809477D01*
X162181090Y-51953903D01*
X162406000Y-51842889D01*
X162406000Y-50700000D01*
X162714000Y-50700000D01*
X162714000Y-51842889D01*
X162938910Y-51953903D01*
X163287616Y-51809477D01*
X163715741Y-51434854D01*
X163967915Y-50924911D01*
X163857856Y-50700000D01*
X162714000Y-50700000D01*
X162406000Y-50700000D01*
X160174000Y-50700000D01*
X159866000Y-50700000D01*
X159846000Y-50700000D01*
X159846000Y-50392000D01*
X159866000Y-50392000D01*
X159866000Y-50372000D01*
X160174000Y-50372000D01*
X160174000Y-50392000D01*
X162406000Y-50392000D01*
X162406000Y-50372000D01*
X162714000Y-50372000D01*
X162714000Y-50392000D01*
X163857856Y-50392000D01*
X163967915Y-50167089D01*
X163715741Y-49657146D01*
X163287616Y-49282523D01*
X162950748Y-49143000D01*
X185299000Y-49143000D01*
X185299001Y-106305000D01*
X139821000Y-106305000D01*
X139821000Y-103303795D01*
X140844000Y-103303795D01*
X140844000Y-103960205D01*
X141095198Y-104566650D01*
X141559350Y-105030802D01*
X142165795Y-105282000D01*
X142822205Y-105282000D01*
X143428650Y-105030802D01*
X143892802Y-104566650D01*
X144144000Y-103960205D01*
X144144000Y-103303795D01*
X180976000Y-103303795D01*
X180976000Y-103960205D01*
X181227198Y-104566650D01*
X181691350Y-105030802D01*
X182297795Y-105282000D01*
X182954205Y-105282000D01*
X183560650Y-105030802D01*
X184024802Y-104566650D01*
X184276000Y-103960205D01*
X184276000Y-103303795D01*
X184024802Y-102697350D01*
X183560650Y-102233198D01*
X182954205Y-101982000D01*
X182297795Y-101982000D01*
X181691350Y-102233198D01*
X181227198Y-102697350D01*
X180976000Y-103303795D01*
X144144000Y-103303795D01*
X143892802Y-102697350D01*
X143428650Y-102233198D01*
X142822205Y-101982000D01*
X142165795Y-101982000D01*
X141559350Y-102233198D01*
X141095198Y-102697350D01*
X140844000Y-103303795D01*
X139821000Y-103303795D01*
X139821000Y-98210000D01*
X174612123Y-98210000D01*
X174612123Y-99910000D01*
X174635407Y-100027054D01*
X174701712Y-100126288D01*
X174800946Y-100192593D01*
X174918000Y-100215877D01*
X176618000Y-100215877D01*
X176735054Y-100192593D01*
X176834288Y-100126288D01*
X176900593Y-100027054D01*
X176923877Y-99910000D01*
X176923877Y-99487023D01*
X177152259Y-99948854D01*
X177580384Y-100323477D01*
X177929090Y-100467903D01*
X178154000Y-100356889D01*
X178154000Y-99214000D01*
X178134000Y-99214000D01*
X178134000Y-98906000D01*
X178154000Y-98906000D01*
X178154000Y-97763111D01*
X177929090Y-97652097D01*
X177580384Y-97796523D01*
X177152259Y-98171146D01*
X176923877Y-98632977D01*
X176923877Y-98210000D01*
X176900593Y-98092946D01*
X176834288Y-97993712D01*
X176735054Y-97927407D01*
X176618000Y-97904123D01*
X174918000Y-97904123D01*
X174800946Y-97927407D01*
X174701712Y-97993712D01*
X174635407Y-98092946D01*
X174612123Y-98210000D01*
X139821000Y-98210000D01*
X139821000Y-92202000D01*
X140051471Y-92202000D01*
X140140724Y-92650707D01*
X140394897Y-93031103D01*
X140775293Y-93285276D01*
X141110739Y-93352000D01*
X141337261Y-93352000D01*
X141672707Y-93285276D01*
X142053103Y-93031103D01*
X142307276Y-92650707D01*
X142396529Y-92202000D01*
X142307276Y-91753293D01*
X142053103Y-91372897D01*
X141672707Y-91118724D01*
X141337261Y-91052000D01*
X141110739Y-91052000D01*
X140775293Y-91118724D01*
X140394897Y-91372897D01*
X140140724Y-91753293D01*
X140051471Y-92202000D01*
X139821000Y-92202000D01*
X139821000Y-89662000D01*
X140051471Y-89662000D01*
X140140724Y-90110707D01*
X140394897Y-90491103D01*
X140775293Y-90745276D01*
X141110739Y-90812000D01*
X141337261Y-90812000D01*
X141672707Y-90745276D01*
X142053103Y-90491103D01*
X142307276Y-90110707D01*
X142396529Y-89662000D01*
X142354510Y-89450755D01*
X143210000Y-89450755D01*
X143210000Y-89873245D01*
X143371680Y-90263575D01*
X143670425Y-90562320D01*
X144060755Y-90724000D01*
X144483245Y-90724000D01*
X144873575Y-90562320D01*
X145172320Y-90263575D01*
X145334000Y-89873245D01*
X145334000Y-89450755D01*
X145172320Y-89060425D01*
X144873575Y-88761680D01*
X144483245Y-88600000D01*
X144060755Y-88600000D01*
X143670425Y-88761680D01*
X143371680Y-89060425D01*
X143210000Y-89450755D01*
X142354510Y-89450755D01*
X142307276Y-89213293D01*
X142053103Y-88832897D01*
X141672707Y-88578724D01*
X141337261Y-88512000D01*
X141110739Y-88512000D01*
X140775293Y-88578724D01*
X140394897Y-88832897D01*
X140140724Y-89213293D01*
X140051471Y-89662000D01*
X139821000Y-89662000D01*
X139821000Y-87122000D01*
X140051471Y-87122000D01*
X140140724Y-87570707D01*
X140394897Y-87951103D01*
X140775293Y-88205276D01*
X141110739Y-88272000D01*
X141337261Y-88272000D01*
X141672707Y-88205276D01*
X142053103Y-87951103D01*
X142307276Y-87570707D01*
X142396529Y-87122000D01*
X142354510Y-86910755D01*
X143210000Y-86910755D01*
X143210000Y-87333245D01*
X143371680Y-87723575D01*
X143670425Y-88022320D01*
X144060755Y-88184000D01*
X144483245Y-88184000D01*
X144873575Y-88022320D01*
X145172320Y-87723575D01*
X145334000Y-87333245D01*
X145334000Y-86910755D01*
X145172320Y-86520425D01*
X144873575Y-86221680D01*
X144483245Y-86060000D01*
X144060755Y-86060000D01*
X143670425Y-86221680D01*
X143371680Y-86520425D01*
X143210000Y-86910755D01*
X142354510Y-86910755D01*
X142307276Y-86673293D01*
X142053103Y-86292897D01*
X141672707Y-86038724D01*
X141337261Y-85972000D01*
X141110739Y-85972000D01*
X140775293Y-86038724D01*
X140394897Y-86292897D01*
X140140724Y-86673293D01*
X140051471Y-87122000D01*
X139821000Y-87122000D01*
X139821000Y-84582000D01*
X140051471Y-84582000D01*
X140140724Y-85030707D01*
X140394897Y-85411103D01*
X140775293Y-85665276D01*
X141110739Y-85732000D01*
X141337261Y-85732000D01*
X141672707Y-85665276D01*
X142053103Y-85411103D01*
X142307276Y-85030707D01*
X142396529Y-84582000D01*
X142354510Y-84370755D01*
X143210000Y-84370755D01*
X143210000Y-84793245D01*
X143371680Y-85183575D01*
X143670425Y-85482320D01*
X144060755Y-85644000D01*
X144483245Y-85644000D01*
X144873575Y-85482320D01*
X145172320Y-85183575D01*
X145334000Y-84793245D01*
X145334000Y-84370755D01*
X145172320Y-83980425D01*
X144873575Y-83681680D01*
X144483245Y-83520000D01*
X144060755Y-83520000D01*
X143670425Y-83681680D01*
X143371680Y-83980425D01*
X143210000Y-84370755D01*
X142354510Y-84370755D01*
X142307276Y-84133293D01*
X142053103Y-83752897D01*
X141672707Y-83498724D01*
X141337261Y-83432000D01*
X141110739Y-83432000D01*
X140775293Y-83498724D01*
X140394897Y-83752897D01*
X140140724Y-84133293D01*
X140051471Y-84582000D01*
X139821000Y-84582000D01*
X139821000Y-82042000D01*
X140051471Y-82042000D01*
X140140724Y-82490707D01*
X140394897Y-82871103D01*
X140775293Y-83125276D01*
X141110739Y-83192000D01*
X141337261Y-83192000D01*
X141672707Y-83125276D01*
X142053103Y-82871103D01*
X142307276Y-82490707D01*
X142396529Y-82042000D01*
X142354510Y-81830755D01*
X143210000Y-81830755D01*
X143210000Y-82253245D01*
X143371680Y-82643575D01*
X143670425Y-82942320D01*
X144060755Y-83104000D01*
X144483245Y-83104000D01*
X144873575Y-82942320D01*
X145172320Y-82643575D01*
X145334000Y-82253245D01*
X145334000Y-81830755D01*
X145172320Y-81440425D01*
X144873575Y-81141680D01*
X144483245Y-80980000D01*
X144060755Y-80980000D01*
X143670425Y-81141680D01*
X143371680Y-81440425D01*
X143210000Y-81830755D01*
X142354510Y-81830755D01*
X142307276Y-81593293D01*
X142053103Y-81212897D01*
X141672707Y-80958724D01*
X141337261Y-80892000D01*
X141110739Y-80892000D01*
X140775293Y-80958724D01*
X140394897Y-81212897D01*
X140140724Y-81593293D01*
X140051471Y-82042000D01*
X139821000Y-82042000D01*
X139821000Y-79502000D01*
X140051471Y-79502000D01*
X140140724Y-79950707D01*
X140394897Y-80331103D01*
X140775293Y-80585276D01*
X141110739Y-80652000D01*
X141337261Y-80652000D01*
X141672707Y-80585276D01*
X142053103Y-80331103D01*
X142307276Y-79950707D01*
X142396529Y-79502000D01*
X142354510Y-79290755D01*
X143210000Y-79290755D01*
X143210000Y-79713245D01*
X143371680Y-80103575D01*
X143670425Y-80402320D01*
X144060755Y-80564000D01*
X144483245Y-80564000D01*
X144873575Y-80402320D01*
X145172320Y-80103575D01*
X145334000Y-79713245D01*
X145334000Y-79290755D01*
X145172320Y-78900425D01*
X144873575Y-78601680D01*
X144483245Y-78440000D01*
X144060755Y-78440000D01*
X143670425Y-78601680D01*
X143371680Y-78900425D01*
X143210000Y-79290755D01*
X142354510Y-79290755D01*
X142307276Y-79053293D01*
X142053103Y-78672897D01*
X141672707Y-78418724D01*
X141337261Y-78352000D01*
X141110739Y-78352000D01*
X140775293Y-78418724D01*
X140394897Y-78672897D01*
X140140724Y-79053293D01*
X140051471Y-79502000D01*
X139821000Y-79502000D01*
X139821000Y-76962000D01*
X140051471Y-76962000D01*
X140140724Y-77410707D01*
X140394897Y-77791103D01*
X140775293Y-78045276D01*
X141110739Y-78112000D01*
X141337261Y-78112000D01*
X141672707Y-78045276D01*
X142053103Y-77791103D01*
X142307276Y-77410707D01*
X142396529Y-76962000D01*
X142354510Y-76750755D01*
X143210000Y-76750755D01*
X143210000Y-77173245D01*
X143371680Y-77563575D01*
X143670425Y-77862320D01*
X144060755Y-78024000D01*
X144483245Y-78024000D01*
X144873575Y-77862320D01*
X145172320Y-77563575D01*
X145334000Y-77173245D01*
X145334000Y-76750755D01*
X145172320Y-76360425D01*
X144873575Y-76061680D01*
X144483245Y-75900000D01*
X144060755Y-75900000D01*
X143670425Y-76061680D01*
X143371680Y-76360425D01*
X143210000Y-76750755D01*
X142354510Y-76750755D01*
X142307276Y-76513293D01*
X142053103Y-76132897D01*
X141672707Y-75878724D01*
X141337261Y-75812000D01*
X141110739Y-75812000D01*
X140775293Y-75878724D01*
X140394897Y-76132897D01*
X140140724Y-76513293D01*
X140051471Y-76962000D01*
X139821000Y-76962000D01*
X139821000Y-74422000D01*
X140051471Y-74422000D01*
X140140724Y-74870707D01*
X140394897Y-75251103D01*
X140775293Y-75505276D01*
X141110739Y-75572000D01*
X141337261Y-75572000D01*
X141672707Y-75505276D01*
X142053103Y-75251103D01*
X142307276Y-74870707D01*
X142396529Y-74422000D01*
X142354510Y-74210755D01*
X143210000Y-74210755D01*
X143210000Y-74633245D01*
X143371680Y-75023575D01*
X143670425Y-75322320D01*
X144060755Y-75484000D01*
X144483245Y-75484000D01*
X144873575Y-75322320D01*
X145172320Y-75023575D01*
X145334000Y-74633245D01*
X145334000Y-74210755D01*
X145172320Y-73820425D01*
X144873575Y-73521680D01*
X144483245Y-73360000D01*
X144060755Y-73360000D01*
X143670425Y-73521680D01*
X143371680Y-73820425D01*
X143210000Y-74210755D01*
X142354510Y-74210755D01*
X142307276Y-73973293D01*
X142053103Y-73592897D01*
X141672707Y-73338724D01*
X141337261Y-73272000D01*
X141110739Y-73272000D01*
X140775293Y-73338724D01*
X140394897Y-73592897D01*
X140140724Y-73973293D01*
X140051471Y-74422000D01*
X139821000Y-74422000D01*
X139821000Y-71882000D01*
X140051471Y-71882000D01*
X140140724Y-72330707D01*
X140394897Y-72711103D01*
X140775293Y-72965276D01*
X141110739Y-73032000D01*
X141337261Y-73032000D01*
X141672707Y-72965276D01*
X142053103Y-72711103D01*
X142307276Y-72330707D01*
X142396529Y-71882000D01*
X142354510Y-71670755D01*
X143210000Y-71670755D01*
X143210000Y-72093245D01*
X143371680Y-72483575D01*
X143670425Y-72782320D01*
X144060755Y-72944000D01*
X144483245Y-72944000D01*
X144873575Y-72782320D01*
X145172320Y-72483575D01*
X145334000Y-72093245D01*
X145334000Y-71670755D01*
X145172320Y-71280425D01*
X144873575Y-70981680D01*
X144483245Y-70820000D01*
X144060755Y-70820000D01*
X143670425Y-70981680D01*
X143371680Y-71280425D01*
X143210000Y-71670755D01*
X142354510Y-71670755D01*
X142307276Y-71433293D01*
X142053103Y-71052897D01*
X141672707Y-70798724D01*
X141337261Y-70732000D01*
X141110739Y-70732000D01*
X140775293Y-70798724D01*
X140394897Y-71052897D01*
X140140724Y-71433293D01*
X140051471Y-71882000D01*
X139821000Y-71882000D01*
X139821000Y-69342000D01*
X140051471Y-69342000D01*
X140140724Y-69790707D01*
X140394897Y-70171103D01*
X140775293Y-70425276D01*
X141110739Y-70492000D01*
X141337261Y-70492000D01*
X141672707Y-70425276D01*
X142053103Y-70171103D01*
X142307276Y-69790707D01*
X142396529Y-69342000D01*
X142354510Y-69130755D01*
X143210000Y-69130755D01*
X143210000Y-69553245D01*
X143371680Y-69943575D01*
X143670425Y-70242320D01*
X144060755Y-70404000D01*
X144483245Y-70404000D01*
X144873575Y-70242320D01*
X145172320Y-69943575D01*
X145334000Y-69553245D01*
X145334000Y-69130755D01*
X145172320Y-68740425D01*
X144873575Y-68441680D01*
X144483245Y-68280000D01*
X144060755Y-68280000D01*
X143670425Y-68441680D01*
X143371680Y-68740425D01*
X143210000Y-69130755D01*
X142354510Y-69130755D01*
X142307276Y-68893293D01*
X142053103Y-68512897D01*
X141672707Y-68258724D01*
X141337261Y-68192000D01*
X141110739Y-68192000D01*
X140775293Y-68258724D01*
X140394897Y-68512897D01*
X140140724Y-68893293D01*
X140051471Y-69342000D01*
X139821000Y-69342000D01*
X139821000Y-66802000D01*
X140051471Y-66802000D01*
X140140724Y-67250707D01*
X140394897Y-67631103D01*
X140775293Y-67885276D01*
X141110739Y-67952000D01*
X141337261Y-67952000D01*
X141672707Y-67885276D01*
X142053103Y-67631103D01*
X142307276Y-67250707D01*
X142396529Y-66802000D01*
X142354510Y-66590755D01*
X143210000Y-66590755D01*
X143210000Y-67013245D01*
X143371680Y-67403575D01*
X143670425Y-67702320D01*
X144060755Y-67864000D01*
X144483245Y-67864000D01*
X144873575Y-67702320D01*
X145172320Y-67403575D01*
X145334000Y-67013245D01*
X145334000Y-66590755D01*
X145172320Y-66200425D01*
X144873575Y-65901680D01*
X144483245Y-65740000D01*
X144060755Y-65740000D01*
X143670425Y-65901680D01*
X143371680Y-66200425D01*
X143210000Y-66590755D01*
X142354510Y-66590755D01*
X142307276Y-66353293D01*
X142053103Y-65972897D01*
X141672707Y-65718724D01*
X141337261Y-65652000D01*
X141110739Y-65652000D01*
X140775293Y-65718724D01*
X140394897Y-65972897D01*
X140140724Y-66353293D01*
X140051471Y-66802000D01*
X139821000Y-66802000D01*
X139821000Y-64262000D01*
X140051471Y-64262000D01*
X140140724Y-64710707D01*
X140394897Y-65091103D01*
X140775293Y-65345276D01*
X141110739Y-65412000D01*
X141337261Y-65412000D01*
X141672707Y-65345276D01*
X142053103Y-65091103D01*
X142307276Y-64710707D01*
X142396529Y-64262000D01*
X142354510Y-64050755D01*
X143210000Y-64050755D01*
X143210000Y-64473245D01*
X143371680Y-64863575D01*
X143670425Y-65162320D01*
X144060755Y-65324000D01*
X144483245Y-65324000D01*
X144873575Y-65162320D01*
X145172320Y-64863575D01*
X145334000Y-64473245D01*
X145334000Y-64050755D01*
X145172320Y-63660425D01*
X144873575Y-63361680D01*
X144483245Y-63200000D01*
X144060755Y-63200000D01*
X143670425Y-63361680D01*
X143371680Y-63660425D01*
X143210000Y-64050755D01*
X142354510Y-64050755D01*
X142307276Y-63813293D01*
X142053103Y-63432897D01*
X141672707Y-63178724D01*
X141337261Y-63112000D01*
X141110739Y-63112000D01*
X140775293Y-63178724D01*
X140394897Y-63432897D01*
X140140724Y-63813293D01*
X140051471Y-64262000D01*
X139821000Y-64262000D01*
X139821000Y-61722000D01*
X140051471Y-61722000D01*
X140140724Y-62170707D01*
X140394897Y-62551103D01*
X140775293Y-62805276D01*
X141110739Y-62872000D01*
X141337261Y-62872000D01*
X141672707Y-62805276D01*
X142053103Y-62551103D01*
X142307276Y-62170707D01*
X142396529Y-61722000D01*
X142354510Y-61510755D01*
X143210000Y-61510755D01*
X143210000Y-61933245D01*
X143371680Y-62323575D01*
X143670425Y-62622320D01*
X144060755Y-62784000D01*
X144483245Y-62784000D01*
X144873575Y-62622320D01*
X145172320Y-62323575D01*
X145334000Y-61933245D01*
X145334000Y-61510755D01*
X145172320Y-61120425D01*
X144873575Y-60821680D01*
X144483245Y-60660000D01*
X144060755Y-60660000D01*
X143670425Y-60821680D01*
X143371680Y-61120425D01*
X143210000Y-61510755D01*
X142354510Y-61510755D01*
X142307276Y-61273293D01*
X142053103Y-60892897D01*
X141672707Y-60638724D01*
X141337261Y-60572000D01*
X141110739Y-60572000D01*
X140775293Y-60638724D01*
X140394897Y-60892897D01*
X140140724Y-61273293D01*
X140051471Y-61722000D01*
X139821000Y-61722000D01*
X139821000Y-58332000D01*
X140068123Y-58332000D01*
X140068123Y-60032000D01*
X140091407Y-60149054D01*
X140157712Y-60248288D01*
X140256946Y-60314593D01*
X140374000Y-60337877D01*
X142074000Y-60337877D01*
X142191054Y-60314593D01*
X142290288Y-60248288D01*
X142356593Y-60149054D01*
X142379877Y-60032000D01*
X142379877Y-58970755D01*
X143210000Y-58970755D01*
X143210000Y-59393245D01*
X143371680Y-59783575D01*
X143670425Y-60082320D01*
X144060755Y-60244000D01*
X144483245Y-60244000D01*
X144873575Y-60082320D01*
X145172320Y-59783575D01*
X145334000Y-59393245D01*
X145334000Y-58970755D01*
X145172320Y-58580425D01*
X144873575Y-58281680D01*
X144483245Y-58120000D01*
X144060755Y-58120000D01*
X143670425Y-58281680D01*
X143371680Y-58580425D01*
X143210000Y-58970755D01*
X142379877Y-58970755D01*
X142379877Y-58332000D01*
X142356593Y-58214946D01*
X142290288Y-58115712D01*
X142191054Y-58049407D01*
X142074000Y-58026123D01*
X140374000Y-58026123D01*
X140256946Y-58049407D01*
X140157712Y-58115712D01*
X140091407Y-58214946D01*
X140068123Y-58332000D01*
X139821000Y-58332000D01*
X139821000Y-51487795D01*
X140844000Y-51487795D01*
X140844000Y-52144205D01*
X141095198Y-52750650D01*
X141559350Y-53214802D01*
X142165795Y-53466000D01*
X142822205Y-53466000D01*
X143428650Y-53214802D01*
X143892802Y-52750650D01*
X144144000Y-52144205D01*
X144144000Y-51487795D01*
X143892802Y-50881350D01*
X143428650Y-50417198D01*
X142822205Y-50166000D01*
X142165795Y-50166000D01*
X141559350Y-50417198D01*
X141095198Y-50881350D01*
X140844000Y-51487795D01*
X139821000Y-51487795D01*
X139821000Y-49143000D01*
X159629252Y-49143000D01*
X159292384Y-49282523D01*
G36*
X174811293Y-78045276D02*
X175146739Y-78112000D01*
X175373261Y-78112000D01*
X175708707Y-78045276D01*
X175766955Y-78006356D01*
X180965999Y-83205401D01*
X180966000Y-92476494D01*
X180958556Y-92513918D01*
X180976000Y-92601616D01*
X180976000Y-92629057D01*
X180907293Y-92642724D01*
X180526897Y-92896897D01*
X180274000Y-93275383D01*
X180274000Y-92755061D01*
X180181437Y-92531595D01*
X180010404Y-92360562D01*
X179786938Y-92268000D01*
X179122000Y-92268000D01*
X178970000Y-92420000D01*
X178970000Y-93572000D01*
X178990000Y-93572000D01*
X178990000Y-93880000D01*
X178970000Y-93880000D01*
X178970000Y-95032000D01*
X179122000Y-95184000D01*
X179786938Y-95184000D01*
X180010404Y-95091438D01*
X180181437Y-94920405D01*
X180274000Y-94696939D01*
X180274000Y-94176617D01*
X180526897Y-94555103D01*
X180907293Y-94809276D01*
X181242739Y-94876000D01*
X181469261Y-94876000D01*
X181804707Y-94809276D01*
X182185103Y-94555103D01*
X182439276Y-94174707D01*
X182528529Y-93726000D01*
X182439276Y-93277293D01*
X182185103Y-92896897D01*
X181804707Y-92642724D01*
X181736000Y-92629057D01*
X181736000Y-92561338D01*
X181743443Y-92523919D01*
X181736000Y-92486500D01*
X181736000Y-92486495D01*
X181725999Y-92436216D01*
X181725999Y-88888377D01*
X183247981Y-88888377D01*
X183446001Y-89086397D01*
X183446000Y-92643588D01*
X183066897Y-92896897D01*
X182812724Y-93277293D01*
X182723471Y-93726000D01*
X182812724Y-94174707D01*
X183066897Y-94555103D01*
X183446001Y-94808412D01*
X183446000Y-95825604D01*
X181295184Y-97976421D01*
X180961261Y-97910000D01*
X180734739Y-97910000D01*
X180400817Y-97976421D01*
X176879540Y-94455145D01*
X176854432Y-94417568D01*
X176705581Y-94318109D01*
X176574321Y-94292000D01*
X176574320Y-94292000D01*
X176530000Y-94283184D01*
X176485680Y-94292000D01*
X176415877Y-94292000D01*
X176415877Y-94032000D01*
X177358000Y-94032000D01*
X177358000Y-94696939D01*
X177450563Y-94920405D01*
X177621596Y-95091438D01*
X177845062Y-95184000D01*
X178510000Y-95184000D01*
X178662000Y-95032000D01*
X178662000Y-93880000D01*
X177510000Y-93880000D01*
X177358000Y-94032000D01*
X176415877Y-94032000D01*
X176415877Y-93892000D01*
X176392593Y-93774946D01*
X176326288Y-93675712D01*
X176227054Y-93609407D01*
X176110000Y-93586123D01*
X175687023Y-93586123D01*
X176148854Y-93357741D01*
X176523477Y-92929616D01*
X176595773Y-92755061D01*
X177358000Y-92755061D01*
X177358000Y-93420000D01*
X177510000Y-93572000D01*
X178662000Y-93572000D01*
X178662000Y-92420000D01*
X178510000Y-92268000D01*
X177845062Y-92268000D01*
X177621596Y-92360562D01*
X177450563Y-92531595D01*
X177358000Y-92755061D01*
X176595773Y-92755061D01*
X176667903Y-92580910D01*
X176556889Y-92356000D01*
X175414000Y-92356000D01*
X175414000Y-92376000D01*
X175106000Y-92376000D01*
X175106000Y-92356000D01*
X175086000Y-92356000D01*
X175086000Y-92048000D01*
X175106000Y-92048000D01*
X175106000Y-92028000D01*
X175414000Y-92028000D01*
X175414000Y-92048000D01*
X176556889Y-92048000D01*
X176667903Y-91823090D01*
X176523477Y-91474384D01*
X176148854Y-91046259D01*
X175638911Y-90794085D01*
X175414002Y-90904143D01*
X175414002Y-90803896D01*
X175708707Y-90745276D01*
X176089103Y-90491103D01*
X176343276Y-90110707D01*
X176432529Y-89662000D01*
X176343276Y-89213293D01*
X176089103Y-88832897D01*
X175708707Y-88578724D01*
X175373261Y-88512000D01*
X175146739Y-88512000D01*
X174811293Y-88578724D01*
X174474001Y-88804096D01*
X174474001Y-87979904D01*
X174811293Y-88205276D01*
X175146739Y-88272000D01*
X175373261Y-88272000D01*
X175708707Y-88205276D01*
X176089103Y-87951103D01*
X176343276Y-87570707D01*
X176432529Y-87122000D01*
X176343276Y-86673293D01*
X176089103Y-86292897D01*
X175708707Y-86038724D01*
X175373261Y-85972000D01*
X175146739Y-85972000D01*
X174811293Y-86038724D01*
X174474001Y-86264096D01*
X174474001Y-85439904D01*
X174811293Y-85665276D01*
X175146739Y-85732000D01*
X175373261Y-85732000D01*
X175708707Y-85665276D01*
X176089103Y-85411103D01*
X176343276Y-85030707D01*
X176432529Y-84582000D01*
X176343276Y-84133293D01*
X176089103Y-83752897D01*
X175708707Y-83498724D01*
X175373261Y-83432000D01*
X175146739Y-83432000D01*
X174811293Y-83498724D01*
X174474001Y-83724096D01*
X174474001Y-82899904D01*
X174811293Y-83125276D01*
X175146739Y-83192000D01*
X175373261Y-83192000D01*
X175708707Y-83125276D01*
X176089103Y-82871103D01*
X176343276Y-82490707D01*
X176432529Y-82042000D01*
X176343276Y-81593293D01*
X176089103Y-81212897D01*
X175708707Y-80958724D01*
X175373261Y-80892000D01*
X175146739Y-80892000D01*
X174811293Y-80958724D01*
X174474001Y-81184096D01*
X174474001Y-80359904D01*
X174811293Y-80585276D01*
X175146739Y-80652000D01*
X175373261Y-80652000D01*
X175708707Y-80585276D01*
X176089103Y-80331103D01*
X176343276Y-79950707D01*
X176432529Y-79502000D01*
X176343276Y-79053293D01*
X176089103Y-78672897D01*
X175708707Y-78418724D01*
X175373261Y-78352000D01*
X175146739Y-78352000D01*
X174811293Y-78418724D01*
X174474001Y-78644096D01*
X174474001Y-77819904D01*
X174811293Y-78045276D01*
X174811293Y-78045276D01*
G37*
X174811293Y-78045276D02*
X175146739Y-78112000D01*
X175373261Y-78112000D01*
X175708707Y-78045276D01*
X175766955Y-78006356D01*
X180965999Y-83205401D01*
X180966000Y-92476494D01*
X180958556Y-92513918D01*
X180976000Y-92601616D01*
X180976000Y-92629057D01*
X180907293Y-92642724D01*
X180526897Y-92896897D01*
X180274000Y-93275383D01*
X180274000Y-92755061D01*
X180181437Y-92531595D01*
X180010404Y-92360562D01*
X179786938Y-92268000D01*
X179122000Y-92268000D01*
X178970000Y-92420000D01*
X178970000Y-93572000D01*
X178990000Y-93572000D01*
X178990000Y-93880000D01*
X178970000Y-93880000D01*
X178970000Y-95032000D01*
X179122000Y-95184000D01*
X179786938Y-95184000D01*
X180010404Y-95091438D01*
X180181437Y-94920405D01*
X180274000Y-94696939D01*
X180274000Y-94176617D01*
X180526897Y-94555103D01*
X180907293Y-94809276D01*
X181242739Y-94876000D01*
X181469261Y-94876000D01*
X181804707Y-94809276D01*
X182185103Y-94555103D01*
X182439276Y-94174707D01*
X182528529Y-93726000D01*
X182439276Y-93277293D01*
X182185103Y-92896897D01*
X181804707Y-92642724D01*
X181736000Y-92629057D01*
X181736000Y-92561338D01*
X181743443Y-92523919D01*
X181736000Y-92486500D01*
X181736000Y-92486495D01*
X181725999Y-92436216D01*
X181725999Y-88888377D01*
X183247981Y-88888377D01*
X183446001Y-89086397D01*
X183446000Y-92643588D01*
X183066897Y-92896897D01*
X182812724Y-93277293D01*
X182723471Y-93726000D01*
X182812724Y-94174707D01*
X183066897Y-94555103D01*
X183446001Y-94808412D01*
X183446000Y-95825604D01*
X181295184Y-97976421D01*
X180961261Y-97910000D01*
X180734739Y-97910000D01*
X180400817Y-97976421D01*
X176879540Y-94455145D01*
X176854432Y-94417568D01*
X176705581Y-94318109D01*
X176574321Y-94292000D01*
X176574320Y-94292000D01*
X176530000Y-94283184D01*
X176485680Y-94292000D01*
X176415877Y-94292000D01*
X176415877Y-94032000D01*
X177358000Y-94032000D01*
X177358000Y-94696939D01*
X177450563Y-94920405D01*
X177621596Y-95091438D01*
X177845062Y-95184000D01*
X178510000Y-95184000D01*
X178662000Y-95032000D01*
X178662000Y-93880000D01*
X177510000Y-93880000D01*
X177358000Y-94032000D01*
X176415877Y-94032000D01*
X176415877Y-93892000D01*
X176392593Y-93774946D01*
X176326288Y-93675712D01*
X176227054Y-93609407D01*
X176110000Y-93586123D01*
X175687023Y-93586123D01*
X176148854Y-93357741D01*
X176523477Y-92929616D01*
X176595773Y-92755061D01*
X177358000Y-92755061D01*
X177358000Y-93420000D01*
X177510000Y-93572000D01*
X178662000Y-93572000D01*
X178662000Y-92420000D01*
X178510000Y-92268000D01*
X177845062Y-92268000D01*
X177621596Y-92360562D01*
X177450563Y-92531595D01*
X177358000Y-92755061D01*
X176595773Y-92755061D01*
X176667903Y-92580910D01*
X176556889Y-92356000D01*
X175414000Y-92356000D01*
X175414000Y-92376000D01*
X175106000Y-92376000D01*
X175106000Y-92356000D01*
X175086000Y-92356000D01*
X175086000Y-92048000D01*
X175106000Y-92048000D01*
X175106000Y-92028000D01*
X175414000Y-92028000D01*
X175414000Y-92048000D01*
X176556889Y-92048000D01*
X176667903Y-91823090D01*
X176523477Y-91474384D01*
X176148854Y-91046259D01*
X175638911Y-90794085D01*
X175414002Y-90904143D01*
X175414002Y-90803896D01*
X175708707Y-90745276D01*
X176089103Y-90491103D01*
X176343276Y-90110707D01*
X176432529Y-89662000D01*
X176343276Y-89213293D01*
X176089103Y-88832897D01*
X175708707Y-88578724D01*
X175373261Y-88512000D01*
X175146739Y-88512000D01*
X174811293Y-88578724D01*
X174474001Y-88804096D01*
X174474001Y-87979904D01*
X174811293Y-88205276D01*
X175146739Y-88272000D01*
X175373261Y-88272000D01*
X175708707Y-88205276D01*
X176089103Y-87951103D01*
X176343276Y-87570707D01*
X176432529Y-87122000D01*
X176343276Y-86673293D01*
X176089103Y-86292897D01*
X175708707Y-86038724D01*
X175373261Y-85972000D01*
X175146739Y-85972000D01*
X174811293Y-86038724D01*
X174474001Y-86264096D01*
X174474001Y-85439904D01*
X174811293Y-85665276D01*
X175146739Y-85732000D01*
X175373261Y-85732000D01*
X175708707Y-85665276D01*
X176089103Y-85411103D01*
X176343276Y-85030707D01*
X176432529Y-84582000D01*
X176343276Y-84133293D01*
X176089103Y-83752897D01*
X175708707Y-83498724D01*
X175373261Y-83432000D01*
X175146739Y-83432000D01*
X174811293Y-83498724D01*
X174474001Y-83724096D01*
X174474001Y-82899904D01*
X174811293Y-83125276D01*
X175146739Y-83192000D01*
X175373261Y-83192000D01*
X175708707Y-83125276D01*
X176089103Y-82871103D01*
X176343276Y-82490707D01*
X176432529Y-82042000D01*
X176343276Y-81593293D01*
X176089103Y-81212897D01*
X175708707Y-80958724D01*
X175373261Y-80892000D01*
X175146739Y-80892000D01*
X174811293Y-80958724D01*
X174474001Y-81184096D01*
X174474001Y-80359904D01*
X174811293Y-80585276D01*
X175146739Y-80652000D01*
X175373261Y-80652000D01*
X175708707Y-80585276D01*
X176089103Y-80331103D01*
X176343276Y-79950707D01*
X176432529Y-79502000D01*
X176343276Y-79053293D01*
X176089103Y-78672897D01*
X175708707Y-78418724D01*
X175373261Y-78352000D01*
X175146739Y-78352000D01*
X174811293Y-78418724D01*
X174474001Y-78644096D01*
X174474001Y-77819904D01*
X174811293Y-78045276D01*
G36*
X149430801Y-78506177D02*
X149480001Y-78515963D01*
X149480001Y-78563946D01*
X149472557Y-78601370D01*
X149502049Y-78749638D01*
X149564837Y-78843607D01*
X149564839Y-78843609D01*
X149586037Y-78875334D01*
X149617762Y-78896532D01*
X165705468Y-94984239D01*
X165726666Y-95015964D01*
X165852362Y-95099952D01*
X165963206Y-95122000D01*
X165963211Y-95122000D01*
X166000630Y-95129443D01*
X166038049Y-95122000D01*
X171219901Y-95122000D01*
X171311680Y-95343575D01*
X171372106Y-95404001D01*
X146065371Y-95404001D01*
X145403370Y-94742000D01*
X147316304Y-92829066D01*
X157812723Y-92829066D01*
X157915174Y-93085040D01*
X158518703Y-93297105D01*
X159157445Y-93262067D01*
X159584826Y-93085040D01*
X159687277Y-92829066D01*
X158750000Y-91891789D01*
X157812723Y-92829066D01*
X147316304Y-92829066D01*
X148702667Y-91442703D01*
X157126895Y-91442703D01*
X157161933Y-92081445D01*
X157338960Y-92508826D01*
X157594934Y-92611277D01*
X158532211Y-91674000D01*
X158967789Y-91674000D01*
X159905066Y-92611277D01*
X160161040Y-92508826D01*
X160373105Y-91905297D01*
X160338067Y-91266555D01*
X160161040Y-90839174D01*
X159905066Y-90736723D01*
X158967789Y-91674000D01*
X158532211Y-91674000D01*
X157594934Y-90736723D01*
X157338960Y-90839174D01*
X157126895Y-91442703D01*
X148702667Y-91442703D01*
X148869971Y-91275399D01*
X148936766Y-91230768D01*
X149035733Y-91082654D01*
X149113582Y-90966146D01*
X149144243Y-90812000D01*
X149159999Y-90732790D01*
X149159999Y-90732786D01*
X149175670Y-90654001D01*
X149159999Y-90575216D01*
X149159999Y-90518934D01*
X157812723Y-90518934D01*
X158750000Y-91456211D01*
X159687277Y-90518934D01*
X159584826Y-90262960D01*
X158981297Y-90050895D01*
X158342555Y-90085933D01*
X157915174Y-90262960D01*
X157812723Y-90518934D01*
X149159999Y-90518934D01*
X149159999Y-78325233D01*
X149430801Y-78506177D01*
X149430801Y-78506177D01*
G37*
X149430801Y-78506177D02*
X149480001Y-78515963D01*
X149480001Y-78563946D01*
X149472557Y-78601370D01*
X149502049Y-78749638D01*
X149564837Y-78843607D01*
X149564839Y-78843609D01*
X149586037Y-78875334D01*
X149617762Y-78896532D01*
X165705468Y-94984239D01*
X165726666Y-95015964D01*
X165852362Y-95099952D01*
X165963206Y-95122000D01*
X165963211Y-95122000D01*
X166000630Y-95129443D01*
X166038049Y-95122000D01*
X171219901Y-95122000D01*
X171311680Y-95343575D01*
X171372106Y-95404001D01*
X146065371Y-95404001D01*
X145403370Y-94742000D01*
X147316304Y-92829066D01*
X157812723Y-92829066D01*
X157915174Y-93085040D01*
X158518703Y-93297105D01*
X159157445Y-93262067D01*
X159584826Y-93085040D01*
X159687277Y-92829066D01*
X158750000Y-91891789D01*
X157812723Y-92829066D01*
X147316304Y-92829066D01*
X148702667Y-91442703D01*
X157126895Y-91442703D01*
X157161933Y-92081445D01*
X157338960Y-92508826D01*
X157594934Y-92611277D01*
X158532211Y-91674000D01*
X158967789Y-91674000D01*
X159905066Y-92611277D01*
X160161040Y-92508826D01*
X160373105Y-91905297D01*
X160338067Y-91266555D01*
X160161040Y-90839174D01*
X159905066Y-90736723D01*
X158967789Y-91674000D01*
X158532211Y-91674000D01*
X157594934Y-90736723D01*
X157338960Y-90839174D01*
X157126895Y-91442703D01*
X148702667Y-91442703D01*
X148869971Y-91275399D01*
X148936766Y-91230768D01*
X149035733Y-91082654D01*
X149113582Y-90966146D01*
X149144243Y-90812000D01*
X149159999Y-90732790D01*
X149159999Y-90732786D01*
X149175670Y-90654001D01*
X149159999Y-90575216D01*
X149159999Y-90518934D01*
X157812723Y-90518934D01*
X158750000Y-91456211D01*
X159687277Y-90518934D01*
X159584826Y-90262960D01*
X158981297Y-90050895D01*
X158342555Y-90085933D01*
X157915174Y-90262960D01*
X157812723Y-90518934D01*
X149159999Y-90518934D01*
X149159999Y-78325233D01*
X149430801Y-78506177D01*
G36*
X172874002Y-65962107D02*
X172813575Y-65901680D01*
X172423245Y-65740000D01*
X172000755Y-65740000D01*
X171610425Y-65901680D01*
X171311680Y-66200425D01*
X171150000Y-66590755D01*
X171150000Y-67013245D01*
X171311680Y-67403575D01*
X171610425Y-67702320D01*
X172000755Y-67864000D01*
X172423245Y-67864000D01*
X172813575Y-67702320D01*
X172874002Y-67641893D01*
X172874002Y-68502107D01*
X172813575Y-68441680D01*
X172423245Y-68280000D01*
X172000755Y-68280000D01*
X171610425Y-68441680D01*
X171311680Y-68740425D01*
X171150000Y-69130755D01*
X171150000Y-69553245D01*
X171311680Y-69943575D01*
X171610425Y-70242320D01*
X172000755Y-70404000D01*
X172423245Y-70404000D01*
X172813575Y-70242320D01*
X172874002Y-70181893D01*
X172874002Y-71042107D01*
X172813575Y-70981680D01*
X172423245Y-70820000D01*
X172000755Y-70820000D01*
X171610425Y-70981680D01*
X171311680Y-71280425D01*
X171150000Y-71670755D01*
X171150000Y-72093245D01*
X171311680Y-72483575D01*
X171610425Y-72782320D01*
X172000755Y-72944000D01*
X172423245Y-72944000D01*
X172813575Y-72782320D01*
X172874002Y-72721893D01*
X172874002Y-73582107D01*
X172813575Y-73521680D01*
X172423245Y-73360000D01*
X172000755Y-73360000D01*
X171610425Y-73521680D01*
X171311680Y-73820425D01*
X171150000Y-74210755D01*
X171150000Y-74633245D01*
X171311680Y-75023575D01*
X171610425Y-75322320D01*
X172000755Y-75484000D01*
X172423245Y-75484000D01*
X172813575Y-75322320D01*
X172874002Y-75261893D01*
X172874002Y-76122107D01*
X172813575Y-76061680D01*
X172423245Y-75900000D01*
X172000755Y-75900000D01*
X171610425Y-76061680D01*
X171311680Y-76360425D01*
X171150000Y-76750755D01*
X171150000Y-77173245D01*
X171311680Y-77563575D01*
X171610425Y-77862320D01*
X172000755Y-78024000D01*
X172423245Y-78024000D01*
X172813575Y-77862320D01*
X172874001Y-77801894D01*
X172874001Y-78662106D01*
X172813575Y-78601680D01*
X172423245Y-78440000D01*
X172000755Y-78440000D01*
X171610425Y-78601680D01*
X171311680Y-78900425D01*
X171150000Y-79290755D01*
X171150000Y-79713245D01*
X171241779Y-79934819D01*
X167482600Y-83694000D01*
X160055877Y-83694000D01*
X160055877Y-83074000D01*
X160032593Y-82956946D01*
X159966288Y-82857712D01*
X159867054Y-82791407D01*
X159750000Y-82768123D01*
X157750000Y-82768123D01*
X157632946Y-82791407D01*
X157533712Y-82857712D01*
X157467407Y-82956946D01*
X157444123Y-83074000D01*
X157444123Y-85074000D01*
X157467407Y-85191054D01*
X157533712Y-85290288D01*
X157632946Y-85356593D01*
X157750000Y-85379877D01*
X159750000Y-85379877D01*
X159867054Y-85356593D01*
X159966288Y-85290288D01*
X160032593Y-85191054D01*
X160055877Y-85074000D01*
X160055877Y-84454000D01*
X167602581Y-84454000D01*
X167640000Y-84461443D01*
X167677419Y-84454000D01*
X167677424Y-84454000D01*
X167788268Y-84431952D01*
X167913964Y-84347964D01*
X167935164Y-84316236D01*
X171779181Y-80472221D01*
X172000755Y-80564000D01*
X172423245Y-80564000D01*
X172813575Y-80402320D01*
X172874001Y-80341894D01*
X172874001Y-81202106D01*
X172813575Y-81141680D01*
X172423245Y-80980000D01*
X172000755Y-80980000D01*
X171610425Y-81141680D01*
X171311680Y-81440425D01*
X171150000Y-81830755D01*
X171150000Y-82253245D01*
X171311680Y-82643575D01*
X171610425Y-82942320D01*
X172000755Y-83104000D01*
X172423245Y-83104000D01*
X172813575Y-82942320D01*
X172874001Y-82881894D01*
X172874001Y-83742106D01*
X172813575Y-83681680D01*
X172423245Y-83520000D01*
X172000755Y-83520000D01*
X171610425Y-83681680D01*
X171311680Y-83980425D01*
X171150000Y-84370755D01*
X171150000Y-84793245D01*
X171311680Y-85183575D01*
X171610425Y-85482320D01*
X172000755Y-85644000D01*
X172423245Y-85644000D01*
X172813575Y-85482320D01*
X172874001Y-85421894D01*
X172874001Y-86282106D01*
X172813575Y-86221680D01*
X172423245Y-86060000D01*
X172000755Y-86060000D01*
X171610425Y-86221680D01*
X171311680Y-86520425D01*
X171150000Y-86910755D01*
X171150000Y-87333245D01*
X171311680Y-87723575D01*
X171610425Y-88022320D01*
X172000755Y-88184000D01*
X172423245Y-88184000D01*
X172813575Y-88022320D01*
X172874001Y-87961894D01*
X172874001Y-88822106D01*
X172813575Y-88761680D01*
X172423245Y-88600000D01*
X172000755Y-88600000D01*
X171610425Y-88761680D01*
X171311680Y-89060425D01*
X171150000Y-89450755D01*
X171150000Y-89873245D01*
X171311680Y-90263575D01*
X171610425Y-90562320D01*
X172000755Y-90724000D01*
X172423245Y-90724000D01*
X172813575Y-90562320D01*
X172874001Y-90501894D01*
X172874001Y-90978494D01*
X172386353Y-90816083D01*
X171842713Y-90854858D01*
X171520551Y-90988302D01*
X171447421Y-91219632D01*
X172212000Y-91984211D01*
X172226142Y-91970069D01*
X172443931Y-92187858D01*
X172429789Y-92202000D01*
X172443931Y-92216142D01*
X172226142Y-92433931D01*
X172212000Y-92419789D01*
X171447421Y-93184368D01*
X171520551Y-93415698D01*
X172037647Y-93587917D01*
X172581287Y-93549142D01*
X172874001Y-93427896D01*
X172874001Y-93902106D01*
X172813575Y-93841680D01*
X172423245Y-93680000D01*
X172000755Y-93680000D01*
X171610425Y-93841680D01*
X171311680Y-94140425D01*
X171219901Y-94362000D01*
X166158031Y-94362000D01*
X163823678Y-92027647D01*
X170826083Y-92027647D01*
X170864858Y-92571287D01*
X170998302Y-92893449D01*
X171229632Y-92966579D01*
X171994211Y-92202000D01*
X171229632Y-91437421D01*
X170998302Y-91510551D01*
X170826083Y-92027647D01*
X163823678Y-92027647D01*
X150296997Y-78500967D01*
X150653056Y-78263056D01*
X150896177Y-77899199D01*
X150905963Y-77850000D01*
X155158581Y-77850000D01*
X155196000Y-77857443D01*
X155233419Y-77850000D01*
X155233424Y-77850000D01*
X155344268Y-77827952D01*
X155469964Y-77743964D01*
X155491164Y-77712236D01*
X158400239Y-74803162D01*
X158431964Y-74781964D01*
X158515952Y-74656268D01*
X158516428Y-74653877D01*
X158858000Y-74653877D01*
X158975054Y-74630593D01*
X159074288Y-74564288D01*
X159140593Y-74465054D01*
X159163877Y-74348000D01*
X159163877Y-73348000D01*
X159140593Y-73230946D01*
X159074288Y-73131712D01*
X158975054Y-73065407D01*
X158858000Y-73042123D01*
X157458000Y-73042123D01*
X157340946Y-73065407D01*
X157241712Y-73131712D01*
X157175407Y-73230946D01*
X157152123Y-73348000D01*
X157152123Y-74348000D01*
X157175407Y-74465054D01*
X157241712Y-74564288D01*
X157340946Y-74630593D01*
X157458000Y-74653877D01*
X157474722Y-74653877D01*
X155038600Y-77090000D01*
X150905963Y-77090000D01*
X150896177Y-77040801D01*
X150653056Y-76676944D01*
X150289199Y-76433823D01*
X149968339Y-76370000D01*
X149751661Y-76370000D01*
X149430801Y-76433823D01*
X149159999Y-76614767D01*
X149159999Y-70705634D01*
X149236900Y-70782535D01*
X149641196Y-70950000D01*
X150078804Y-70950000D01*
X150483100Y-70782535D01*
X150792535Y-70473100D01*
X150893230Y-70230000D01*
X156562600Y-70230000D01*
X157474722Y-71142123D01*
X157458000Y-71142123D01*
X157340946Y-71165407D01*
X157241712Y-71231712D01*
X157175407Y-71330946D01*
X157152123Y-71448000D01*
X157152123Y-72448000D01*
X157175407Y-72565054D01*
X157241712Y-72664288D01*
X157340946Y-72730593D01*
X157458000Y-72753877D01*
X158858000Y-72753877D01*
X158975054Y-72730593D01*
X159074288Y-72664288D01*
X159140593Y-72565054D01*
X159163877Y-72448000D01*
X159163877Y-72398000D01*
X159352123Y-72398000D01*
X159352123Y-73398000D01*
X159375407Y-73515054D01*
X159441712Y-73614288D01*
X159540946Y-73680593D01*
X159658000Y-73703877D01*
X161058000Y-73703877D01*
X161175054Y-73680593D01*
X161274288Y-73614288D01*
X161340593Y-73515054D01*
X161363877Y-73398000D01*
X161363877Y-73278000D01*
X161894600Y-73278000D01*
X165624695Y-77008097D01*
X165524000Y-77251196D01*
X165524000Y-77688804D01*
X165691465Y-78093100D01*
X166000900Y-78402535D01*
X166405196Y-78570000D01*
X166842804Y-78570000D01*
X167247100Y-78402535D01*
X167556535Y-78093100D01*
X167724000Y-77688804D01*
X167724000Y-77251196D01*
X167556535Y-76846900D01*
X167247100Y-76537465D01*
X166842804Y-76370000D01*
X166405196Y-76370000D01*
X166162097Y-76470695D01*
X162347164Y-72655764D01*
X162325964Y-72624036D01*
X162200268Y-72540048D01*
X162089424Y-72518000D01*
X162089419Y-72518000D01*
X162052000Y-72510557D01*
X162014581Y-72518000D01*
X161363877Y-72518000D01*
X161363877Y-72398000D01*
X161340593Y-72280946D01*
X161274288Y-72181712D01*
X161175054Y-72115407D01*
X161058000Y-72092123D01*
X159658000Y-72092123D01*
X159540946Y-72115407D01*
X159441712Y-72181712D01*
X159375407Y-72280946D01*
X159352123Y-72398000D01*
X159163877Y-72398000D01*
X159163877Y-71448000D01*
X159140593Y-71330946D01*
X159074288Y-71231712D01*
X158975054Y-71165407D01*
X158858000Y-71142123D01*
X158841277Y-71142123D01*
X160133400Y-69850000D01*
X165502450Y-69850000D01*
X165587823Y-70279199D01*
X165830944Y-70643056D01*
X166194801Y-70886177D01*
X166515661Y-70950000D01*
X166732339Y-70950000D01*
X167053199Y-70886177D01*
X167417056Y-70643056D01*
X167660177Y-70279199D01*
X167745550Y-69850000D01*
X167660177Y-69420801D01*
X167417056Y-69056944D01*
X167053199Y-68813823D01*
X166732339Y-68750000D01*
X166515661Y-68750000D01*
X166194801Y-68813823D01*
X165830944Y-69056944D01*
X165587823Y-69420801D01*
X165502450Y-69850000D01*
X160133400Y-69850000D01*
X161721400Y-68262001D01*
X168554580Y-68262001D01*
X168591999Y-68269444D01*
X168629418Y-68262001D01*
X168629423Y-68262001D01*
X168740267Y-68239953D01*
X168865963Y-68155965D01*
X168887163Y-68124237D01*
X171745164Y-65266237D01*
X171745166Y-65266234D01*
X171779180Y-65232220D01*
X172000755Y-65324000D01*
X172423245Y-65324000D01*
X172813575Y-65162320D01*
X172874002Y-65101893D01*
X172874002Y-65962107D01*
X172874002Y-65962107D01*
G37*
X172874002Y-65962107D02*
X172813575Y-65901680D01*
X172423245Y-65740000D01*
X172000755Y-65740000D01*
X171610425Y-65901680D01*
X171311680Y-66200425D01*
X171150000Y-66590755D01*
X171150000Y-67013245D01*
X171311680Y-67403575D01*
X171610425Y-67702320D01*
X172000755Y-67864000D01*
X172423245Y-67864000D01*
X172813575Y-67702320D01*
X172874002Y-67641893D01*
X172874002Y-68502107D01*
X172813575Y-68441680D01*
X172423245Y-68280000D01*
X172000755Y-68280000D01*
X171610425Y-68441680D01*
X171311680Y-68740425D01*
X171150000Y-69130755D01*
X171150000Y-69553245D01*
X171311680Y-69943575D01*
X171610425Y-70242320D01*
X172000755Y-70404000D01*
X172423245Y-70404000D01*
X172813575Y-70242320D01*
X172874002Y-70181893D01*
X172874002Y-71042107D01*
X172813575Y-70981680D01*
X172423245Y-70820000D01*
X172000755Y-70820000D01*
X171610425Y-70981680D01*
X171311680Y-71280425D01*
X171150000Y-71670755D01*
X171150000Y-72093245D01*
X171311680Y-72483575D01*
X171610425Y-72782320D01*
X172000755Y-72944000D01*
X172423245Y-72944000D01*
X172813575Y-72782320D01*
X172874002Y-72721893D01*
X172874002Y-73582107D01*
X172813575Y-73521680D01*
X172423245Y-73360000D01*
X172000755Y-73360000D01*
X171610425Y-73521680D01*
X171311680Y-73820425D01*
X171150000Y-74210755D01*
X171150000Y-74633245D01*
X171311680Y-75023575D01*
X171610425Y-75322320D01*
X172000755Y-75484000D01*
X172423245Y-75484000D01*
X172813575Y-75322320D01*
X172874002Y-75261893D01*
X172874002Y-76122107D01*
X172813575Y-76061680D01*
X172423245Y-75900000D01*
X172000755Y-75900000D01*
X171610425Y-76061680D01*
X171311680Y-76360425D01*
X171150000Y-76750755D01*
X171150000Y-77173245D01*
X171311680Y-77563575D01*
X171610425Y-77862320D01*
X172000755Y-78024000D01*
X172423245Y-78024000D01*
X172813575Y-77862320D01*
X172874001Y-77801894D01*
X172874001Y-78662106D01*
X172813575Y-78601680D01*
X172423245Y-78440000D01*
X172000755Y-78440000D01*
X171610425Y-78601680D01*
X171311680Y-78900425D01*
X171150000Y-79290755D01*
X171150000Y-79713245D01*
X171241779Y-79934819D01*
X167482600Y-83694000D01*
X160055877Y-83694000D01*
X160055877Y-83074000D01*
X160032593Y-82956946D01*
X159966288Y-82857712D01*
X159867054Y-82791407D01*
X159750000Y-82768123D01*
X157750000Y-82768123D01*
X157632946Y-82791407D01*
X157533712Y-82857712D01*
X157467407Y-82956946D01*
X157444123Y-83074000D01*
X157444123Y-85074000D01*
X157467407Y-85191054D01*
X157533712Y-85290288D01*
X157632946Y-85356593D01*
X157750000Y-85379877D01*
X159750000Y-85379877D01*
X159867054Y-85356593D01*
X159966288Y-85290288D01*
X160032593Y-85191054D01*
X160055877Y-85074000D01*
X160055877Y-84454000D01*
X167602581Y-84454000D01*
X167640000Y-84461443D01*
X167677419Y-84454000D01*
X167677424Y-84454000D01*
X167788268Y-84431952D01*
X167913964Y-84347964D01*
X167935164Y-84316236D01*
X171779181Y-80472221D01*
X172000755Y-80564000D01*
X172423245Y-80564000D01*
X172813575Y-80402320D01*
X172874001Y-80341894D01*
X172874001Y-81202106D01*
X172813575Y-81141680D01*
X172423245Y-80980000D01*
X172000755Y-80980000D01*
X171610425Y-81141680D01*
X171311680Y-81440425D01*
X171150000Y-81830755D01*
X171150000Y-82253245D01*
X171311680Y-82643575D01*
X171610425Y-82942320D01*
X172000755Y-83104000D01*
X172423245Y-83104000D01*
X172813575Y-82942320D01*
X172874001Y-82881894D01*
X172874001Y-83742106D01*
X172813575Y-83681680D01*
X172423245Y-83520000D01*
X172000755Y-83520000D01*
X171610425Y-83681680D01*
X171311680Y-83980425D01*
X171150000Y-84370755D01*
X171150000Y-84793245D01*
X171311680Y-85183575D01*
X171610425Y-85482320D01*
X172000755Y-85644000D01*
X172423245Y-85644000D01*
X172813575Y-85482320D01*
X172874001Y-85421894D01*
X172874001Y-86282106D01*
X172813575Y-86221680D01*
X172423245Y-86060000D01*
X172000755Y-86060000D01*
X171610425Y-86221680D01*
X171311680Y-86520425D01*
X171150000Y-86910755D01*
X171150000Y-87333245D01*
X171311680Y-87723575D01*
X171610425Y-88022320D01*
X172000755Y-88184000D01*
X172423245Y-88184000D01*
X172813575Y-88022320D01*
X172874001Y-87961894D01*
X172874001Y-88822106D01*
X172813575Y-88761680D01*
X172423245Y-88600000D01*
X172000755Y-88600000D01*
X171610425Y-88761680D01*
X171311680Y-89060425D01*
X171150000Y-89450755D01*
X171150000Y-89873245D01*
X171311680Y-90263575D01*
X171610425Y-90562320D01*
X172000755Y-90724000D01*
X172423245Y-90724000D01*
X172813575Y-90562320D01*
X172874001Y-90501894D01*
X172874001Y-90978494D01*
X172386353Y-90816083D01*
X171842713Y-90854858D01*
X171520551Y-90988302D01*
X171447421Y-91219632D01*
X172212000Y-91984211D01*
X172226142Y-91970069D01*
X172443931Y-92187858D01*
X172429789Y-92202000D01*
X172443931Y-92216142D01*
X172226142Y-92433931D01*
X172212000Y-92419789D01*
X171447421Y-93184368D01*
X171520551Y-93415698D01*
X172037647Y-93587917D01*
X172581287Y-93549142D01*
X172874001Y-93427896D01*
X172874001Y-93902106D01*
X172813575Y-93841680D01*
X172423245Y-93680000D01*
X172000755Y-93680000D01*
X171610425Y-93841680D01*
X171311680Y-94140425D01*
X171219901Y-94362000D01*
X166158031Y-94362000D01*
X163823678Y-92027647D01*
X170826083Y-92027647D01*
X170864858Y-92571287D01*
X170998302Y-92893449D01*
X171229632Y-92966579D01*
X171994211Y-92202000D01*
X171229632Y-91437421D01*
X170998302Y-91510551D01*
X170826083Y-92027647D01*
X163823678Y-92027647D01*
X150296997Y-78500967D01*
X150653056Y-78263056D01*
X150896177Y-77899199D01*
X150905963Y-77850000D01*
X155158581Y-77850000D01*
X155196000Y-77857443D01*
X155233419Y-77850000D01*
X155233424Y-77850000D01*
X155344268Y-77827952D01*
X155469964Y-77743964D01*
X155491164Y-77712236D01*
X158400239Y-74803162D01*
X158431964Y-74781964D01*
X158515952Y-74656268D01*
X158516428Y-74653877D01*
X158858000Y-74653877D01*
X158975054Y-74630593D01*
X159074288Y-74564288D01*
X159140593Y-74465054D01*
X159163877Y-74348000D01*
X159163877Y-73348000D01*
X159140593Y-73230946D01*
X159074288Y-73131712D01*
X158975054Y-73065407D01*
X158858000Y-73042123D01*
X157458000Y-73042123D01*
X157340946Y-73065407D01*
X157241712Y-73131712D01*
X157175407Y-73230946D01*
X157152123Y-73348000D01*
X157152123Y-74348000D01*
X157175407Y-74465054D01*
X157241712Y-74564288D01*
X157340946Y-74630593D01*
X157458000Y-74653877D01*
X157474722Y-74653877D01*
X155038600Y-77090000D01*
X150905963Y-77090000D01*
X150896177Y-77040801D01*
X150653056Y-76676944D01*
X150289199Y-76433823D01*
X149968339Y-76370000D01*
X149751661Y-76370000D01*
X149430801Y-76433823D01*
X149159999Y-76614767D01*
X149159999Y-70705634D01*
X149236900Y-70782535D01*
X149641196Y-70950000D01*
X150078804Y-70950000D01*
X150483100Y-70782535D01*
X150792535Y-70473100D01*
X150893230Y-70230000D01*
X156562600Y-70230000D01*
X157474722Y-71142123D01*
X157458000Y-71142123D01*
X157340946Y-71165407D01*
X157241712Y-71231712D01*
X157175407Y-71330946D01*
X157152123Y-71448000D01*
X157152123Y-72448000D01*
X157175407Y-72565054D01*
X157241712Y-72664288D01*
X157340946Y-72730593D01*
X157458000Y-72753877D01*
X158858000Y-72753877D01*
X158975054Y-72730593D01*
X159074288Y-72664288D01*
X159140593Y-72565054D01*
X159163877Y-72448000D01*
X159163877Y-72398000D01*
X159352123Y-72398000D01*
X159352123Y-73398000D01*
X159375407Y-73515054D01*
X159441712Y-73614288D01*
X159540946Y-73680593D01*
X159658000Y-73703877D01*
X161058000Y-73703877D01*
X161175054Y-73680593D01*
X161274288Y-73614288D01*
X161340593Y-73515054D01*
X161363877Y-73398000D01*
X161363877Y-73278000D01*
X161894600Y-73278000D01*
X165624695Y-77008097D01*
X165524000Y-77251196D01*
X165524000Y-77688804D01*
X165691465Y-78093100D01*
X166000900Y-78402535D01*
X166405196Y-78570000D01*
X166842804Y-78570000D01*
X167247100Y-78402535D01*
X167556535Y-78093100D01*
X167724000Y-77688804D01*
X167724000Y-77251196D01*
X167556535Y-76846900D01*
X167247100Y-76537465D01*
X166842804Y-76370000D01*
X166405196Y-76370000D01*
X166162097Y-76470695D01*
X162347164Y-72655764D01*
X162325964Y-72624036D01*
X162200268Y-72540048D01*
X162089424Y-72518000D01*
X162089419Y-72518000D01*
X162052000Y-72510557D01*
X162014581Y-72518000D01*
X161363877Y-72518000D01*
X161363877Y-72398000D01*
X161340593Y-72280946D01*
X161274288Y-72181712D01*
X161175054Y-72115407D01*
X161058000Y-72092123D01*
X159658000Y-72092123D01*
X159540946Y-72115407D01*
X159441712Y-72181712D01*
X159375407Y-72280946D01*
X159352123Y-72398000D01*
X159163877Y-72398000D01*
X159163877Y-71448000D01*
X159140593Y-71330946D01*
X159074288Y-71231712D01*
X158975054Y-71165407D01*
X158858000Y-71142123D01*
X158841277Y-71142123D01*
X160133400Y-69850000D01*
X165502450Y-69850000D01*
X165587823Y-70279199D01*
X165830944Y-70643056D01*
X166194801Y-70886177D01*
X166515661Y-70950000D01*
X166732339Y-70950000D01*
X167053199Y-70886177D01*
X167417056Y-70643056D01*
X167660177Y-70279199D01*
X167745550Y-69850000D01*
X167660177Y-69420801D01*
X167417056Y-69056944D01*
X167053199Y-68813823D01*
X166732339Y-68750000D01*
X166515661Y-68750000D01*
X166194801Y-68813823D01*
X165830944Y-69056944D01*
X165587823Y-69420801D01*
X165502450Y-69850000D01*
X160133400Y-69850000D01*
X161721400Y-68262001D01*
X168554580Y-68262001D01*
X168591999Y-68269444D01*
X168629418Y-68262001D01*
X168629423Y-68262001D01*
X168740267Y-68239953D01*
X168865963Y-68155965D01*
X168887163Y-68124237D01*
X171745164Y-65266237D01*
X171745166Y-65266234D01*
X171779180Y-65232220D01*
X172000755Y-65324000D01*
X172423245Y-65324000D01*
X172813575Y-65162320D01*
X172874002Y-65101893D01*
X172874002Y-65962107D01*
G36*
X165624695Y-66340096D02*
X165524000Y-66583196D01*
X165524000Y-67020804D01*
X165691465Y-67425100D01*
X165768366Y-67502001D01*
X161601418Y-67502001D01*
X161563999Y-67494558D01*
X161526580Y-67502001D01*
X161526575Y-67502001D01*
X161415731Y-67524049D01*
X161290035Y-67608037D01*
X161268837Y-67639762D01*
X158158000Y-70750600D01*
X157015164Y-69607764D01*
X156993964Y-69576036D01*
X156868268Y-69492048D01*
X156757424Y-69470000D01*
X156757419Y-69470000D01*
X156720000Y-69462557D01*
X156682581Y-69470000D01*
X150893230Y-69470000D01*
X150792535Y-69226900D01*
X150483100Y-68917465D01*
X150078804Y-68750000D01*
X149641196Y-68750000D01*
X149236900Y-68917465D01*
X149159999Y-68994366D01*
X149159999Y-67911233D01*
X149430801Y-68092177D01*
X149751661Y-68156000D01*
X149968339Y-68156000D01*
X150289199Y-68092177D01*
X150653056Y-67849056D01*
X150896177Y-67485199D01*
X150905963Y-67436000D01*
X154716581Y-67436000D01*
X154754000Y-67443443D01*
X154791419Y-67436000D01*
X154791424Y-67436000D01*
X154902268Y-67413952D01*
X155027964Y-67329964D01*
X155049164Y-67298236D01*
X156575400Y-65772000D01*
X157526000Y-65772000D01*
X157526000Y-66086939D01*
X157618563Y-66310405D01*
X157789596Y-66481438D01*
X158013062Y-66574000D01*
X158528000Y-66574000D01*
X158680000Y-66422000D01*
X158680000Y-65620000D01*
X158988000Y-65620000D01*
X158988000Y-66422000D01*
X159140000Y-66574000D01*
X159654938Y-66574000D01*
X159878404Y-66481438D01*
X160049437Y-66310405D01*
X160142000Y-66086939D01*
X160142000Y-65772000D01*
X159990000Y-65620000D01*
X158988000Y-65620000D01*
X158680000Y-65620000D01*
X157678000Y-65620000D01*
X157526000Y-65772000D01*
X156575400Y-65772000D01*
X156876239Y-65471162D01*
X156907964Y-65449964D01*
X156991952Y-65324268D01*
X156992428Y-65321877D01*
X157334000Y-65321877D01*
X157451054Y-65298593D01*
X157550288Y-65232288D01*
X157569514Y-65203514D01*
X157678000Y-65312000D01*
X158680000Y-65312000D01*
X158680000Y-65292000D01*
X158988000Y-65292000D01*
X158988000Y-65312000D01*
X159990000Y-65312000D01*
X160142000Y-65160000D01*
X160142000Y-64845061D01*
X160049437Y-64621595D01*
X159878404Y-64450562D01*
X159654938Y-64358000D01*
X159603763Y-64358000D01*
X159651054Y-64348593D01*
X159750288Y-64282288D01*
X159816593Y-64183054D01*
X159839877Y-64066000D01*
X159839877Y-63946000D01*
X163230600Y-63946000D01*
X165624695Y-66340096D01*
X165624695Y-66340096D01*
G37*
X165624695Y-66340096D02*
X165524000Y-66583196D01*
X165524000Y-67020804D01*
X165691465Y-67425100D01*
X165768366Y-67502001D01*
X161601418Y-67502001D01*
X161563999Y-67494558D01*
X161526580Y-67502001D01*
X161526575Y-67502001D01*
X161415731Y-67524049D01*
X161290035Y-67608037D01*
X161268837Y-67639762D01*
X158158000Y-70750600D01*
X157015164Y-69607764D01*
X156993964Y-69576036D01*
X156868268Y-69492048D01*
X156757424Y-69470000D01*
X156757419Y-69470000D01*
X156720000Y-69462557D01*
X156682581Y-69470000D01*
X150893230Y-69470000D01*
X150792535Y-69226900D01*
X150483100Y-68917465D01*
X150078804Y-68750000D01*
X149641196Y-68750000D01*
X149236900Y-68917465D01*
X149159999Y-68994366D01*
X149159999Y-67911233D01*
X149430801Y-68092177D01*
X149751661Y-68156000D01*
X149968339Y-68156000D01*
X150289199Y-68092177D01*
X150653056Y-67849056D01*
X150896177Y-67485199D01*
X150905963Y-67436000D01*
X154716581Y-67436000D01*
X154754000Y-67443443D01*
X154791419Y-67436000D01*
X154791424Y-67436000D01*
X154902268Y-67413952D01*
X155027964Y-67329964D01*
X155049164Y-67298236D01*
X156575400Y-65772000D01*
X157526000Y-65772000D01*
X157526000Y-66086939D01*
X157618563Y-66310405D01*
X157789596Y-66481438D01*
X158013062Y-66574000D01*
X158528000Y-66574000D01*
X158680000Y-66422000D01*
X158680000Y-65620000D01*
X158988000Y-65620000D01*
X158988000Y-66422000D01*
X159140000Y-66574000D01*
X159654938Y-66574000D01*
X159878404Y-66481438D01*
X160049437Y-66310405D01*
X160142000Y-66086939D01*
X160142000Y-65772000D01*
X159990000Y-65620000D01*
X158988000Y-65620000D01*
X158680000Y-65620000D01*
X157678000Y-65620000D01*
X157526000Y-65772000D01*
X156575400Y-65772000D01*
X156876239Y-65471162D01*
X156907964Y-65449964D01*
X156991952Y-65324268D01*
X156992428Y-65321877D01*
X157334000Y-65321877D01*
X157451054Y-65298593D01*
X157550288Y-65232288D01*
X157569514Y-65203514D01*
X157678000Y-65312000D01*
X158680000Y-65312000D01*
X158680000Y-65292000D01*
X158988000Y-65292000D01*
X158988000Y-65312000D01*
X159990000Y-65312000D01*
X160142000Y-65160000D01*
X160142000Y-64845061D01*
X160049437Y-64621595D01*
X159878404Y-64450562D01*
X159654938Y-64358000D01*
X159603763Y-64358000D01*
X159651054Y-64348593D01*
X159750288Y-64282288D01*
X159816593Y-64183054D01*
X159839877Y-64066000D01*
X159839877Y-63946000D01*
X163230600Y-63946000D01*
X165624695Y-66340096D01*
G36*
X171150000Y-58970755D02*
X171150000Y-59393245D01*
X171311680Y-59783575D01*
X171610425Y-60082320D01*
X172000755Y-60244000D01*
X172423245Y-60244000D01*
X172813575Y-60082320D01*
X172874002Y-60021893D01*
X172874002Y-60882107D01*
X172813575Y-60821680D01*
X172423245Y-60660000D01*
X172000755Y-60660000D01*
X171610425Y-60821680D01*
X171311680Y-61120425D01*
X171150000Y-61510755D01*
X171150000Y-61738599D01*
X167085904Y-65802696D01*
X166842804Y-65702000D01*
X166405196Y-65702000D01*
X166162096Y-65802695D01*
X163683164Y-63323764D01*
X163661964Y-63292036D01*
X163536268Y-63208048D01*
X163425424Y-63186000D01*
X163425419Y-63186000D01*
X163388000Y-63178557D01*
X163350581Y-63186000D01*
X159839877Y-63186000D01*
X159839877Y-63066000D01*
X159816593Y-62948946D01*
X159750288Y-62849712D01*
X159651054Y-62783407D01*
X159534000Y-62760123D01*
X158134000Y-62760123D01*
X158016946Y-62783407D01*
X157917712Y-62849712D01*
X157851407Y-62948946D01*
X157828123Y-63066000D01*
X157828123Y-64066000D01*
X157851407Y-64183054D01*
X157917712Y-64282288D01*
X158016946Y-64348593D01*
X158064237Y-64358000D01*
X158013062Y-64358000D01*
X157789596Y-64450562D01*
X157639877Y-64600281D01*
X157639877Y-64016000D01*
X157616593Y-63898946D01*
X157550288Y-63799712D01*
X157451054Y-63733407D01*
X157334000Y-63710123D01*
X157014000Y-63710123D01*
X157014000Y-62629400D01*
X157435523Y-62207877D01*
X158604000Y-62207877D01*
X158721054Y-62184593D01*
X158820288Y-62118288D01*
X158886593Y-62019054D01*
X158909877Y-61902000D01*
X158909877Y-61782000D01*
X167922581Y-61782000D01*
X167960000Y-61789443D01*
X167997419Y-61782000D01*
X167997424Y-61782000D01*
X168108268Y-61759952D01*
X168233964Y-61675964D01*
X168255164Y-61644236D01*
X171306521Y-58592881D01*
X171150000Y-58970755D01*
X171150000Y-58970755D01*
G37*
X171150000Y-58970755D02*
X171150000Y-59393245D01*
X171311680Y-59783575D01*
X171610425Y-60082320D01*
X172000755Y-60244000D01*
X172423245Y-60244000D01*
X172813575Y-60082320D01*
X172874002Y-60021893D01*
X172874002Y-60882107D01*
X172813575Y-60821680D01*
X172423245Y-60660000D01*
X172000755Y-60660000D01*
X171610425Y-60821680D01*
X171311680Y-61120425D01*
X171150000Y-61510755D01*
X171150000Y-61738599D01*
X167085904Y-65802696D01*
X166842804Y-65702000D01*
X166405196Y-65702000D01*
X166162096Y-65802695D01*
X163683164Y-63323764D01*
X163661964Y-63292036D01*
X163536268Y-63208048D01*
X163425424Y-63186000D01*
X163425419Y-63186000D01*
X163388000Y-63178557D01*
X163350581Y-63186000D01*
X159839877Y-63186000D01*
X159839877Y-63066000D01*
X159816593Y-62948946D01*
X159750288Y-62849712D01*
X159651054Y-62783407D01*
X159534000Y-62760123D01*
X158134000Y-62760123D01*
X158016946Y-62783407D01*
X157917712Y-62849712D01*
X157851407Y-62948946D01*
X157828123Y-63066000D01*
X157828123Y-64066000D01*
X157851407Y-64183054D01*
X157917712Y-64282288D01*
X158016946Y-64348593D01*
X158064237Y-64358000D01*
X158013062Y-64358000D01*
X157789596Y-64450562D01*
X157639877Y-64600281D01*
X157639877Y-64016000D01*
X157616593Y-63898946D01*
X157550288Y-63799712D01*
X157451054Y-63733407D01*
X157334000Y-63710123D01*
X157014000Y-63710123D01*
X157014000Y-62629400D01*
X157435523Y-62207877D01*
X158604000Y-62207877D01*
X158721054Y-62184593D01*
X158820288Y-62118288D01*
X158886593Y-62019054D01*
X158909877Y-61902000D01*
X158909877Y-61782000D01*
X167922581Y-61782000D01*
X167960000Y-61789443D01*
X167997419Y-61782000D01*
X167997424Y-61782000D01*
X168108268Y-61759952D01*
X168233964Y-61675964D01*
X168255164Y-61644236D01*
X171306521Y-58592881D01*
X171150000Y-58970755D01*
G36*
X174430897Y-51375103D02*
X174811293Y-51629276D01*
X175146739Y-51696000D01*
X175278630Y-51696000D01*
X175554725Y-51972095D01*
X175373261Y-51936000D01*
X175146739Y-51936000D01*
X174811293Y-52002724D01*
X174430897Y-52256897D01*
X174176724Y-52637293D01*
X174087471Y-53086000D01*
X174176724Y-53534707D01*
X174430897Y-53915103D01*
X174809383Y-54168000D01*
X174289061Y-54168000D01*
X174065595Y-54260563D01*
X173894562Y-54431596D01*
X173802000Y-54655062D01*
X173802000Y-55320000D01*
X173954000Y-55472000D01*
X175106000Y-55472000D01*
X175106000Y-55452000D01*
X175414000Y-55452000D01*
X175414000Y-55472000D01*
X176566000Y-55472000D01*
X176718000Y-55320000D01*
X176718000Y-54655062D01*
X176625438Y-54431596D01*
X176454405Y-54260563D01*
X176230939Y-54168000D01*
X175710617Y-54168000D01*
X176089103Y-53915103D01*
X176343276Y-53534707D01*
X176432529Y-53086000D01*
X176373905Y-52791275D01*
X179718604Y-56135975D01*
X179763233Y-56202767D01*
X179830025Y-56247396D01*
X179830026Y-56247397D01*
X179904840Y-56297386D01*
X180027856Y-56379583D01*
X180261211Y-56426000D01*
X180261216Y-56426000D01*
X180340000Y-56441671D01*
X180418784Y-56426000D01*
X182352085Y-56426000D01*
X182089799Y-56478172D01*
X181675498Y-56754998D01*
X181606675Y-56858000D01*
X180809504Y-56858000D01*
X180678788Y-56831999D01*
X180678783Y-56831999D01*
X180599999Y-56816328D01*
X180521215Y-56831999D01*
X176613843Y-56831999D01*
X176625438Y-56820404D01*
X176718000Y-56596938D01*
X176718000Y-55932000D01*
X176566000Y-55780000D01*
X175414000Y-55780000D01*
X175414000Y-55800000D01*
X175106000Y-55800000D01*
X175106000Y-55780000D01*
X173954000Y-55780000D01*
X173802000Y-55932000D01*
X173802000Y-56596938D01*
X173894562Y-56820404D01*
X174053223Y-56979065D01*
X174034708Y-56991437D01*
X173939232Y-57055232D01*
X173894602Y-57122025D01*
X173164027Y-57852601D01*
X173097235Y-57897230D01*
X173052606Y-57964022D01*
X173052604Y-57964024D01*
X172920419Y-58161853D01*
X172882812Y-58350917D01*
X172813575Y-58281680D01*
X172423245Y-58120000D01*
X172000755Y-58120000D01*
X171622881Y-58276521D01*
X172378402Y-57521000D01*
X172590320Y-57521000D01*
X172820034Y-57425849D01*
X172995849Y-57250034D01*
X173091000Y-57020320D01*
X173091000Y-56771680D01*
X172995849Y-56541966D01*
X172820034Y-56366151D01*
X172590320Y-56271000D01*
X172341680Y-56271000D01*
X172111966Y-56366151D01*
X171936151Y-56541966D01*
X171841000Y-56771680D01*
X171841000Y-56983598D01*
X167802600Y-61022000D01*
X161095953Y-61022000D01*
X161109877Y-60952000D01*
X161109877Y-59952000D01*
X161086593Y-59834946D01*
X161020288Y-59735712D01*
X160921054Y-59669407D01*
X160904000Y-59666015D01*
X160904000Y-59553044D01*
X165265757Y-59553044D01*
X165511139Y-60044577D01*
X165925944Y-60404791D01*
X166252958Y-60540231D01*
X166470000Y-60428523D01*
X166470000Y-59336000D01*
X166778000Y-59336000D01*
X166778000Y-60428523D01*
X166995042Y-60540231D01*
X167322056Y-60404791D01*
X167736861Y-60044577D01*
X167982243Y-59553044D01*
X167871565Y-59336000D01*
X166778000Y-59336000D01*
X166470000Y-59336000D01*
X165376435Y-59336000D01*
X165265757Y-59553044D01*
X160904000Y-59553044D01*
X160904000Y-59283370D01*
X161376414Y-58810956D01*
X165265757Y-58810956D01*
X165376435Y-59028000D01*
X166470000Y-59028000D01*
X166470000Y-57935477D01*
X166778000Y-57935477D01*
X166778000Y-59028000D01*
X167871565Y-59028000D01*
X167982243Y-58810956D01*
X167736861Y-58319423D01*
X167322056Y-57959209D01*
X166995042Y-57823769D01*
X166778000Y-57935477D01*
X166470000Y-57935477D01*
X166252958Y-57823769D01*
X165925944Y-57959209D01*
X165511139Y-58319423D01*
X165265757Y-58810956D01*
X161376414Y-58810956D01*
X168841371Y-51346000D01*
X174411451Y-51346000D01*
X174430897Y-51375103D01*
X174430897Y-51375103D01*
G37*
X174430897Y-51375103D02*
X174811293Y-51629276D01*
X175146739Y-51696000D01*
X175278630Y-51696000D01*
X175554725Y-51972095D01*
X175373261Y-51936000D01*
X175146739Y-51936000D01*
X174811293Y-52002724D01*
X174430897Y-52256897D01*
X174176724Y-52637293D01*
X174087471Y-53086000D01*
X174176724Y-53534707D01*
X174430897Y-53915103D01*
X174809383Y-54168000D01*
X174289061Y-54168000D01*
X174065595Y-54260563D01*
X173894562Y-54431596D01*
X173802000Y-54655062D01*
X173802000Y-55320000D01*
X173954000Y-55472000D01*
X175106000Y-55472000D01*
X175106000Y-55452000D01*
X175414000Y-55452000D01*
X175414000Y-55472000D01*
X176566000Y-55472000D01*
X176718000Y-55320000D01*
X176718000Y-54655062D01*
X176625438Y-54431596D01*
X176454405Y-54260563D01*
X176230939Y-54168000D01*
X175710617Y-54168000D01*
X176089103Y-53915103D01*
X176343276Y-53534707D01*
X176432529Y-53086000D01*
X176373905Y-52791275D01*
X179718604Y-56135975D01*
X179763233Y-56202767D01*
X179830025Y-56247396D01*
X179830026Y-56247397D01*
X179904840Y-56297386D01*
X180027856Y-56379583D01*
X180261211Y-56426000D01*
X180261216Y-56426000D01*
X180340000Y-56441671D01*
X180418784Y-56426000D01*
X182352085Y-56426000D01*
X182089799Y-56478172D01*
X181675498Y-56754998D01*
X181606675Y-56858000D01*
X180809504Y-56858000D01*
X180678788Y-56831999D01*
X180678783Y-56831999D01*
X180599999Y-56816328D01*
X180521215Y-56831999D01*
X176613843Y-56831999D01*
X176625438Y-56820404D01*
X176718000Y-56596938D01*
X176718000Y-55932000D01*
X176566000Y-55780000D01*
X175414000Y-55780000D01*
X175414000Y-55800000D01*
X175106000Y-55800000D01*
X175106000Y-55780000D01*
X173954000Y-55780000D01*
X173802000Y-55932000D01*
X173802000Y-56596938D01*
X173894562Y-56820404D01*
X174053223Y-56979065D01*
X174034708Y-56991437D01*
X173939232Y-57055232D01*
X173894602Y-57122025D01*
X173164027Y-57852601D01*
X173097235Y-57897230D01*
X173052606Y-57964022D01*
X173052604Y-57964024D01*
X172920419Y-58161853D01*
X172882812Y-58350917D01*
X172813575Y-58281680D01*
X172423245Y-58120000D01*
X172000755Y-58120000D01*
X171622881Y-58276521D01*
X172378402Y-57521000D01*
X172590320Y-57521000D01*
X172820034Y-57425849D01*
X172995849Y-57250034D01*
X173091000Y-57020320D01*
X173091000Y-56771680D01*
X172995849Y-56541966D01*
X172820034Y-56366151D01*
X172590320Y-56271000D01*
X172341680Y-56271000D01*
X172111966Y-56366151D01*
X171936151Y-56541966D01*
X171841000Y-56771680D01*
X171841000Y-56983598D01*
X167802600Y-61022000D01*
X161095953Y-61022000D01*
X161109877Y-60952000D01*
X161109877Y-59952000D01*
X161086593Y-59834946D01*
X161020288Y-59735712D01*
X160921054Y-59669407D01*
X160904000Y-59666015D01*
X160904000Y-59553044D01*
X165265757Y-59553044D01*
X165511139Y-60044577D01*
X165925944Y-60404791D01*
X166252958Y-60540231D01*
X166470000Y-60428523D01*
X166470000Y-59336000D01*
X166778000Y-59336000D01*
X166778000Y-60428523D01*
X166995042Y-60540231D01*
X167322056Y-60404791D01*
X167736861Y-60044577D01*
X167982243Y-59553044D01*
X167871565Y-59336000D01*
X166778000Y-59336000D01*
X166470000Y-59336000D01*
X165376435Y-59336000D01*
X165265757Y-59553044D01*
X160904000Y-59553044D01*
X160904000Y-59283370D01*
X161376414Y-58810956D01*
X165265757Y-58810956D01*
X165376435Y-59028000D01*
X166470000Y-59028000D01*
X166470000Y-57935477D01*
X166778000Y-57935477D01*
X166778000Y-59028000D01*
X167871565Y-59028000D01*
X167982243Y-58810956D01*
X167736861Y-58319423D01*
X167322056Y-57959209D01*
X166995042Y-57823769D01*
X166778000Y-57935477D01*
X166470000Y-57935477D01*
X166252958Y-57823769D01*
X165925944Y-57959209D01*
X165511139Y-58319423D01*
X165265757Y-58810956D01*
X161376414Y-58810956D01*
X168841371Y-51346000D01*
X174411451Y-51346000D01*
X174430897Y-51375103D01*
M02*
